<svg width="120" height="121" viewBox="0 0 120 121" fill="none" xmlns="http://www.w3.org/2000/svg">
<path fill-rule="evenodd" clip-rule="evenodd" d="M96.2533 100.97C107.45 90.9881 114.5 76.4552 114.5 60.2755C114.5 30.176 90.0995 5.77551 60 5.77551C29.9005 5.77551 5.5 30.176 5.5 60.2755C5.5 76.4476 12.5439 90.9745 23.731 100.956C29.0677 97.8365 40.6772 92.3664 49.6561 91.6539C47.0052 87.5513 41.4005 77.9451 40.1887 72.3403C38.5876 71.7013 35.1652 69.4413 34.2836 65.5142C33.1817 60.6052 34.2836 56.6382 36.8181 56.1974C35.459 46.684 35.3856 27.6793 45.9641 27.7675C46.9191 23.5985 52.2452 16.5112 65.9091 21.514C82.9891 27.7675 85.5236 34.1589 84.2012 56.1974C86.9227 56.8757 87.2952 61.58 86.1912 65.3796C85.0872 69.1793 82.5697 71.7913 80.5648 72.3403C79.0589 77.8146 72.7393 88.1696 70.3967 91.6539C79.2497 92.8477 90.3283 97.6268 96.2533 100.97Z" fill="#CFCFCF"/>
<circle cx="60" cy="60.8793" r="58.5" stroke="#CFCFCF" stroke-width="3"/>
</svg>
