<?xml version="1.0" standalone="no"?>
<!DOCTYPE svg PUBLIC "-//W3C//DTD SVG 20010904//EN"
 "http://www.w3.org/TR/2001/REC-SVG-20010904/DTD/svg10.dtd">
<svg version="1.0" xmlns="http://www.w3.org/2000/svg"
 width="318.000000pt" height="318.000000pt" viewBox="0 0 318.000000 318.000000"
 preserveAspectRatio="xMidYMid meet">
<metadata>
Created by potrace 1.14, written by Peter Selinger 2001-2017
</metadata>
<g transform="translate(0.000000,318.000000) scale(0.100000,-0.100000)"
fill="#000000" stroke="none">
<path d="M1435 3173 c-303 -35 -576 -143 -810 -321 -332 -251 -560 -646 -613
-1061 -13 -107 -7 -370 12 -476 59 -327 242 -668 469 -874 22 -20 56 -51 76
-69 113 -102 339 -229 512 -286 182 -61 291 -79 489 -80 229 -1 307 10 500 70
408 127 752 423 944 812 79 160 137 352 154 507 14 140 7 372 -17 492 -34 175
-109 375 -195 518 -84 139 -250 330 -371 426 -151 120 -394 246 -545 284 -8 2
-40 10 -70 18 -30 8 -75 18 -100 22 -25 4 -54 9 -65 12 -26 6 -330 11 -370 6z"/>
</g>
</svg>
