<svg width="48" height="48" viewBox="0 0 48 48" fill="none" xmlns="http://www.w3.org/2000/svg">
<path d="M48.0001 24.4008C48.0001 37.4605 37.385 47.9999 24.2315 47.9999C15.8086 47.9999 8.42424 43.6467 4.27051 37.1168C8.53962 43.1884 15.6933 47.198 23.6546 47.198C36.8081 47.198 47.4232 36.6586 47.4232 23.5989C47.4232 18.9019 46.0386 14.5487 43.731 10.8828C46.3847 14.6633 48.0001 19.3602 48.0001 24.4008Z" fill="#959798"/>
<path d="M47.4227 23.5992C47.4227 36.6589 36.8076 47.1983 23.6541 47.1983C15.5774 47.1983 8.53916 43.1887 4.27004 37.1171C1.50089 33.3367 0.000931772 28.6397 0.000931772 23.5992C-0.11445 10.5394 10.5006 0 23.6541 0C32.077 0 39.4614 4.35324 43.6151 10.8831C46.0381 14.549 47.4227 18.9022 47.4227 23.5992Z" fill="#C1CED5"/>
<path d="M41.5383 23.5989C41.5383 33.3364 33.5769 41.3556 23.6541 41.3556C20.0773 41.3556 16.7313 40.3245 13.9621 38.4916C9.0007 35.2839 5.77002 29.8997 5.77002 23.5989C5.77002 13.7469 13.8467 5.84229 23.6541 5.84229C27.6925 5.84229 31.5001 7.21699 34.5 9.50817C38.7691 12.7158 41.5383 17.871 41.5383 23.5989Z" fill="#959798"/>
<path d="M42.3461 24.1716C42.3461 33.9091 34.3848 41.9283 24.462 41.9283C20.8851 41.9283 17.5391 40.8972 14.7699 39.0643C14.5392 38.8352 14.3084 38.7206 14.0776 38.4915C16.8468 40.2099 20.0775 41.2409 23.6543 41.2409C33.5771 41.2409 41.5384 33.3363 41.5384 23.4843C41.5384 18.1 39.1154 13.2885 35.3078 9.96631C39.5769 13.4031 42.3461 18.4437 42.3461 24.1716Z" fill="#E1E7E8"/>
<path d="M41.5384 23.5988C41.5384 33.3363 33.577 41.3554 23.6542 41.3554C20.0774 41.3554 16.8467 40.3244 14.0776 38.606C14.0776 38.606 13.9622 38.606 13.9622 38.4914C9.69308 35.2838 7.03931 30.1286 7.03931 24.4007C6.92393 14.5486 15.0006 6.64404 24.808 6.64404C28.3849 6.64404 31.7309 7.67507 34.5001 9.50802C34.7309 9.73714 34.9616 9.85169 35.1924 10.0808C39.1153 13.403 41.5384 18.2145 41.5384 23.5988Z" fill="#BCBEC0"/>
<path d="M32.4228 35.1695H16.9617V32.5347L24.5769 24.2864C25.7307 23.0263 26.423 21.9953 26.8845 21.1933C27.346 20.3914 27.5768 19.5895 27.5768 18.673C27.5768 17.642 27.2306 16.7255 26.6537 16.0382C26.0768 15.3508 25.1538 15.0072 24.1153 15.0072C22.8461 15.0072 21.9231 15.3508 21.2308 16.1527C20.5385 16.9547 20.1924 17.9857 20.1924 19.2458H16.3848C16.3848 17.8711 16.7309 16.611 17.3078 15.4654C18.0001 14.3198 18.8078 13.5179 20.077 12.8305C21.2308 12.2577 22.6154 11.9141 24.1153 11.9141C26.3076 11.9141 28.1537 12.4869 29.4229 13.6324C30.6921 14.778 31.3843 16.2673 31.3843 18.2148C31.3843 19.3604 31.0382 20.506 30.4613 21.7661C29.769 23.0263 28.7306 24.401 27.2306 26.0048L21.6923 32.0764H32.3074V35.1695H32.4228Z" fill="#959798"/>
<path d="M31.9615 34.7115H16.5004V32.0767L24.1156 23.8284C25.2694 22.5683 25.9617 21.5372 26.4232 20.7353C26.8848 19.9334 27.1155 19.1315 27.1155 18.215C27.1155 17.184 26.7694 16.2675 26.1925 15.5802C25.6156 14.8928 24.6925 14.5491 23.6541 14.5491C22.3849 14.5491 21.4618 14.8928 20.7696 15.6947C20.0773 16.4966 19.7311 17.5277 19.7311 18.7878H16.1543C16.1543 17.4131 16.5004 16.153 17.0773 15.0074C17.7696 13.8618 18.5773 13.0599 19.8465 12.3725C21.0003 11.7997 22.3849 11.4561 23.8848 11.4561C26.0771 11.4561 27.9232 12.0288 29.1924 13.1744C30.4616 14.32 31.1539 15.8093 31.1539 17.7568C31.1539 18.9024 30.8077 20.048 30.2308 21.3081C29.5385 22.5683 28.5001 23.943 27.0002 25.5468L21.3465 31.5039H31.9615V34.7115Z" fill="#C1CED5"/>
</svg>
