<svg xmlns="http://www.w3.org/2000/svg" width="330" height="276" fill="none"><g clip-path="url(#a)"><path fill="#242625" d="M204.21 269.289c-48.333 10.364-107.812 12.459-113.091-21.501-4.805-30.936 40.26-44.521 40.26-44.521.433-.081.874-.171 1.324-.252.245 1.622.441 3.163.58 4.59 1.25 12.671-2.182 20.809-2.214 20.89l-.213.506.539.065s4.111.53 9.062 5.153c5.279 4.95 39.77 28.873 46.332 28.873h.065c4.266-.106 13.769-5.683 22.962-11.073 4.666-2.739 9.078-5.324 12.764-7.183 2.165-1.101 4.559-2.291 7.002-3.506 14.333-7.127 21.107-10.633 21.238-11.995.057-.603 1.176-11.032 2.753-24.054 1.324 1.525 4.756 5.031 10.64 7.861l.792.367a39.994 39.994 0 0 0 6.987 2.43c.286.725.531 1.475.727 2.25 5.311 20.874-20.175 40.729-68.509 51.1Z" opacity=".1"/><path fill="#fff" d="M327.001 155.005a37.335 37.335 0 0 0-1.038-2.87c-1.904-4.689-3.963-8.839-6.185-12.451-2.607-4.256-5.443-7.763-8.515-10.535-6.3-5.716-13.589-8.333-21.956-7.958-.785.815-1.553 1.631-2.043 2.666.253-1.141.874-2.201 1.471-3.188a.245.245 0 0 0 .032-.065c4.274-8.35 4.56-22.586.932-37.361a95.827 95.827 0 0 0-1.553-5.602 104.63 104.63 0 0 0-3.187-8.822 108.187 108.187 0 0 0-9.364-17.825 113.108 113.108 0 0 0-11.84-15.174 118.96 118.96 0 0 0-13.63-12.573 114.021 114.021 0 0 0-2.868-2.194l-.294-.22a116.385 116.385 0 0 0-2.844-2.022 103.66 103.66 0 0 0-15.762-8.92c-.172-.09-.352-.163-.523-.245a100.2 100.2 0 0 0-26.132-7.64c-.237-.04-.474-.073-.711-.106C194.094.922 186.895.604 179.59.962c-.221.008-.433.025-.654.033-7.419.391-15.174 1.5-23.059 3.286-.164.04-.335.073-.499.114h-.049c-8.367 1.916-16.825 4.566-25.846 8.089-.188.065-.368.138-.555.212l-.074.032c-6.112 2.414-12.118 5.912-17.879 10.43-.114.08-.237.178-.351.268-5.23 4.15-10.264 9.133-14.97 14.832-.082.09-.164.188-.237.277-8.033 9.76-12.347 18.29-12.388 18.37l-1.087 2.154.31-2.381c1.26-9.703-.718-17.393-5.18-20.067-2.68-1.614-6.071-1.158-9.536 1.288-6.496 4.59-9.421 15.566-11.767 24.38-1.119 4.191-2.083 7.812-3.252 10.152-.515 1.027-1.299 2.413-2.288 4.166-3.432 6.108-8.956 15.909-12.673 27.088-.156.032-.303.081-.458.13.139 0 .27-.008.409-.008-2.885 8.7-4.675 18.224-3.547 27.478.057.449.123.897.196 1.346a63.869 63.869 0 0 1 4.821-.579c1.847-.204 4.421-.09 6.284-.139-3.702.253-7.387.547-10.999 1.28 4.16 21.845 32.923 34.785 71.001 31.613a72.554 72.554 0 0 0 7.371-.987c.073-.016.147-.024.212-.04 13.042-2.487 21.875-8.211 27.685-13.829-14.635-9.703-32.277-15.085-49.412-18.037 17.511 2.104 35.251 7.534 49.869 17.588 6.946-6.914 9.348-13.535 9.389-13.658l.768.261c-.04.123-2.467 6.841-9.478 13.862a79.983 79.983 0 0 1 7.95 6.352 66.502 66.502 0 0 1 6.194 6.767c-4.339-4.876-9.258-9.067-14.594-12.671a49.781 49.781 0 0 1-5.981 4.974c-5.426 3.841-12.511 7.257-21.679 9.075 3.138 2.895 8 5.863 13.205 8.04a61.15 61.15 0 0 0 14.431 4.028c13.017 1.941 30.838 4.607 54.756.473 22.986-3.979 64.145-19.985 64.562-20.148 4.886-2.071 8.71-4.64 11.685-7.281 3.44-3.042 5.752-6.189 7.272-8.798l.098-.172h.025c1.152-2.715 1.896-5.764 3.497-8.292-1.34 2.609-1.773 5.398-2.631 8.17 4.078-.457 8.261.897 11.579 3.8.392.342.768.701 1.119 1.076 2.329 2.422 3.996 5.561 4.936 9.23.678 2.609.989 5.488.907 8.57v.196c-.09 2.837-.352 5.291-.776 7.395-.515 2.552-1.259 4.607-2.182 6.27-2.141 3.825-5.246 5.553-8.801 6.385-1.846.44-3.824.636-5.842.75-.041 0-.09.008-.131.008-3.481.163-6.374-1.231-9.119-2.772-.368-.212-.736-.416-1.103-.628-4.347-2.462-8.45-4.803-14.129-1.166 0 .008-.008.008-.008.008-.049.375-.106.75-.155 1.134-.131.937-.27 1.891-.4 2.878-.098.677-.188 1.37-.286 2.071-.09.701-.188 1.419-.286 2.144-.131.995-.27 2.023-.401 3.058 0 .016 0 .025-.008.041-.131 1.027-.261 2.071-.4 3.131-.205 1.598-.409 3.237-.621 4.917-.041.367-.09.742-.139 1.117-.041.342-.09.693-.131 1.044-.123.994-.245 1.997-.368 3.016.605.791 4.029 4.966 10.844 8.236a38.088 38.088 0 0 0 7.027 2.585c3.44.929 7.42 1.516 11.963 1.533 3.644.016 7.665-.343 12.069-1.207 4.723-.922 8.768-2.536 12.216-4.558a36.786 36.786 0 0 0 5.467-3.89c4.216-3.604 7.215-7.754 9.299-11.48.114-.196.22-.383.318-.571 4.143-7.632 6.276-16.552 6.276-25.204 0-5.055-.727-10.021-2.19-14.595ZM72.978 138.893h-.482c-2.492-.049-4.412-1.223-5.842-2.838-.728.881-2.607 2.838-5.107 2.838h-.009c-3.154 0-5.433-3.017-5.523-3.147l.653-.49s2.133 2.822 4.87 2.822h.009c2.271 0 4.036-1.99 4.567-2.675-2.1-2.748-3.015-6.401-3.203-8.146a2.546 2.546 0 0 1 0-.66c-1.013-.375-2.868-1.142-3.98-2.03-.539-.424-.898-.881-.898-1.329 0-.808 1.34-1.248 3.971-1.33.254 0 5.671-.138 6.48 1.485a.83.83 0 0 1 .106.375c.074 1.19-1.225 1.41-2.378 1.598-1.642.277-2.63.538-2.492 1.81.302 2.797 2.558 10.796 8.793 10.902 5.817.106 6.226-1.623 6.226-1.639l.81.098c-.026.244-.434 2.356-6.57 2.356Z"/><path fill="#242625" d="M37.098 103.815c.139 0 .27-.008.408-.008.017-.041.025-.082.05-.122-.156.032-.303.081-.458.13Zm141.936 75.546c.008.13.008.26.016.399h.017c-.008-.13-.025-.269-.033-.399Z"/><path fill="#D2D2D2" d="M319.778 139.684c-7.338 11.79-18.288 14.375-21.687 14.905-.94-3.669-2.607-6.809-4.936-9.23 4.307-1.721 14.807-6.801 18.108-16.21 3.072 2.772 5.908 6.278 8.515 10.535ZM329.191 169.6c-12.968 9.728-27.881 2.773-30.969 1.15.425-2.104.686-4.558.776-7.396v-.195c4.543.456 19.374 1.125 28.003-8.154 1.463 4.574 2.19 9.54 2.19 14.595ZM322.597 195.375c-2.084 3.726-5.083 7.876-9.299 11.48a36.786 36.786 0 0 1-5.467 3.89c-14.055-3.294-19.284-21.559-20.592-27.34 3.555-.832 6.66-2.56 8.801-6.384 2.043 4.843 9.47 18.835 26.557 18.354ZM283.546 216.509c-4.543-.016-8.523-.603-11.963-1.533a38.162 38.162 0 0 1-7.027-2.584c-.205-2.055-.262-4.045-.205-5.945.36-12.605 5.573-21.73 7.796-25.056 2.745 1.541 5.638 2.935 9.119 2.772-1.495 5.455-4.511 20.156 2.28 32.346Z"/><path fill="#FDE3D8" d="M78.804 52.593c-.057 2.535-.547 5.014-1.495 7.077-2.345 5.088-9.332 7.167-14.512 7.42-2.828.13-5.116-.269-5.843-1.02-1.446-1.5 5.132-27.755 13.025-27.959 5.826-.155 9.022 7.371 8.825 14.482Z"/><path fill="#242625" d="M79.548 136.536c-.024.245-.433 2.357-6.57 2.357h-.482c-2.492-.049-4.412-1.223-5.842-2.838-.727.881-2.607 2.838-5.107 2.838h-.008c-3.155 0-5.434-3.017-5.524-3.148l.653-.489s2.133 2.821 4.87 2.821h.009c2.271 0 4.036-1.989 4.567-2.674-2.1-2.748-3.015-6.401-3.203-8.146a2.541 2.541 0 0 1 0-.66c-1.013-.375-2.868-1.142-3.98-2.031-.538-.424-.898-.88-.898-1.329 0-.807 1.34-1.247 3.971-1.329.254 0 5.671-.138 6.48 1.484a.834.834 0 0 1 .106.375c.074 1.191-1.225 1.411-2.377 1.598-1.643.278-2.632.539-2.493 1.811.303 2.796 2.558 10.795 8.793 10.901 5.818.106 6.226-1.622 6.226-1.639l.81.098Z"/><path fill="#EBEBEB" d="M70.731 143.785c-8.36.335-14.978-5.862-15.934-10.624-.752-3.783.695-6.972 4.135-8.594 1.11.889 2.966 1.655 3.979 2.03a2.558 2.558 0 0 0 0 .661c.188 1.744 1.103 5.397 3.203 8.145-.53.685-2.296 2.675-4.568 2.675h-.008c-2.737 0-4.845-2.789-4.87-2.822 0 0 1.716 3.637 4.87 3.637h.008c2.5 0 4.38-1.957 5.107-2.837 1.43 1.614 3.35 2.788 5.843 2.837h.482c6.137 0 5.76-2.454 5.76-2.454 0 .016-.408 1.745-6.226 1.639-6.234-.106-8.49-8.105-8.792-10.902-.139-1.272.85-1.533 2.492-1.81 1.152-.188 2.452-.408 2.378-1.598a.829.829 0 0 0-.106-.375c4.698.497 8.36 2.576 10.655 5.667 3.588 4.81.768 14.358-8.408 14.725Z"/><path fill="#D2D2D2" d="M289.699 83.243c-1.152 2.348-3.228 5.406-6.962 8.455-7.232 5.928-16.621 1.68-10.182-4.33 8.866-8.284 11.579-15.133 12.405-18.55a104.6 104.6 0 0 1 3.186 8.823 95.07 95.07 0 0 1 1.553 5.602ZM275.595 50.994c-.678 5.61-2.884 17.873-9.691 24.967-6.529 6.8-13.442.563-8.711-7.281 4.111-6.809 7.984-22.146 6.562-32.86a113.102 113.102 0 0 1 11.84 15.174ZM242.615 53c-4.257 7.934-11.93 2.267-10.132-7.175 1.577-8.285 1.847-25.367-4.127-35.934a103.624 103.624 0 0 1 15.763 8.92c.923.636 1.855 1.296 2.844 2.022l.294.22c.31 3.237 1.585 20.344-4.642 31.947ZM207.789 43.713c-2.639-5.186-2.427-10.804-10.647-25.823C192.59 9.59 185.253 4.159 179.59.962c7.305-.358 14.504-.04 21.401.938.237.033.474.065.711.106 9.911 7.82 14.569 23.304 14.847 33.716.31 11.668-6.129 13.177-8.76 7.991ZM183.708 59.385c-3.464-7.119-7.501-20.695-25.739-33.676-10.721-7.632-20.731-11.39-28.486-13.226 9.022-3.522 17.479-6.172 25.846-8.08h.049c.164-.049.335-.081.499-.122 21.401 10.632 35.488 37.271 38.855 51.173 3.955 16.373-7.24 11.71-11.024 3.93ZM165.029 75.431c-4.184 0-6.121-4.468-11.228-10.812-.073-.098-.155-.187-.229-.285l-.212-.261a69.12 69.12 0 0 0-2.713-3.107c-3.465-3.742-8.139-7.893-14.864-12.035-.4-.253-.8-.497-1.217-.742-.074-.049-.147-.09-.229-.139-.016-.008-.033-.016-.049-.032-.123-.065-.237-.139-.36-.204-15.117-8.806-29.988-9.858-38.274-9.556 4.707-5.7 9.74-10.682 14.97-14.832.114-.09.237-.188.351-.27 19.963 1.46 37.825 13.047 46.495 23.027 10.182 11.71 14.913 29.248 7.559 29.248Z"/><path fill="#EBEBEB" d="M272.196 149.574c-2.975 2.642-6.799 5.211-11.685 7.282-.417.163-41.576 16.169-64.562 20.148-23.918 4.134-41.739 1.468-54.756-.473a61.185 61.185 0 0 1-14.431-4.028c-5.205-2.177-10.067-5.145-13.205-8.04 9.168-1.818 16.253-5.234 21.679-9.075 4.322 3.245 22.373 14.22 62.028 7.697 43.864-7.2 42.753-18.55 74.932-13.511Z"/><path fill="#2AA6DD" d="M186.822 262.555a.622.622 0 0 1-.033-.172c.008.025.016.049.016.074 0 .032.017.065.017.098ZM179.067 179.76h-.016c0-.138 0-.269-.017-.399.008.13.025.269.033.399Z"/><path fill="#2AA6DD" d="m186.789 262.383-.025-.089v-.017c-6.112-.057-40.113-23.385-45.743-28.644-4.184-3.914-7.722-5.007-9.013-5.284.719-1.94 3.195-9.67 2.1-20.825a104.936 104.936 0 0 0-.596-4.672c-.499-3.278-1.169-6.865-1.896-10.396-1.659-8.032-3.604-15.778-4.405-18.893.107.041.221.09.327.123a53.318 53.318 0 0 0 4.07 1.451c.326.106.645.204.972.302a60.427 60.427 0 0 0 6.439 1.541l.703.122c.073.025.147.033.22.041.376.073.76.13 1.144.188 8.441 1.263 18.909 2.829 31.746 2.65.67-.009 1.348-.025 2.035-.041.106 0 .22-.008.327-.008.58-.017 1.16-.041 1.748-.066.115 0 .237-.008.352-.016.498-.016.997-.041 1.503-.073.082 0 .172-.008.262-.017.204 5.031.367 10.869.514 16.846.172 6.344.311 12.843.434 18.664v.025c.049 2.104.089 4.109.138 5.993.221 4.509 1.251 8.912 2.043 13.34a85.281 85.281 0 0 1 .368 2.209c.237 2.977.596 5.945 1.046 8.896-1.381-1.084-2.705-2.666-4.053-3.914 1.087 1.713 2.223 3.458 3.832 4.738.123.073.245.147.376.187.736 4.721 1.683 9.41 2.689 14.066.008.024.008.041.016.065.033.147.057.285.098.432.09.4.163.734.212.97h.009s.016.074.016.106h-.008Z"/><path fill="#2AA6DD" d="M259.98 157.94c-.973 3.091-2.256 10.201-3.825 21.184l-.024.18c-.106.766-.221 1.549-.335 2.348-.074.562-.155 1.133-.237 1.72-.204 1.476-.409 3.017-.621 4.607a885.521 885.521 0 0 0-.899 6.923c-.245 1.924-.498 3.914-.752 5.96-.13 1.101-.269 2.226-.408 3.36a1.02 1.02 0 0 0-.017.155c-1.626 13.405-2.794 24.257-2.851 24.853-.45 1.255-12.208 7.102-20.788 11.366-2.452 1.223-4.846 2.414-7.02 3.506-3.701 1.884-8.122 4.469-12.804 7.216-9.103 5.341-18.516 10.861-22.561 10.959h-.066c-.89-5.202-1.797-10.396-2.5-15.614 1.332-.742 2.255-2.218 3.211-3.343a30.18 30.18 0 0 0 2.092-3.058 66.039 66.039 0 0 0-2.574 2.65c-.948.954-1.822 2.071-2.843 2.886a139.467 139.467 0 0 1-.907-9.051c-.752-5.185-2.076-10.273-2.297-15.516-.236-8.211-.441-16.447-.808-24.674-.262-5.61-.589-11.211-1.079-16.797.662-.041 1.332-.081 2.002-.13.58-.041 1.16-.082 1.74-.131 1.054-.081 2.117-.179 3.195-.293 1.128-.123 2.272-.253 3.432-.408.728-.09 1.455-.188 2.182-.294.482-.065.972-.138 1.463-.212.425-.065.85-.13 1.283-.203.572-.09 1.152-.188 1.732-.286 2.525-.432 5.262-1.019 8.139-1.704a250.745 250.745 0 0 0 6.332-1.614l1.945-.539c.727-.195 1.455-.407 2.19-.619.646-.188 1.299-.375 1.953-.563 2.116-.62 4.241-1.264 6.357-1.924.752-.237 1.504-.473 2.248-.71.016 0 .032-.008.04-.008.654-.204 1.308-.416 1.962-.628.572-.187 1.144-.366 1.716-.554.089-.024.179-.057.269-.09.654-.212 1.308-.432 1.961-.644.866-.285 1.716-.571 2.558-.848.752-.253 1.495-.505 2.231-.758.032-.008.065-.016.106-.033.703-.236 1.389-.481 2.075-.717 1.283-.432 2.534-.865 3.743-1.297.4-.138.809-.285 1.201-.424 1.585-.554 3.097-1.101 4.527-1.614l.809-.294c.711-.253 1.389-.497 2.051-.742.564-.212 1.111-.407 1.634-.595.262-.098.531-.196.785-.294l1.389-.513c.245-.09.482-.18.711-.269.253-.09.498-.188.743-.278.638-.236 1.226-.456 1.757-.66.36-.13.687-.253.981-.367.286-.114.547-.212.776-.302.262-.097.498-.187.695-.261Z"/><path fill="#242625" d="M254.08 201.14c-.123.995-.245 1.998-.368 3.017.131-1.019.253-2.022.376-3.017l.123-1.044c-.041.343-.09.693-.131 1.044Zm0 0c-.123.995-.245 1.998-.368 3.017.131-1.019.253-2.022.376-3.017l.123-1.044c-.041.343-.09.693-.131 1.044Zm2.827-21.535c-.049.376-.106.751-.155 1.134.057-.383.106-.767.163-1.142 0 .008-.008.008-.008.008Zm-77.873-.244c.008.13.008.261.017.399h.016c-.008-.13-.025-.269-.033-.399Zm7.771 83.096s-.008-.049-.016-.074c0 .058.016.115.032.172a.41.41 0 0 0-.016-.098Zm-.033-.18h-.016v.017c.008.032.008.057.025.089a.498.498 0 0 0-.017-.106h.008Zm70.135-82.672c-.049.376-.106.751-.155 1.134.057-.383.106-.767.163-1.142 0 .008-.008.008-.008.008Zm-2.827 21.535c-.123.995-.245 1.998-.368 3.017.131-1.019.253-2.022.376-3.017l.123-1.044c-.041.343-.09.693-.131 1.044Zm2.827-21.535c-.049.376-.106.751-.155 1.134.057-.383.106-.767.163-1.142 0 .008-.008.008-.008.008Zm-2.827 21.535c-.123.995-.245 1.998-.368 3.017.131-1.019.253-2.022.376-3.017l.123-1.044c-.041.343-.09.693-.131 1.044Zm2.827-21.535c-.049.376-.106.751-.155 1.134.057-.383.106-.767.163-1.142 0 .008-.008.008-.008.008Z"/><path fill="#219BD1" d="M186.437 260.809c-.67-2.846-2.157-8.227-4.355-11.113-3.072-4.045-5.246-9.182-1.414-9.435 1.872-.13 1.962-2.307 1.537-5.487.122.685.237 1.37.343 2.063.237 2.976.596 5.944 1.046 8.896-1.381-1.085-2.705-2.667-4.053-3.914 1.087 1.712 2.222 3.457 3.832 4.737.123.074.245.147.376.188.735 4.721 1.683 9.409 2.688 14.065ZM179.999 215.27c-.817-5.936-2.076-11.032-2.076-11.032-10.312-.18-19.636-2.006-27.292-4.24-8.997-2.618-15.705-5.806-19.023-7.543-1.659-8.031-3.604-15.777-4.404-18.892.106.041.22.09.326.122 1.006.408 2.019.775 3.04 1.117.343.115.687.229 1.03.335a60 60 0 0 0 7.411 1.842l.703.123c.073.024.147.032.221.041.375.073.76.13 1.144.187 8.441 1.264 18.908 2.829 31.745 2.65.67-.008 1.349-.024 2.035-.041.106 0 .221-.008.327-.008.58-.016 1.16-.041 1.748-.065.115 0 .237-.008.352-.016.498-.017.997-.041 1.503-.074.082 0 .172-.008.262-.016.204 5.031.368 10.869.515 16.846.171 6.343.31 12.842.433 18.664ZM259.98 157.94c-.973 3.091-2.256 10.201-3.825 21.184l-.024.18c-.106.766-.221 1.549-.335 2.348-.074.562-.155 1.133-.237 1.72-.204 1.476-.409 3.017-.621 4.607a885.521 885.521 0 0 0-.899 6.923c-.245 1.924-.498 3.914-.752 5.96-.13 1.101-.269 2.226-.408 3.36a1.02 1.02 0 0 0-.017.155c-1.626 13.405-2.794 24.257-2.851 24.853-.45 1.255-12.208 7.102-20.788 11.366-2.452 1.223-4.846 2.414-7.02 3.506-3.701 1.884-8.122 4.469-12.804 7.216-9.103 5.341-18.516 10.861-22.561 10.959h-.066c-.89-5.202-1.797-10.396-2.5-15.614 1.332-.742 2.255-2.218 3.211-3.343a30.18 30.18 0 0 0 2.092-3.058 66.039 66.039 0 0 0-2.574 2.65c-.948.954-1.822 2.071-2.843 2.886a139.467 139.467 0 0 1-.907-9.051c-.752-5.185-2.076-10.273-2.297-15.516-.236-8.211-.441-16.447-.808-24.674-.262-5.61-.589-11.211-1.079-16.797.662-.041 1.332-.081 2.002-.13.58-.041 1.16-.082 1.74-.131 1.054-.081 2.117-.179 3.195-.293 1.128-.123 2.272-.253 3.432-.408.728-.09 1.455-.188 2.182-.294.482-.065.972-.138 1.463-.212.425-.065.85-.13 1.283-.203.572-.09 1.152-.188 1.732-.286 2.525-.432 5.262-1.019 8.139-1.704a250.745 250.745 0 0 0 6.332-1.614l1.945-.539c.727-.195 1.455-.407 2.19-.619.646-.188 1.299-.375 1.953-.563 2.116-.62 4.241-1.264 6.357-1.924.752-.237 1.504-.473 2.248-.71.016 0 .032-.008.04-.008.654-.204 1.308-.416 1.962-.628.572-.187 1.144-.366 1.716-.554.089-.024.179-.057.269-.09.654-.212 1.308-.432 1.961-.644.866-.285 1.716-.571 2.558-.848.752-.253 1.495-.505 2.231-.758.032-.008.065-.016.106-.033.703-.236 1.389-.481 2.075-.717 1.283-.432 2.534-.865 3.743-1.297.4-.138.809-.285 1.201-.424 1.585-.554 3.097-1.101 4.527-1.614l.809-.294c.711-.253 1.389-.497 2.051-.742.564-.212 1.111-.407 1.634-.595.262-.098.531-.196.785-.294l1.389-.513c.245-.09.482-.18.711-.269.253-.09.498-.188.743-.278.638-.236 1.226-.456 1.757-.66.36-.13.687-.253.981-.367.286-.114.547-.212.776-.302.262-.097.498-.187.695-.261ZM137.369 209.962c-2.019 1.639-3.302 12.745-1.496 12.745s9.193-5.325 8.596-9.247c-.596-3.922-5.85-4.517-7.092-3.506l-.008.008Z"/><path fill="#242625" d="M141.332 213.468c-.401 3.025-2.533 6.646-5.908 6.784 2.892-1.231 4.396-4.215 5.908-6.784ZM67.52 144.886c1.52.652 2.492 1.533 3.988 2.209-1.61.514-3.35-.774-3.988-2.209ZM86.314 113.323c10.492-2.341 33.78-4.95 42.458 1.997-3.146-1.761-6.749-2.169-10.271-2.519-3.546-.286-7.109-.351-10.68-.302-7.15.065-14.3.514-21.499.824h-.008ZM61.326 111.683c-7.428-3.995-15.19-8.039-23.82-7.876-.138 0-.269.008-.408.008.155-.049.303-.098.458-.131 8.392-2.413 17.813 2.177 23.77 7.999Z"/><path fill="#242625" d="M326.715 151.825c-8.8-21.673-20.878-31.988-36.91-31.466 4.584-9.695 4.257-26.434-.874-42.962-4.609-14.824-14.986-36.358-38.299-54.786-1.177-.93-2.223-1.72-3.187-2.43a89.46 89.46 0 0 0-2.868-2.039 104.187 104.187 0 0 0-16.408-9.246c-8.539-3.824-17.65-6.45-27.064-7.803-7.158-1.02-14.627-1.33-22.218-.913-7.599.407-15.558 1.549-23.648 3.408h-.049c-8.571 1.965-17.233 4.688-26.483 8.325l-.082.033c-6.333 2.486-12.559 6.14-18.508 10.844-5.36 4.248-10.516 9.369-15.338 15.224-5.875 7.142-9.772 13.64-11.488 16.69.768-9.05-1.39-16.152-5.794-18.794-2.983-1.794-6.692-1.321-10.435 1.32-6.741 4.77-9.7 15.9-12.085 24.846-1.103 4.142-2.06 7.73-3.195 9.996-.499 1.003-1.283 2.381-2.264 4.126-6.16 10.95-18.99 33.724-16.375 55.185.057.465.123.93.212 1.387-12.6 2.217-24.603 8.414-33.355 17.726 9.152-8.431 20.682-14.408 32.865-17.001.196-.049.392-.089.588-.13 4.258 22.26 33.372 35.461 71.876 32.256a75.93 75.93 0 0 0 7.248-.962c1.626 1.582 5.957 5.259 13.687 8.513.948 3.653 4.755 18.607 6.439 29.843.245 1.623.441 3.164.58 4.591 1.25 12.671-2.182 20.808-2.215 20.89l-.212.505.539.066s4.111.53 9.062 5.153c5.279 4.949 39.77 28.873 46.332 28.873h.065c4.266-.106 13.769-5.684 22.962-11.073 4.666-2.74 9.078-5.325 12.763-7.184 2.166-1.101 4.56-2.291 7.003-3.506 14.333-7.126 21.107-10.633 21.238-11.994.057-.604 1.176-11.033 2.753-24.054 1.324 1.525 4.756 5.031 10.639 7.86l.793.367a39.83 39.83 0 0 0 6.987 2.43c3.35.84 7.19 1.37 11.529 1.386h.956c3.449-.041 7.216-.416 11.301-1.215 4.928-.962 9.128-2.666 12.699-4.794.122-.066.237-.131.351-.212 7.305-4.436 11.947-10.641 14.798-15.9 7.191-13.259 8.409-30.276 3.089-43.371v-.008Zm-73.428 49.037c-.13 1.101-.269 2.226-.408 3.36a1.02 1.02 0 0 0-.017.155c-1.626 13.405-2.794 24.257-2.851 24.853-.45 1.255-12.208 7.102-20.788 11.366-2.452 1.223-4.846 2.414-7.019 3.506-3.702 1.884-8.123 4.469-12.805 7.216-9.103 5.341-18.516 10.861-22.561 10.959h-.065s.016.074.016.106c.008.025.016.049.016.074 0 .032.017.065.017.097a.609.609 0 0 1-.033-.171c-.016-.032-.016-.057-.025-.089v-.017c-6.112-.057-40.113-23.385-45.743-28.644-4.184-3.914-7.722-5.007-9.013-5.284.719-1.941 3.195-9.67 2.1-20.825a104.936 104.936 0 0 0-.596-4.672c-.499-3.278-1.169-6.866-1.896-10.396-1.659-8.032-3.604-15.778-4.404-18.893.106.041.22.09.326.123a53.6 53.6 0 0 0 4.07 1.451c.327.106.645.204.972.302a60.427 60.427 0 0 0 6.439 1.541l.703.122c.073.024.147.033.221.041.375.073.759.13 1.144.187 8.441 1.264 18.908 2.83 31.745 2.65.67-.008 1.349-.024 2.035-.04.106 0 .221-.009.327-.009.58-.016 1.16-.04 1.748-.065.115 0 .237-.008.352-.016.498-.016.997-.041 1.503-.073.082 0 .172-.009.262-.017 0-.138 0-.269-.017-.399.009.13.025.269.033.399.662-.041 1.332-.081 2.002-.13.58-.041 1.16-.082 1.741-.131 1.054-.081 2.116-.179 3.195-.293 1.127-.123 2.271-.253 3.432-.408.727-.09 1.454-.187 2.181-.293.482-.066.973-.139 1.463-.212.425-.066.85-.131 1.283-.204.572-.09 1.152-.188 1.732-.286 2.525-.432 5.263-1.019 8.139-1.704a250.81 250.81 0 0 0 6.333-1.614c.645-.18 1.291-.359 1.944-.539.728-.195 1.455-.407 2.19-.619.646-.188 1.3-.375 1.953-.563a384.19 384.19 0 0 0 6.358-1.924c.751-.237 1.503-.473 2.247-.71.016 0 .032-.008.041-.008.653-.204 1.307-.416 1.961-.628.572-.187 1.144-.366 1.716-.554.09-.024.18-.057.269-.09.654-.212 1.308-.432 1.962-.644.866-.285 1.716-.571 2.557-.848.752-.253 1.496-.505 2.231-.758a.659.659 0 0 0 .106-.033c.703-.236 1.389-.481 2.076-.717 1.283-.432 2.533-.865 3.742-1.297.401-.138.809-.285 1.201-.424 1.586-.554 3.097-1.101 4.527-1.614l.809-.294c.711-.253 1.389-.497 2.051-.742.564-.212 1.112-.407 1.635-.595.261-.098.531-.196.784-.294l1.389-.513c.245-.09.482-.18.711-.269.253-.09.498-.188.744-.278a159.52 159.52 0 0 0 1.756-.66c.36-.13.687-.253.981-.367.286-.114.548-.212.776-.302.262-.097.499-.187.695-.261-.973 3.091-2.255 10.201-3.824 21.184l-.025.18c-.106.766-.22 1.549-.335 2.348-.073.563-.155 1.133-.237 1.72-.204 1.476-.408 3.017-.621 4.607a943.155 943.155 0 0 0-.899 6.923 1643.99 1643.99 0 0 0-.751 5.96h-.009Zm7.69-43.313c10.516-4.493 16.179-11.252 19.096-16.193 3.996-.604 8.155.676 11.424 3.538 4.551 3.971 6.929 10.519 6.684 18.428-.548 17.645-7.943 19.504-16.833 20.018-3.759.212-6.88-1.558-9.904-3.278-4.224-2.397-8.58-4.884-14.381-1.509 1.642-11.431 2.958-18.493 3.914-21.004Zm61.938 37.255c-.098.188-.204.375-.318.571-2.084 3.726-5.083 7.876-9.299 11.48a36.786 36.786 0 0 1-5.467 3.89c-3.448 2.022-7.493 3.636-12.216 4.558-4.404.864-8.425 1.223-12.069 1.207-4.543-.017-8.523-.604-11.963-1.533a38.088 38.088 0 0 1-7.027-2.585c-6.815-3.27-10.239-7.445-10.844-8.227.123-1.028.245-2.031.368-3.025.041-.351.09-.702.131-1.044.049-.375.098-.75.139-1.117.212-1.68.416-3.319.621-4.909.13-1.068.269-2.112.4-3.139.008-.016.008-.024.008-.041.131-1.035.27-2.063.401-3.057.098-.726.196-1.444.286-2.145.098-.701.188-1.394.286-2.071.13-.987.269-1.941.4-2.878.049-.384.106-.759.155-1.134 0 0 .008 0 .008-.008 5.68-3.637 9.782-1.296 14.129 1.166.367.212.735.416 1.103.628 2.745 1.541 5.638 2.935 9.119 2.772.041 0 .09-.008.131-.008 2.018-.114 3.996-.31 5.842-.75 3.555-.832 6.66-2.56 8.801-6.384.923-1.664 1.667-3.719 2.182-6.271.425-2.104.686-4.558.776-7.395v-.196c.082-3.082-.229-5.961-.907-8.57-.94-3.669-2.607-6.808-4.936-9.23a15.397 15.397 0 0 0-1.119-1.076c-3.318-2.903-7.501-4.257-11.579-3.8.858-2.772 1.291-5.561 2.631-8.17-1.601 2.528-2.345 5.577-3.497 8.292h-.025l-.098.172c-1.519 2.609-3.832 5.756-7.272 8.798-2.975 2.641-6.799 5.21-11.685 7.281-.417.163-41.576 16.169-64.562 20.148-23.918 4.134-41.739 1.468-54.756-.473a61.15 61.15 0 0 1-14.431-4.028c-5.205-2.177-10.067-5.145-13.205-8.039 9.169-1.819 16.253-5.235 21.679-9.076a49.781 49.781 0 0 0 5.981-4.974c5.336 3.604 10.255 7.796 14.594 12.672a66.406 66.406 0 0 0-6.194-6.768 79.983 79.983 0 0 0-7.95-6.352c7.011-7.02 9.438-13.739 9.478-13.862l-.768-.26c-.04.122-2.443 6.743-9.389 13.657-14.618-10.053-32.358-15.484-49.87-17.588 17.136 2.952 34.778 8.334 49.413 18.037-5.81 5.618-14.643 11.342-27.685 13.829-.065.016-.139.024-.212.04a72.554 72.554 0 0 1-7.371.987c-38.078 3.172-66.841-9.768-71-31.612 3.611-.734 7.297-1.028 10.998-1.281-1.863.049-4.437-.065-6.284.139-1.61.13-3.22.326-4.82.579a38.238 38.238 0 0 1-.197-1.346c-1.127-9.254.662-18.778 3.547-27.478-.14 0-.27.008-.41.008.156-.049.303-.098.459-.13 3.718-11.18 9.241-20.98 12.673-27.087.989-1.754 1.773-3.14 2.288-4.167 1.169-2.34 2.133-5.96 3.252-10.152 2.346-8.814 5.271-19.789 11.767-24.38 3.465-2.446 6.856-2.902 9.536-1.288 4.462 2.675 6.44 10.364 5.18 20.067l-.31 2.38 1.087-2.152c.041-.081 4.355-8.61 12.388-18.37.073-.09.155-.188.237-.278 4.707-5.7 9.74-10.681 14.97-14.832.114-.09.237-.187.351-.269 5.761-4.517 11.767-8.015 17.879-10.429l.074-.032c.188-.074.367-.147.555-.212 9.021-3.523 17.479-6.173 25.846-8.08h.049c.164-.05.335-.082.499-.123 7.885-1.786 15.64-2.895 23.059-3.286.221-.008.433-.024.654-.033 7.305-.358 14.504-.04 21.401.938.237.033.474.065.711.106a100.2 100.2 0 0 1 26.132 7.64c.171.082.351.155.523.245a103.661 103.661 0 0 1 15.762 8.92c.923.636 1.855 1.297 2.844 2.022l.294.22c.874.653 1.822 1.362 2.868 2.194a118.95 118.95 0 0 1 13.63 12.573 113.107 113.107 0 0 1 11.84 15.174 108.279 108.279 0 0 1 9.365 17.825 104.602 104.602 0 0 1 3.186 8.822 95.027 95.027 0 0 1 1.553 5.602c3.628 14.775 3.342 29.011-.932 37.361a.245.245 0 0 1-.032.065c-.597.987-1.218 2.047-1.471 3.188.49-1.035 1.258-1.851 2.043-2.666 8.367-.375 15.656 2.242 21.956 7.958 3.073 2.773 5.908 6.279 8.515 10.535 2.222 3.612 4.281 7.762 6.185 12.451.384.938.728 1.892 1.038 2.87 1.463 4.574 2.19 9.54 2.19 14.595 0 8.652-2.133 17.572-6.276 25.204Z"/><path fill="#242625" d="M184.272 246.662c.703 5.219 1.61 10.413 2.5 15.615h-.008a59.177 59.177 0 0 0-.212-.97c-.041-.147-.066-.286-.098-.433 0-.024 0-.04-.017-.065-1.005-4.656-1.953-9.344-2.688-14.065a1.786 1.786 0 0 1-.376-.188c-1.61-1.28-2.745-3.025-3.832-4.737 1.348 1.247 2.672 2.829 4.053 3.914-.45-2.952-.809-5.92-1.046-8.896a85.281 85.281 0 0 0-.368-2.21c-.792-4.427-1.822-8.831-2.043-13.34-.049-1.883-.09-3.889-.139-5.993v-.024c-.122-5.822-.261-12.321-.433-18.664-.147-5.977-.31-11.815-.514-16.846h.016c.49 5.585.817 11.187 1.079 16.797.367 8.227.571 16.462.808 24.673.221 5.243 1.545 10.331 2.297 15.517.196 3.025.514 6.042.907 9.051 1.021-.815 1.895-1.933 2.843-2.887a66.713 66.713 0 0 1 2.574-2.65 30.067 30.067 0 0 1-2.092 3.058c-.956 1.125-1.879 2.601-3.211 3.343ZM37.098 75.358c-5.27-5.635-10.843-11.652-18.206-14.449a14.201 14.201 0 0 0-3.268-.742c8.678-.049 16.824 8.554 21.474 15.19Z"/><path fill="#F7CDC2" d="M78.805 52.592c-.058 2.536-.548 5.015-1.496 7.078-2.345 5.088-9.331 7.167-14.512 7.42a13.735 13.735 0 0 1-.18-2.259c0-7.265 5.303-13.152 11.849-13.152 1.528 0 2.99.318 4.339.913Z"/><path fill="#242625" d="M68.975 60.983c1.724.155 2.663 2.364 2.01 3.84-.58-1.426-.948-2.633-2.01-3.84ZM72.488 58.814c.638.579.817 1.484.817 2.3.025.97-1.054 3.644-.85 1.1.025-1.133.074-2.218.033-3.4Z"/><path fill="#fff" d="M118.182 71.982c0-6.107 15.518-30.397 29.417-29.345 17.879 1.361 3.048 32.868-3.318 35.51 0 0 2.869-1.77 4.348-.253 1.16 1.182-1.504 5.365-5.034 6.066l-25.413-11.978Z"/><path fill="#242625" d="M118.182 71.982c.278-3.669 2.304-6.971 4.053-10.127 5.172-8.341 14.463-19.87 25.225-19.618 3.89.081 7.616 2.454 8.531 6.376 1.675 7.29-1.348 14.849-4.641 21.25-1.855 3.106-3.702 6.661-7.003 8.447l-.164-.326c1.005-.547 2.133-.979 3.318-.816 3.146.66.588 4.207-.899 5.325-.874.709-1.904 1.247-3.015 1.451 1.103-.245 2.1-.807 2.941-1.533 1.022-.864 3.359-3.661 1.659-4.721-1.217-.669-2.696-.04-3.824.595l-.163-.326c.792-.359 1.462-.987 2.083-1.63 5.475-6.214 11.072-19.268 8.948-27.52-.866-3.596-4.249-5.7-7.828-5.805-10.247-.335-19.726 11.138-24.866 19.022-1.838 3.083-3.93 6.303-4.363 9.932l.008.024Z"/><path fill="#FDE3D8" d="M142.737 76.263c-2.149 1.142-5.197 1.468-8.221.995-5.965-.938-11.832-4.982-10.532-11.978.498-2.65 3.456-7.795 7.55-12.304 4.445-4.9 10.222-9.06 15.664-8.497 10.46 1.069 1.087 28.84-4.461 31.784Z"/><path fill="#F7CDC2" d="M140.612 65.76c0 4.942-2.459 9.247-6.096 11.498-5.965-.938-11.832-4.982-10.532-11.978.498-2.65 3.456-7.795 7.55-12.304 5.205 1.386 9.078 6.58 9.078 12.785Z"/><path fill="#242625" d="M125.528 69.504c.098-2.063 1.569-4.363 3.734-4.672-1.585 1.361-2.5 2.976-3.734 4.672ZM127.391 71.485c-.032-1.647 1.348-3.368 3.056-3.408-1.176 1.1-1.969 2.169-3.056 3.408ZM154.21 111.684c.654-.775 1.577-1.24 2.525-1.533 1.038-.392 4.682-.302 1.569.391-1.349.383-2.689.815-4.102 1.15l.008-.008ZM154.21 119.307c.768-.611 1.732-.856 2.688-.937 1.071-.147 4.445.627 1.406.709-1.349.098-2.697.228-4.094.228ZM153.213 125.137c1.365-.709 3.489-.66 4.421.71-1.577-.359-2.86-.261-4.421-.71ZM151.244 130.421c1.095-.701 3.342-.44 3.472 1.101-1.103-.75-2.222-.571-3.472-1.101Z"/></g><defs><clipPath id="a"><path fill="#fff" d="M0 0h330v276H0z"/></clipPath></defs></svg>
