<?xml version="1.0" encoding="iso-8859-1"?>
<!-- Generator: Adobe Illustrator 18.0.0, SVG Export Plug-In . SVG Version: 6.00 Build 0)  -->
<!DOCTYPE svg PUBLIC "-//W3C//DTD SVG 1.1//EN" "http://www.w3.org/Graphics/SVG/1.1/DTD/svg11.dtd">
<svg version="1.1" id="Capa_1" xmlns="http://www.w3.org/2000/svg" xmlns:xlink="http://www.w3.org/1999/xlink" x="0px" y="0px"
	 viewBox="0 0 112.196 112.196" style="enable-background:new 0 0 112.196 112.196;" xml:space="preserve">
<g>
	<circle style="fill:#F3923C;" cx="56.098" cy="56.098" r="56.098"/>
	<g>
		<path style="fill:#F1F2F2;" d="M46.916,79.438c-1.917-4.367-2.982-9.053-3.089-13.739c-3.088,4.793-5.432,9.692-7.029,13.207
			c-0.106,0.213-0.106,0.32-0.213,0.533c-0.532,1.385-1.065,2.45-1.385,3.408c-0.426,1.065,0.106,2.343,1.278,2.769
			c0.852,0.32,2.023,0.746,3.408,1.278C40.1,87,40.206,87,40.419,87.106c3.729,1.278,8.84,2.663,14.379,3.621
			C51.496,87.532,48.833,83.698,46.916,79.438"/>
		<path style="fill:#F1F2F2;" d="M54.371,44.397c-10.863-22.259-35.146-21.514-38.98-11.502
			c-2.982,7.668,9.905,25.881,39.514,12.674l0,0C54.798,45.463,54.479,44.611,54.371,44.397"/>
		<path style="fill:#F1F2F2;" d="M59.484,42.907c-6.07-15.018,4.58-23.645,10.331-21.408c4.367,1.704,6.71,14.591-10.011,22.046l0,0
			C59.804,43.439,59.59,43.013,59.484,42.907"/>
		<path style="fill:#F1F2F2;" d="M90.583,59.841c-2.556-5.645-7.136-9.798-12.567-11.715c-0.532-0.213-1.064-0.32-1.704-0.32
			c-2.769,0-5.538,2.343-5.751,5.219c-0.426,4.899,0.532,9.799,2.662,14.591c2.131,4.687,5.112,8.627,8.84,11.609
			c0.959,0.746,2.237,1.065,3.408,1.065c2.237,0,4.367-1.171,5.219-3.195C93.033,71.876,93.14,65.592,90.583,59.841"/>
		<path style="fill:#F1F2F2;" d="M77.909,84.87c-4.687-3.621-8.414-8.413-10.97-14.271c-2.663-5.964-3.728-12.035-3.195-17.999
			c0.106-1.704,0.639-3.302,1.385-4.686c-0.106,0-0.319,0.106-0.427,0.106l0,0c-0.213,0.106-0.532,0.106-0.745,0.213
			c-1.598,0.426-3.195,1.171-4.58,1.917c-0.745,0.426-1.384,0.852-2.13,1.278c-3.621,2.449-6.603,6.709-7.029,11.183
			c-0.426,4.792,0.426,9.692,2.449,14.378c2.024,4.58,5.006,8.308,8.628,11.183c2.236,1.811,6.177,2.876,9.479,2.876
			c3.621,0,7.455-1.385,10.544-3.302c0,0,0.106,0,0.106-0.106c0.213-0.107,0.426-0.32,0.639-0.426C82.17,87.106,82.277,87,82.383,87
			C80.679,86.574,79.188,85.828,77.909,84.87"/>
	</g>
</g>
<g>
</g>
<g>
</g>
<g>
</g>
<g>
</g>
<g>
</g>
<g>
</g>
<g>
</g>
<g>
</g>
<g>
</g>
<g>
</g>
<g>
</g>
<g>
</g>
<g>
</g>
<g>
</g>
<g>
</g>
</svg>
