<?xml version="1.0" encoding="utf-8"?>
<!DOCTYPE svg PUBLIC "-//W3C//DTD SVG 1.1//EN" "http://www.w3.org/Graphics/SVG/1.1/DTD/svg11.dtd">
<svg version="1.1" id="Layer_1" xmlns="http://www.w3.org/2000/svg" xmlns:xlink="http://www.w3.org/1999/xlink" x="0px" y="0px"
	 viewBox="0 0 1680 900" enable-background="new 0 0 1680 900" xml:space="preserve">
<circle fill="#0C7177" cx="840" cy="450" r="441.2"/>
<path fill="#D1D1D2" d="M905,385c-7-7-14.8-13.4-23.2-18.6c-22.1-14.2-48-21.8-74.4-21.8c-36.6,0-71.5,14.4-97.4,40.4L584.9,510.3
	c-25.7,25.7-40.3,60.6-40.3,97.2c0,76.1,61.5,137.8,137.6,137.8c36.6,0.2,71.5-14.4,97.4-40.1l103.4-103.4c1.9-1.9,3-4.4,3-7
	c0-5.4-4.4-9.8-9.8-9.8h-3.9c-21.6,0-43.1-4-62.9-12.1c-3.7-1.6-7.9-0.7-10.7,2.1l-74.4,74.4c-23,23-60.5,23-83.5,0
	c-23-23-23-60.5,0-83.5l125.7-125.5c23-23,60.5-23,83.5,0c15.5,14.6,39.7,14.6,55.4,0c6.7-6.7,10.7-15.6,11.4-25
	C917.2,403.9,912.9,392.9,905,385L905,385z"/>
<path fill="#D1D1D2" d="M1094.9,195.1c-53.8-53.8-141-53.8-194.9,0L796.8,298.3c-2.8,2.8-3.7,7.2-2.1,10.9s5.3,6.2,9.3,6h3.7
	c21.6,0,42.9,4.2,62.9,12.3c3.7,1.6,7.9,0.7,10.7-2.1l74.2-74c23-23,60.5-23,83.5,0c23,23,23,60.5,0,83.5l-92.3,92.3L946,428
	l-32.3,32.2c-23,23-60.5,23-83.5,0c-15.5-14.6-39.7-14.6-55.4,0c-6.7,6.7-10.7,15.6-11.4,25.1c-0.7,11.2,3.5,22.3,11.4,30.2
	c11.4,11.4,24.8,20.7,39.4,27.6c2.1,1.1,4.2,1.8,6.2,2.6c2.1,0.9,4.2,1.6,6.3,2.3l6.3,2.1l5.8,1.6c3.9,1.1,7.9,1.8,12,2.5
	c4.9,0.7,9.7,1.2,14.6,1.4h7.4l6-0.7c2.1-0.2,4.4-0.5,7-0.5h3.3l6.9-1.1l3.2-0.5l5.6-1.2h1.1c24.3-6.2,46.2-18.6,63.8-36.2
	l125.3-125.3C1148.7,336.1,1148.7,248.9,1094.9,195.1L1094.9,195.1z"/>
</svg>
