<?xml version="1.0" encoding="utf-8"?>
<!DOCTYPE svg PUBLIC "-//W3C//DTD SVG 1.1//EN" "http://www.w3.org/Graphics/SVG/1.1/DTD/svg11.dtd">
<svg version="1.1" id="Layer_1" xmlns="http://www.w3.org/2000/svg" xmlns:xlink="http://www.w3.org/1999/xlink" x="0px" y="0px"
	 viewBox="0 0 1680 900" enable-background="new 0 0 1680 900" xml:space="preserve">
<circle fill="#0C7177" cx="840" cy="450" r="441.2"/>
<path fill="#D1D1D2" d="M494.4,442.1l147.5,55L699,680.6c3.7,11.8,18.1,16.2,27.6,8.3l82.3-67c8.6-7,20.9-7.4,29.9-0.9L987,728.6
	c10.2,7.4,24.6,1.8,27.2-10.5l108.6-522.2c2.8-13.5-10.4-24.8-23.2-19.7L494.2,409.6C479.3,415.4,479.5,436.5,494.4,442.1z
	 M689.7,467.8l288.1-177.5c5.1-3.2,10.5,3.9,6,7.9L746.1,519.4c-8.4,7.7-13.7,18.1-15.3,29.5l-8.1,60.1c-1.1,8.1-12.3,8.8-14.6,1.1
	l-31.1-109.5C673.5,488,678.8,474.6,689.7,467.8z"/>
</svg>
