<?xml version="1.0" encoding="utf-8"?>
<!DOCTYPE svg PUBLIC "-//W3C//DTD SVG 1.1//EN" "http://www.w3.org/Graphics/SVG/1.1/DTD/svg11.dtd">
<svg version="1.1" id="Capa_1" xmlns="http://www.w3.org/2000/svg" xmlns:xlink="http://www.w3.org/1999/xlink" x="0px" y="0px"
	 viewBox="-36.6 -36.6 585.2 585.2" enable-background="new -36.6 -36.6 585.2 585.2" xml:space="preserve">
<circle fill="#0C7177" cx="259.4" cy="259.4" r="252.6"/>
<g>
	<g>
		<path fill="#D1D1D2" d="M447.4,153.5c-13.5,6-27.9,10-43.1,11.8c15.5-9.3,27.4-24,33-41.5c-14.5,8.6-30.6,14.8-47.7,18.2
			c-13.7-14.6-33.2-23.7-54.8-23.7c-41.5,0-75.1,33.6-75.1,75.1c0,5.9,0.7,11.6,1.9,17.1c-62.4-3.1-117.7-33-154.7-78.4
			c-6.5,11.1-10.2,24-10.2,37.7c0,26,13.3,49,33.4,62.5c-12.3-0.4-23.9-3.8-34-9.4v0.9c0,36.4,25.9,66.7,60.2,73.6
			c-6.3,1.7-12.9,2.6-19.8,2.6c-4.8,0-9.5-0.5-14.1-1.4c9.6,29.8,37.3,51.5,70.1,52.1c-25.7,20.1-58.1,32.1-93.2,32.1
			c-6.1,0-12-0.4-17.9-1c33.2,21.3,72.7,33.8,115.1,33.8c138.1,0,213.6-114.4,213.6-213.6l-0.3-9.7
			C424.6,181.8,437.3,168.6,447.4,153.5z"/>
	</g>
</g>
</svg>
