<?xml version="1.0" encoding="utf-8"?>
<!DOCTYPE svg PUBLIC "-//W3C//DTD SVG 1.1//EN" "http://www.w3.org/Graphics/SVG/1.1/DTD/svg11.dtd">
<svg version="1.1" id="Layer_1" xmlns="http://www.w3.org/2000/svg" xmlns:xlink="http://www.w3.org/1999/xlink" x="0px" y="0px"
	 viewBox="0 0 1680 900" enable-background="new 0 0 1680 900" xml:space="preserve">
<circle fill="#0C7177" cx="840" cy="450" r="441.2"/>
<path fill="#D1D1D2" d="M1173.3,631.9c-1.9-3.2-13.5-28.7-70-80.9c-58.9-54.7-51-45.9,20-140.4c43.2-57.7,60.5-92.8,55.2-107.9
	c-5.1-14.4-36.9-10.5-36.9-10.5l-105.8,0.7c0,0-7.9-1.1-13.7,2.5c-5.6,3.5-9.3,11.4-9.3,11.4s-16.7,44.6-39,82.4
	c-47.1,80-65.9,84.2-73.7,79.3c-17.9-11.6-13.4-46.6-13.4-71.4c0-77.5,11.8-109.9-22.9-118.3c-11.6-2.8-20-4.6-49.4-4.9
	c-37.8-0.4-69.8,0.2-87.7,9c-12.1,6-21.3,19-15.6,19.9c7,0.9,22.9,4.2,31.3,15.6c10.9,14.8,10.5,48,10.5,48s6.3,91.2-14.6,102.7
	c-14.2,7.7-33.9-8.1-75.9-80.7c-21.4-37.1-37.8-78.2-37.8-78.2s-3.2-7.7-8.8-11.8c-6.9-4.9-16.3-6.5-16.3-6.5L499,292.5
	c0,0-15.1,0.5-20.6,7c-4.9,5.8-0.4,17.9-0.4,17.9s78.4,183.9,167.5,276.7c81.7,85.1,174.6,79.5,174.6,79.5h42c0,0,12.7-1.4,19.2-8.4
	c6-6.5,5.8-18.5,5.8-18.5s-0.9-56.4,25.3-64.7c25.8-8.3,59.1,54.5,94.2,78.8c26.5,18.3,46.8,14.2,46.8,14.2l94-1.4
	C1147.4,673.8,1196.7,670.6,1173.3,631.9L1173.3,631.9z"/>
</svg>
