<svg xmlns="http://www.w3.org/2000/svg" viewBox="0 0 319.035 319.035"><defs/><path fill="white" d="M318.382 225.181l-10.335-39.599c-1.858-7.123-6.697-12.924-13.275-15.917s-14.131-2.83-20.724.449l-40.188 19.992c-9.89 4.92-13.918 16.925-8.999 26.814 3.635 7.306 11.136 11.399 18.794 11.064-19.938 26.19-51.22 42.266-85.822 42.266-47.832 0-89.333-30.704-103.271-76.404-3.222-10.565-14.398-16.518-24.964-13.295-10.565 3.222-16.518 14.399-13.295 24.964 9.053 29.686 27.764 56.355 52.683 75.095 25.785 19.391 56.507 29.64 88.847 29.64s63.063-10.249 88.847-29.64c14.225-10.698 26.416-23.986 35.953-38.937 3.708 5.313 9.832 8.563 16.384 8.563 1.671 0 3.372-.211 5.064-.653 10.687-2.788 17.09-13.714 14.301-24.402zM24.263 149.369a23.718 23.718 0 009.839 2.133c3.706 0 7.428-.863 10.885-2.582l40.188-19.992c9.89-4.92 13.918-16.925 8.999-26.814-3.634-7.305-11.136-11.4-18.794-11.064 19.938-26.19 51.219-42.266 85.822-42.266 47.832 0 89.333 30.704 103.271 76.404 2.629 8.622 10.554 14.171 19.123 14.171 1.932 0 3.897-.283 5.841-.875 10.565-3.222 16.518-14.399 13.295-24.964-9.053-29.686-27.764-56.355-52.683-75.095-25.785-19.391-56.507-29.64-88.847-29.64S98.14 19.033 72.355 38.424c-14.229 10.701-26.423 23.994-35.961 38.95-4.654-6.671-13.111-10.098-21.441-7.923C4.266 72.24-2.136 83.166.653 93.853l10.335 39.599c1.859 7.123 6.697 12.924 13.275 15.917z"/></svg>