<?xml version="1.0" standalone="no"?>
<!DOCTYPE svg PUBLIC "-//W3C//DTD SVG 1.1//EN" "http://www.w3.org/Graphics/SVG/1.1/DTD/svg11.dtd" >
<svg xmlns="http://www.w3.org/2000/svg" xmlns:xlink="http://www.w3.org/1999/xlink" version="1.1">
<metadata>
Created by FontForge 20170910 at Fri Dec 13 13:53:11 2013
 By Jimmy Wärting
Copyright 2013 Adobe Systems Incorporated. All rights reserved.
</metadata>
<defs>
<font id="NautilusPompilius" horiz-adv-x="486" >
  <font-face 
    font-family="Nautilus Pompilius"
    font-weight="400"
    font-stretch="normal"
    units-per-em="1000"
    panose-1="2 0 0 0 0 0 0 0 0 0"
    ascent="750"
    descent="-250"
    x-height="505"
    cap-height="786"
    bbox="-343 -385 1384 952"
    underline-thickness="50"
    underline-position="-100"
    unicode-range="U+0020-FB06"
  />
<missing-glyph horiz-adv-x="678" 
d="M628 223c0 -9 -2 -29 -11 -29c-3 0 -8 1 -14 4l-71 32c12 16 18 29 18 43c0 63 -121 63 -157 63l-164 107c-22 14 -31 24 -31 30c0 19 90 38 138 38c159 0 292 -141 292 -288zM215 18c-115 13 -165 89 -165 204c0 66 22 127 58 175c14 18 21 25 30 25c10 0 20 -9 41 -20
l188 -101c0 -48 20 -138 77 -138c28 0 46 19 62 37l71 -52c16 -12 21 -16 21 -22s-8 -14 -23 -27c-18 -14 -38 -26 -62 -37l11 -60c2 -19 -14 -37 -38 -41c-25 -5 -45 10 -48 29l-8 46l-20 -4l11 -78c3 -21 -15 -39 -38 -42s-46 8 -49 29l-10 79l-23 -2l6 -40
c4 -19 -14 -39 -37 -43c-24 -4 -45 12 -48 32zM253 268l-48 57l-20 -70l-70 -32l63 -38l7 -78l56 47l76 -16l-28 69l39 67z" />
    <glyph glyph-name="fi" unicode="fi" horiz-adv-x="494" 
d="M-40 0l95 442h-50c-5 32 11 58 42 58h20l8 36c31 146 124 207 234 207c80 0 146 -42 146 -107c0 -51 -28 -78 -71 -78c-18 0 -44 6 -62 20c10 31 17 62 19 90c-20 6 -34 8 -46 8c-53 0 -83 -49 -104 -146l-7 -30h187c36 0 56 -17 48 -55l-60 -284c-12 -56 4 -74 30 -74
c37 0 80 25 105 50c11 -5 17 -14 17 -24c0 -7 -3 -15 -9 -22c-47 -53 -114 -99 -181 -99c-50 0 -108 28 -89 119l64 306c4 17 -5 25 -21 25h-103l-95 -442c-58 -270 -110 -385 -250 -385c-60 0 -110 33 -110 117c0 17 13 27 33 27c8 -36 31 -55 69 -55c68 0 97 92 141 296z
" />
    <glyph glyph-name="ft" unicode="ft" horiz-adv-x="497" 
d="M-36 0l95 442h-50c-5 32 11 58 42 58h20l8 36c30 141 129 207 244 207c73 0 152 -47 127 -167l-16 -76h73c5 -32 -11 -58 -42 -58h-44l-59 -281c-12 -56 4 -74 30 -74c37 0 80 25 105 50c11 -5 17 -14 17 -24c0 -7 -3 -15 -9 -22c-47 -53 -123 -99 -190 -99
c-61 0 -101 38 -78 148l64 302h-125l-95 -442c-58 -270 -110 -385 -250 -385c-60 0 -110 33 -110 117c0 17 13 27 33 27c8 -36 31 -55 69 -55c68 0 97 92 141 296zM195 530l-7 -30h125l18 82c13 60 2 100 -43 100c-51 0 -74 -63 -93 -152z" />
    <glyph glyph-name="fb" unicode="fb" horiz-adv-x="695" 
d="M223 442h-47l-95 -442c-58 -270 -110 -385 -250 -385c-60 0 -110 33 -110 117c0 17 13 27 33 27c8 -36 31 -55 69 -55c68 0 97 92 141 296l95 442h-50c-5 32 11 58 42 58h20l8 36c30 141 129 207 244 207c73 0 149 -47 124 -167l-30 -149c51 60 97 78 137 78
c77 0 125 -60 125 -156c0 -170 -165 -355 -314 -355c-109 0 -136 115 -103 269l70 324c13 60 1 95 -44 95c-51 0 -74 -63 -93 -152l-7 -30h77c5 -32 -11 -58 -42 -58zM553 327c0 109 -95 89 -153 17l-19 -87c-29 -134 0 -160 37 -160c71 0 135 113 135 230z" />
    <glyph glyph-name="fh" unicode="fh" horiz-adv-x="723" 
d="M-36 0l95 442h-50c-5 32 11 58 42 58h20l8 36c30 141 129 207 244 207c73 0 149 -47 124 -167l-34 -162c37 54 82 91 133 91c50 0 119 -29 94 -147l-49 -230c-6 -29 7 -41 27 -41c37 0 80 25 105 50c11 -5 17 -14 17 -24c0 -7 -3 -15 -9 -22c-47 -53 -114 -99 -181 -99
c-50 0 -103 25 -78 142l42 199c7 32 9 59 -24 59c-36 0 -66 -21 -93 -53l-63 -284c-10 -46 -48 -63 -84 -63c-18 0 -30 2 -42 10l124 585c13 60 1 95 -44 95c-51 0 -74 -63 -93 -152l-7 -30h73c5 -32 -11 -58 -42 -58h-43l-95 -442c-58 -270 -110 -385 -250 -385
c-60 0 -110 33 -110 117c0 17 13 27 33 27c8 -36 31 -55 69 -55c68 0 97 92 141 296z" />
    <glyph glyph-name="fj" unicode="fj" horiz-adv-x="477" 
d="M-36 0l95 442h-50c-5 32 11 58 42 58h20l8 36c31 146 124 207 234 207c80 0 146 -42 146 -107c0 -51 -28 -78 -71 -78c-18 0 -44 6 -62 20c10 31 17 62 19 90c-20 6 -34 8 -46 8c-53 0 -83 -49 -104 -146l-7 -30h186c36 0 56 -17 48 -55l-96 -445
c-58 -270 -110 -385 -250 -385c-47 0 -88 21 -103 70c-36 -48 -80 -70 -142 -70c-60 0 -110 33 -110 117c0 17 13 27 33 27c8 -36 31 -55 69 -55c68 0 97 92 141 296zM277 442h-101l-95 -442c-24 -112 -47 -198 -76 -259c11 -24 32 -37 63 -37c68 0 98 92 141 296l89 417
c4 17 -5 25 -21 25z" />
    <glyph glyph-name="fk" unicode="fk" horiz-adv-x="674" 
d="M682 91c-36 -44 -105 -99 -147 -99c-100 0 -126 160 -141 238l-23 -6l-36 -169c-10 -46 -48 -63 -84 -63c-18 0 -30 2 -42 10l123 585c13 60 1 95 -44 95c-51 0 -74 -63 -93 -152l-7 -30h77c5 -32 -11 -58 -42 -58h-47l-95 -442c-58 -270 -110 -385 -250 -385
c-60 0 -110 33 -110 117c0 17 13 27 33 27c8 -36 31 -55 69 -55c68 0 97 92 141 296l94 442h-49c-5 32 11 58 42 58h19l8 36c30 141 130 207 245 207c73 0 149 -47 124 -167l-65 -300l20 5c64 19 97 56 97 116c0 28 -3 50 -14 62c13 27 43 47 78 48c38 2 56 -23 56 -77
c1 -80 -62 -140 -125 -170c14 -58 43 -165 112 -165c20 0 42 18 68 42c11 -5 17 -14 17 -24c0 -7 -3 -15 -9 -22z" />
    <glyph glyph-name="fl" unicode="fl" horiz-adv-x="504" 
d="M-36 0l95 442h-50c-5 32 11 58 42 58h20l8 36c30 141 129 207 244 207c73 0 149 -47 124 -167l-92 -448c-6 -29 10 -41 33 -41c38 0 82 25 107 50c11 -5 17 -14 17 -24c0 -7 -3 -15 -9 -22c-48 -53 -115 -99 -183 -99c-53 0 -109 25 -81 142l93 453c13 60 1 95 -44 95
c-51 0 -74 -63 -93 -152l-7 -30h77c5 -32 -11 -58 -42 -58h-47l-95 -442c-58 -270 -110 -385 -250 -385c-60 0 -110 33 -110 117c0 17 13 27 33 27c8 -36 31 -55 69 -55c68 0 97 92 141 296z" />
    <glyph glyph-name="Th" unicode="Th" horiz-adv-x="914" 
d="M831 358l-49 -230c-6 -29 7 -41 27 -41c37 0 80 25 105 50c11 -5 17 -14 17 -24c0 -7 -3 -15 -9 -22c-47 -53 -114 -99 -181 -99c-50 0 -103 25 -78 142l42 199c10 49 -1 59 -24 59c-25 0 -57 -10 -92 -52l-64 -285c-10 -46 -48 -63 -84 -63c-18 0 -30 2 -42 10l130 618
c-35 3 -74 21 -117 37l-128 -601c-10 -47 -49 -64 -86 -64c-23 0 -42 5 -53 13l153 677h-8c-71 0 -148 -51 -148 -150c0 -17 3 -34 14 -52c-93 -25 -126 28 -126 80c0 156 185 192 289 192c53 0 138 -12 194 -12c44 0 90 9 118 29c29 -36 32 -71 22 -121l-49 -234
c37 54 82 91 133 91c50 0 119 -29 94 -147z" />
    <glyph glyph-name="Tb" unicode="Tb" horiz-adv-x="885" 
d="M556 -8c-109 0 -136 117 -103 271l76 357c-35 3 -74 21 -117 37l-128 -601c-10 -47 -49 -64 -86 -64c-23 0 -42 5 -53 13l153 677h-8c-71 0 -148 -51 -148 -150c0 -17 3 -34 14 -52c-93 -25 -126 28 -126 80c0 156 185 192 289 192c53 0 138 -12 194 -12
c44 0 90 9 118 29c29 -36 32 -71 22 -121l-45 -221c51 60 97 78 137 78c77 0 125 -60 125 -156c0 -170 -165 -357 -314 -357zM744 327c0 109 -95 89 -153 17l-19 -87c-29 -134 0 -162 37 -162c71 0 135 115 135 232z" />
    <glyph glyph-name="Tk" unicode="Tk" horiz-adv-x="865" 
d="M400 2l129 618c-35 3 -74 21 -117 37l-128 -601c-10 -47 -49 -64 -86 -64c-23 0 -42 5 -53 13l153 677h-8c-71 0 -148 -51 -148 -150c0 -17 3 -34 14 -52c-93 -25 -126 28 -126 80c0 156 185 192 289 192c53 0 138 -12 194 -12c44 0 90 9 118 29c29 -36 32 -71 22 -121
l-80 -372l20 5c64 19 97 56 97 116c0 28 -3 50 -14 62c13 27 43 47 78 48c38 2 56 -23 56 -77c1 -80 -62 -140 -125 -170c14 -58 43 -165 112 -165c20 0 42 18 68 42c11 -5 17 -14 17 -24c0 -7 -3 -15 -9 -22c-36 -44 -105 -99 -147 -99c-100 0 -126 160 -141 238l-23 -6
l-36 -169c-10 -46 -48 -63 -84 -63c-18 0 -30 2 -42 10z" />
    <glyph glyph-name="ti" unicode="ti" horiz-adv-x="528" 
d="M309 442h-134l-59 -281c-11 -51 2 -73 22 -73c18 0 41 12 56 48c19 0 30 -10 30 -27c0 -70 -82 -117 -138 -117c-50 0 -120 29 -95 148l64 302h-50c-5 32 11 58 42 58h20l18 82c10 46 48 63 84 63c18 0 35 -5 47 -13l-28 -132h217c36 0 56 -17 48 -55l-60 -284
c-12 -56 4 -74 30 -74c37 0 80 25 105 50c11 -5 17 -14 17 -24c0 -7 -3 -15 -9 -22c-47 -53 -114 -99 -181 -99c-50 0 -108 28 -89 119l64 306c4 17 -5 25 -21 25zM357 634c4 39 37 70 76 70s68 -31 64 -70c-6 -39 -39 -70 -78 -70s-68 31 -62 70z" />
    <glyph glyph-name="ol" unicode="ol" horiz-adv-x="771" 
d="M798 155c-35 -91 -155 -163 -247 -163c-70 0 -123 43 -110 148c4 29 7 58 11 86c-21 0 -43 3 -65 8c-33 -128 -149 -242 -252 -242s-147 83 -147 177c0 151 105 340 256 340c50 0 90 -14 120 -59c-2 -23 -19 -34 -34 -28c-19 7 -40 11 -64 11c-91 0 -150 -134 -150 -232
c0 -88 30 -122 65 -122c56 0 126 88 113 190c-16 8 -33 17 -49 27c-21 55 1 105 58 105c54 0 95 -41 93 -105c0 -7 -1 -15 -2 -22c23 -5 44 -8 65 -8c45 284 111 448 226 448c47 0 80 -29 80 -81c0 -118 -70 -286 -183 -364c-6 -35 -11 -71 -16 -108c-7 -52 19 -72 54 -72
c55 0 135 49 154 104c19 3 31 -19 24 -38zM692 648c-31 0 -69 -134 -102 -326c78 75 119 208 119 304c0 17 -6 22 -17 22z" />
    <glyph glyph-name="afii10080_afii10067" unicode="&#x43e;&#x432;" horiz-adv-x="865" 
d="M445 184c1 17 2 35 4 54c-19 0 -39 1 -60 5c-30 -132 -148 -251 -254 -251c-103 0 -147 83 -147 177c0 151 105 340 256 340c50 0 90 -14 120 -59c-2 -23 -19 -34 -34 -28c-19 7 -40 11 -64 11c-91 0 -150 -134 -150 -232c0 -88 30 -122 65 -122c56 0 127 89 112 192
c-14 6 -29 14 -44 22c-2 1 -3 2 -4 3c-21 55 1 105 58 105c54 0 95 -41 93 -105c0 -5 0 -9 -1 -13c21 -4 41 -5 60 -5c30 200 125 436 288 436c61 0 99 -33 94 -97c-5 -53 -73 -163 -160 -251c22 9 49 15 71 15c54 0 93 -41 88 -105c-12 -151 -151 -284 -277 -284
c-72 0 -121 52 -114 192zM721 293c-11 27 -40 40 -80 40c-23 -21 -47 -39 -71 -54c-5 -30 -8 -57 -9 -79c-5 -98 25 -125 58 -125c91 0 123 160 102 218zM740 652c-66 0 -129 -174 -160 -320c90 72 174 197 184 274c4 29 -3 46 -24 46z" />
    <glyph glyph-name="Fi" unicode="Fi" horiz-adv-x="732" 
d="M136 546c0 -17 6 -42 20 -58c-15 -7 -29 -10 -42 -10c-52 0 -82 45 -82 93c0 164 182 199 277 199c134 0 251 -43 392 8c42 -108 -25 -181 -98 -181c-64 0 -138 54 -214 88l-58 -270c48 -5 88 -18 129 2c24 -31 -3 -82 -55 -82c-30 0 -58 11 -87 17l-63 -296
c-10 -47 -49 -64 -86 -64c-23 0 -42 5 -53 13l159 704c-67 -7 -139 -58 -139 -163zM470 111l58 278c3 16 -1 25 -10 25c-5 0 -11 -4 -20 -12c-13 8 -20 39 0 55c34 27 70 48 112 48c36 0 56 -17 48 -55l-61 -289c-12 -56 4 -74 30 -74c37 0 80 25 105 50
c11 -5 17 -14 17 -24c0 -7 -3 -15 -9 -22c-47 -53 -114 -99 -181 -99c-50 0 -108 28 -89 119z" />
    <glyph glyph-name="Fj" unicode="Fj" horiz-adv-x="713" 
d="M136 546c0 -17 6 -42 20 -58c-15 -7 -29 -10 -42 -10c-52 0 -82 45 -82 93c0 164 182 199 277 199c134 0 251 -43 392 8c42 -108 -25 -181 -98 -181c-64 0 -138 54 -214 88l-58 -270c48 -5 88 -18 129 2c24 -31 -3 -82 -55 -82c-30 0 -58 11 -87 17l-63 -296
c-10 -47 -49 -64 -86 -64c-23 0 -42 5 -53 13l159 704c-67 -7 -139 -58 -139 -163zM658 450l-76 -354c-3 -14 -6 -28 -9 -41c55 27 108 57 143 87c15 -13 18 -35 1 -50c-18 -16 -86 -61 -157 -94c-46 -186 -120 -383 -298 -383c-56 0 -121 40 -121 123
c0 127 135 187 301 261c8 32 16 68 25 107l61 283c3 16 -1 25 -10 25c-5 0 -11 -4 -20 -12c-13 8 -20 39 0 55c34 27 70 48 112 48c36 0 56 -17 48 -55zM263 -296c67 0 115 72 161 230c-119 -59 -202 -107 -202 -183c0 -35 28 -47 41 -47z" />
    <glyph glyph-name="tj" unicode="tj" horiz-adv-x="513" 
d="M264 106l67 311c4 17 -5 25 -21 25h-135l-59 -281c-11 -51 2 -73 22 -73c18 0 41 12 56 48c19 0 30 -10 30 -27c0 -70 -82 -117 -138 -117c-50 0 -120 29 -95 148l64 302h-50c-5 32 11 58 42 58h20l18 82c10 46 48 63 84 63c18 0 35 -5 47 -13l-28 -132h218
c36 0 56 -17 48 -55l-75 -349c-3 -14 -6 -28 -9 -41c55 27 108 57 143 87c15 -13 18 -35 1 -50c-18 -16 -86 -61 -157 -94c-46 -186 -120 -383 -298 -383c-56 0 -121 40 -121 123c0 127 135 187 301 261c8 32 16 68 25 107zM60 -296c67 0 115 72 161 230
c-119 -59 -202 -107 -202 -183c0 -35 28 -47 41 -47zM358 634c4 39 37 70 76 70s68 -31 64 -70c-6 -39 -39 -70 -78 -70s-68 31 -62 70z" />
    <glyph glyph-name="tm" unicode="tm" horiz-adv-x="993" 
d="M242 5l88 412c4 17 -5 25 -21 25h-134l-59 -281c-11 -51 2 -73 22 -73c18 0 41 12 56 48c19 0 30 -10 30 -27c0 -70 -82 -117 -138 -117c-50 0 -120 29 -95 148l64 302h-50c-5 32 11 58 42 58h20l18 82c10 46 48 63 84 63c18 0 35 -5 47 -13l-28 -132h217
c36 0 56 -17 48 -55l-9 -40c41 59 91 100 148 100c41 0 87 -32 84 -103c42 60 92 103 150 103c45 0 109 -30 84 -147l-49 -230c-6 -29 7 -41 27 -41c37 0 80 25 105 50c11 -5 17 -14 17 -24c0 -7 -3 -15 -9 -22c-47 -53 -114 -99 -181 -99c-50 0 -103 25 -78 142l42 199
c7 32 9 59 -24 59c-34 0 -61 -18 -87 -46l-62 -291c-10 -46 -48 -63 -84 -63c-18 0 -35 5 -47 13l70 328c7 32 9 59 -24 59c-36 0 -65 -20 -92 -52l-61 -285c-10 -46 -48 -63 -84 -63c-18 0 -35 5 -47 13z" />
    <glyph glyph-name="tn" unicode="tn" horiz-adv-x="759" 
d="M242 5l88 412c4 17 -5 25 -21 25h-134l-59 -281c-11 -51 2 -73 22 -73c18 0 41 12 56 48c19 0 30 -10 30 -27c0 -70 -82 -117 -138 -117c-50 0 -120 29 -95 148l64 302h-50c-5 32 11 58 42 58h20l18 82c10 46 48 63 84 63c18 0 35 -5 47 -13l-28 -132h217
c36 0 57 -17 48 -55l-9 -40c42 60 106 100 164 100c53 0 91 -42 68 -147l-49 -230c-6 -29 7 -41 27 -41c37 0 80 25 105 50c11 -5 17 -14 17 -24c0 -7 -3 -15 -9 -22c-47 -53 -114 -99 -181 -99c-50 0 -103 25 -78 142l42 199c9 42 -5 59 -27 59c-27 0 -67 -25 -89 -52
l-61 -285c-10 -46 -48 -63 -84 -63c-18 0 -35 5 -47 13z" />
    <glyph glyph-name="tp" unicode="tp" horiz-adv-x="744" 
d="M166 -364l164 781c4 17 -5 25 -21 25h-134l-59 -281c-11 -51 2 -73 22 -73c18 0 41 12 56 48c19 0 30 -10 30 -27c0 -70 -82 -117 -138 -117c-50 0 -120 29 -95 148l64 302h-50c-5 32 11 58 42 58h20l18 82c10 46 48 63 84 63c18 0 35 -5 47 -13l-28 -132h217
c36 0 57 -17 48 -55l-4 -19c39 48 86 79 136 79c88 0 127 -74 127 -165c0 -150 -109 -348 -280 -348c-24 0 -49 9 -69 26l-69 -332c-10 -46 -45 -63 -81 -63c-18 0 -35 5 -47 13zM530 405c-30 0 -66 -23 -99 -64l-55 -261c18 -10 34 -11 50 -11c102 0 163 136 163 235
c0 70 -25 101 -59 101z" />
    <glyph glyph-name="tr" unicode="tr" horiz-adv-x="694" 
d="M242 5l88 412c4 17 -5 25 -21 25h-134l-59 -281c-11 -51 2 -73 22 -73c18 0 41 12 56 48c19 0 30 -10 30 -27c0 -70 -82 -117 -138 -117c-50 0 -120 29 -95 148l64 302h-50c-5 32 11 58 42 58h20l18 82c10 46 48 63 84 63c18 0 35 -5 47 -13l-28 -132h217
c36 0 56 -17 48 -55l-13 -64c50 95 105 124 152 124c55 0 83 -43 83 -89c0 -57 -44 -118 -129 -100c19 38 13 76 -20 76c-37 0 -81 -59 -122 -186l-31 -151c-9 -46 -48 -63 -84 -63c-18 0 -35 5 -47 13z" />
    <glyph glyph-name="tu" unicode="tu" horiz-adv-x="775" 
d="M277 184l53 233c4 17 -5 25 -21 25h-134l-59 -281c-11 -51 2 -73 22 -73c18 0 41 12 56 48c19 0 30 -10 30 -27c0 -70 -82 -117 -138 -117c-50 0 -120 29 -95 148l64 302h-50c-5 32 11 58 42 58h20l18 82c10 46 48 63 84 63c18 0 35 -5 47 -13l-28 -132h217
c36 0 57 -17 48 -55l-60 -279c-9 -41 4 -59 34 -59c35 0 65 20 92 52l60 283c10 46 48 63 84 63c18 0 35 -5 47 -13l-70 -331c-12 -56 4 -74 30 -74c37 0 80 25 105 50c11 -5 17 -14 17 -24c0 -7 -3 -15 -9 -22c-47 -53 -119 -99 -173 -99c-49 0 -98 25 -93 113
c-40 -65 -89 -113 -146 -113c-111 0 -111 117 -94 192z" />
    <glyph glyph-name="tv" unicode="tv" horiz-adv-x="670" 
d="M423 445c-27 -123 -37 -267 5 -349c76 60 126 165 126 259c0 67 -20 126 -62 145c2 52 34 78 67 77c39 -1 81 -38 81 -111c0 -229 -164 -474 -272 -474c-106 0 -105 290 -68 425c5 17 -5 25 -21 25h-104l-59 -281c-11 -51 2 -73 22 -73c18 0 41 12 56 48
c19 0 30 -10 30 -27c0 -70 -82 -117 -138 -117c-50 0 -120 29 -95 148l64 302h-50c-5 32 11 58 42 58h20l18 82c10 46 48 63 84 63c18 0 35 -5 47 -13l-28 -132h187c36 0 57 -17 48 -55z" />
    <glyph glyph-name="tw" unicode="tw" horiz-adv-x="921" 
d="M423 445c-23 -106 -42 -244 7 -349c61 60 90 167 123 346c9 46 48 63 84 63c17 0 36 -5 47 -13c-19 -88 -35 -171 -35 -246c0 -54 9 -105 30 -150c76 60 126 165 126 259c0 67 -20 126 -62 145c2 52 34 78 67 77c39 -1 81 -38 81 -111c0 -229 -164 -474 -272 -474
c-52 0 -71 94 -77 193c-53 -120 -119 -193 -172 -193c-122 0 -98 337 -70 425c5 17 -5 25 -21 25h-104l-59 -281c-11 -51 2 -73 22 -73c18 0 41 12 56 48c19 0 30 -10 30 -27c0 -70 -82 -117 -138 -117c-50 0 -120 29 -95 148l64 302h-50c-5 32 11 58 42 58h20l18 82
c10 46 48 63 84 63c18 0 35 -5 47 -13l-28 -132h187c36 0 57 -17 48 -55z" />
    <glyph glyph-name="Ti" unicode="Ti" horiz-adv-x="714" 
d="M136 546c0 -17 6 -42 20 -58c-15 -7 -29 -10 -42 -10c-52 0 -82 45 -82 93c0 164 182 199 277 199c134 0 251 -43 392 8c42 -108 -25 -181 -98 -181c-56 0 -121 43 -188 76l-131 -617c-10 -47 -49 -64 -86 -64c-23 0 -42 5 -53 13l159 704c-5 0 -9 1 -14 1
c-71 0 -154 -51 -154 -164zM452 111l58 278c3 16 -1 25 -10 25c-5 0 -11 -4 -20 -12c-13 8 -20 39 0 55c34 27 70 48 112 48c36 0 56 -17 48 -55l-61 -289c-12 -56 4 -74 30 -74c37 0 80 25 105 50c11 -5 17 -14 17 -24c0 -7 -3 -15 -9 -22c-47 -53 -114 -99 -181 -99
c-50 0 -108 28 -89 119z" />
    <glyph glyph-name="Tj" unicode="Tj" horiz-adv-x="698" 
d="M640 450l-76 -354c-3 -14 -6 -28 -9 -41c55 27 108 57 143 87c15 -13 18 -35 1 -50c-18 -16 -86 -61 -157 -94c-46 -186 -120 -383 -298 -383c-56 0 -121 40 -121 123c0 127 135 187 301 261c8 32 16 68 25 107l61 283c3 16 -1 25 -10 25c-5 0 -11 -4 -20 -12
c-13 8 -20 39 0 55c34 27 70 48 112 48c36 0 56 -17 48 -55zM136 546c0 -17 6 -42 20 -58c-15 -7 -29 -10 -42 -10c-52 0 -82 45 -82 93c0 164 182 199 277 199c134 0 251 -43 392 8c42 -108 -25 -181 -98 -181c-56 0 -121 43 -188 76l-131 -617c-10 -47 -49 -64 -86 -64
c-23 0 -42 5 -53 13l159 704c-5 0 -9 1 -14 1c-71 0 -154 -51 -154 -164zM245 -296c67 0 115 72 161 230c-119 -59 -202 -107 -202 -183c0 -35 28 -47 41 -47z" />
    <glyph glyph-name="fm" unicode="fm" horiz-adv-x="993" 
d="M-181 -296c68 0 97 92 141 296l95 442h-50c-5 32 11 58 42 58h20l8 36c28 129 113 207 208 207c85 0 126 -32 126 -97c0 -56 -33 -84 -70 -82c-13 1 -27 5 -40 14c11 24 16 51 16 65c0 19 -12 29 -37 29c-46 0 -71 -67 -87 -142l-7 -30h221c36 0 56 -17 48 -55l-9 -40
c41 59 91 100 148 100c41 0 87 -32 84 -103c42 60 92 103 150 103c45 0 109 -30 84 -147l-49 -230c-6 -29 7 -41 27 -41c37 0 80 25 105 50c11 -5 17 -14 17 -24c0 -7 -3 -15 -9 -22c-47 -53 -114 -99 -181 -99c-50 0 -103 25 -78 142l42 199c7 32 9 59 -24 59
c-34 0 -61 -18 -87 -46l-62 -291c-10 -46 -48 -63 -84 -63c-18 0 -35 5 -47 13l70 328c7 32 9 59 -24 59c-36 0 -65 -20 -92 -52l-61 -285c-10 -46 -48 -63 -84 -63c-18 0 -35 5 -47 13l88 412c4 17 -5 25 -21 25h-137l-95 -442c-58 -270 -110 -385 -250 -385
c-60 0 -110 33 -110 117c0 17 13 27 33 27c8 -36 31 -55 69 -55z" />
    <glyph glyph-name="fn" unicode="fn" horiz-adv-x="759" 
d="M-181 -296c68 0 97 92 141 296l95 442h-50c-5 32 11 58 42 58h20l8 36c28 129 113 207 208 207c85 0 126 -32 126 -97c0 -56 -33 -84 -70 -82c-13 1 -27 5 -40 14c11 24 16 51 16 65c0 19 -12 29 -37 29c-46 0 -71 -67 -87 -142l-7 -30h221c36 0 57 -17 48 -55l-9 -40
c42 60 106 100 164 100c53 0 91 -42 68 -147l-49 -230c-6 -29 7 -41 27 -41c37 0 80 25 105 50c11 -5 17 -14 17 -24c0 -7 -3 -15 -9 -22c-47 -53 -114 -99 -181 -99c-50 0 -103 25 -78 142l42 199c9 42 -5 59 -27 59c-27 0 -67 -25 -89 -52l-61 -285
c-10 -46 -48 -63 -84 -63c-18 0 -35 5 -47 13l88 412c4 17 -5 25 -21 25h-137l-95 -442c-58 -270 -110 -385 -250 -385c-60 0 -110 33 -110 117c0 17 13 27 33 27c8 -36 31 -55 69 -55z" />
    <glyph glyph-name="fp" unicode="fp" horiz-adv-x="744" 
d="M-181 -296c68 0 97 92 141 296l95 442h-50c-5 32 11 58 42 58h20l8 36c28 129 113 207 208 207c85 0 126 -32 126 -97c0 -56 -33 -84 -70 -82c-13 1 -27 5 -40 14c11 24 16 51 16 65c0 19 -12 29 -37 29c-46 0 -71 -67 -87 -142l-7 -30h221c36 0 57 -17 48 -55l-4 -19
c39 48 86 79 136 79c88 0 127 -74 127 -165c0 -150 -109 -348 -280 -348c-24 0 -49 9 -69 26l-69 -332c-10 -46 -45 -63 -81 -63c-18 0 -35 5 -47 13l164 781c4 17 -5 25 -21 25h-137l-95 -442c-58 -270 -110 -385 -250 -385c-60 0 -110 33 -110 117c0 17 13 27 33 27
c8 -36 31 -55 69 -55zM530 405c-30 0 -66 -23 -99 -64l-55 -261c18 -10 34 -11 50 -11c102 0 163 136 163 235c0 70 -25 101 -59 101z" />
    <glyph glyph-name="fr" unicode="fr" horiz-adv-x="694" 
d="M-181 -296c68 0 97 92 141 296l95 442h-50c-5 32 11 58 42 58h20l8 36c28 129 113 207 208 207c85 0 126 -32 126 -97c0 -56 -33 -84 -70 -82c-13 1 -27 5 -40 14c11 24 16 51 16 65c0 19 -12 29 -37 29c-46 0 -71 -67 -87 -142l-7 -30h221c36 0 56 -17 48 -55l-13 -64
c50 95 105 124 152 124c55 0 83 -43 83 -89c0 -57 -44 -118 -129 -100c19 38 13 76 -20 76c-37 0 -81 -59 -122 -186l-31 -151c-9 -46 -48 -63 -84 -63c-18 0 -35 5 -47 13l88 412c4 17 -5 25 -21 25h-137l-95 -442c-58 -270 -110 -385 -250 -385c-60 0 -110 33 -110 117
c0 17 13 27 33 27c8 -36 31 -55 69 -55z" />
    <glyph glyph-name="fu" unicode="fu" horiz-adv-x="775" 
d="M-181 -296c68 0 97 92 141 296l95 442h-50c-5 32 11 58 42 58h20l8 36c28 129 113 207 208 207c85 0 126 -32 126 -97c0 -56 -33 -84 -70 -82c-13 1 -27 5 -40 14c11 24 16 51 16 65c0 19 -12 29 -37 29c-46 0 -71 -67 -87 -142l-7 -30h221c36 0 57 -17 48 -55l-60 -279
c-9 -41 4 -59 34 -59c35 0 65 20 92 52l60 283c10 46 48 63 84 63c18 0 35 -5 47 -13l-70 -331c-12 -56 4 -74 30 -74c37 0 80 25 105 50c11 -5 17 -14 17 -24c0 -7 -3 -15 -9 -22c-47 -53 -119 -99 -173 -99c-49 0 -98 25 -93 113c-40 -65 -89 -113 -146 -113
c-111 0 -111 117 -94 192l53 233c4 17 -5 25 -21 25h-137l-95 -442c-58 -270 -110 -385 -250 -385c-60 0 -110 33 -110 117c0 17 13 27 33 27c8 -36 31 -55 69 -55z" />
    <glyph glyph-name="fv" unicode="fv" horiz-adv-x="670" 
d="M-181 -296c68 0 97 92 141 296l95 442h-50c-5 32 11 58 42 58h20l8 36c28 129 113 207 208 207c85 0 126 -32 126 -97c0 -56 -33 -84 -70 -82c-13 1 -27 5 -40 14c11 24 16 51 16 65c0 19 -12 29 -37 29c-46 0 -71 -67 -87 -142l-7 -30h191c36 0 57 -17 48 -55
c-27 -123 -37 -267 5 -349c76 60 126 165 126 259c0 67 -20 126 -62 145c2 52 34 78 67 77c39 -1 81 -38 81 -111c0 -229 -164 -474 -272 -474c-106 0 -105 290 -68 425c5 17 -5 25 -21 25h-107l-95 -442c-58 -270 -110 -385 -250 -385c-60 0 -110 33 -110 117
c0 17 13 27 33 27c8 -36 31 -55 69 -55z" />
    <glyph glyph-name="fw" unicode="fw" horiz-adv-x="921" 
d="M-181 -296c68 0 97 92 141 296l95 442h-50c-5 32 11 58 42 58h20l8 36c28 129 113 207 208 207c85 0 126 -32 126 -97c0 -56 -33 -84 -70 -82c-13 1 -27 5 -40 14c11 24 16 51 16 65c0 19 -12 29 -37 29c-46 0 -71 -67 -87 -142l-7 -30h191c36 0 57 -17 48 -55
c-23 -106 -42 -244 7 -349c61 60 90 167 123 346c9 46 48 63 84 63c17 0 36 -5 47 -13c-19 -88 -35 -171 -35 -246c0 -54 9 -105 30 -150c76 60 126 165 126 259c0 67 -20 126 -62 145c2 52 34 78 67 77c39 -1 81 -38 81 -111c0 -229 -164 -474 -272 -474
c-52 0 -71 94 -77 193c-53 -120 -119 -193 -172 -193c-122 0 -98 337 -70 425c5 17 -5 25 -21 25h-107l-95 -442c-58 -270 -110 -385 -250 -385c-60 0 -110 33 -110 117c0 17 13 27 33 27c8 -36 31 -55 69 -55z" />
    <glyph glyph-name=".notdef" horiz-adv-x="678" 
d="M628 223c0 -9 -2 -29 -11 -29c-3 0 -8 1 -14 4l-71 32c12 16 18 29 18 43c0 63 -121 63 -157 63l-164 107c-22 14 -31 24 -31 30c0 19 90 38 138 38c159 0 292 -141 292 -288zM215 18c-115 13 -165 89 -165 204c0 66 22 127 58 175c14 18 21 25 30 25c10 0 20 -9 41 -20
l188 -101c0 -48 20 -138 77 -138c28 0 46 19 62 37l71 -52c16 -12 21 -16 21 -22s-8 -14 -23 -27c-18 -14 -38 -26 -62 -37l11 -60c2 -19 -14 -37 -38 -41c-25 -5 -45 10 -48 29l-8 46l-20 -4l11 -78c3 -21 -15 -39 -38 -42s-46 8 -49 29l-10 79l-23 -2l6 -40
c4 -19 -14 -39 -37 -43c-24 -4 -45 12 -48 32zM253 268l-48 57l-20 -70l-70 -32l63 -38l7 -78l56 47l76 -16l-28 69l39 67z" />
    <glyph glyph-name="B" unicode="B" horiz-adv-x="623" 
d="M473 613c0 77 -39 110 -121 110c-98 0 -216 -64 -216 -164c0 -26 8 -44 20 -58c-15 -7 -29 -10 -43 -10c-51 0 -81 45 -81 95c0 111 180 184 336 184c124 0 215 -29 215 -145c0 -77 -57 -167 -157 -220l1 -1c105 0 151 -56 151 -127c0 -121 -132 -285 -323 -285
c-110 0 -202 30 -202 76c0 22 12 43 40 52c15 -13 30 -23 46 -32l114 538c10 47 49 64 86 64c18 0 36 -5 48 -13l-58 -271c82 25 144 126 144 207zM363 361c-14 0 -29 -2 -45 -6l-64 -299h1c103 0 195 109 195 216c0 52 -28 89 -87 89z" />
    <glyph glyph-name="C" unicode="C" 
d="M358 770c97 0 139 -66 139 -127c0 -53 -32 -102 -81 -102c-18 0 -48 12 -59 40c60 25 65 121 -13 121c-87 0 -178 -192 -178 -401c0 -118 40 -216 141 -216c53 0 113 15 179 52c11 -5 17 -14 17 -24c0 -7 -2 -15 -9 -22c-71 -71 -159 -99 -243 -99
c-157 0 -226 138 -226 292c0 255 150 486 333 486z" />
    <glyph glyph-name="D" unicode="D" horiz-adv-x="691" 
d="M68 153c26 0 51 -12 77 -27c12 20 22 47 30 81l89 419c10 47 49 64 86 64c18 0 36 -5 48 -13l-95 -435c-17 -75 -43 -129 -73 -167c24 -11 49 -19 77 -19c162 0 242 226 242 414c0 135 -51 252 -183 252c-160 0 -230 -78 -230 -163c0 -26 8 -44 20 -58
c-15 -7 -29 -10 -43 -10c-51 0 -81 45 -81 95c0 100 116 184 353 184c209 0 293 -139 293 -298c0 -222 -128 -480 -357 -480c-55 0 -97 20 -132 44c-45 -34 -94 -44 -136 -44c-51 0 -89 26 -89 70c0 43 37 91 104 91zM60 66c18 0 40 7 60 27c-19 16 -35 27 -51 27
c-28 0 -45 -15 -45 -29c0 -15 15 -25 36 -25z" />
    <glyph glyph-name="E" unicode="E" 
d="M137 571c0 98 78 199 215 199c116 0 163 -60 163 -124c0 -56 -32 -105 -82 -105c-16 0 -47 12 -58 40c31 9 49 43 49 74s-18 59 -59 59c-77 0 -120 -73 -120 -146c0 -63 32 -126 102 -143c2 -13 -1 -27 -10 -38c-99 -7 -154 -98 -154 -179c0 -67 37 -128 119 -128
c59 0 129 16 184 57c11 -5 17 -14 17 -24c0 -7 -2 -15 -9 -22c-70 -70 -174 -99 -263 -99c-131 0 -189 94 -189 198c0 97 64 199 175 233c-55 36 -80 91 -80 148z" />
    <glyph glyph-name="F" unicode="F" horiz-adv-x="484" 
d="M136 546c0 -17 6 -42 20 -58c-15 -7 -29 -10 -42 -10c-52 0 -82 45 -82 93c0 164 182 199 277 199c111 0 207 -43 322 8c22 -90 -26 -151 -98 -151c-40 0 -95 27 -146 50l-56 -262c48 -5 88 -18 129 2c24 -31 -3 -82 -55 -82c-30 0 -58 11 -87 17l-63 -296
c-10 -47 -49 -64 -86 -64c-23 0 -42 5 -53 13l159 704c-67 -7 -139 -58 -139 -163z" />
    <glyph glyph-name="G" unicode="G" horiz-adv-x="572" 
d="M251 -8c-157 0 -226 138 -226 292c0 255 150 486 333 486c191 0 160 -240 54 -240c-16 0 -47 12 -58 40c51 30 56 122 -10 122c-87 0 -178 -187 -178 -391c0 -118 40 -216 141 -216c57 0 123 64 132 189c-34 -8 -67 -21 -103 -21c-70 0 -108 70 -75 113
c60 -33 120 0 196 0c69 0 102 -54 72 -96c-6 6 -15 11 -29 12c-16 -206 -134 -290 -249 -290z" />
    <glyph glyph-name="H" unicode="H" horiz-adv-x="672" 
d="M680 91c-58 -54 -116 -99 -174 -99c-60 0 -120 28 -95 145l53 251c-43 -15 -108 -25 -156 -26l-65 -306c-10 -47 -49 -64 -86 -64c-23 0 -42 5 -53 13l161 711h-5c-91 0 -124 -51 -124 -98c0 -22 8 -44 20 -58c-15 -7 -29 -10 -43 -10c-51 0 -81 45 -81 95
c0 63 48 135 166 135c83 0 168 -44 211 -20c10 -6 14 -16 14 -26c0 -19 -12 -39 -35 -39h-9l-57 -265c51 0 109 4 152 8l53 248c10 47 49 64 86 64c18 0 35 -5 48 -13l-124 -576c-11 -58 6 -74 33 -74c32 0 79 30 102 50c11 -5 17 -14 17 -24c0 -7 -3 -15 -9 -22z" />
    <glyph glyph-name="I" unicode="I" horiz-adv-x="383" 
d="M260 716c-91 0 -124 -51 -124 -98c0 -22 8 -44 20 -58c-15 -7 -29 -10 -43 -10c-51 0 -81 45 -81 95c0 63 48 135 166 135c83 0 168 -44 211 -20c10 -6 14 -16 14 -26c0 -19 -12 -39 -35 -39h-9l-136 -639c-10 -47 -49 -64 -86 -64c-23 0 -42 5 -53 13l161 711h-5z" />
    <glyph glyph-name="J" unicode="J" horiz-adv-x="536" 
d="M164 -143c61 0 92 57 130 229l137 630c-90 0 -123 -51 -123 -98c0 -22 8 -44 20 -58c-15 -7 -29 -10 -43 -10c-51 0 -81 45 -81 95c0 63 48 135 166 135c83 0 168 -44 211 -20c10 -6 14 -16 14 -26c0 -19 -12 -39 -35 -39c-4 0 -8 0 -12 1l-137 -649
c-35 -164 -119 -248 -246 -248c-104 0 -148 73 -148 146c0 71 46 141 125 141c72 0 102 -43 75 -117c-17 16 -32 18 -47 18c-51 0 -73 -36 -73 -70c0 -29 24 -60 67 -60z" />
    <glyph glyph-name="K" unicode="K" horiz-adv-x="660" 
d="M519 -8c-115 0 -154 193 -166 350l-51 -7l-59 -279c-10 -47 -49 -64 -86 -64c-23 0 -42 5 -53 13l161 711h-5c-91 0 -124 -51 -124 -98c0 -22 8 -44 20 -58c-15 -7 -29 -10 -43 -10c-51 0 -81 45 -81 95c0 63 48 135 166 135c83 0 168 -44 211 -20c10 -6 14 -16 14 -26
c0 -19 -12 -39 -35 -39h-9l-65 -307l24 8c139 81 181 237 205 350c11 6 25 8 37 8c33 0 69 -23 69 -60c0 -94 -75 -193 -186 -282c15 -152 45 -325 119 -325c27 0 59 23 78 50c11 -5 15 -14 15 -23c0 -33 -61 -122 -156 -122z" />
    <glyph glyph-name="L" unicode="L" horiz-adv-x="514" 
d="M397 698h-11l-99 -456c-12 -53 -28 -95 -48 -128c46 -14 90 -26 134 -26c71 0 118 28 141 49c11 -5 17 -14 17 -24c0 -26 -85 -121 -182 -121c-83 0 -129 26 -164 55c-47 -39 -102 -53 -157 -53c-122 0 -98 159 24 159c30 0 59 -4 87 -11c8 19 14 40 20 65l108 512
c-77 -2 -116 -46 -116 -108c0 -17 5 -34 14 -52c-93 -24 -126 28 -126 80c0 112 78 141 168 140c83 0 168 -40 211 -16c10 -6 14 -16 14 -26c0 -19 -12 -39 -35 -39zM47 69c26 0 50 12 68 34c-17 10 -37 17 -62 17c-51 0 -67 -51 -6 -51z" />
    <glyph glyph-name="M" unicode="M" horiz-adv-x="949" 
d="M432 716c-91 0 -124 -51 -124 -98c0 -22 8 -44 20 -58c-15 -7 -29 -10 -43 -10c-51 0 -81 45 -81 95c0 63 48 135 166 135c83 0 168 -44 211 -20c10 -6 14 -16 14 -26c0 -19 -12 -39 -35 -39h-1l-36 -532l232 523c18 45 49 64 86 64c18 0 43 -5 55 -13l-82 -576
c-8 -59 6 -74 33 -74c32 0 79 30 102 50c11 -5 17 -14 17 -24c0 -7 -3 -15 -9 -22c-55 -57 -114 -99 -172 -99c-55 0 -114 27 -100 119l67 452l-218 -512c-18 -46 -48 -59 -85 -59c-18 0 -36 5 -48 13l36 443l5 117c-135 -431 -240 -573 -359 -573c-50 0 -86 48 -86 137
c0 58 40 75 85 75c18 0 36 -6 50 -17c-17 -39 -21 -80 -21 -103v-9c79 30 180 153 326 641h-5z" />
    <glyph glyph-name="N" unicode="N" horiz-adv-x="671" 
d="M315 716c-91 0 -124 -51 -124 -98c0 -22 8 -44 20 -58c-15 -7 -29 -10 -43 -10c-51 0 -81 45 -81 95c0 63 48 135 166 135c83 0 168 -44 211 -20c10 -6 14 -16 14 -26c0 -19 -12 -39 -35 -39h-1l108 -467c38 149 48 245 48 326c0 85 -16 159 -53 210c18 16 44 26 82 26
c55 0 66 -45 66 -83c0 -134 -41 -311 -77 -438l-78 -272c-30 -10 -55 -5 -63 28l-125 545c-82 -472 -177 -578 -264 -578c-50 0 -86 48 -86 137c0 58 40 75 85 75c18 0 36 -6 50 -17c-17 -39 -21 -80 -21 -103v-5c56 36 132 167 205 626l-3 11h-1z" />
    <glyph glyph-name="O" unicode="O" horiz-adv-x="530" 
d="M348 692c-121 0 -204 -220 -204 -386c0 -103 31 -187 104 -187c87 0 201 128 201 392c0 119 -45 181 -101 181zM202 -8c-136 0 -199 135 -199 292c0 219 124 486 339 486c138 0 197 -119 197 -258c0 -236 -127 -520 -337 -520z" />
    <glyph glyph-name="P" unicode="P" horiz-adv-x="631" 
d="M116 5l140 623c10 46 48 62 83 62c18 0 35 -5 47 -13l-70 -330c104 5 186 102 186 241c0 73 -40 134 -141 134c-168 0 -225 -88 -225 -163c0 -26 8 -44 20 -58c-15 -7 -29 -10 -43 -10c-51 0 -81 45 -81 95c0 118 154 184 349 184c176 0 244 -80 244 -174
c0 -180 -139 -296 -304 -296h-15l-51 -244c-10 -47 -49 -64 -86 -64c-23 0 -42 5 -53 13z" />
    <glyph glyph-name="Q" unicode="Q" horiz-adv-x="544" 
d="M202 -8c-136 0 -199 135 -199 292c0 219 124 486 339 486c138 0 197 -119 197 -258c0 -187 -80 -404 -218 -486c32 -75 66 -95 121 -95c30 0 59 15 84 33c18 -12 18 -37 9 -48c-29 -42 -87 -65 -134 -65c-90 0 -145 24 -191 142c-3 0 -6 -1 -8 -1zM348 692
c-121 0 -204 -220 -204 -386c0 -103 31 -187 104 -187c87 0 201 128 201 392c0 119 -45 181 -101 181z" />
    <glyph glyph-name="R" unicode="R" horiz-adv-x="684" 
d="M519 -8c-105 0 -147 162 -163 310c-11 -1 -23 -2 -35 -2h-14l-52 -244c-10 -47 -49 -64 -86 -64c-23 0 -42 5 -53 13l141 623c10 46 48 62 83 62c18 0 35 -5 47 -13l-70 -330c103 8 185 136 185 241c0 73 -40 134 -141 134c-168 0 -225 -88 -225 -163c0 -26 8 -44 20 -58
c-15 -7 -29 -10 -43 -10c-51 0 -81 45 -81 95c0 118 154 184 349 184c176 0 244 -80 244 -174c0 -91 -63 -194 -155 -251c18 -132 49 -258 112 -258c32 0 79 29 102 50c11 -5 17 -14 17 -24c0 -7 -3 -15 -9 -22c-53 -56 -115 -99 -173 -99z" />
    <glyph glyph-name="S" unicode="S" horiz-adv-x="570" 
d="M372 770c114 0 162 -75 162 -141c0 -52 -30 -98 -81 -98c-16 0 -47 12 -58 40c32 10 51 46 51 79s-19 64 -61 64c-62 0 -94 -57 -94 -121c0 -143 209 -183 209 -355c0 -155 -114 -246 -264 -246c-139 0 -204 97 -204 190c0 85 55 166 159 166c33 0 66 -24 66 -62
c0 -10 -2 -20 -7 -32c-66 22 -115 -22 -115 -79c0 -53 36 -106 105 -106c82 0 121 65 121 139c0 161 -200 183 -200 367c0 112 89 195 211 195z" />
    <glyph glyph-name="T" unicode="T" horiz-adv-x="466" 
d="M136 546c0 -17 6 -42 20 -58c-15 -7 -29 -10 -42 -10c-52 0 -82 45 -82 93c0 164 182 199 277 199c111 0 207 -43 322 8c22 -90 -26 -151 -98 -151c-33 0 -77 18 -120 37l-129 -608c-10 -47 -49 -64 -86 -64c-23 0 -42 5 -53 13l159 703c-5 1 -10 2 -14 2
c-71 0 -154 -51 -154 -164z" />
    <glyph glyph-name="U" unicode="U" horiz-adv-x="642" 
d="M260 716c-91 0 -124 -51 -124 -98c0 -22 8 -44 20 -58c-15 -7 -29 -10 -43 -10c-51 0 -81 45 -81 95c0 63 48 135 166 135c83 0 168 -44 211 -20c10 -6 14 -16 14 -26c0 -19 -12 -39 -35 -39h-7l-85 -402c-33 -158 -16 -198 45 -198c116 0 215 305 215 522
c0 56 -7 108 -35 148c17 21 40 35 72 39c50 6 70 -29 72 -52c1 -13 2 -26 2 -39c-1 -231 -174 -721 -383 -721c-104 0 -156 97 -107 326l84 398h-1z" />
    <glyph glyph-name="W" unicode="W" horiz-adv-x="946" 
d="M292 0l-18 716c-87 -2 -119 -52 -119 -98c0 -22 8 -44 20 -58c-15 -7 -29 -10 -43 -10c-51 0 -81 45 -81 95c0 63 48 135 166 135c83 0 168 -44 211 -20c10 -6 14 -16 14 -26c0 -19 -12 -39 -35 -39h-5l7 -533l169 534c13 39 42 54 73 54c16 0 37 -4 47 -11l36 -605
l73 182c50 125 111 331 39 448c16 16 48 26 76 26c49 0 69 -32 69 -82c0 -112 -83 -312 -138 -439l-95 -218c-19 -46 -48 -64 -85 -64c-18 0 -43 5 -55 13l-35 526l-151 -475c-19 -46 -48 -64 -85 -64c-18 0 -43 5 -55 13z" />
    <glyph glyph-name="X" unicode="X" horiz-adv-x="620" 
d="M482 -8c-48 0 -89 29 -102 92l-36 168c-95 -168 -192 -260 -268 -260c-50 0 -86 48 -86 137c0 58 40 75 85 75c18 0 36 -6 50 -17c-17 -39 -21 -80 -21 -103v-8c52 24 133 100 222 262l-80 377c-77 -7 -105 -54 -105 -97c0 -22 8 -44 20 -58c-15 -7 -29 -10 -43 -10
c-51 0 -81 45 -81 95c0 63 48 135 166 135c83 0 168 -44 211 -20c10 -6 14 -16 14 -26c0 -19 -12 -39 -35 -39h-3l51 -247c66 91 97 206 87 316c18 13 38 26 66 26c48 0 57 -38 57 -57c0 -149 -91 -253 -198 -345l54 -260c5 -26 17 -41 38 -41c32 0 79 29 102 50
c11 -5 17 -14 17 -24c0 -7 -3 -15 -9 -22c-53 -56 -115 -99 -173 -99z" />
    <glyph glyph-name="Z" unicode="Z" horiz-adv-x="476" 
d="M311 -8c-85 0 -130 28 -165 57c-51 -41 -103 -57 -146 -57c-50 0 -88 22 -88 70c0 43 37 91 104 91c28 0 55 -4 81 -9c6 9 11 19 17 31l254 504c-113 -3 -211 19 -295 -43c-18 20 -26 41 -26 61c0 44 27 83 92 83c118 0 219 -36 346 -36c21 0 42 8 50 16
c12 -4 17 -16 17 -26c0 -18 -13 -43 -45 -47l-247 -490c-17 -33 -34 -61 -53 -85c43 -13 85 -24 128 -24c71 0 118 28 141 49c11 -5 17 -14 17 -24c0 -26 -85 -121 -182 -121zM17 120c-28 0 -45 -15 -45 -29c0 -13 12 -25 37 -25c21 0 41 10 64 40c-16 8 -34 14 -56 14z" />
    <glyph glyph-name="a.end" horiz-adv-x="537" 
d="M459 492l-70 -331c-11 -51 2 -73 22 -73c18 0 41 12 56 48c19 0 30 -10 30 -27c0 -70 -82 -117 -138 -117c-47 0 -94 22 -93 101c-42 -59 -95 -101 -152 -101c-104 0 -125 104 -125 168c0 175 113 349 252 349c45 0 78 -11 103 -33c17 20 43 29 68 29c18 0 35 -5 47 -13z
M167 95c32 0 74 26 101 63l56 268c-17 6 -32 8 -47 8c-121 0 -164 -158 -164 -267c0 -50 23 -72 54 -72z" />
    <glyph glyph-name="b" unicode="b" horiz-adv-x="455" 
d="M3 263l72 335c6 27 -13 33 -29 14c-14 13 -15 23 -15 31c0 23 72 71 126 71c36 0 56 -17 48 -55l-47 -232c51 60 97 78 137 78c77 0 125 -60 125 -156c0 -170 -165 -357 -314 -357c-109 0 -136 117 -103 271zM294 327c0 55 -23 77 -54 77c-32 0 -71 -24 -99 -60
c-27 -118 -31 -155 -31 -178c0 -57 23 -71 49 -71c71 0 135 115 135 232z" />
    <glyph glyph-name="c.end" horiz-adv-x="404" 
d="M-11 171c0 154 105 338 255 338c81 0 121 -32 121 -97c0 -56 -33 -82 -70 -82c-13 0 -29 4 -40 14c11 24 16 51 16 65c0 19 -12 29 -37 29c-56 0 -121 -107 -121 -251c0 -75 39 -108 90 -108c44 0 76 21 93 57c19 0 30 -10 30 -27c0 -55 -92 -117 -180 -117
c-92 0 -157 48 -157 179z" />
    <glyph glyph-name="d.end" horiz-adv-x="535" 
d="M357 -8c-47 0 -92 22 -91 101c-42 -59 -95 -101 -152 -101c-104 0 -125 104 -125 168c0 175 113 349 252 349c41 0 72 -9 96 -28l25 117c6 27 -13 33 -29 14c-14 13 -15 23 -15 31c0 23 72 71 126 71c36 0 56 -17 48 -55l-105 -498c-11 -51 2 -73 22 -73
c18 0 41 12 56 48c19 0 30 -10 30 -27c0 -70 -82 -117 -138 -117zM268 158v-1l57 268c-17 6 -33 9 -48 9c-121 0 -164 -158 -164 -267c0 -50 23 -72 54 -72c32 0 74 26 101 63z" />
    <glyph glyph-name="e.end" horiz-adv-x="393" 
d="M145 -8c-92 0 -157 48 -157 179c0 130 86 338 251 338c91 0 114 -51 114 -96c0 -85 -45 -153 -238 -260c10 -51 44 -74 87 -74c44 0 76 21 93 57c19 0 30 -10 30 -27c0 -55 -92 -117 -180 -117zM246 431c-99 0 -131 -165 -134 -235c97 61 163 131 163 196
c0 23 -12 39 -29 39z" />
    <glyph glyph-name="g.end" horiz-adv-x="499" 
d="M451 -32c-32 7 -68 7 -105 3c-45 -178 -118 -356 -281 -356c-61 0 -118 40 -118 123c0 124 156 220 291 269c7 25 14 50 22 78c-41 -55 -92 -93 -146 -93c-104 0 -125 104 -125 168c0 175 113 349 252 349c45 0 78 -11 103 -33c17 20 43 29 68 29c18 0 35 -5 47 -13
l-84 -396c-4 -17 -7 -35 -11 -53c16 3 30 4 41 4c41 0 59 -40 46 -79zM268 158l56 268c-17 6 -32 8 -47 8c-121 0 -164 -158 -164 -267c0 -50 23 -72 54 -72c32 0 74 26 101 63zM56 -296c69 0 110 69 161 233c-110 -44 -202 -118 -202 -186c0 -35 28 -47 41 -47z" />
    <glyph glyph-name="h.end" horiz-adv-x="499" 
d="M243 392c-36 0 -66 -21 -93 -53l-63 -284c-10 -46 -48 -63 -84 -63c-18 0 -30 2 -42 10l127 596c6 27 -13 33 -29 14c-14 13 -15 23 -15 31c0 23 72 71 126 71c36 0 56 -17 48 -55l-52 -245c38 54 82 91 133 91c50 0 119 -29 94 -147l-42 -197c-11 -51 2 -73 22 -73
c18 0 41 12 56 48c19 0 30 -10 30 -27c0 -70 -82 -117 -138 -117c-50 0 -121 25 -96 142l42 199c7 32 9 59 -24 59z" />
    <glyph glyph-name="i.end" horiz-adv-x="260" 
d="M-15 111l59 278c3 16 -1 25 -10 25c-5 0 -11 -4 -20 -12c-13 8 -20 39 0 55c34 27 70 48 112 48c36 0 56 -17 48 -55l-62 -289c-11 -51 2 -73 22 -73c18 0 41 12 56 48c19 0 30 -10 30 -27c0 -70 -82 -117 -138 -117c-50 0 -116 28 -97 119zM77 634c4 39 37 70 76 70
s68 -31 64 -70c-6 -39 -39 -70 -78 -70s-68 31 -62 70z" />
    <glyph glyph-name="j.end" horiz-adv-x="230" 
d="M-20 89l65 300c3 16 -1 25 -10 25c-5 0 -11 -4 -20 -12c-13 8 -20 39 0 55c34 27 70 48 112 48c36 0 56 -17 48 -55l-76 -354c-4 -17 -8 -35 -12 -53c17 3 31 4 42 4c41 0 59 -40 46 -79c-32 7 -68 7 -105 3c-45 -178 -117 -356 -281 -356c-61 0 -118 40 -118 123
c0 124 156 219 291 269c6 25 12 52 18 82zM-220 -296c70 0 117 67 164 234c-111 -43 -205 -119 -205 -187c0 -35 28 -47 41 -47zM79 634c2 39 34 70 73 70s69 -31 67 -70c-3 -39 -35 -70 -74 -70s-69 31 -66 70z" />
    <glyph glyph-name="k.end" horiz-adv-x="456" 
d="M-38 2l125 596c6 27 -13 33 -29 14c-14 13 -15 23 -15 31c0 23 72 71 126 71c36 0 56 -17 48 -55l-82 -383l20 5c64 19 97 56 97 116c0 28 -3 50 -14 62c13 27 43 46 78 46c40 0 56 -21 56 -75c1 -80 -62 -140 -125 -170c14 -59 41 -172 93 -172c26 0 38 14 46 48
c19 0 30 -10 30 -27c0 -70 -60 -117 -128 -117c-100 0 -126 160 -141 238l-23 -6l-36 -169c-10 -46 -48 -63 -84 -63c-18 0 -30 2 -42 10z" />
    <glyph glyph-name="l.end" horiz-adv-x="296" 
d="M-8 140c41 363 113 574 244 574c47 0 80 -29 80 -81c0 -78 -65 -239 -195 -436c-1 -12 -3 -24 -4 -36c-6 -53 2 -73 22 -73c18 0 41 12 56 48c19 0 30 -10 30 -27c0 -70 -82 -117 -138 -117c-50 0 -108 30 -95 148zM243 648c-33 0 -76 -152 -109 -363
c89 163 126 307 126 341c0 17 -6 22 -17 22z" />
    <glyph glyph-name="m.end" horiz-adv-x="735" 
d="M630 358l-42 -197c-11 -51 2 -73 22 -73c18 0 41 12 56 48c19 0 30 -10 30 -27c0 -70 -82 -117 -138 -117c-50 0 -121 25 -96 142l42 199c8 32 9 59 -24 59c-34 0 -61 -18 -87 -46l-62 -291c-10 -46 -48 -63 -84 -63c-18 0 -35 5 -47 13l70 328c7 32 9 59 -24 59
c-36 0 -65 -20 -92 -52l-61 -285c-10 -46 -48 -63 -84 -63c-18 0 -35 5 -47 13l82 384c4 16 -1 25 -10 25c-5 0 -11 -4 -20 -12c-13 8 -20 39 0 55c34 27 70 48 112 48c36 0 57 -17 48 -55l-10 -45c41 59 91 100 148 100c41 0 87 -32 84 -103c42 60 92 103 150 103
c45 0 110 -30 84 -147z" />
    <glyph glyph-name="n.end" horiz-adv-x="502" 
d="M396 358l-42 -197c-11 -51 2 -73 22 -73c18 0 41 12 56 48c19 0 30 -10 30 -27c0 -70 -82 -117 -138 -117c-50 0 -121 25 -96 142l42 199c9 42 -5 59 -27 59c-27 0 -67 -25 -89 -52l-61 -285c-10 -46 -48 -63 -84 -63c-18 0 -35 5 -47 13l82 384c4 16 -1 25 -10 25
c-5 0 -11 -4 -20 -12c-13 8 -20 39 0 55c34 27 70 48 112 48c36 0 57 -17 48 -55l-10 -45c42 60 106 100 164 100c53 0 90 -42 68 -147z" />
    <glyph glyph-name="o.end" horiz-adv-x="487" 
d="M501 457c19 -16 14 -43 0 -55c-26 -22 -65 -69 -106 -95c1 -4 1 -8 1 -11c0 -153 -141 -304 -261 -304c-103 0 -147 83 -147 177c0 151 105 340 256 340c50 0 90 -14 120 -59c-2 -23 -19 -34 -34 -28c-19 7 -40 11 -64 11c-91 0 -150 -134 -150 -232
c0 -88 30 -122 65 -122c51 0 115 74 115 164c0 13 -2 27 -5 41c-18 1 -35 5 -46 12c-21 55 1 105 58 105c34 0 63 -17 79 -46c40 25 77 68 119 102z" />
    <glyph glyph-name="p" unicode="p" horiz-adv-x="476" 
d="M-114 -364l158 753c4 16 -1 25 -10 25c-5 0 -11 -4 -20 -12c-13 8 -20 39 0 55c34 27 70 48 112 48c36 0 57 -17 48 -55l-5 -24c39 48 86 79 136 79c88 0 127 -74 127 -165c0 -150 -109 -348 -280 -348c-24 0 -49 9 -69 26l-69 -332c-10 -46 -45 -63 -81 -63
c-18 0 -35 5 -47 13zM250 405c-30 0 -66 -23 -99 -64l-55 -261c18 -10 34 -11 50 -11c102 0 163 136 163 235c0 70 -25 101 -59 101z" />
    <glyph glyph-name="q" unicode="q" horiz-adv-x="492" 
d="M456 492l-171 -806c-10 -46 -45 -63 -81 -63c-18 0 -35 5 -47 13l92 436c-39 -48 -86 -80 -135 -80c-104 0 -125 104 -125 168c0 175 113 349 252 349c44 0 77 -11 102 -33c16 21 41 29 66 29c18 0 35 -5 47 -13zM167 95c32 0 73 26 100 62l57 269c-17 6 -32 8 -47 8
c-121 0 -164 -158 -164 -267c0 -50 23 -72 54 -72z" />
    <glyph glyph-name="s" unicode="s" horiz-adv-x="384" 
d="M94 -8c-107 0 -152 65 -141 132c7 41 36 77 85 77c16 0 29 -4 40 -14c-13 -15 -21 -39 -21 -63c0 -46 31 -66 63 -66c38 0 79 31 79 80c0 76 -165 67 -165 217c0 80 55 154 171 154c85 0 126 -32 126 -97c0 -56 -33 -84 -70 -82c-13 1 -27 5 -40 14c10 12 17 34 17 54
c0 37 -21 54 -45 54c-27 0 -58 -27 -58 -81c0 -106 164 -83 164 -210c0 -97 -58 -169 -205 -169z" />
    <glyph glyph-name="t.end" horiz-adv-x="264" 
d="M219 442h-44l-59 -281c-11 -51 2 -73 22 -73c18 0 41 12 56 48c19 0 30 -10 30 -27c0 -70 -82 -117 -138 -117c-50 0 -120 29 -95 148l64 302h-50c-5 32 11 58 42 58h20l18 82c10 46 48 63 84 63c18 0 35 -5 47 -13l-28 -132h73c5 -32 -11 -58 -42 -58z" />
    <glyph glyph-name="u.end" horiz-adv-x="508" 
d="M-3 184l47 205c4 16 -1 25 -10 25c-5 0 -11 -4 -20 -12c-13 8 -20 39 0 55c34 27 70 48 112 48c36 0 56 -17 48 -55l-61 -284c-9 -41 4 -59 34 -59c35 0 65 20 92 52l60 283c10 46 48 63 84 63c18 0 35 -5 47 -13l-70 -331c-11 -51 2 -73 22 -73c18 0 41 12 56 48
c19 0 30 -10 30 -27c0 -70 -82 -117 -138 -117c-49 0 -98 25 -93 113c-40 -65 -89 -113 -146 -113c-111 0 -111 117 -94 192z" />
    <glyph glyph-name="v" unicode="v" horiz-adv-x="420" 
d="M45 399c2 8 -2 15 -11 15c-5 0 -11 -4 -20 -12c-13 8 -20 39 0 55c34 27 70 48 112 48c36 0 57 -17 48 -55c-26 -123 -38 -272 4 -354c76 60 126 165 126 259c0 67 -20 126 -62 145c2 52 34 78 67 77c39 -1 81 -38 81 -111c0 -229 -164 -474 -272 -474
c-106 0 -109 291 -73 407z" />
    <glyph glyph-name="w" unicode="w" horiz-adv-x="669" 
d="M301 442c9 46 48 63 84 63c17 0 36 -5 47 -13c-19 -88 -35 -171 -35 -246c0 -54 9 -105 30 -150c76 60 126 165 126 259c0 67 -20 126 -62 145c2 52 34 78 67 77c39 -1 81 -38 81 -111c0 -229 -164 -474 -272 -474c-52 0 -71 94 -77 193c-53 -120 -119 -193 -172 -193
c-68 0 -94 120 -94 237c0 65 8 129 21 170c3 10 -4 15 -11 15c-6 0 -13 -4 -19 -11c-14 13 -15 23 -15 31c0 23 72 71 126 71c36 0 56 -17 48 -55c-14 -65 -24 -137 -24 -203c0 -59 8 -112 28 -151c61 60 90 167 123 346z" />
    <glyph glyph-name="x.end" horiz-adv-x="502" 
d="M376 87c18 0 46 13 56 49c19 0 30 -10 30 -27c0 -70 -90 -117 -146 -117c-59 0 -99 32 -118 156c-49 -71 -118 -156 -176 -156c-41 0 -71 39 -71 112c0 48 33 62 70 62c12 0 28 -5 41 -14c-13 -29 -17 -59 -17 -79c39 22 81 52 144 154l-21 169c-4 36 -55 60 -98 7
c-14 13 -15 23 -15 31c0 23 68 75 122 75c69 0 97 -39 108 -127l9 -71c37 43 77 101 77 142c0 22 -14 48 -54 47c2 52 34 77 67 77c43 0 96 -21 81 -111c-12 -69 -65 -128 -164 -213l9 -71c6 -47 22 -95 66 -95z" />
    <glyph glyph-name="y.end" horiz-adv-x="459" 
d="M-3 184l47 205c4 16 -1 25 -10 25c-5 0 -11 -4 -20 -12c-13 8 -20 39 0 55c34 27 70 48 112 48c36 0 56 -17 48 -55l-62 -288c-7 -31 1 -55 34 -55c29 0 54 14 77 36l65 299c10 46 48 63 84 63c18 0 35 -5 47 -13l-85 -396c-4 -17 -8 -35 -12 -53c17 3 31 4 42 4
c41 0 59 -40 46 -79c-32 7 -68 7 -105 3c-46 -178 -122 -356 -291 -356c-56 0 -108 40 -108 123c0 124 156 220 291 269c6 22 12 44 19 68c-39 -49 -84 -82 -134 -82c-99 0 -105 98 -85 191zM15 -296c69 0 110 69 161 233c-110 -44 -202 -118 -202 -186c0 -35 28 -47 41 -47
z" />
    <glyph glyph-name="z" unicode="z" horiz-adv-x="393" 
d="M311 497c28 -14 44 -31 65 -68c-86 -88 -174 -228 -227 -338c39 -11 78 -24 119 -24c45 0 96 35 125 70c11 -5 17 -14 17 -24c0 -7 -3 -15 -9 -22c-50 -53 -114 -99 -183 -99c-36 0 -78 22 -127 39c-15 -26 -34 -39 -54 -39c-57 0 -79 45 -58 95c17 8 33 13 49 16
c56 113 141 228 210 311c-48 -8 -97 0 -135 0c-28 0 -52 -4 -64 -21c-9 14 -13 30 -13 44c0 41 29 78 77 78c59 0 96 -35 144 -35c19 0 40 4 64 17z" />
    <glyph glyph-name="space" unicode=" " horiz-adv-x="250" 
 />
    <glyph glyph-name="zero" unicode="0" horiz-adv-x="538" 
d="M538 494c0 -208 -92 -503 -334 -503c-153 0 -184 114 -184 256c0 208 92 503 334 503c153 0 184 -114 184 -256zM150 220c0 -102 28 -163 77 -163c147 0 181 356 181 464c0 102 -28 163 -77 163c-147 0 -181 -356 -181 -464z" />
    <glyph glyph-name="one" unicode="1" horiz-adv-x="301" 
d="M321 742l-147 -691c-10 -47 -49 -64 -86 -64c-18 0 -36 5 -48 13l119 556c-29 -11 -60 -17 -85 -17c-19 0 -35 40 -17 63c94 20 159 88 215 151c19 3 35 -1 49 -11z" />
    <glyph glyph-name="two" unicode="2" horiz-adv-x="498" 
d="M208 540c-68 -26 -113 8 -113 75c0 88 94 140 189 140c102 0 204 -54 204 -180c0 -215 -317 -292 -380 -464c159 0 266 4 332 66c53 -118 -24 -188 -98 -188c-77 0 -179 14 -247 30c-17 -16 -46 -21 -71 -15c-9 43 0 96 20 134c83 162 325 264 325 461
c0 62 -39 89 -81 89c-54 0 -92 -37 -92 -99c0 -15 4 -31 12 -49z" />
    <glyph glyph-name="three" unicode="3" horiz-adv-x="507" 
d="M538 732c-26 -109 -132 -222 -233 -306c119 -11 160 -83 160 -157c0 -145 -104 -277 -248 -277c-122 0 -196 58 -196 158c0 72 40 153 131 153c33 0 70 -24 64 -76c-57 13 -89 -21 -89 -72s27 -93 84 -93c71 0 124 74 124 197c0 68 -24 130 -128 115c-10 17 -9 37 -3 53
c63 54 130 114 179 191c-41 2 -86 16 -152 16c-41 0 -91 -16 -115 -30c-28 95 26 146 97 146c79 0 133 -20 190 -20c31 0 63 6 100 24c18 -3 28 -11 35 -22z" />
    <glyph glyph-name="four" unicode="4" horiz-adv-x="513" 
d="M20 255c56 58 176 251 176 340c0 53 -19 93 -50 110c27 31 56 44 82 45c52 1 84 -22 84 -88c0 -79 -106 -276 -190 -360c85 10 118 -5 175 -11l82 395c10 47 49 64 86 64c18 0 36 -5 48 -13l-91 -437c17 5 33 12 44 18c23 -81 -12 -116 -66 -124l-30 -143
c-10 -47 -49 -64 -86 -64c-18 0 -36 5 -48 13l41 196c-59 5 -95 13 -167 7c-17 -1 -33 -4 -47 -8c-24 13 -37 34 -43 60z" />
    <glyph glyph-name="five" unicode="5" horiz-adv-x="509" 
d="M398 602c-57 0 -134 13 -187 24l-42 -191c29 9 57 13 85 13c144 0 202 -84 202 -179c0 -145 -104 -277 -248 -277c-122 0 -196 58 -196 158c0 72 40 153 131 153c33 0 70 -24 64 -76c-57 13 -89 -21 -89 -72s27 -93 84 -93c71 0 124 64 124 197c0 68 -30 127 -104 127
c-21 0 -45 -4 -73 -12c-15 3 -36 17 -45 34l69 341c106 -18 225 -30 324 10c1 -11 2 -22 2 -39c0 -67 -30 -118 -101 -118z" />
    <glyph glyph-name="six" unicode="6" horiz-adv-x="523" 
d="M377 770c96 0 126 -50 126 -97c0 -26 -19 -85 -89 -74c10 68 -4 109 -56 109c-100 0 -167 -151 -193 -307c39 35 85 56 129 56c121 0 179 -84 179 -181c0 -131 -90 -285 -265 -285c-129 0 -187 114 -187 252c0 233 133 527 356 527zM248 380c-29 0 -61 -15 -91 -36
c-3 -29 -4 -58 -4 -85c0 -149 25 -198 78 -198c63 0 114 122 114 215c0 57 -28 104 -97 104z" />
    <glyph glyph-name="seven" unicode="7" horiz-adv-x="420" 
d="M202 52c0 -48 -49 -64 -86 -64c-18 0 -36 5 -48 13c0 229 158 486 271 616c-78 -3 -107 17 -190 17c-40 0 -91 -16 -115 -30c-28 95 26 166 97 166c125 0 147 -43 250 -34c27 2 60 11 80 18c15 -17 26 -46 11 -62c-205 -230 -270 -467 -270 -640z" />
    <glyph glyph-name="eight" unicode="8" horiz-adv-x="485" 
d="M484 616c2 -64 -39 -137 -119 -185c54 -43 105 -102 105 -218c0 -144 -128 -225 -251 -225c-124 0 -198 90 -198 190c0 92 49 173 158 223c-38 35 -68 76 -68 140c0 141 108 220 208 220c104 0 163 -66 165 -145zM338 187c0 92 -62 136 -122 183
c-45 -48 -74 -116 -74 -184c0 -63 27 -114 95 -114c52 0 101 38 101 115zM231 587c0 -61 44 -93 95 -128c56 62 96 239 -14 237c-40 -1 -81 -36 -81 -109z" />
    <glyph glyph-name="nine" unicode="9" horiz-adv-x="528" 
d="M152 -9c-96 0 -126 50 -126 97c0 26 19 85 89 74c-10 -68 4 -109 56 -109c100 0 167 150 193 306c-40 -35 -86 -55 -129 -55c-121 0 -179 99 -179 211c0 116 90 255 265 255c129 0 187 -114 187 -252c0 -233 -133 -527 -356 -527zM281 381c28 0 61 14 90 35
c3 29 5 58 5 86c0 149 -25 198 -78 198c-77 0 -114 -104 -114 -185c0 -72 28 -134 97 -134z" />
    <glyph glyph-name="quotesingle" unicode="'" horiz-adv-x="132" 
d="M-20 539l40 141c17 50 47 70 77 70c13 0 25 -3 35 -10l-83 -173c-11 -23 -26 -35 -44 -35c-8 0 -16 2 -25 7z" />
    <glyph glyph-name="parenleft" unicode="(" horiz-adv-x="380" 
d="M184 109c0 -105 34 -217 87 -290c-10 -17 -27 -30 -49 -35c-117 93 -159 248 -159 359c0 218 100 462 343 612c22 -9 34 -23 37 -43c-209 -178 -259 -403 -259 -603z" />
    <glyph glyph-name="parenright" unicode=")" horiz-adv-x="370" 
d="M199 430c0 105 -34 217 -87 290c10 17 27 30 49 35c117 -93 159 -248 159 -359c0 -218 -100 -462 -343 -612c-22 9 -34 23 -37 43c209 178 259 403 259 603z" />
    <glyph glyph-name="asterisk" unicode="*" horiz-adv-x="487" 
d="M88 626c5 29 44 57 82 24l46 -42l24 114c27 10 70 -11 59 -61l-12 -53l96 63c27 -13 43 -58 -2 -86l-66 -42l77 -66c-5 -29 -44 -57 -82 -24l-47 42l-23 -113c-27 -10 -70 11 -59 61l11 52l-95 -63c-27 13 -43 58 2 86l66 42z" />
    <glyph glyph-name="plus" unicode="+" horiz-adv-x="515" 
d="M84 331c-21 23 -5 87 57 87h88l31 136c33 12 86 -13 72 -74l-14 -62h122c19 -30 6 -87 -57 -87h-85l-30 -143c-27 -16 -86 14 -73 74l15 69h-126z" />
    <glyph glyph-name="comma" unicode="," horiz-adv-x="237" 
d="M-4 -144c-11 -4 -24 8 -17 26c74 64 62 140 40 169c5 36 34 66 73 66c41 0 65 -29 65 -67c0 -72 -66 -161 -161 -194z" />
    <glyph glyph-name="hyphen" unicode="-" horiz-adv-x="335" 
d="M71 245c-26 0 -40 -8 -50 -20c-9 12 -13 24 -13 36c0 34 33 64 89 64c42 0 78 -9 113 -9c19 0 37 4 55 15c7 -11 12 -23 12 -36c0 -36 -34 -73 -87 -73c-42 0 -74 23 -119 23z" />
    <glyph glyph-name="period" unicode="." horiz-adv-x="260" 
d="M19 46c2 39 34 70 73 70s69 -31 67 -70c-3 -39 -35 -70 -74 -70s-69 31 -66 70z" />
    <glyph glyph-name="slash" unicode="/" horiz-adv-x="384" 
d="M385 678l-346 -686c-35 0 -57 36 -39 72l346 686c40 0 59 -31 39 -72z" />
    <glyph glyph-name="at" unicode="@" horiz-adv-x="650" 
d="M384 119c-33 0 -65 15 -66 69c-29 -41 -64 -69 -103 -69c-67 0 -81 71 -81 116c0 72 26 154 77 202c29 26 58 40 90 40c34 0 54 -14 64 -35c11 22 34 31 55 31c13 0 25 -3 33 -9l-48 -228c-9 -41 4 -52 23 -52c71 0 124 99 124 199c0 125 -55 215 -204 215
c-179 0 -281 -147 -281 -333c0 -142 71 -247 228 -247c81 0 162 31 196 70c39 -9 35 -45 21 -63c-30 -40 -98 -70 -213 -70c-218 0 -335 134 -335 317c0 201 126 376 396 376c207 0 288 -126 288 -261c0 -127 -113 -268 -264 -268zM254 198c26 0 47 15 67 39l37 179
c-37 24 -66 4 -81 -13c-40 -45 -56 -110 -56 -163c0 -27 14 -42 33 -42z" />
    <glyph glyph-name="afii10017" unicode="&#x410;" horiz-adv-x="683" 
d="M691 91c-56 -57 -122 -99 -173 -99c-57 0 -121 28 -102 119l34 162h-112c-89 -206 -168 -281 -254 -281c-50 0 -86 48 -86 137c0 58 40 75 85 75c18 0 36 -6 50 -17c-17 -39 -21 -80 -21 -103v-9c79 30 180 153 326 641h-20c-91 0 -124 -51 -124 -98c0 -22 8 -44 20 -58
c-15 -7 -29 -10 -43 -10c-51 0 -81 45 -81 95c0 63 48 135 166 135c131 0 254 -45 331 -20c10 -6 14 -16 14 -26c0 -19 -12 -39 -35 -39h-4l-114 -534c-12 -58 6 -74 33 -74c32 0 79 30 102 50c11 -5 17 -14 17 -24c0 -7 -3 -15 -9 -22zM542 707c-18 2 -36 4 -55 6
c-45 -157 -86 -282 -125 -382h100z" />
    <glyph glyph-name="afii10019" unicode="&#x412;" horiz-adv-x="623" 
d="M473 613c0 77 -39 110 -121 110c-98 0 -216 -64 -216 -164c0 -26 8 -44 20 -58c-15 -7 -29 -10 -43 -10c-51 0 -81 45 -81 95c0 111 180 184 336 184c124 0 215 -29 215 -145c0 -77 -57 -167 -157 -220l1 -1c105 0 151 -56 151 -127c0 -121 -132 -285 -323 -285
c-110 0 -202 30 -202 76c0 22 12 43 40 52c15 -13 30 -23 46 -32l114 538c10 47 49 64 86 64c18 0 36 -5 48 -13l-58 -271c82 25 144 126 144 207zM363 361c-14 0 -29 -2 -45 -6l-64 -299h1c103 0 195 109 195 216c0 52 -28 89 -87 89z" />
    <glyph glyph-name="afii10022" unicode="&#x415;" 
d="M137 571c0 98 78 199 215 199c116 0 163 -60 163 -124c0 -56 -32 -105 -82 -105c-16 0 -47 12 -58 40c31 9 49 43 49 74s-18 59 -59 59c-77 0 -120 -73 -120 -146c0 -63 32 -126 102 -143c2 -13 -1 -27 -10 -38c-99 -7 -154 -98 -154 -179c0 -67 37 -128 119 -128
c59 0 129 16 184 57c11 -5 17 -14 17 -24c0 -7 -2 -15 -9 -22c-70 -70 -174 -99 -263 -99c-131 0 -189 94 -189 198c0 97 64 199 175 233c-55 36 -80 91 -80 148z" />
    <glyph glyph-name="afii10028" unicode="&#x41a;" horiz-adv-x="660" 
d="M519 -8c-115 0 -154 193 -166 350l-51 -7l-59 -279c-10 -47 -49 -64 -86 -64c-23 0 -42 5 -53 13l161 711h-5c-91 0 -124 -51 -124 -98c0 -22 8 -44 20 -58c-15 -7 -29 -10 -43 -10c-51 0 -81 45 -81 95c0 63 48 135 166 135c83 0 168 -44 211 -20c10 -6 14 -16 14 -26
c0 -19 -12 -39 -35 -39h-9l-65 -307l24 8c139 81 181 237 205 350c11 6 25 8 37 8c33 0 69 -23 69 -60c0 -94 -75 -193 -186 -282c15 -152 45 -325 119 -325c27 0 59 23 78 50c11 -5 15 -14 15 -23c0 -33 -61 -122 -156 -122z" />
    <glyph glyph-name="afii10031" unicode="&#x41d;" horiz-adv-x="672" 
d="M680 91c-58 -54 -116 -99 -174 -99c-60 0 -120 28 -95 145l53 251c-43 -15 -108 -25 -156 -26l-65 -306c-10 -47 -49 -64 -86 -64c-23 0 -42 5 -53 13l161 711h-5c-91 0 -124 -51 -124 -98c0 -22 8 -44 20 -58c-15 -7 -29 -10 -43 -10c-51 0 -81 45 -81 95
c0 63 48 135 166 135c83 0 168 -44 211 -20c10 -6 14 -16 14 -26c0 -19 -12 -39 -35 -39h-9l-57 -265c51 0 109 4 152 8l53 248c10 47 49 64 86 64c18 0 35 -5 48 -13l-124 -576c-11 -58 6 -74 33 -74c32 0 79 30 102 50c11 -5 17 -14 17 -24c0 -7 -3 -15 -9 -22z" />
    <glyph glyph-name="afii10032" unicode="&#x41e;" horiz-adv-x="634" 
d="M427 692c-121 0 -204 -220 -204 -386c0 -103 31 -187 104 -187c87 0 201 128 201 392c0 119 -45 181 -101 181zM281 -8c-136 0 -199 135 -199 292c0 219 124 486 339 486c138 0 197 -119 197 -258c0 -236 -127 -520 -337 -520z" />
    <glyph glyph-name="afii10034" unicode="&#x420;" horiz-adv-x="631" 
d="M116 5l140 623c10 46 48 62 83 62c18 0 35 -5 47 -13l-70 -330c104 5 186 102 186 241c0 73 -40 134 -141 134c-168 0 -225 -88 -225 -163c0 -26 8 -44 20 -58c-15 -7 -29 -10 -43 -10c-51 0 -81 45 -81 95c0 118 154 184 349 184c176 0 244 -80 244 -174
c0 -180 -139 -296 -304 -296h-15l-51 -244c-10 -47 -49 -64 -86 -64c-23 0 -42 5 -53 13z" />
    <glyph glyph-name="afii10035" unicode="&#x421;" 
d="M358 770c97 0 139 -66 139 -127c0 -53 -32 -102 -81 -102c-18 0 -48 12 -59 40c60 25 65 121 -13 121c-87 0 -178 -192 -178 -401c0 -118 40 -216 141 -216c53 0 113 15 179 52c11 -5 17 -14 17 -24c0 -7 -2 -15 -9 -22c-71 -71 -159 -99 -243 -99
c-157 0 -226 138 -226 292c0 255 150 486 333 486z" />
    <glyph glyph-name="afii10036" unicode="&#x422;" horiz-adv-x="854" 
d="M593 137l110 518c-40 4 -83 10 -129 16l-131 -615c-10 -47 -49 -64 -86 -64c-23 0 -42 5 -53 13l154 680c-43 5 -87 10 -130 13l-137 -642c-10 -47 -49 -64 -86 -64c-23 0 -42 5 -53 13l157 693c-61 -12 -118 -62 -118 -147c0 -17 3 -34 14 -52c-93 -25 -126 28 -126 80
c0 156 185 192 289 192c107 0 354 -12 464 -12c44 0 90 9 118 29c58 -22 46 -117 -25 -136l-106 -491c-12 -58 6 -74 33 -74c32 0 79 30 102 50c11 -5 17 -14 17 -24c0 -7 -3 -15 -9 -22c-58 -54 -116 -99 -174 -99c-60 0 -120 28 -95 145z" />
    <glyph glyph-name="afii10039" unicode="&#x425;" horiz-adv-x="620" 
d="M482 -8c-48 0 -89 29 -102 92l-36 168c-95 -168 -192 -260 -268 -260c-50 0 -86 48 -86 137c0 58 40 75 85 75c18 0 36 -6 50 -17c-17 -39 -21 -80 -21 -103v-8c52 24 133 100 222 262l-80 377c-77 -7 -105 -54 -105 -97c0 -22 8 -44 20 -58c-15 -7 -29 -10 -43 -10
c-51 0 -81 45 -81 95c0 63 48 135 166 135c83 0 168 -44 211 -20c10 -6 14 -16 14 -26c0 -19 -12 -39 -35 -39h-3l51 -247c66 91 97 206 87 316c18 13 38 26 66 26c48 0 57 -38 57 -57c0 -149 -91 -253 -198 -345l54 -260c5 -26 17 -41 38 -41c32 0 79 29 102 50
c11 -5 17 -14 17 -24c0 -7 -3 -15 -9 -22c-53 -56 -115 -99 -173 -99z" />
    <glyph glyph-name="afii10065.end" horiz-adv-x="537" 
d="M459 492l-70 -331c-11 -51 2 -73 22 -73c18 0 41 12 56 48c19 0 30 -10 30 -27c0 -70 -82 -117 -138 -117c-47 0 -94 22 -93 101c-42 -59 -95 -101 -152 -101c-104 0 -125 104 -125 168c0 175 113 349 252 349c45 0 78 -11 103 -33c17 20 43 29 68 29c18 0 35 -5 47 -13z
M167 95c32 0 74 26 101 63l56 268c-17 6 -32 8 -47 8c-121 0 -164 -158 -164 -267c0 -50 23 -72 54 -72z" />
    <glyph glyph-name="afii10070.end" horiz-adv-x="393" 
d="M145 -8c-92 0 -157 48 -157 179c0 130 86 338 251 338c91 0 114 -51 114 -96c0 -85 -45 -153 -238 -260c10 -51 44 -74 87 -74c44 0 76 21 93 57c19 0 30 -10 30 -27c0 -55 -92 -117 -180 -117zM246 431c-99 0 -131 -165 -134 -235c97 61 163 131 163 196
c0 23 -12 39 -29 39z" />
    <glyph glyph-name="afii10080.end" horiz-adv-x="487" 
d="M501 457c19 -16 14 -43 0 -55c-26 -22 -65 -69 -106 -95c1 -4 1 -8 1 -11c0 -153 -141 -304 -261 -304c-103 0 -147 83 -147 177c0 151 105 340 256 340c50 0 90 -14 120 -59c-2 -23 -19 -34 -34 -28c-19 7 -40 11 -64 11c-91 0 -150 -134 -150 -232
c0 -88 30 -122 65 -122c51 0 115 74 115 164c0 13 -2 27 -5 41c-18 1 -35 5 -46 12c-21 55 1 105 58 105c34 0 63 -17 79 -46c40 25 77 68 119 102z" />
    <glyph glyph-name="afii10083.end" horiz-adv-x="404" 
d="M-11 171c0 154 105 338 255 338c81 0 121 -32 121 -97c0 -56 -33 -82 -70 -82c-13 0 -29 4 -40 14c11 24 16 51 16 65c0 19 -12 29 -37 29c-56 0 -121 -107 -121 -251c0 -75 39 -108 90 -108c44 0 76 21 93 57c19 0 30 -10 30 -27c0 -55 -92 -117 -180 -117
c-92 0 -157 48 -157 179z" />
    <glyph glyph-name="afii10087.end" horiz-adv-x="502" 
d="M376 87c18 0 46 13 56 49c19 0 30 -10 30 -27c0 -70 -90 -117 -146 -117c-59 0 -99 32 -118 156c-49 -71 -118 -156 -176 -156c-41 0 -71 39 -71 112c0 48 33 62 70 62c12 0 28 -5 41 -14c-13 -29 -17 -59 -17 -79c39 22 81 52 144 154l-21 169c-4 36 -55 60 -98 7
c-14 13 -15 23 -15 31c0 23 68 75 122 75c69 0 97 -39 108 -127l9 -71c37 43 77 101 77 142c0 22 -14 48 -54 47c2 52 34 77 67 77c43 0 96 -21 81 -111c-12 -69 -65 -128 -164 -213l9 -71c6 -47 22 -95 66 -95z" />
    <glyph glyph-name="afii10085.end" horiz-adv-x="459" 
d="M-3 184l47 205c4 16 -1 25 -10 25c-5 0 -11 -4 -20 -12c-13 8 -20 39 0 55c34 27 70 48 112 48c36 0 56 -17 48 -55l-62 -288c-7 -31 1 -55 34 -55c29 0 54 14 77 36l65 299c10 46 48 63 84 63c18 0 35 -5 47 -13l-85 -396c-4 -17 -8 -35 -12 -53c17 3 31 4 42 4
c41 0 59 -40 46 -79c-32 7 -68 7 -105 3c-46 -178 -122 -356 -291 -356c-56 0 -108 40 -108 123c0 124 156 220 291 269c6 22 12 44 19 68c-39 -49 -84 -82 -134 -82c-99 0 -105 98 -85 191zM15 -296c69 0 110 69 161 233c-110 -44 -202 -118 -202 -186c0 -35 28 -47 41 -47
z" />
    <glyph glyph-name="afii10081.end" horiz-adv-x="502" 
d="M396 358l-42 -197c-11 -51 2 -73 22 -73c18 0 41 12 56 48c19 0 30 -10 30 -27c0 -70 -82 -117 -138 -117c-50 0 -121 25 -96 142l42 199c9 42 -5 59 -27 59c-27 0 -67 -25 -89 -52l-61 -285c-10 -46 -48 -63 -84 -63c-18 0 -35 5 -47 13l82 384c4 16 -1 25 -10 25
c-5 0 -11 -4 -20 -12c-13 8 -20 39 0 55c34 27 70 48 112 48c36 0 57 -17 48 -55l-10 -45c42 60 106 100 164 100c53 0 90 -42 68 -147z" />
    <glyph glyph-name="afii10084.end" horiz-adv-x="736" 
d="M631 358l-42 -197c-11 -51 2 -73 22 -73c18 0 41 12 56 48c19 0 30 -10 30 -27c0 -70 -82 -117 -138 -117c-50 0 -121 25 -96 142l42 199c8 32 9 59 -24 59c-34 0 -61 -18 -87 -46l-62 -291c-10 -46 -48 -63 -84 -63c-18 0 -35 5 -47 13l70 328c7 32 9 59 -24 59
c-36 0 -65 -20 -92 -52l-61 -285c-10 -46 -48 -63 -84 -63c-18 0 -35 5 -47 13l82 384c4 16 -1 25 -10 25c-5 0 -11 -4 -20 -12c-13 8 -20 39 0 55c34 27 70 48 112 48c36 0 57 -17 48 -55l-10 -45c41 59 91 100 148 100c41 0 87 -32 84 -103c42 60 92 103 150 103
c45 0 110 -30 84 -147z" />
    <glyph glyph-name="afii10082" unicode="&#x440;" horiz-adv-x="476" 
d="M-114 -364l158 753c4 16 -1 25 -10 25c-5 0 -11 -4 -20 -12c-13 8 -20 39 0 55c34 27 70 48 112 48c36 0 57 -17 48 -55l-5 -24c39 48 86 79 136 79c88 0 127 -74 127 -165c0 -150 -109 -348 -280 -348c-24 0 -49 9 -69 26l-69 -332c-10 -46 -45 -63 -81 -63
c-18 0 -35 5 -47 13zM250 405c-30 0 -66 -23 -99 -64l-55 -261c18 -10 34 -11 50 -11c102 0 163 136 163 235c0 70 -25 101 -59 101z" />
    <glyph glyph-name="afii10069.end" horiz-adv-x="499" 
d="M451 -32c-32 7 -68 7 -105 3c-45 -178 -118 -356 -281 -356c-61 0 -118 40 -118 123c0 124 156 220 291 269c7 25 14 50 22 78c-41 -55 -92 -93 -146 -93c-104 0 -125 104 -125 168c0 175 113 349 252 349c45 0 78 -11 103 -33c17 20 43 29 68 29c18 0 35 -5 47 -13
l-84 -396c-4 -17 -7 -35 -11 -53c16 3 30 4 41 4c41 0 59 -40 46 -79zM268 158l56 268c-17 6 -32 8 -47 8c-121 0 -164 -158 -164 -267c0 -50 23 -72 54 -72c32 0 74 26 101 63zM56 -296c69 0 110 69 161 233c-110 -44 -202 -118 -202 -186c0 -35 28 -47 41 -47z" />
    <glyph glyph-name="afii10074.end" horiz-adv-x="508" 
d="M-3 184l47 205c4 16 -1 25 -10 25c-5 0 -11 -4 -20 -12c-13 8 -20 39 0 55c34 27 70 48 112 48c36 0 56 -17 48 -55l-61 -284c-9 -41 4 -59 34 -59c35 0 65 20 92 52l60 283c10 46 48 63 84 63c18 0 35 -5 47 -13l-70 -331c-11 -51 2 -73 22 -73c18 0 41 12 56 48
c19 0 30 -10 30 -27c0 -70 -82 -117 -138 -117c-49 0 -98 25 -93 113c-40 -65 -89 -113 -146 -113c-111 0 -111 117 -94 192z" />
    <glyph glyph-name="afii10076.end" horiz-adv-x="456" 
d="M339 88c26 0 38 14 46 48c19 0 30 -10 30 -27c0 -70 -60 -117 -128 -117c-100 0 -126 160 -141 238l-22 -6l-36 -169c-10 -46 -48 -63 -84 -63c-18 0 -30 2 -42 10l81 387c3 16 -1 25 -10 25c-5 0 -11 -4 -20 -12c-13 8 -20 39 0 55c34 27 70 48 112 48
c36 0 56 -17 48 -55l-37 -172l9 3c48 15 115 106 139 213c16 8 33 11 48 11c34 0 52 -22 52 -47c0 -60 -78 -148 -140 -190c13 -57 41 -180 95 -180z" />
    <glyph glyph-name="afii10077.end" horiz-adv-x="541" 
d="M153 108c-45 -78 -94 -115 -132 -116c-41 -1 -71 39 -71 112c0 48 33 62 70 62c12 0 28 -5 41 -14c-13 -28 -17 -58 -17 -78c52 32 101 84 172 346c-54 -8 -99 -21 -119 -44c-14 16 -21 34 -21 51c0 62 54 86 111 86c63 0 278 -8 270 -48l-64 -304c-11 -51 2 -73 22 -73
c18 0 41 12 56 48c19 0 30 -10 30 -27c0 -70 -82 -117 -138 -117c-70 0 -121 28 -93 161l59 277c-20 -1 -41 -2 -62 -4c-38 -154 -77 -254 -114 -318z" />
    <glyph glyph-name="afii10021" unicode="&#x414;" horiz-adv-x="691" 
d="M68 153c26 0 51 -12 77 -27c12 20 22 47 30 81l89 419c10 47 49 64 86 64c18 0 36 -5 48 -13l-95 -435c-17 -75 -43 -129 -73 -167c24 -11 49 -19 77 -19c162 0 242 226 242 414c0 135 -51 252 -183 252c-160 0 -230 -78 -230 -163c0 -26 8 -44 20 -58
c-15 -7 -29 -10 -43 -10c-51 0 -81 45 -81 95c0 100 116 184 353 184c209 0 293 -139 293 -298c0 -222 -128 -480 -357 -480c-55 0 -97 20 -132 44c-45 -34 -94 -44 -136 -44c-51 0 -89 26 -89 70c0 43 37 91 104 91zM60 66c18 0 40 7 60 27c-19 16 -35 27 -51 27
c-28 0 -45 -15 -45 -29c0 -15 15 -25 36 -25z" />
    <glyph glyph-name="afii10026" unicode="&#x418;" horiz-adv-x="702" 
d="M441 137l81 383l-279 -464c-25 -45 -49 -64 -86 -64c-18 0 -36 5 -48 13l151 711c-91 0 -124 -51 -124 -98c0 -22 8 -44 20 -58c-15 -7 -29 -10 -43 -10c-51 0 -81 45 -81 95c0 63 48 135 166 135c83 0 168 -44 211 -20c10 -6 14 -16 14 -26c0 -19 -12 -39 -35 -39h-9
l-101 -477l279 468c24 44 49 64 86 64c18 0 36 -5 48 -13l-124 -576c-12 -58 6 -74 33 -74c32 0 79 30 102 50c11 -5 17 -14 17 -24c0 -7 -3 -15 -9 -22c-58 -54 -116 -99 -174 -99c-60 0 -120 28 -95 145z" />
    <glyph glyph-name="afii10029" unicode="&#x41b;" horiz-adv-x="687" 
d="M426 137l120 570c-22 2 -46 5 -69 7c-158 -548 -273 -722 -404 -722c-50 0 -86 48 -86 137c0 58 40 75 85 75c18 0 36 -6 50 -17c-17 -39 -21 -80 -21 -103v-9c79 30 180 153 326 641h-9c-78 -1 -118 -45 -118 -108c0 -17 3 -34 14 -52c-93 -25 -126 28 -126 80
c0 112 78 140 168 140c131 0 264 -40 331 -16c10 -6 14 -16 14 -26c0 -19 -12 -39 -35 -39l-114 -534c-12 -58 6 -74 33 -74c32 0 79 30 102 50c11 -5 17 -14 17 -24c0 -7 -3 -15 -9 -22c-58 -54 -116 -99 -174 -99c-60 0 -120 28 -95 145z" />
    <glyph glyph-name="afii10030" unicode="&#x41c;" horiz-adv-x="946" 
d="M429 716c-91 0 -124 -51 -124 -98c0 -22 8 -44 20 -58c-15 -7 -29 -10 -43 -10c-51 0 -81 45 -81 95c0 63 48 135 166 135c83 0 168 -44 211 -20c10 -6 14 -16 14 -26c0 -19 -12 -39 -35 -39h-1l-36 -532l232 523c18 45 49 64 86 64c18 0 43 -5 55 -13l-82 -576
c-8 -59 6 -74 33 -74c32 0 79 30 102 50c11 -5 17 -14 17 -24c0 -7 -3 -15 -9 -22c-55 -57 -114 -99 -172 -99c-55 0 -114 27 -100 119l67 452l-218 -512c-18 -46 -48 -59 -85 -59c-18 0 -36 5 -48 13l36 443l5 117c-135 -431 -240 -573 -359 -573c-50 0 -86 48 -86 137
c0 58 40 75 85 75c18 0 36 -6 50 -17c-17 -39 -21 -80 -21 -103v-9c79 30 180 153 326 641h-5z" />
    <glyph glyph-name="afii10079.end" horiz-adv-x="499" 
d="M421 492l-70 -331c-11 -51 2 -73 22 -73c18 0 41 12 56 48c19 0 30 -10 30 -27c0 -70 -82 -117 -138 -117c-50 0 -116 28 -89 157l20 97c-38 -12 -83 -22 -127 -24l-36 -167c-10 -46 -45 -63 -81 -63c-18 0 -35 5 -47 13l83 384c3 16 -1 25 -10 25c-5 0 -11 -4 -20 -12
c-13 8 -20 39 0 55c34 27 70 48 112 48c36 0 56 -17 48 -55l-35 -160c45 1 86 4 124 8l31 144c10 46 44 63 80 63c18 0 35 -5 47 -13z" />
    <glyph glyph-name="afii10018" unicode="&#x411;" horiz-adv-x="628" 
d="M135 550c0 -17 3 -34 14 -52c-93 -25 -126 28 -126 80c0 156 185 192 289 192c53 0 138 -12 194 -12c44 0 90 9 118 29c29 -84 -10 -149 -81 -149c-46 0 -96 26 -155 44l-56 -260c33 11 61 16 86 16c131 0 164 -90 164 -151c0 -125 -134 -295 -327 -295
c-110 0 -202 30 -202 76c0 22 12 43 40 52c15 -13 30 -23 46 -32l131 611c-67 -5 -135 -56 -135 -149zM367 371c-15 0 -31 -2 -47 -6l-66 -309h1c105 0 199 114 199 226c0 52 -28 89 -87 89z" />
    <glyph glyph-name="afii10020" unicode="&#x413;" horiz-adv-x="477" 
d="M171 -8c-23 0 -42 5 -53 13l157 694c-18 -1 -37 -6 -56 -18c-8 10 -12 22 -12 33c0 54 74 56 112 56c53 0 138 -12 194 -12c44 0 90 9 118 29c29 -84 -11 -142 -81 -149c-47 -5 -99 24 -160 44l-133 -626c-10 -47 -49 -64 -86 -64z" />
    <glyph glyph-name="afii10033" unicode="&#x41f;" horiz-adv-x="672" 
d="M411 137l111 526c-45 9 -96 20 -144 28l-135 -635c-10 -47 -49 -64 -86 -64c-23 0 -42 5 -53 13l156 691c-61 -12 -118 -62 -118 -147c0 -17 3 -34 14 -52c-93 -25 -126 28 -126 80c0 156 185 192 289 192c51 0 190 -12 244 -12c44 0 90 9 118 29
c62 -23 44 -129 -39 -138l-105 -487c-12 -58 6 -74 33 -74c32 0 79 30 102 50c11 -5 17 -14 17 -24c0 -7 -3 -15 -9 -22c-58 -54 -116 -99 -174 -99c-60 0 -120 28 -95 145z" />
    <glyph glyph-name="afii10037" unicode="&#x423;" horiz-adv-x="656" 
d="M188 -11c-68 0 -100 50 -100 97c0 25 10 50 28 65c31 -38 79 -50 129 -50c38 0 73 6 105 17c14 204 -26 428 -91 606c-69 -10 -94 -55 -94 -96c0 -22 8 -44 20 -58c-15 -7 -29 -10 -43 -10c-51 0 -81 45 -81 95c0 63 48 135 166 135c83 0 168 -44 211 -20
c10 -6 14 -16 14 -26c0 -19 -12 -39 -35 -39h-7c41 -136 70 -361 46 -516c89 96 134 269 134 506c0 23 -1 46 -5 69c16 16 38 26 66 26c48 0 58 -38 57 -57c-12 -251 -183 -744 -520 -744z" />
    <glyph glyph-name="afii10090.end" horiz-adv-x="756" 
d="M-3 184l47 205c4 16 -1 25 -10 25c-5 0 -11 -4 -20 -12c-13 8 -20 39 0 55c34 27 70 48 112 48c36 0 56 -17 48 -55l-61 -284c-9 -41 4 -59 34 -59c35 0 65 20 92 52l60 283c10 46 48 63 84 63c18 0 35 -5 47 -13l-69 -326c-9 -41 4 -59 34 -59c35 0 65 20 92 52l60 283
c10 46 48 63 84 63c18 0 35 -5 47 -13l-70 -331c-11 -51 2 -73 22 -73c18 0 41 12 56 48c19 0 30 -10 30 -27c0 -70 -82 -117 -138 -117c-49 0 -98 25 -93 113c-40 -65 -89 -113 -146 -113c-76 0 -100 54 -102 112c-40 -64 -90 -112 -146 -112c-111 0 -111 117 -94 192z" />
    <glyph glyph-name="afii10096.end" horiz-adv-x="724" 
d="M738 457c19 -16 14 -43 0 -55c-26 -22 -65 -69 -106 -95c1 -4 1 -8 1 -11c0 -153 -141 -304 -261 -304c-103 0 -147 83 -147 177c0 27 3 56 10 84c-32 -19 -69 -29 -110 -31l-36 -167c-10 -46 -45 -63 -81 -63c-18 0 -35 5 -47 13l83 384c3 16 -1 25 -10 25
c-5 0 -11 -4 -20 -12c-13 8 -20 39 0 55c34 27 70 48 112 48c36 0 56 -17 48 -55l-35 -162c37 0 76 4 112 19c40 108 123 202 230 202c50 0 90 -14 120 -59c-2 -23 -19 -34 -34 -28c-19 7 -40 11 -64 11c-91 0 -150 -134 -150 -232c0 -88 30 -122 65 -122
c51 0 115 74 115 164c0 13 -2 27 -5 41c-18 1 -35 5 -46 12c-21 55 1 105 58 105c34 0 63 -17 79 -46c40 25 77 68 119 102z" />
    <glyph glyph-name="afii10068.end" horiz-adv-x="323" 
d="M112 -8c-107 0 -165 65 -165 137c0 167 219 156 219 258c0 37 -24 52 -53 52c-33 0 -74 -22 -97 -44c-11 5 -17 16 -17 27c0 7 1 14 7 20c52 46 99 70 158 70c73 0 117 -50 117 -113c0 -170 -214 -168 -214 -271c0 -27 23 -48 70 -48c44 0 99 20 116 56
c19 0 30 -10 30 -27c0 -55 -87 -117 -171 -117z" />
    <glyph glyph-name="afii10048" unicode="&#x42e;" horiz-adv-x="946" 
d="M260 716c-91 0 -124 -51 -124 -98c0 -22 8 -44 20 -58c-15 -7 -29 -10 -43 -10c-51 0 -81 45 -81 95c0 63 48 135 166 135c83 0 168 -44 211 -20c10 -6 14 -16 14 -26c0 -19 -12 -39 -35 -39h-9l-56 -265c31 0 65 2 96 4c43 180 157 328 319 328c146 0 207 -128 200 -307
c-8 -235 -136 -467 -338 -467c-153 0 -216 128 -199 307c1 27 3 54 7 81c-33 -7 -69 -12 -100 -14l-65 -306c-10 -47 -49 -64 -86 -64c-23 0 -42 5 -53 13l161 711h-5zM547 259c0 -95 44 -144 99 -144c87 0 201 125 201 382c0 126 -47 187 -103 187
c-87 0 -197 -145 -197 -425z" />
    <glyph glyph-name="afii10041" unicode="&#x427;" horiz-adv-x="673" 
d="M412 137l51 216c-42 -29 -86 -46 -124 -46c-117 0 -138 74 -103 216l48 192c-4 1 -9 1 -13 1c-91 0 -124 -51 -124 -98c0 -22 8 -44 20 -58c-15 -7 -29 -10 -43 -10c-51 0 -81 45 -81 95c0 63 48 135 166 135c83 0 168 -44 211 -20c10 -6 14 -16 14 -26
c0 -19 -12 -39 -35 -39h-3l-46 -204c-21 -87 0 -101 33 -101c24 0 60 7 93 20l69 291c11 46 49 63 84 63c17 0 37 -5 47 -13l-138 -590c-13 -57 6 -74 33 -74c32 0 79 30 102 50c11 -5 17 -14 17 -24c0 -7 -3 -15 -9 -22c-58 -54 -116 -99 -174 -99c-60 0 -122 29 -95 145z
" />
    <glyph glyph-name="afii10089.end" horiz-adv-x="493" 
d="M416 492l-70 -331c-11 -51 2 -73 22 -73c18 0 41 12 56 48c19 0 30 -10 30 -27c0 -70 -82 -117 -138 -117c-50 0 -116 28 -89 157l16 77c-40 -41 -78 -59 -119 -59c-111 0 -108 97 -91 172l11 50c3 16 -1 25 -10 25c-5 0 -11 -4 -20 -12c-13 8 -20 39 0 55
c34 27 70 48 112 48c36 0 56 -17 48 -55l-28 -129c-9 -41 4 -59 34 -59c25 0 51 6 75 22l34 158c10 46 44 63 80 63c18 0 35 -5 47 -13z" />
    <glyph glyph-name="afii10095" unicode="&#x44d;" horiz-adv-x="383" 
d="M94 53c57 0 111 53 129 180h-159c-5 31 11 58 42 58h123c1 14 1 29 1 45c0 69 -29 101 -66 101c-29 0 -64 -14 -92 -42c-23 0 -23 31 -15 41c50 59 100 76 163 76c80 0 128 -71 128 -152c0 -268 -167 -368 -281 -368c-61 0 -119 36 -119 112c0 48 33 62 70 62
c12 0 28 -5 41 -14c-14 -16 -17 -34 -17 -45c0 -30 24 -54 52 -54z" />
    <glyph glyph-name="afii10088" unicode="&#x446;" horiz-adv-x="501" 
d="M174 450l-61 -284c-9 -41 4 -59 34 -59c35 0 65 20 92 52l60 283c10 46 48 63 84 63c18 0 35 -5 47 -13l-70 -331c-18 -98 36 -87 64 -25c14 2 26 -4 36 -15c8 -232 -135 -328 -230 -329c-94 0 -90 83 -35 141c33 -45 184 -24 213 101c-17 -24 -47 -42 -78 -42
c-49 0 -98 25 -93 113c-40 -65 -89 -113 -146 -113c-111 0 -111 117 -94 192l47 205c4 16 -1 25 -10 25c-5 0 -11 -4 -20 -12c-13 8 -20 39 0 55c34 27 70 48 112 48c36 0 57 -17 48 -55z" />
    <glyph glyph-name="afii10091" unicode="&#x449;" horiz-adv-x="749" 
d="M174 450l-61 -284c-9 -41 4 -59 34 -59c35 0 65 20 92 52l60 283c10 46 48 63 84 63c18 0 35 -5 47 -13l-69 -326c-9 -41 4 -59 34 -59c35 0 65 20 92 52l60 283c10 46 48 63 84 63c18 0 35 -5 47 -13l-70 -331c-18 -98 36 -87 64 -25c14 2 26 -4 36 -15
c8 -232 -135 -328 -230 -329c-94 0 -90 83 -35 141c33 -45 184 -24 213 101c-17 -24 -47 -42 -78 -42c-49 0 -98 25 -93 113c-40 -65 -89 -113 -146 -113c-76 0 -100 54 -102 112c-40 -64 -90 -112 -146 -112c-111 0 -111 117 -94 192l47 205c4 16 -1 25 -10 25
c-5 0 -11 -4 -20 -12c-13 8 -20 39 0 55c34 27 70 48 112 48c36 0 57 -17 48 -55z" />
    <glyph glyph-name="afii10066" unicode="&#x431;" horiz-adv-x="392" 
d="M201 700c96 0 183 -17 246 0c9 -13 10 -31 7 -49c-8 -35 -35 -74 -82 -74c-68 0 -128 24 -197 28c78 -58 177 -136 177 -261c0 -144 -88 -352 -237 -352c-104 0 -145 79 -145 171c0 139 102 316 246 316c12 0 23 -1 33 -3c-42 51 -106 84 -144 110c0 50 3 114 96 114z
M292 363c0 20 -4 39 -10 56c-16 4 -31 4 -44 4c-86 0 -140 -134 -140 -230c0 -51 18 -91 59 -91c87 0 135 164 135 261z" />
    <glyph glyph-name="afii10067.end" horiz-adv-x="453" 
d="M467 457c19 -16 14 -43 0 -55c-21 -18 -50 -52 -82 -78c5 -14 7 -30 6 -48c-12 -151 -151 -284 -277 -284c-72 0 -122 52 -114 192c10 212 109 530 298 530c61 0 97 -33 94 -97c-5 -80 -99 -191 -274 -392c-1 -9 -2 -17 -2 -25c-5 -98 25 -125 58 -125
c85 0 116 140 105 206c-16 -1 -31 1 -39 5c-18 50 6 95 63 95c21 0 41 -7 56 -19c36 25 70 64 108 95zM295 652c-71 0 -138 -203 -166 -353c131 164 187 256 190 307c1 29 -3 46 -24 46z" />
    <glyph glyph-name="afii10040" unicode="&#x426;" horiz-adv-x="684" 
d="M260 716c-91 0 -124 -51 -124 -98c0 -22 8 -44 20 -58c-15 -7 -29 -10 -43 -10c-51 0 -81 45 -81 95c0 63 48 135 166 135c83 0 168 -44 211 -20c10 -6 14 -16 14 -26c0 -19 -12 -39 -35 -39h-7l-125 -587c42 -11 81 -27 150 -34l133 615c10 47 49 64 86 64
c18 0 36 -5 48 -13l-151 -670c37 1 58 31 72 66c14 2 27 -4 36 -15c8 -232 -139 -328 -234 -329c-94 0 -90 83 -35 141c33 -46 188 -23 218 107c-16 -25 -45 -40 -73 -40c-107 0 -174 12 -284 12c-44 0 -90 -9 -118 -29c-60 22 -45 122 31 137l126 596h-1z" />
    <glyph glyph-name="afii10042" unicode="&#x428;" horiz-adv-x="847" 
d="M646 740l-148 -655c45 -5 89 -10 133 -13l133 617c10 47 49 64 86 64c18 0 36 -5 48 -13l-167 -740c-107 0 -399 12 -509 12c-44 0 -90 -9 -118 -29c-60 22 -45 122 31 137l126 596h-1c-91 0 -124 -51 -124 -98c0 -22 8 -44 20 -58c-15 -7 -29 -10 -43 -10
c-51 0 -81 45 -81 95c0 63 48 135 166 135c83 0 168 -44 211 -20c10 -6 14 -16 14 -26c0 -19 -12 -39 -35 -39h-7l-124 -580c39 -4 82 -10 128 -16l127 590c10 47 49 64 86 64c18 0 36 -5 48 -13z" />
    <glyph glyph-name="afii10043" unicode="&#x429;" horiz-adv-x="945" 
d="M898 740l-151 -670c37 1 58 31 72 66c14 2 27 -4 36 -15c8 -232 -139 -328 -234 -329c-94 0 -90 83 -35 141c33 -46 188 -23 218 107c-16 -25 -45 -40 -73 -40c-107 0 -399 12 -509 12c-44 0 -90 -9 -118 -29c-60 22 -45 122 31 137l126 596h-1c-91 0 -124 -51 -124 -98
c0 -22 8 -44 20 -58c-15 -7 -29 -10 -43 -10c-51 0 -81 45 -81 95c0 63 48 135 166 135c83 0 168 -44 211 -20c10 -6 14 -16 14 -26c0 -19 -12 -39 -35 -39h-7l-124 -580c39 -4 82 -10 128 -16l127 590c10 47 49 64 86 64c18 0 36 -5 48 -13l-148 -655c45 -5 89 -10 133 -13
l133 617c10 47 49 64 86 64c18 0 36 -5 48 -13z" />
    <glyph glyph-name="afii10025" unicode="&#x417;" horiz-adv-x="552" 
d="M389 611c0 68 -40 95 -79 95c-50 0 -75 -35 -75 -76c0 -18 5 -37 15 -55c-14 -10 -29 -15 -44 -15c-35 0 -66 26 -66 70c0 109 116 140 193 140c91 0 175 -46 175 -155c0 -67 -54 -170 -175 -218c104 2 168 -41 168 -140c0 -159 -162 -265 -295 -265
c-99 0 -183 45 -183 140c0 43 23 89 83 89c13 0 34 -8 42 -22c-10 -15 -13 -33 -13 -49c0 -63 38 -93 83 -93c68 0 154 68 154 194c0 91 -51 109 -158 109c-6 15 -3 33 7 49c132 5 168 117 168 202z" />
    <glyph glyph-name="afii10094.end" horiz-adv-x="401" 
d="M415 457c19 -16 14 -43 0 -55c-21 -18 -59 -63 -98 -99c14 -18 22 -41 22 -69c0 -88 -99 -242 -248 -242c-111 0 -111 117 -94 192l47 205c4 16 -1 25 -10 25c-5 0 -11 -4 -20 -12c-13 8 -20 39 0 55c34 27 70 48 112 48c36 0 57 -17 48 -55l-61 -284
c-14 -65 6 -96 34 -96c37 0 88 55 88 155c0 7 -1 15 -2 23c-24 -4 -47 -3 -66 6c-21 50 1 95 58 95c18 0 38 -5 56 -15c46 38 94 91 134 123z" />
    <glyph glyph-name="afii10093.end" horiz-adv-x="640" 
d="M-3 184l47 205c4 16 -1 25 -10 25c-5 0 -11 -4 -20 -12c-13 8 -20 39 0 55c34 27 70 48 112 48c36 0 56 -17 48 -55l-61 -284c-13 -62 7 -91 34 -91c30 0 94 41 73 177c-18 -1 -36 0 -53 2c-21 50 1 95 58 95c18 0 37 -6 54 -17c70 37 133 101 172 148c7 9 30 25 64 25
c18 0 35 -5 47 -13l-70 -331c-13 -61 2 -73 22 -73c18 0 41 12 56 48c19 0 30 -10 30 -27c0 -70 -82 -117 -138 -117c-50 0 -119 28 -100 119l58 276c-31 -33 -68 -66 -107 -91c10 -17 16 -38 16 -62c0 -110 -71 -242 -238 -242c-111 0 -111 117 -94 192z" />
    <glyph glyph-name="afii10049" unicode="&#x42f;" horiz-adv-x="605" 
d="M352 137l41 197c-19 0 -36 2 -52 4c-100 -256 -186 -346 -281 -346c-50 0 -86 48 -86 137c0 58 40 75 85 75c18 0 36 -6 50 -17c-17 -39 -21 -80 -21 -103v-9c54 20 118 83 199 275c-89 28 -126 89 -126 158c0 177 149 262 329 262c68 0 220 -18 220 -113
c0 -23 -21 -47 -52 -54c-17 47 -36 77 -65 95l-115 -537c-12 -58 6 -74 33 -74c32 0 79 30 102 50c11 -5 17 -14 17 -24c0 -7 -3 -15 -9 -22c-58 -54 -116 -99 -174 -99c-60 0 -120 28 -95 145zM284 516c0 -68 34 -125 120 -133l71 338c-106 -2 -191 -70 -191 -205z" />
    <glyph glyph-name="afii10078.end" horiz-adv-x="744" 
d="M341 497l13 -340l155 282c27 49 49 66 85 66c18 0 35 -5 48 -13l-46 -331c-7 -52 2 -73 22 -73c18 0 41 12 56 48c19 0 30 -10 30 -27c0 -70 -82 -117 -138 -117c-50 0 -113 27 -93 157l26 171l-169 -324c-47 -12 -82 1 -84 48l-7 279c-29 -98 -57 -166 -86 -215
c-45 -78 -94 -115 -132 -116c-41 -1 -71 39 -71 112c0 48 33 62 70 62c12 0 28 -5 41 -14c-13 -28 -17 -58 -17 -78c52 32 102 84 174 353c-51 -7 -88 -21 -115 -51c-14 16 -21 34 -21 51c0 62 54 86 111 86c51 0 114 -7 148 -16z" />
    <glyph glyph-name="afii10073.end" horiz-adv-x="360" 
d="M345 -32c-34 7 -72 7 -111 2c-19 -82 -54 -179 -86 -234c-45 -74 -105 -121 -189 -121c-61 0 -118 40 -118 123c0 122 151 216 284 267c5 25 8 47 8 65c0 55 -34 94 -92 94c-5 31 11 58 42 58c65 0 119 82 119 144c0 48 -29 71 -66 71c-13 0 -27 -3 -40 -8
c-2 -6 -2 -12 -2 -20c0 -14 5 -41 16 -65c-11 -10 -27 -14 -40 -14c-36 0 -60 32 -60 69c0 52 47 113 172 113c86 0 138 -56 138 -122c0 -99 -65 -172 -165 -200c60 -19 93 -67 93 -125c0 -7 -1 -16 -2 -24c21 4 39 6 53 6c41 0 59 -40 46 -79zM-50 -296c39 0 71 26 98 72
c20 35 44 98 61 160c-109 -43 -200 -118 -200 -185c0 -35 28 -47 41 -47z" />
    <glyph glyph-name="breve" unicode="&#x2d8;" horiz-adv-x="298" 
d="M288 644c-7 -71 -84 -144 -191 -144c-70 0 -102 49 -102 97c0 44 29 85 84 85c16 0 26 -2 40 -10c-5 -9 -7 -18 -7 -30c0 -30 20 -45 46 -45c33 0 74 26 94 81c18 3 40 -7 36 -34z" />
    <glyph glyph-name="afii10075.end" horiz-adv-x="508" 
d="M-3 184l47 205c4 16 -1 25 -10 25c-5 0 -11 -4 -20 -12c-13 8 -20 39 0 55c34 27 70 48 112 48c36 0 56 -17 48 -55l-61 -284c-9 -41 4 -59 34 -59c35 0 65 20 92 52l60 283c10 46 48 63 84 63c18 0 35 -5 47 -13l-70 -331c-11 -51 2 -73 22 -73c18 0 41 12 56 48
c19 0 30 -10 30 -27c0 -70 -82 -117 -138 -117c-49 0 -98 25 -93 113c-40 -65 -89 -113 -146 -113c-111 0 -111 117 -94 192zM428 684c-7 -71 -84 -144 -191 -144c-70 0 -102 49 -102 97c0 44 29 85 84 85c16 0 26 -2 40 -10c-5 -9 -7 -18 -7 -30c0 -30 20 -45 46 -45
c33 0 74 26 94 81c18 3 40 -7 36 -34z" />
    <glyph glyph-name="afii10027" unicode="&#x419;" horiz-adv-x="702" 
d="M441 137l81 383l-279 -464c-25 -45 -49 -64 -86 -64c-18 0 -36 5 -48 13l151 711c-91 0 -124 -51 -124 -98c0 -22 8 -44 20 -58c-15 -7 -29 -10 -43 -10c-51 0 -81 45 -81 95c0 63 48 135 166 135c83 0 168 -44 211 -20c10 -6 14 -16 14 -26c0 -19 -12 -39 -35 -39h-9
l-101 -477l279 468c24 44 49 64 86 64c18 0 36 -5 48 -13l-124 -576c-12 -58 6 -74 33 -74c32 0 79 30 102 50c11 -5 17 -14 17 -24c0 -7 -3 -15 -9 -22c-58 -54 -116 -99 -174 -99c-60 0 -120 28 -95 145zM663 914c-7 -71 -84 -144 -191 -144c-70 0 -102 49 -102 97
c0 44 29 85 84 85c16 0 26 -2 40 -10c-5 -9 -7 -18 -7 -30c0 -30 20 -45 46 -45c33 0 74 26 94 81c18 3 40 -7 36 -34z" />
    <glyph glyph-name="afii10092" unicode="&#x44a;" horiz-adv-x="382" 
d="M247 498c18 -7 27 -29 27 -53c0 -11 -4 -22 -13 -30c-48 -42 -85 -81 -111 -119c30 19 61 33 98 33c47 0 84 -28 84 -105c0 -143 -124 -232 -222 -232c-65 0 -118 37 -118 119c0 99 87 221 172 309c-55 -8 -107 3 -149 -27c-9 14 -13 30 -13 44c0 41 29 78 77 78
c49 0 86 -40 168 -17zM115 231c-9 -24 -13 -48 -13 -73c0 -61 22 -87 47 -87c35 0 79 51 79 124c0 33 -15 59 -55 59c-18 0 -39 -7 -58 -23z" />
    <glyph glyph-name="afii10086" unicode="&#x444;" horiz-adv-x="696" 
d="M220 27l4 22c-33 -36 -75 -57 -116 -57c-96 0 -115 104 -115 168c0 103 37 219 110 288c40 38 82 57 128 57c38 0 63 -21 78 -49l17 80c28 132 115 207 210 207c55 0 76 -33 76 -61c0 -24 -19 -44 -44 -39c0 19 -12 29 -37 29c-46 0 -67 -59 -85 -142l-17 -82
c33 36 75 57 117 57c96 0 115 -102 115 -166c0 -103 -37 -219 -110 -288c-40 -38 -82 -59 -128 -59c-40 0 -65 22 -80 52l-6 -32c-58 -280 -152 -375 -272 -375c-61 0 -119 36 -119 112c0 48 33 62 70 62c12 0 28 -5 41 -14c-14 -16 -17 -34 -17 -45c0 -34 12 -47 28 -47
c83 0 125 196 152 322zM480 412c-21 0 -36 -6 -67 -37l-55 -263c7 -24 15 -37 40 -37c113 0 139 178 139 257c0 55 -21 80 -57 80zM174 87c21 0 35 6 66 36l55 266c-7 23 -15 35 -39 35c-113 0 -139 -178 -139 -257c0 -55 21 -80 57 -80z" />
    <glyph glyph-name="afii10046" unicode="&#x42c;" horiz-adv-x="621" 
d="M270 716c-91 0 -124 -51 -124 -98c0 -22 8 -44 20 -58c-15 -7 -29 -10 -43 -10c-51 0 -81 45 -81 95c0 63 48 135 166 135c83 0 168 -44 211 -20c10 -6 14 -16 14 -26c0 -19 -12 -39 -35 -39h-7l-59 -273c33 11 61 16 86 16c131 0 164 -90 164 -151
c0 -275 -494 -435 -427 -125l119 554h-4zM269 123c-24 -109 164 -78 185 159c5 52 -28 89 -87 89c-15 0 -31 -2 -47 -6z" />
    <glyph glyph-name="afii10045" unicode="&#x42b;" horiz-adv-x="901" 
d="M269 716c-91 0 -124 -51 -124 -98c0 -22 8 -44 20 -58c-15 -7 -29 -10 -43 -10c-51 0 -81 45 -81 95c0 63 48 135 166 135c83 0 168 -44 211 -20c10 -6 14 -16 14 -26c0 -19 -12 -39 -35 -39h-6l-137 -639h1c138 0 239 183 185 308c-25 -5 -52 -8 -81 -9
c-8 9 -11 20 -11 32c0 31 26 55 76 55c27 0 49 -4 68 -11c101 74 200 188 276 293c15 21 38 36 75 36c18 0 36 -5 48 -13l-125 -586c-12 -58 6 -74 33 -74c32 0 79 30 102 50c11 -5 17 -14 17 -24c0 -7 -3 -15 -9 -22c-58 -54 -116 -99 -174 -99c-60 0 -120 28 -95 145
l101 486c-61 -83 -132 -161 -203 -220c34 -33 44 -80 44 -116c0 -125 -134 -295 -327 -295c-110 0 -202 30 -202 76c0 22 12 43 40 52c15 -13 30 -23 46 -32l135 628h-5z" />
    <glyph glyph-name="afii10044" unicode="&#x42a;" horiz-adv-x="621" 
d="M214 716c-91 0 -124 -51 -124 -98c0 -22 8 -44 20 -58c-15 -7 -29 -10 -43 -10c-51 0 -81 45 -81 95c0 63 48 135 166 135c103 0 208 -44 261 -20c10 -6 14 -16 14 -26c0 -19 -12 -39 -35 -39h-1l-59 -273c33 11 61 16 86 16c131 0 164 -90 164 -151
c0 -125 -134 -295 -327 -295c-110 0 -202 30 -202 76c0 22 12 43 40 52c15 -13 31 -23 46 -32l134 623c-19 3 -40 5 -59 5zM367 371c-15 0 -31 -2 -47 -6l-66 -309h1c105 0 199 114 199 226c0 52 -28 89 -87 89z" />
    <glyph glyph-name="afii10097.end" horiz-adv-x="516" 
d="M406 342l-38 -181c-11 -51 2 -73 22 -73c18 0 41 12 56 48c19 0 30 -10 30 -27c0 -70 -82 -117 -138 -117c-50 0 -120 28 -93 157l12 56h-47c-37 -79 -110 -211 -188 -213c-41 -1 -71 39 -71 112c0 48 33 62 70 62c12 0 28 -5 41 -14c-13 -29 -17 -59 -17 -79
c36 21 71 49 112 138c-64 17 -95 68 -95 125c0 122 114 174 208 174c91 0 161 -49 136 -168zM177 336c-1 -40 15 -76 49 -76h42l25 115c12 55 -8 76 -33 76c-53 0 -82 -62 -83 -115z" />
    <glyph glyph-name="afii10047" unicode="&#x42d;" horiz-adv-x="556" 
d="M389 354c-42 0 -80 -21 -121 -21c-52 0 -79 51 -55 82c48 -24 96 0 157 0c12 0 23 -2 32 -6c3 33 5 65 5 98c0 119 -31 199 -101 199c-38 0 -76 -26 -76 -66c0 -27 4 -44 16 -65c-14 -10 -34 -16 -50 -16c-36 0 -60 34 -60 71c0 109 116 140 193 140
c149 0 210 -106 210 -265c0 -259 -119 -513 -333 -513c-99 0 -183 45 -183 140c0 43 23 89 83 89c13 0 34 -8 42 -22c-10 -15 -13 -33 -13 -49c0 -63 38 -93 83 -93c95 0 155 135 178 297h-7z" />
    <glyph glyph-name="afii10038" unicode="&#x424;" horiz-adv-x="723" 
d="M362 737c46 0 98 21 128 21c23 0 35 -15 35 -36c0 -10 -4 -23 -14 -29c-8 7 -15 11 -26 12l-16 -75h11c152 0 219 -103 219 -227c0 -183 -139 -411 -354 -411h-11l-7 -36c-10 -47 -49 -64 -86 -64c-18 0 -36 5 -48 13l18 87h-8c-152 0 -219 103 -219 227
c0 183 139 411 354 411h9l11 50c-19 -4 -39 -7 -58 -7c-100 0 -137 49 -137 97s30 83 72 83c14 0 28 -3 43 -10c-8 -21 -12 -38 -12 -51c0 -47 44 -54 96 -55zM460 579h-5l-113 -536h3c141 0 230 192 230 345c0 104 -35 191 -115 191zM108 234c0 -104 35 -191 115 -191h3
l114 536h-2c-141 0 -230 -192 -230 -345z" />
    <glyph glyph-name="afii10024" unicode="&#x416;" horiz-adv-x="1078" 
d="M917 86c56 0 128 30 161 51c11 -5 17 -14 17 -24c0 -7 -2 -16 -9 -22c-68 -65 -150 -99 -223 -99c-130 0 -182 120 -182 265c0 48 5 100 16 151l-96 -166l-39 -186c-10 -47 -49 -64 -86 -64c-18 0 -37 5 -48 13l84 397l-115 -203h-1c-51 -119 -133 -207 -239 -207
c-87 0 -158 24 -158 135c0 43 23 89 83 89c13 0 34 -8 42 -22c-9 -15 -13 -33 -13 -49c0 -54 22 -89 63 -89c107 0 175 199 175 446c0 117 -22 192 -72 192c-56 0 -99 -43 -130 -110c-26 4 -34 31 -26 51c32 82 104 127 174 127c111 0 162 -100 162 -259
c0 -53 -6 -109 -18 -163l96 170l40 186c10 47 49 64 86 64c18 0 35 -5 48 -13l-86 -405l117 204c52 122 136 216 244 216c191 0 160 -240 54 -240c-16 0 -47 12 -58 40c51 30 56 134 -10 134c-169 0 -276 -610 -53 -610z" />
    <glyph glyph-name="V" unicode="V" horiz-adv-x="670" 
d="M291 0l-17 716c-87 -2 -119 -52 -119 -98c0 -22 8 -44 20 -58c-15 -7 -29 -10 -43 -10c-51 0 -81 45 -81 95c0 63 48 135 166 135c83 0 168 -44 211 -20c10 -6 14 -16 14 -26c0 -19 -12 -39 -35 -39h-5l8 -567l95 180c63 119 144 329 85 452c19 18 44 30 76 30
c51 0 66 -37 66 -60c0 -147 -111 -340 -186 -474l-117 -207c-24 -43 -46 -62 -83 -62c-18 0 -43 5 -55 13z" />
    <glyph glyph-name="Y" unicode="Y" horiz-adv-x="650" 
d="M515 307l-52 -243c-11 -53 -55 -72 -96 -72c-21 0 -40 6 -54 15l66 302l-104 406c-75 -8 -103 -54 -103 -97c0 -22 8 -44 20 -58c-15 -7 -29 -10 -43 -10c-51 0 -81 45 -81 95c0 63 48 135 166 135c83 0 168 -44 211 -20c10 -6 14 -16 14 -26c0 -19 -12 -39 -35 -39h-3
l76 -315c86 126 122 246 101 384c16 16 38 26 66 26c48 0 59 -38 57 -57c-12 -136 -115 -311 -206 -426z" />
    <glyph glyph-name="dieresis" unicode="&#xa8;" horiz-adv-x="405" 
d="M53 642c0 35 27 62 62 62s62 -27 62 -62s-27 -62 -62 -62s-62 27 -62 62zM250 642c0 35 28 62 62 62c35 0 62 -27 62 -62s-27 -62 -62 -62c-34 0 -62 27 -62 62z" />
    <glyph glyph-name="afii10071" unicode="&#x451;" horiz-adv-x="415" 
d="M354 413c0 -85 -45 -153 -238 -260c10 -54 47 -74 93 -74c72 0 164 51 207 108c26 5 36 -16 25 -34c-69 -101 -185 -161 -282 -161c-94 0 -170 56 -170 179c0 130 86 338 251 338c91 0 114 -51 114 -96zM247 431c-99 0 -131 -165 -134 -235c97 61 163 131 163 196
c0 23 -12 39 -29 39zM116 642c0 35 27 62 62 62s62 -27 62 -62s-27 -62 -62 -62s-62 27 -62 62zM313 642c0 35 28 62 62 62c35 0 62 -27 62 -62s-27 -62 -62 -62c-34 0 -62 27 -62 62z" />
    <glyph glyph-name="afii10023" unicode="&#x401;" 
d="M137 571c0 98 78 199 215 199c116 0 163 -60 163 -124c0 -56 -32 -105 -82 -105c-16 0 -47 12 -58 40c31 9 49 43 49 74s-18 59 -59 59c-77 0 -120 -73 -120 -146c0 -63 32 -126 102 -143c2 -13 -1 -27 -10 -38c-99 -7 -154 -98 -154 -179c0 -67 37 -128 119 -128
c59 0 129 16 184 57c11 -5 17 -14 17 -24c0 -7 -2 -15 -9 -22c-70 -70 -174 -99 -263 -99c-131 0 -189 94 -189 198c0 97 64 199 175 233c-55 36 -80 91 -80 148zM222 862c0 35 27 62 62 62s62 -27 62 -62s-27 -62 -62 -62s-62 27 -62 62zM419 862c0 35 28 62 62 62
c35 0 62 -27 62 -62s-27 -62 -62 -62c-34 0 -62 27 -62 62z" />
    <glyph glyph-name="a" unicode="a" horiz-adv-x="524" 
d="M241 509c45 0 78 -11 103 -33c17 20 43 29 68 29c18 0 35 -5 47 -13l-70 -331c-12 -56 4 -74 30 -74c37 0 80 25 105 50c11 -5 17 -14 17 -24c0 -7 -3 -15 -9 -22c-47 -53 -119 -99 -173 -99c-47 0 -94 22 -93 101c-42 -59 -95 -101 -152 -101c-104 0 -125 104 -125 168
c0 175 113 349 252 349zM268 158l56 268c-17 6 -32 8 -47 8c-121 0 -164 -158 -164 -267c0 -50 23 -72 54 -72c32 0 74 26 101 63z" />
    <glyph glyph-name="c" unicode="c" horiz-adv-x="415" 
d="M441 153c-69 -101 -185 -161 -282 -161c-94 0 -170 56 -170 179c0 154 105 338 255 338c81 0 121 -32 121 -97c0 -56 -33 -82 -70 -82c-13 0 -29 4 -40 14c11 24 16 51 16 65c0 19 -12 29 -37 29c-56 0 -121 -107 -121 -251c0 -79 42 -108 96 -108c72 0 164 51 207 108
c26 5 36 -16 25 -34z" />
    <glyph glyph-name="d" unicode="d" horiz-adv-x="522" 
d="M357 -8c-47 0 -92 22 -91 101c-42 -59 -95 -101 -152 -101c-104 0 -125 104 -125 168c0 175 113 349 252 349c41 0 72 -9 96 -28l25 117c6 27 -13 33 -29 14c-14 13 -15 23 -15 31c0 23 72 71 126 71c36 0 56 -17 48 -55l-105 -498c-12 -56 4 -74 30 -74
c37 0 80 25 105 50c11 -5 17 -14 17 -24c0 -7 -3 -15 -9 -22c-47 -53 -119 -99 -173 -99zM268 158v-1l57 268c-17 6 -33 9 -48 9c-121 0 -164 -158 -164 -267c0 -50 23 -72 54 -72c32 0 74 26 101 63z" />
    <glyph glyph-name="e" unicode="e" horiz-adv-x="415" 
d="M354 413c0 -85 -45 -153 -238 -260c10 -54 47 -74 93 -74c72 0 164 51 207 108c26 5 36 -16 25 -34c-69 -101 -185 -161 -282 -161c-94 0 -170 56 -170 179c0 130 86 338 251 338c91 0 114 -51 114 -96zM247 431c-99 0 -131 -165 -134 -235c97 61 163 131 163 196
c0 23 -12 39 -29 39z" />
    <glyph glyph-name="g" unicode="g" horiz-adv-x="499" 
d="M510 92c-18 -16 -86 -61 -157 -94c-45 -186 -115 -383 -288 -383c-61 0 -118 40 -118 123c0 124 156 219 291 269c7 25 14 50 22 78c-41 -55 -92 -93 -146 -93c-104 0 -125 104 -125 168c0 175 113 349 252 349c45 0 77 -11 102 -33c17 20 44 29 69 29c18 0 35 -5 47 -13
l-84 -396c-3 -14 -6 -28 -9 -41c55 27 108 57 143 87c15 -13 18 -35 1 -50zM268 158l56 268c-17 6 -32 8 -47 8c-121 0 -164 -158 -164 -267c0 -50 23 -72 54 -72c32 0 74 26 101 63zM56 -296c69 0 110 69 161 233c-110 -44 -202 -119 -202 -186c0 -35 28 -47 41 -47z" />
    <glyph glyph-name="h" unicode="h" horiz-adv-x="476" 
d="M303 -8c-50 0 -103 25 -78 142l42 199c7 32 9 59 -24 59c-36 0 -66 -21 -93 -53l-63 -284c-10 -46 -48 -63 -84 -63c-18 0 -30 2 -42 10l127 596c6 27 -13 33 -29 14c-14 13 -15 23 -15 31c0 23 72 71 126 71c36 0 56 -17 48 -55l-52 -245c38 54 82 91 133 91
c50 0 119 -29 94 -147l-49 -230c-6 -29 7 -41 27 -41c37 0 80 25 105 50c11 -5 17 -14 17 -24c0 -7 -3 -15 -9 -22c-47 -53 -114 -99 -181 -99z" />
    <glyph glyph-name="i" unicode="i" horiz-adv-x="248" 
d="M77 634c4 39 37 70 76 70s68 -31 64 -70c-6 -39 -39 -70 -78 -70s-68 31 -62 70zM-14 111l58 278c3 16 -1 25 -10 25c-5 0 -11 -4 -20 -12c-13 8 -20 39 0 55c34 27 70 48 112 48c36 0 56 -17 48 -55l-61 -289c-12 -56 4 -74 30 -74c37 0 80 25 105 50
c11 -5 17 -14 17 -24c0 -7 -3 -15 -9 -22c-47 -53 -114 -99 -181 -99c-50 0 -108 28 -89 119z" />
    <glyph glyph-name="j" unicode="j" horiz-adv-x="229" 
d="M174 450l-76 -354c-3 -14 -6 -28 -9 -41c55 27 108 57 143 87c15 -13 18 -35 1 -50c-18 -16 -86 -61 -157 -94c-46 -186 -120 -383 -298 -383c-56 0 -121 40 -121 123c0 127 136 187 301 261c9 32 17 68 25 107l61 283c3 16 -1 25 -10 25c-5 0 -11 -4 -20 -12
c-13 8 -20 39 0 55c34 27 70 48 112 48c36 0 56 -17 48 -55zM-221 -296c67 0 116 72 162 230c-119 -59 -203 -107 -203 -183c0 -35 28 -47 41 -47zM79 634c2 39 34 70 73 70s69 -31 67 -70c-3 -39 -35 -70 -74 -70s-69 31 -66 70z" />
    <glyph glyph-name="k" unicode="k" horiz-adv-x="427" 
d="M217 659l-82 -383l20 5c64 19 97 56 97 116c0 28 -4 47 -14 62c13 27 43 46 78 46c38 0 56 -21 56 -75c1 -80 -62 -140 -125 -170c14 -58 43 -165 112 -165c20 0 42 18 68 42c11 -5 17 -14 17 -24c0 -7 -3 -15 -9 -22c-36 -44 -105 -99 -147 -99
c-100 0 -126 160 -141 238l-23 -6l-36 -169c-9 -46 -45 -63 -79 -63c-18 0 -35 5 -47 13l125 593c4 16 -1 25 -10 25c-5 0 -11 -4 -20 -12c-13 8 -20 39 0 55c34 27 70 48 112 48c36 0 55 -17 48 -55z" />
    <glyph glyph-name="l" unicode="l" horiz-adv-x="323" 
d="M350 155c-35 -91 -155 -163 -247 -163c-70 0 -123 43 -110 148c46 362 113 574 244 574c47 0 80 -29 80 -81c0 -78 -65 -238 -194 -435c-2 -12 -4 -25 -5 -37c-7 -52 19 -72 54 -72c55 0 135 49 154 104c19 3 31 -19 24 -38zM244 648c-33 0 -74 -150 -108 -361
c88 163 125 305 125 339c0 17 -6 22 -17 22z" />
    <glyph glyph-name="m" unicode="m" horiz-adv-x="713" 
d="M174 450l-10 -45c41 59 91 100 148 100c41 0 87 -32 84 -103c42 60 92 103 150 103c45 0 110 -30 84 -147l-49 -230c-6 -29 7 -41 27 -41c37 0 80 25 105 50c11 -5 17 -14 17 -24c0 -7 -3 -15 -9 -22c-47 -53 -114 -99 -181 -99c-50 0 -103 25 -78 142l42 199
c8 32 9 59 -24 59c-34 0 -61 -18 -87 -46l-62 -291c-10 -46 -48 -63 -84 -63c-18 0 -35 5 -47 13l70 328c7 32 9 59 -24 59c-36 0 -65 -20 -92 -52l-61 -285c-10 -46 -48 -63 -84 -63c-18 0 -35 5 -47 13l82 384c4 16 -1 25 -10 25c-5 0 -11 -4 -20 -12c-13 8 -20 39 0 55
c34 27 70 48 112 48c36 0 57 -17 48 -55z" />
    <glyph glyph-name="n" unicode="n" horiz-adv-x="479" 
d="M14 402c-13 8 -20 39 0 55c34 27 70 48 112 48c36 0 57 -17 48 -55l-10 -45c42 60 106 100 164 100c53 0 91 -42 68 -147l-49 -230c-6 -29 7 -41 27 -41c37 0 80 25 105 50c11 -5 17 -14 17 -24c0 -7 -3 -15 -9 -22c-47 -53 -114 -99 -181 -99c-50 0 -103 25 -78 142
l42 199c9 42 -5 59 -27 59c-27 0 -67 -25 -89 -52l-61 -285c-10 -46 -48 -63 -84 -63c-18 0 -35 5 -47 13l82 384c4 16 -1 25 -10 25c-5 0 -11 -4 -20 -12z" />
    <glyph glyph-name="r" unicode="r" horiz-adv-x="371" 
d="M174 450l-11 -54c40 81 83 109 129 109c48 0 73 -38 73 -79c0 -45 -28 -94 -80 -94c-9 0 -20 1 -29 4c7 6 11 19 11 31c0 14 -10 25 -31 25c-33 0 -80 -45 -131 -276l-12 -61c-10 -46 -48 -63 -84 -63c-18 0 -35 5 -47 13l82 384c3 16 -1 25 -10 25c-5 0 -11 -4 -20 -12
c-13 8 -20 39 0 55c34 27 70 48 112 48c36 0 56 -17 48 -55z" />
    <glyph glyph-name="t" unicode="t" horiz-adv-x="251" 
d="M219 442h-44l-59 -281c-12 -56 4 -74 30 -74c37 0 80 25 105 50c11 -5 17 -14 17 -24c0 -7 -3 -15 -9 -22c-47 -53 -123 -99 -190 -99c-61 0 -101 38 -78 148l64 302h-50c-5 32 11 58 42 58h20l18 82c10 46 48 63 84 63c18 0 35 -5 47 -13l-28 -132h73
c5 -32 -11 -58 -42 -58z" />
    <glyph glyph-name="u" unicode="u" horiz-adv-x="495" 
d="M-3 184l47 205c4 16 -1 25 -10 25c-5 0 -11 -4 -20 -12c-13 8 -20 39 0 55c34 27 70 48 112 48c36 0 57 -17 48 -55l-61 -284c-9 -41 4 -59 34 -59c35 0 65 20 92 52l60 283c10 46 48 63 84 63c18 0 35 -5 47 -13l-70 -331c-12 -56 4 -74 30 -74c37 0 80 25 105 50
c11 -5 17 -14 17 -24c0 -7 -3 -15 -9 -22c-47 -53 -119 -99 -173 -99c-49 0 -98 25 -93 113c-40 -65 -89 -113 -146 -113c-111 0 -111 117 -94 192z" />
    <glyph glyph-name="x" unicode="x" horiz-adv-x="480" 
d="M315 -8c-59 0 -99 32 -118 156c-49 -71 -118 -156 -176 -156c-41 0 -71 39 -71 112c0 48 33 62 70 62c12 0 28 -5 41 -14c-13 -29 -17 -59 -17 -79c39 22 81 52 144 154l-21 169c-4 36 -45 53 -98 6c-14 13 -19 37 0 55c15 13 58 52 107 52c69 0 97 -39 108 -127l9 -71
c37 43 77 101 77 142c0 22 -14 48 -54 47c2 52 34 77 67 77c43 0 96 -21 81 -111c-12 -69 -65 -128 -164 -213l9 -71c6 -47 22 -95 66 -95c37 0 80 25 105 50c11 -5 17 -14 17 -24c0 -7 -3 -15 -9 -22c-47 -53 -119 -99 -173 -99z" />
    <glyph glyph-name="y" unicode="y" horiz-adv-x="459" 
d="M-3 184l47 205c4 16 -1 25 -10 25c-5 0 -11 -4 -20 -12c-13 8 -20 39 0 55c34 27 70 48 112 48c36 0 57 -17 48 -55l-62 -288c-7 -31 1 -55 34 -55c29 0 54 14 77 36l65 299c10 46 48 63 84 63c18 0 35 -5 47 -13l-85 -396c-3 -14 -6 -28 -9 -41c55 27 108 57 143 87
c15 -13 18 -35 1 -50c-18 -16 -86 -61 -157 -94c-46 -186 -120 -383 -298 -383c-56 0 -121 40 -121 123c0 127 136 187 302 261c7 24 13 49 21 76c-39 -49 -84 -82 -134 -82c-99 0 -105 98 -85 191zM15 -296c69 0 109 68 160 229c-119 -58 -201 -106 -201 -182
c0 -35 28 -47 41 -47z" />
    <glyph glyph-name="afii10065" unicode="&#x430;" horiz-adv-x="524" 
d="M241 509c45 0 78 -11 103 -33c17 20 43 29 68 29c18 0 35 -5 47 -13l-70 -331c-12 -56 4 -74 30 -74c37 0 80 25 105 50c11 -5 17 -14 17 -24c0 -7 -3 -15 -9 -22c-47 -53 -119 -99 -173 -99c-47 0 -94 22 -93 101c-42 -59 -95 -101 -152 -101c-104 0 -125 104 -125 168
c0 175 113 349 252 349zM268 158l56 268c-17 6 -32 8 -47 8c-121 0 -164 -158 -164 -267c0 -50 23 -72 54 -72c32 0 74 26 101 63z" />
    <glyph glyph-name="afii10067" unicode="&#x432;" horiz-adv-x="420" 
d="M392 617c-3 -58 -54 -133 -149 -247c20 7 41 11 60 11c54 0 93 -41 88 -105c-12 -151 -151 -284 -277 -284c-72 0 -122 52 -114 192c10 212 109 530 298 530c61 0 98 -33 94 -97zM276 293c-10 25 -33 38 -65 40c-28 -33 -59 -69 -93 -108c-1 -9 -2 -17 -2 -25
c-5 -98 25 -125 58 -125c91 0 123 160 102 218zM295 652c-71 0 -138 -203 -166 -353c131 164 187 256 190 307c1 29 -3 46 -24 46z" />
    <glyph glyph-name="afii10068" unicode="&#x433;" horiz-adv-x="339" 
d="M6 442c52 46 99 70 158 70c73 0 117 -50 117 -113c0 -170 -214 -168 -214 -271c0 -27 23 -48 70 -48c82 0 164 45 209 132c22 2 31 -10 22 -29c-53 -117 -165 -191 -256 -191c-107 0 -165 65 -165 137c0 167 219 156 219 258c0 37 -24 52 -53 52c-33 0 -74 -22 -97 -44
c-11 5 -17 16 -17 27c0 7 1 14 7 20z" />
    <glyph glyph-name="afii10069" unicode="&#x434;" horiz-adv-x="499" 
d="M510 92c-18 -16 -86 -61 -157 -94c-45 -186 -115 -383 -288 -383c-61 0 -118 40 -118 123c0 124 156 219 291 269c7 25 14 50 22 78c-41 -55 -92 -93 -146 -93c-104 0 -125 104 -125 168c0 175 113 349 252 349c45 0 77 -11 102 -33c17 20 44 29 69 29c18 0 35 -5 47 -13
l-84 -396c-3 -14 -6 -28 -9 -41c55 27 108 57 143 87c15 -13 18 -35 1 -50zM268 158l56 268c-17 6 -32 8 -47 8c-121 0 -164 -158 -164 -267c0 -50 23 -72 54 -72c32 0 74 26 101 63zM56 -296c69 0 110 69 161 233c-110 -44 -202 -119 -202 -186c0 -35 28 -47 41 -47z" />
    <glyph glyph-name="afii10070" unicode="&#x435;" horiz-adv-x="415" 
d="M354 413c0 -85 -45 -153 -238 -260c10 -54 47 -74 93 -74c72 0 164 51 207 108c26 5 36 -16 25 -34c-69 -101 -185 -161 -282 -161c-94 0 -170 56 -170 179c0 130 86 338 251 338c91 0 114 -51 114 -96zM247 431c-99 0 -131 -165 -134 -235c97 61 163 131 163 196
c0 23 -12 39 -29 39z" />
    <glyph glyph-name="afii10072" unicode="&#x436;" horiz-adv-x="802" 
d="M45 107c0 -34 16 -55 38 -55c47 0 120 78 120 284c0 69 -26 102 -56 102c-29 0 -56 -19 -75 -53c-19 -4 -31 23 -26 35c29 69 84 85 143 85c69 0 114 -64 114 -145c0 -26 -1 -50 -4 -72l80 163c21 42 37 54 69 54c14 0 28 -5 37 -13l-72 -330l82 167
c36 94 100 176 182 176c71 0 106 -28 106 -93c0 -56 -33 -84 -70 -82c-13 1 -27 5 -40 14c11 24 16 51 16 65c0 23 -6 35 -17 35c-58 0 -101 -107 -101 -257c0 -88 26 -125 60 -125c67 0 140 68 171 125c27 5 37 -16 25 -34c-54 -112 -143 -161 -220 -161
c-73 0 -142 49 -142 179c0 11 1 22 2 34l-78 -159c-21 -42 -37 -54 -69 -54c-14 0 -28 5 -37 13l71 329l-83 -168c-47 -124 -140 -174 -221 -174c-51 0 -99 36 -99 112c0 48 33 64 70 64c13 0 30 -6 41 -16c-15 -16 -17 -34 -17 -45z" />
    <glyph glyph-name="afii10073" unicode="&#x437;" horiz-adv-x="360" 
d="M-159 -262c0 127 152 224 286 277c3 21 6 40 6 55c0 55 -34 94 -92 94c-5 31 11 58 42 58c65 0 119 82 119 144c0 48 -29 71 -66 71c-13 0 -27 -3 -40 -8c-2 -6 -2 -12 -2 -20c0 -14 5 -41 16 -65c-11 -10 -27 -14 -40 -14c-36 0 -60 32 -60 69c0 52 47 113 172 113
c86 0 138 -56 138 -122c0 -99 -65 -172 -165 -200c60 -19 93 -67 93 -125v-1c46 24 87 53 117 78c15 -13 18 -35 1 -50c-15 -13 -67 -51 -124 -83c-14 -87 -56 -209 -94 -273c-45 -74 -105 -121 -189 -121c-61 0 -118 40 -118 123zM48 -224c21 37 46 106 64 171
c-111 -44 -203 -125 -203 -196c0 -35 28 -47 41 -47c39 0 71 26 98 72z" />
    <glyph glyph-name="afii10074" unicode="&#x438;" horiz-adv-x="495" 
d="M-3 184l47 205c4 16 -1 25 -10 25c-5 0 -11 -4 -20 -12c-13 8 -20 39 0 55c34 27 70 48 112 48c36 0 57 -17 48 -55l-61 -284c-9 -41 4 -59 34 -59c35 0 65 20 92 52l60 283c10 46 48 63 84 63c18 0 35 -5 47 -13l-70 -331c-12 -56 4 -74 30 -74c37 0 80 25 105 50
c11 -5 17 -14 17 -24c0 -7 -3 -15 -9 -22c-47 -53 -119 -99 -173 -99c-49 0 -98 25 -93 113c-40 -65 -89 -113 -146 -113c-111 0 -111 117 -94 192z" />
    <glyph glyph-name="afii10075" unicode="&#x439;" horiz-adv-x="495" 
d="M-3 184l47 205c4 16 -1 25 -10 25c-5 0 -11 -4 -20 -12c-13 8 -20 39 0 55c34 27 70 48 112 48c36 0 57 -17 48 -55l-61 -284c-9 -41 4 -59 34 -59c35 0 65 20 92 52l60 283c10 46 48 63 84 63c18 0 35 -5 47 -13l-70 -331c-12 -56 4 -74 30 -74c37 0 80 25 105 50
c11 -5 17 -14 17 -24c0 -7 -3 -15 -9 -22c-47 -53 -119 -99 -173 -99c-49 0 -98 25 -93 113c-40 -65 -89 -113 -146 -113c-111 0 -111 117 -94 192zM428 684c-7 -71 -84 -144 -191 -144c-70 0 -102 49 -102 97c0 44 29 85 84 85c16 0 26 -2 40 -10c-5 -9 -7 -18 -7 -30
c0 -30 20 -45 46 -45c33 0 74 26 94 81c18 3 40 -7 36 -34z" />
    <glyph glyph-name="afii10076" unicode="&#x43a;" horiz-adv-x="426" 
d="M174 450l-35 -171l6 2c48 15 115 106 139 213c16 8 33 11 48 11c34 0 52 -22 52 -47c0 -60 -78 -148 -140 -190c14 -56 42 -173 114 -173c20 0 42 18 68 42c11 -5 17 -14 17 -24c0 -7 -3 -15 -9 -22c-36 -44 -105 -99 -147 -99c-100 0 -126 160 -141 238l-18 -5l-35 -170
c-10 -46 -48 -63 -84 -63c-18 0 -35 5 -47 13l82 384c4 17 -1 25 -10 25c-5 0 -11 -4 -20 -12c-13 8 -20 39 0 55c34 27 70 48 112 48c36 0 56 -16 48 -55z" />
    <glyph glyph-name="afii10077" unicode="&#x43b;" horiz-adv-x="528" 
d="M363 -8c-70 0 -121 28 -93 161l59 277c-20 -1 -41 -2 -62 -4c-38 -154 -77 -254 -114 -318c-45 -78 -94 -115 -132 -116c-41 -1 -71 39 -71 112c0 48 33 62 70 62c12 0 28 -5 41 -14c-13 -28 -17 -58 -17 -78c52 32 101 84 172 346c-54 -8 -99 -21 -119 -44
c-14 16 -21 34 -21 51c0 62 54 86 111 86c63 0 278 -8 270 -48l-64 -304c-12 -56 4 -74 30 -74c37 0 80 25 105 50c11 -5 17 -14 17 -24c0 -7 -3 -15 -9 -22c-47 -53 -119 -99 -173 -99z" />
    <glyph glyph-name="afii10078" unicode="&#x43c;" horiz-adv-x="731" 
d="M626 87c37 0 80 25 105 50c11 -5 17 -14 17 -24c0 -7 -3 -15 -9 -22c-47 -53 -119 -99 -173 -99c-50 0 -113 26 -93 157l26 171l-169 -324c-47 -12 -82 1 -84 48l-7 278c-29 -97 -57 -165 -86 -214c-45 -78 -94 -115 -132 -116c-41 -1 -71 39 -71 112c0 48 33 62 70 62
c12 0 28 -5 41 -14c-13 -28 -17 -58 -17 -78c52 32 102 84 174 352c-51 -6 -88 -20 -115 -50c-14 16 -21 34 -21 51c0 62 54 86 111 86c51 0 120 -5 148 -16l13 -340l155 282c27 49 49 66 85 66c18 0 35 -5 48 -13l-46 -331c-8 -56 4 -74 30 -74z" />
    <glyph glyph-name="afii10079" unicode="&#x43d;" 
d="M324 -8c-50 0 -119 28 -92 157l20 97c-38 -12 -83 -22 -127 -24l-36 -167c-10 -46 -45 -63 -81 -63c-18 0 -35 5 -47 13l83 384c4 16 -1 25 -10 25c-5 0 -11 -4 -20 -12c-13 8 -20 39 0 55c34 27 70 48 112 48c36 0 57 -17 48 -55l-35 -160c45 1 86 4 124 8l31 144
c10 46 44 63 80 63c18 0 35 -5 47 -13l-70 -331c-12 -56 4 -74 30 -74c37 0 80 25 105 50c11 -5 17 -14 17 -24c0 -7 -3 -15 -9 -22c-47 -53 -103 -99 -170 -99z" />
    <glyph glyph-name="afii10080" unicode="&#x43e;" horiz-adv-x="431" 
d="M244 509c109 0 155 -81 155 -179c0 -149 -107 -338 -264 -338c-103 0 -147 83 -147 177c0 151 105 340 256 340zM266 433c-91 0 -150 -134 -150 -232c0 -88 30 -122 65 -122c79 0 143 154 143 259c0 54 -17 95 -58 95z" />
    <glyph glyph-name="afii10081" unicode="&#x43f;" horiz-adv-x="479" 
d="M14 402c-13 8 -20 39 0 55c34 27 70 48 112 48c36 0 57 -17 48 -55l-10 -45c42 60 106 100 164 100c53 0 91 -42 68 -147l-49 -230c-6 -29 7 -41 27 -41c37 0 80 25 105 50c11 -5 17 -14 17 -24c0 -7 -3 -15 -9 -22c-47 -53 -114 -99 -181 -99c-50 0 -103 25 -78 142
l42 199c9 42 -5 59 -27 59c-27 0 -67 -25 -89 -52l-61 -285c-10 -46 -48 -63 -84 -63c-18 0 -35 5 -47 13l82 384c4 16 -1 25 -10 25c-5 0 -11 -4 -20 -12z" />
    <glyph glyph-name="afii10083" unicode="&#x441;" horiz-adv-x="415" 
d="M441 153c-69 -101 -185 -161 -282 -161c-94 0 -170 56 -170 179c0 154 105 338 255 338c81 0 121 -32 121 -97c0 -56 -33 -82 -70 -82c-13 0 -29 4 -40 14c11 24 16 51 16 65c0 19 -12 29 -37 29c-56 0 -121 -107 -121 -251c0 -79 42 -108 96 -108c72 0 164 51 207 108
c26 5 36 -16 25 -34z" />
    <glyph glyph-name="afii10084" unicode="&#x442;" horiz-adv-x="713" 
d="M174 450l-10 -45c41 59 91 100 148 100c41 0 87 -32 84 -103c42 60 92 103 150 103c45 0 110 -30 84 -147l-49 -230c-6 -29 7 -41 27 -41c37 0 80 25 105 50c11 -5 17 -14 17 -24c0 -7 -3 -15 -9 -22c-47 -53 -114 -99 -181 -99c-50 0 -103 25 -78 142l42 199
c8 32 9 59 -24 59c-34 0 -61 -18 -87 -46l-62 -291c-10 -46 -48 -63 -84 -63c-18 0 -35 5 -47 13l70 328c7 32 9 59 -24 59c-36 0 -65 -20 -92 -52l-61 -285c-10 -46 -48 -63 -84 -63c-18 0 -35 5 -47 13l82 384c4 16 -1 25 -10 25c-5 0 -11 -4 -20 -12c-13 8 -20 39 0 55
c34 27 70 48 112 48c36 0 57 -17 48 -55z" />
    <glyph glyph-name="afii10085" unicode="&#x443;" horiz-adv-x="459" 
d="M-3 184l47 205c4 16 -1 25 -10 25c-5 0 -11 -4 -20 -12c-13 8 -20 39 0 55c34 27 70 48 112 48c36 0 57 -17 48 -55l-62 -288c-7 -31 1 -55 34 -55c29 0 54 14 77 36l65 299c10 46 48 63 84 63c18 0 35 -5 47 -13l-85 -396c-3 -14 -6 -28 -9 -41c55 27 108 57 143 87
c15 -13 18 -35 1 -50c-18 -16 -86 -61 -157 -94c-46 -186 -120 -383 -298 -383c-56 0 -121 40 -121 123c0 127 136 187 302 261c7 24 13 49 21 76c-39 -49 -84 -82 -134 -82c-99 0 -105 98 -85 191zM15 -296c69 0 109 68 160 229c-119 -58 -201 -106 -201 -182
c0 -35 28 -47 41 -47z" />
    <glyph glyph-name="afii10087" unicode="&#x445;" horiz-adv-x="480" 
d="M315 -8c-59 0 -99 32 -118 156c-49 -71 -118 -156 -176 -156c-41 0 -71 39 -71 112c0 48 33 62 70 62c12 0 28 -5 41 -14c-13 -29 -17 -59 -17 -79c39 22 81 52 144 154l-21 169c-4 36 -45 53 -98 6c-14 13 -19 37 0 55c15 13 58 52 107 52c69 0 97 -39 108 -127l9 -71
c37 43 77 101 77 142c0 22 -14 48 -54 47c2 52 34 77 67 77c43 0 96 -21 81 -111c-12 -69 -65 -128 -164 -213l9 -71c6 -47 22 -95 66 -95c37 0 80 25 105 50c11 -5 17 -14 17 -24c0 -7 -3 -15 -9 -22c-47 -53 -119 -99 -173 -99z" />
    <glyph glyph-name="afii10089" unicode="&#x447;" horiz-adv-x="477" 
d="M315 -8c-50 0 -119 28 -92 157l17 81c-35 -43 -76 -63 -116 -63c-111 0 -108 97 -91 172l11 50c4 16 -1 25 -10 25c-5 0 -11 -4 -20 -12c-13 8 -20 39 0 55c34 27 70 48 112 48c36 0 57 -17 48 -55l-28 -129c-9 -41 4 -59 34 -59c29 0 53 17 76 44l29 136
c10 46 44 63 80 63c18 0 35 -5 47 -13l-70 -331c-12 -56 4 -74 30 -74c37 0 80 25 105 50c11 -5 17 -14 17 -24c0 -7 -3 -15 -9 -22c-47 -53 -103 -99 -170 -99z" />
    <glyph glyph-name="afii10090" unicode="&#x448;" horiz-adv-x="743" 
d="M-3 184l47 205c4 16 -1 25 -10 25c-5 0 -11 -4 -20 -12c-13 8 -20 39 0 55c34 27 70 48 112 48c36 0 56 -17 48 -55l-61 -284c-9 -41 4 -59 34 -59c35 0 65 20 92 52l60 283c10 46 48 63 84 63c18 0 35 -5 47 -13l-69 -326c-9 -41 4 -59 34 -59c35 0 65 20 92 52l60 283
c10 46 48 63 84 63c18 0 35 -5 47 -13l-70 -331c-12 -56 4 -74 30 -74c37 0 80 25 105 50c11 -5 17 -14 17 -24c0 -7 -3 -15 -9 -22c-44 -53 -107 -99 -173 -99c-49 0 -98 25 -93 113c-40 -65 -89 -113 -146 -113c-76 0 -100 54 -102 112c-40 -64 -90 -112 -146 -112
c-111 0 -111 117 -94 192z" />
    <glyph glyph-name="afii10093" unicode="&#x44b;" horiz-adv-x="627" 
d="M-3 184l47 205c4 16 -1 25 -10 25c-5 0 -11 -4 -20 -12c-13 8 -20 39 0 55c34 27 70 48 112 48c36 0 57 -17 48 -55l-61 -284c-13 -62 7 -91 34 -91c30 0 94 41 73 177c-18 -1 -36 0 -53 2c-21 50 1 95 58 95c18 0 37 -6 54 -17c70 37 133 101 172 148c7 9 30 25 64 25
c18 0 35 -5 47 -13l-70 -331c-12 -56 4 -74 30 -74c37 0 80 25 105 50c11 -5 17 -14 17 -24c0 -7 -3 -15 -9 -22c-47 -53 -114 -99 -181 -99c-50 0 -111 28 -92 119l58 276c-31 -33 -68 -66 -107 -91c10 -17 16 -38 16 -62c0 -110 -71 -242 -238 -242
c-111 0 -111 117 -94 192z" />
    <glyph glyph-name="afii10094_" horiz-adv-x="409" 
d="M-3 184l47 205c3 16 -1 25 -10 25c-5 0 -11 -4 -20 -12c-13 8 -20 39 0 55c34 27 70 48 112 48c36 0 56 -17 48 -55l-61 -284c-13 -62 7 -96 34 -96c37 0 88 55 88 155c0 9 -1 18 -2 26c-24 -3 -47 -2 -66 3c-21 50 1 95 58 95c27 0 57 -11 79 -32c67 14 127 51 173 82
c11 -8 12 -37 -5 -50c-23 -18 -81 -58 -140 -76c4 -12 7 -25 7 -39c0 -88 -99 -242 -248 -242c-111 0 -111 117 -94 192z" />
    <glyph glyph-name="afii10096" unicode="&#x44e;" horiz-adv-x="668" 
d="M481 509c109 0 155 -81 155 -179c0 -149 -107 -338 -264 -338c-103 0 -147 83 -147 177c0 27 3 56 10 84c-32 -19 -69 -29 -110 -31l-36 -167c-10 -46 -45 -63 -81 -63c-18 0 -35 5 -47 13l83 384c3 16 -1 25 -10 25c-5 0 -11 -4 -20 -12c-13 8 -20 39 0 55
c34 27 70 48 112 48c36 0 57 -17 48 -55l-35 -162c37 0 76 4 112 19c40 108 123 202 230 202zM503 433c-91 0 -150 -134 -150 -232c0 -88 30 -122 65 -122c79 0 143 154 143 259c0 54 -17 95 -58 95z" />
    <glyph glyph-name="afii10097" unicode="&#x44f;" horiz-adv-x="503" 
d="M338 -8c-50 0 -120 28 -93 157l12 56h-47c-37 -79 -110 -211 -188 -213c-41 -1 -71 39 -71 112c0 48 33 62 70 62c12 0 28 -5 41 -14c-13 -29 -17 -59 -17 -79c36 21 71 49 112 138c-64 17 -95 68 -95 125c0 122 114 174 208 174c91 0 161 -49 136 -168l-38 -181
c-12 -56 4 -74 30 -74c37 0 80 25 105 50c11 -5 17 -14 17 -24c0 -7 -3 -15 -9 -22c-47 -53 -116 -99 -173 -99zM177 336c-1 -40 15 -76 49 -76h42l25 115c12 55 -8 76 -33 76c-53 0 -82 -62 -83 -115z" />
    <glyph glyph-name="ampersand" unicode="&#x26;" horiz-adv-x="833" 
d="M247 571c0 -119 106 -240 221 -330c12 35 19 75 19 118c0 15 -1 30 -3 45c-22 -1 -35 -9 -44 -20c-36 46 3 104 86 104c80 0 143 -33 206 0c33 -43 -5 -113 -75 -113c-40 0 -76 14 -114 22c4 -23 7 -47 7 -70c0 -49 -7 -93 -20 -131c71 -47 139 -80 180 -88
c0 -89 -50 -131 -87 -119c-47 16 -103 49 -161 94c-58 -61 -137 -91 -211 -91c-144 0 -213 95 -213 195c0 88 55 181 161 212c-28 58 -44 116 -44 172c0 90 74 179 178 179s159 -58 159 -139c0 -60 -25 -90 -78 -90c-16 0 -47 12 -58 40c32 16 47 50 47 76
c0 36 -29 57 -67 57c-53 0 -89 -37 -89 -123zM269 82c49 0 95 19 132 54c-66 61 -128 134 -174 211c-47 -33 -72 -91 -72 -144c0 -64 36 -121 114 -121z" />
    <glyph glyph-name="colon" unicode=":" horiz-adv-x="208" 
d="M42 397c2 39 34 70 73 70s69 -31 67 -70c-3 -39 -35 -70 -74 -70s-69 31 -66 70zM4 103c2 39 34 70 73 70s69 -31 67 -70c-3 -39 -35 -70 -74 -70s-69 31 -66 70z" />
    <glyph glyph-name="underscore" unicode="_" horiz-adv-x="496" 
d="M405 -28h-384c-6 6 -9 16 -9 26c0 27 21 61 66 61h384c5 -8 8 -19 8 -30c0 -28 -20 -57 -65 -57z" />
    <glyph glyph-name="endash" unicode="&#x2013;" horiz-adv-x="395" 
d="M71 255c-26 0 -40 -8 -50 -20c-9 12 -13 24 -13 36c0 36 33 68 89 68c84 0 150 -33 216 0c33 -43 -5 -113 -75 -113c-58 0 -109 29 -167 29z" />
    <glyph glyph-name="emdash" unicode="&#x2014;" horiz-adv-x="603" 
d="M71 252c-26 0 -40 -8 -50 -20c-36 46 3 104 86 104c164 0 290 -33 416 0c33 -51 -5 -133 -75 -133c-124 0 -237 49 -377 49z" />
    <glyph glyph-name="bullet" unicode="&#x2022;" horiz-adv-x="263" 
d="M7 283c3 58 51 105 110 105c58 0 103 -47 100 -105c-4 -59 -52 -105 -111 -105c-58 0 -103 46 -99 105z" />
    <glyph glyph-name="equal" unicode="=" horiz-adv-x="357" 
d="M248 233h-227c-6 6 -9 16 -9 26c0 27 21 61 66 61h227c5 -8 8 -19 8 -30c0 -28 -20 -57 -65 -57zM282 393h-227c-6 6 -9 16 -9 26c0 27 21 61 66 61h227c5 -8 8 -19 8 -30c0 -28 -20 -57 -65 -57z" />
    <glyph glyph-name="question" unicode="?" horiz-adv-x="353" 
d="M113 554c-11 -13 -28 -22 -49 -22c-42 0 -59 33 -59 82c0 86 77 156 179 156c84 0 168 -50 168 -151c0 -91 -51 -144 -105 -199c-51 -53 -104 -108 -104 -201c0 -33 -34 -55 -87 -37c0 130 48 193 93 254c38 50 73 97 73 177c0 49 -26 71 -54 71c-50 0 -76 -40 -76 -81
c0 -13 3 -35 21 -49zM24 59c2 39 34 70 73 70s69 -31 67 -70c-3 -39 -35 -70 -74 -70s-69 31 -66 70z" />
    <glyph glyph-name="exclam" unicode="!" horiz-adv-x="278" 
d="M302 747l-141 -523c-8 -31 -33 -43 -58 -43c-12 0 -24 4 -32 9l97 506c10 47 49 64 86 64c18 0 36 -5 48 -13zM19 46c2 39 34 70 73 70s69 -31 67 -70c-3 -39 -35 -70 -74 -70s-69 31 -66 70z" />
    <glyph glyph-name="o" unicode="o" horiz-adv-x="453" 
d="M244 509c109 0 155 -81 155 -179c0 -149 -107 -338 -264 -338c-103 0 -147 83 -147 177c0 151 105 340 256 340zM266 433c-91 0 -150 -134 -150 -232c0 -88 30 -122 65 -122c79 0 143 154 143 259c0 54 -17 95 -58 95z" />
    <glyph glyph-name="o_" horiz-adv-x="464" 
d="M-12 169c0 151 105 340 256 340c50 0 90 -14 120 -59c-2 -23 -19 -34 -34 -28c-19 7 -40 11 -64 11c-91 0 -150 -134 -150 -232c0 -88 30 -122 65 -122c59 0 134 97 110 205c-18 1 -35 5 -46 12c-21 55 1 105 58 105c39 0 71 -22 85 -59c67 15 125 51 171 82
c12 -8 12 -37 -5 -50c-25 -19 -93 -67 -158 -80c-6 -151 -142 -302 -261 -302c-103 0 -147 83 -147 177z" />
    <glyph glyph-name="afii10067_" horiz-adv-x="449" 
d="M525 374c-22 -17 -77 -56 -134 -74c1 -8 0 -16 0 -24c-12 -151 -151 -284 -277 -284c-72 0 -122 52 -114 192c10 212 109 530 298 530c61 0 97 -33 94 -97c-5 -80 -99 -191 -274 -392c-1 -9 -2 -17 -2 -25c-5 -98 25 -125 58 -125c85 0 116 140 105 206
c-16 -1 -31 1 -39 5c-18 50 6 95 63 95c30 0 55 -13 71 -35c60 17 114 49 156 78c12 -9 12 -37 -5 -50zM295 652c-71 0 -138 -203 -166 -353c131 164 187 256 190 307c1 29 -3 46 -24 46z" />
    <glyph glyph-name="afii10080_" horiz-adv-x="464" 
d="M-12 169c0 151 105 340 256 340c50 0 90 -14 120 -59c-2 -23 -19 -34 -34 -28c-19 7 -40 11 -64 11c-91 0 -150 -134 -150 -232c0 -88 30 -122 65 -122c59 0 134 97 110 205c-18 1 -35 5 -46 12c-21 55 1 105 58 105c39 0 71 -22 85 -59c67 15 125 51 171 82
c12 -8 12 -37 -5 -50c-25 -19 -93 -67 -158 -80c-6 -151 -142 -302 -261 -302c-103 0 -147 83 -147 177z" />
    <glyph glyph-name="afii10094" unicode="&#x44c;" horiz-adv-x="379" 
d="M-3 184l47 205c4 16 -1 25 -10 25c-5 0 -11 -4 -20 -12c-13 8 -20 39 0 55c34 27 70 48 112 48c36 0 56 -17 48 -55l-29 -135c31 14 66 24 100 24c53 0 94 -28 94 -105c0 -88 -99 -242 -248 -242c-111 0 -111 117 -94 192zM180 264c-13 0 -32 -3 -49 -11l-18 -87
c-13 -62 7 -96 34 -96c37 0 88 47 88 135c0 33 -15 59 -55 59z" />
    <glyph glyph-name="afii10096_" horiz-adv-x="704" 
d="M225 169c0 27 3 56 10 84c-32 -19 -69 -29 -110 -31l-36 -167c-10 -46 -45 -63 -81 -63c-18 0 -35 5 -47 13l83 384c3 16 -1 25 -10 25c-5 0 -11 -4 -20 -12c-13 8 -20 39 0 55c34 27 70 48 112 48c36 0 56 -17 48 -55l-35 -162c37 0 76 4 112 19c40 108 123 202 230 202
c50 0 90 -14 120 -59c-2 -23 -19 -34 -34 -28c-19 7 -40 11 -64 11c-91 0 -150 -134 -150 -232c0 -88 30 -122 65 -122c59 0 134 97 110 205c-18 1 -35 5 -46 12c-21 55 1 105 58 105c39 0 71 -22 85 -59c67 15 125 51 171 82c12 -8 12 -37 -5 -50c-25 -19 -93 -67 -158 -80
c-6 -151 -142 -302 -261 -302c-103 0 -147 83 -147 177z" />
    <glyph glyph-name="semicolon" unicode=";" horiz-adv-x="237" 
d="M56 397c2 39 34 70 73 70s69 -31 67 -70c-3 -39 -35 -70 -74 -70s-69 31 -66 70zM-4 -144c-11 -4 -24 8 -17 26c74 64 62 140 40 169c5 36 34 66 73 66c41 0 65 -29 65 -67c0 -72 -66 -161 -161 -194z" />
    <glyph glyph-name="dollar" unicode="$" horiz-adv-x="570" 
d="M460 879l-31 -117c73 -20 105 -80 105 -133c0 -52 -30 -98 -81 -98c-16 0 -47 12 -58 40c32 10 51 46 51 79s-19 64 -61 64c-62 0 -94 -57 -94 -121c0 -143 209 -183 209 -355c0 -149 -106 -239 -247 -245l-32 -120c-6 -22 -24 -31 -42 -31c-8 0 -17 3 -23 7l28 148
c-103 21 -152 104 -152 185c0 85 55 166 159 166c33 0 66 -24 66 -62c0 -10 -2 -20 -7 -32c-66 22 -115 -22 -115 -79c0 -53 36 -106 105 -106c82 0 121 65 121 139c0 161 -200 183 -200 367c0 105 78 184 188 194l15 73c7 34 35 46 62 46c13 0 26 -3 34 -9z" />
    <glyph glyph-name="guillemotleft" unicode="&#xab;" horiz-adv-x="464" 
d="M318 456l-196 -189l144 -189c-29 -28 -79 -42 -103 -8l-138 197l192 197c34 34 80 20 101 -8zM454 412l-181 -145l141 -145c-23 -26 -69 -41 -92 -14l-136 159l180 159c31 27 72 12 88 -14z" />
    <glyph glyph-name="guillemotright" unicode="&#xbb;" horiz-adv-x="451" 
d="M247 70c-34 -34 -80 -20 -101 8l195 189l-143 189c29 28 79 42 103 8l138 -197zM10 122l180 145l-140 145c23 26 69 41 92 14l136 -159l-180 -159c-31 -27 -72 -12 -88 14z" />
    <glyph glyph-name="afii10071.end" horiz-adv-x="393" 
d="M145 -8c-92 0 -157 48 -157 179c0 130 86 338 251 338c91 0 114 -51 114 -96c0 -85 -45 -153 -238 -260c10 -51 44 -74 87 -74c44 0 76 21 93 57c19 0 30 -10 30 -27c0 -55 -92 -117 -180 -117zM246 431c-99 0 -131 -165 -134 -235c97 61 163 131 163 196
c0 23 -12 39 -29 39zM117 642c0 35 27 62 62 62s62 -27 62 -62s-27 -62 -62 -62s-62 27 -62 62zM314 642c0 35 28 62 62 62c35 0 62 -27 62 -62s-27 -62 -62 -62c-34 0 -62 27 -62 62z" />
    <glyph glyph-name="ff" unicode="&#xfb00;" horiz-adv-x="250" 
d="M339 500v-58h-167l-95 -442c-58 -270 -110 -385 -250 -385c-60 0 -110 33 -110 117c0 17 13 27 33 27c8 -36 31 -55 69 -55c68 0 97 92 141 296l95 442h-50c-5 32 11 58 42 58h20l8 36c28 129 113 207 208 207c99 0 120 -78 85 -207h-43c17 79 12 136 -47 136
c-46 0 -71 -67 -87 -142l-7 -30h155z" />
    <glyph glyph-name="A.end" horiz-adv-x="683" 
d="M421 134l29 139h-112c-89 -206 -168 -281 -254 -281c-50 0 -86 48 -86 137c0 58 40 75 85 75c18 0 36 -6 50 -17c-17 -39 -21 -80 -21 -103v-9c79 30 180 153 326 641h-20c-91 0 -124 -51 -124 -98c0 -22 8 -44 20 -58c-15 -7 -29 -10 -43 -10c-51 0 -81 45 -81 95
c0 63 48 135 166 135c131 0 254 -45 331 -20c10 -6 14 -16 14 -26c0 -19 -12 -39 -35 -39h-4l-114 -534c-11 -52 -2 -73 27 -73c21 0 48 12 66 48c19 0 30 -10 30 -27c0 -70 -88 -117 -148 -117c-55 0 -127 24 -102 142zM542 707c-18 2 -36 4 -55 6
c-45 -157 -86 -282 -125 -382h100z" />
    <glyph glyph-name="C.end" 
d="M251 -8c-157 0 -226 138 -226 292c0 255 150 486 333 486c97 0 139 -66 139 -127c0 -53 -32 -102 -81 -102c-18 0 -48 12 -59 40c60 25 65 121 -13 121c-87 0 -178 -197 -178 -401c0 -118 40 -216 141 -216c59 0 106 24 134 81c19 0 30 -10 30 -27
c0 -70 -112 -147 -220 -147z" />
    <glyph glyph-name="E.end" 
d="M365 714c-77 0 -120 -73 -120 -146c0 -63 32 -126 102 -143c2 -13 -1 -27 -10 -38c-99 -7 -154 -98 -154 -179c0 -67 37 -128 119 -128c59 0 111 33 139 90c19 0 30 -10 30 -27c0 -70 -112 -151 -240 -151c-131 0 -189 94 -189 198c0 97 64 199 175 233
c-55 36 -80 91 -80 148c0 98 78 199 215 199c116 0 163 -60 163 -124c0 -56 -32 -105 -82 -105c-16 0 -47 12 -58 40c31 9 49 43 49 74s-18 59 -59 59z" />
    <glyph glyph-name="M.end" horiz-adv-x="949" 
d="M432 716c-91 0 -124 -51 -124 -98c0 -22 8 -44 20 -58c-15 -7 -29 -10 -43 -10c-51 0 -81 45 -81 95c0 63 48 135 166 135c83 0 168 -44 211 -20c10 -6 14 -16 14 -26c0 -19 -12 -39 -35 -39h-1l-36 -532l232 523c18 45 49 64 86 64c18 0 43 -5 55 -13l-82 -576
c-7 -53 -2 -73 27 -73c21 0 48 12 66 48c19 0 30 -10 30 -27c0 -70 -88 -117 -148 -117c-55 0 -127 24 -102 142l65 428l-218 -511c-18 -46 -48 -59 -85 -59c-18 0 -36 5 -48 13l36 443l5 117c-135 -431 -240 -573 -359 -573c-50 0 -86 48 -86 137c0 58 40 75 85 75
c18 0 36 -6 50 -17c-17 -39 -21 -80 -21 -103v-9c79 30 180 153 326 641h-5z" />
    <glyph glyph-name="X.end" horiz-adv-x="620" 
d="M507 128c5 -29 18 -41 33 -41c26 0 46 20 60 49c19 0 30 -10 30 -27c0 -70 -88 -117 -148 -117c-48 0 -89 29 -102 92l-36 168c-95 -168 -192 -260 -268 -260c-50 0 -86 48 -86 137c0 58 40 75 85 75c18 0 36 -6 50 -17c-17 -39 -21 -80 -21 -103v-8
c52 24 133 100 222 262l-80 377c-77 -7 -105 -54 -105 -97c0 -22 8 -44 20 -58c-15 -7 -29 -10 -43 -10c-51 0 -81 45 -81 95c0 63 48 135 166 135c83 0 168 -44 211 -20c10 -6 14 -16 14 -26c0 -19 -12 -39 -35 -39h-3l51 -247c66 91 97 206 87 316c18 13 38 26 66 26
c48 0 57 -38 57 -57c0 -149 -91 -253 -198 -345z" />
    <glyph glyph-name="afii10017.end" horiz-adv-x="683" 
d="M421 134l29 139h-112c-89 -206 -168 -281 -254 -281c-50 0 -86 48 -86 137c0 58 40 75 85 75c18 0 36 -6 50 -17c-17 -39 -21 -80 -21 -103v-9c79 30 180 153 326 641h-20c-91 0 -124 -51 -124 -98c0 -22 8 -44 20 -58c-15 -7 -29 -10 -43 -10c-51 0 -81 45 -81 95
c0 63 48 135 166 135c131 0 254 -45 331 -20c10 -6 14 -16 14 -26c0 -19 -12 -39 -35 -39h-4l-114 -534c-11 -52 -2 -73 27 -73c21 0 48 12 66 48c19 0 30 -10 30 -27c0 -70 -88 -117 -148 -117c-55 0 -127 24 -102 142zM542 707c-18 2 -36 4 -55 6
c-45 -157 -86 -282 -125 -382h100z" />
    <glyph glyph-name="afii10022.end" 
d="M365 714c-77 0 -120 -73 -120 -146c0 -63 32 -126 102 -143c2 -13 -1 -27 -10 -38c-99 -7 -154 -98 -154 -179c0 -67 37 -128 119 -128c59 0 111 33 139 90c19 0 30 -10 30 -27c0 -70 -112 -151 -240 -151c-131 0 -189 94 -189 198c0 97 64 199 175 233
c-55 36 -80 91 -80 148c0 98 78 199 215 199c116 0 163 -60 163 -124c0 -56 -32 -105 -82 -105c-16 0 -47 12 -58 40c31 9 49 43 49 74s-18 59 -59 59z" />
    <glyph glyph-name="afii10026.end" horiz-adv-x="702" 
d="M440 134l84 390l-281 -468c-25 -45 -49 -64 -86 -64c-18 0 -36 5 -48 13l151 711c-91 0 -124 -51 -124 -98c0 -22 8 -44 20 -58c-15 -7 -29 -10 -43 -10c-51 0 -81 45 -81 95c0 63 48 135 166 135c83 0 168 -44 211 -20c10 -6 14 -16 14 -26c0 -19 -12 -39 -35 -39h-11
l-105 -486l285 477c24 44 49 64 86 64c18 0 36 -5 48 -13l-124 -576c-11 -52 -2 -73 27 -73c21 0 48 12 66 48c19 0 30 -10 30 -27c0 -70 -88 -117 -148 -117c-55 0 -127 24 -102 142z" />
    <glyph glyph-name="afii10027.end" horiz-adv-x="702" 
d="M440 134l84 390l-281 -468c-25 -45 -49 -64 -86 -64c-18 0 -36 5 -48 13l151 711c-91 0 -124 -51 -124 -98c0 -22 8 -44 20 -58c-15 -7 -29 -10 -43 -10c-51 0 -81 45 -81 95c0 63 48 135 166 135c83 0 168 -44 211 -20c10 -6 14 -16 14 -26c0 -19 -12 -39 -35 -39h-11
l-105 -486l285 477c24 44 49 64 86 64c18 0 36 -5 48 -13l-124 -576c-11 -52 -2 -73 27 -73c21 0 48 12 66 48c19 0 30 -10 30 -27c0 -70 -88 -117 -148 -117c-55 0 -127 24 -102 142zM663 914c-7 -71 -84 -144 -191 -144c-70 0 -102 49 -102 97c0 44 29 85 84 85
c16 0 26 -2 40 -10c-5 -9 -7 -18 -7 -30c0 -30 20 -45 46 -45c33 0 74 26 94 81c18 3 40 -7 36 -34z" />
    <glyph glyph-name="afii10029.end" horiz-adv-x="687" 
d="M425 134l121 573c-22 2 -46 5 -69 7c-158 -548 -273 -722 -404 -722c-50 0 -86 48 -86 137c0 58 40 75 85 75c18 0 36 -6 50 -17c-17 -39 -21 -80 -21 -103v-9c79 30 180 153 326 641h-9c-78 -1 -118 -45 -118 -108c0 -17 3 -34 14 -52c-93 -25 -126 28 -126 80
c0 112 78 140 168 140c131 0 264 -40 331 -16c10 -6 14 -16 14 -26c0 -19 -12 -39 -35 -39l-114 -534c-11 -52 -2 -73 27 -73c21 0 48 12 66 48c19 0 30 -10 30 -27c0 -70 -88 -117 -148 -117c-55 0 -127 24 -102 142z" />
    <glyph glyph-name="afii10030.end" horiz-adv-x="949" 
d="M432 716c-91 0 -124 -51 -124 -98c0 -22 8 -44 20 -58c-15 -7 -29 -10 -43 -10c-51 0 -81 45 -81 95c0 63 48 135 166 135c83 0 168 -44 211 -20c10 -6 14 -16 14 -26c0 -19 -12 -39 -35 -39h-1l-36 -532l232 523c18 45 49 64 86 64c18 0 43 -5 55 -13l-82 -576
c-7 -53 -2 -73 27 -73c21 0 48 12 66 48c19 0 30 -10 30 -27c0 -70 -88 -117 -148 -117c-55 0 -127 24 -102 142l65 428l-218 -511c-18 -46 -48 -59 -85 -59c-18 0 -36 5 -48 13l36 443l5 117c-135 -431 -240 -573 -359 -573c-50 0 -86 48 -86 137c0 58 40 75 85 75
c18 0 36 -6 50 -17c-17 -39 -21 -80 -21 -103v-9c79 30 180 153 326 641h-5z" />
    <glyph glyph-name="afii10031.end" horiz-adv-x="682" 
d="M410 134l54 254c-43 -15 -108 -25 -156 -26l-65 -306c-10 -47 -49 -64 -86 -64c-23 0 -42 5 -53 13l161 711h-5c-91 0 -124 -51 -124 -98c0 -22 8 -44 20 -58c-15 -7 -29 -10 -43 -10c-51 0 -81 45 -81 95c0 63 48 135 166 135c83 0 168 -44 211 -20c10 -6 14 -16 14 -26
c0 -19 -12 -39 -35 -39h-9l-57 -265c51 0 109 4 152 8l53 248c10 47 49 64 86 64c18 0 36 -5 48 -13l-124 -576c-11 -52 -2 -73 27 -73c21 0 48 12 66 48c19 0 30 -10 30 -27c0 -70 -88 -117 -148 -117c-55 0 -127 24 -102 142z" />
    <glyph glyph-name="afii10033.end" horiz-adv-x="682" 
d="M410 134l109 512c-45 10 -96 21 -144 28l-132 -618c-10 -47 -49 -64 -86 -64c-23 0 -42 5 -53 13l152 673c-60 -13 -114 -63 -114 -146c0 -17 3 -34 14 -52c-93 -25 -126 28 -126 80c0 156 185 192 289 192c53 0 188 -12 244 -12c44 0 90 9 118 29
c63 -24 43 -133 -43 -139l-101 -469c-11 -52 -2 -73 27 -73c21 0 48 12 66 48c19 0 30 -10 30 -27c0 -70 -88 -117 -148 -117c-55 0 -127 24 -102 142z" />
    <glyph glyph-name="afii10035.end" 
d="M251 -8c-157 0 -226 138 -226 292c0 255 150 486 333 486c97 0 139 -66 139 -127c0 -53 -32 -102 -81 -102c-18 0 -48 12 -59 40c60 25 65 121 -13 121c-87 0 -178 -197 -178 -401c0 -118 40 -216 141 -216c59 0 106 24 134 81c19 0 30 -10 30 -27
c0 -70 -112 -147 -220 -147z" />
    <glyph glyph-name="afii10036.end" horiz-adv-x="914" 
d="M592 134l111 521c-40 4 -83 10 -129 16l-131 -615c-10 -47 -49 -64 -86 -64c-23 0 -42 5 -53 13l154 680c-43 5 -87 10 -130 13l-137 -642c-10 -47 -49 -64 -86 -64c-23 0 -42 5 -53 13l157 693c-61 -12 -118 -62 -118 -147c0 -17 3 -34 14 -52c-93 -25 -126 28 -126 80
c0 156 185 192 289 192c107 0 354 -12 464 -12c44 0 90 9 118 29c58 -22 46 -117 -25 -136l-106 -491c-11 -52 -2 -73 27 -73c21 0 48 12 66 48c19 0 30 -10 30 -27c0 -70 -88 -117 -148 -117c-55 0 -127 24 -102 142z" />
    <glyph glyph-name="afii10039.end" horiz-adv-x="620" 
d="M507 128c5 -29 18 -41 33 -41c26 0 46 20 60 49c19 0 30 -10 30 -27c0 -70 -88 -117 -148 -117c-48 0 -89 29 -102 92l-36 168c-95 -168 -192 -260 -268 -260c-50 0 -86 48 -86 137c0 58 40 75 85 75c18 0 36 -6 50 -17c-17 -39 -21 -80 -21 -103v-8
c52 24 133 100 222 262l-80 377c-77 -7 -105 -54 -105 -97c0 -22 8 -44 20 -58c-15 -7 -29 -10 -43 -10c-51 0 -81 45 -81 95c0 63 48 135 166 135c83 0 168 -44 211 -20c10 -6 14 -16 14 -26c0 -19 -12 -39 -35 -39h-3l51 -247c66 91 97 206 87 316c18 13 38 26 66 26
c48 0 57 -38 57 -57c0 -149 -91 -253 -198 -345z" />
    <glyph glyph-name="afii10041.end" horiz-adv-x="673" 
d="M411 134l52 219c-42 -29 -86 -46 -124 -46c-117 0 -138 74 -103 216l48 192c-4 1 -9 1 -13 1c-91 0 -124 -51 -124 -98c0 -22 8 -44 20 -58c-15 -7 -29 -10 -43 -10c-51 0 -81 45 -81 95c0 63 48 135 166 135c83 0 168 -44 211 -20c10 -6 14 -16 14 -26
c0 -19 -12 -39 -35 -39h-3l-46 -204c-21 -87 0 -101 33 -101c24 0 60 7 93 20l69 291c11 46 49 63 84 63c17 0 37 -5 47 -13l-138 -590c-12 -52 -2 -73 27 -73c21 0 48 12 66 48c19 0 30 -10 30 -27c0 -70 -88 -117 -148 -117c-55 0 -127 24 -102 142z" />
    <glyph glyph-name="afii10045.end" horiz-adv-x="903" 
d="M269 716c-91 0 -124 -51 -124 -98c0 -22 8 -44 20 -58c-15 -7 -29 -10 -43 -10c-51 0 -81 45 -81 95c0 63 48 135 166 135c83 0 168 -44 211 -20c10 -6 14 -16 14 -26c0 -19 -12 -39 -35 -39h-6l-137 -639h1c138 0 239 183 185 308c-25 -5 -52 -8 -81 -9
c-8 9 -11 20 -11 32c0 31 26 55 76 55c27 0 49 -4 68 -11c101 74 200 188 276 293c15 21 38 36 75 36c18 0 36 -5 48 -13l-125 -586c-11 -52 -2 -73 27 -73c21 0 48 12 66 48c19 0 30 -10 30 -27c0 -70 -88 -117 -148 -117c-55 0 -127 24 -102 142l102 489
c-61 -83 -132 -161 -203 -220c34 -33 44 -80 44 -116c0 -125 -134 -295 -327 -295c-110 0 -202 30 -202 76c0 22 12 43 40 52c15 -13 30 -23 46 -32l135 628h-5z" />
    <glyph glyph-name="afii10049.end" horiz-adv-x="613" 
d="M351 134l42 200c-19 0 -36 2 -53 4c-79 -214 -161 -371 -321 -371c-52 0 -115 79 -29 170c98 -90 210 -25 297 213c-89 28 -126 89 -126 158c0 177 149 262 329 262c68 0 220 -18 220 -113c0 -23 -21 -47 -52 -54c-17 48 -36 77 -65 95l-115 -537c-11 -52 -2 -73 27 -73
c21 0 48 12 66 48c19 0 30 -10 30 -27c0 -70 -88 -117 -148 -117c-55 0 -127 24 -102 142zM284 516c0 -68 34 -125 119 -133l72 338c-106 -2 -191 -70 -191 -205z" />
    <glyph glyph-name="H.end" horiz-adv-x="682" 
d="M410 134l54 254c-43 -15 -108 -25 -156 -26l-65 -306c-10 -47 -49 -64 -86 -64c-23 0 -42 5 -53 13l161 711h-5c-91 0 -124 -51 -124 -98c0 -22 8 -44 20 -58c-15 -7 -29 -10 -43 -10c-51 0 -81 45 -81 95c0 63 48 135 166 135c83 0 168 -44 211 -20c10 -6 14 -16 14 -26
c0 -19 -12 -39 -35 -39h-9l-57 -265c51 0 109 4 152 8l53 248c10 47 49 64 86 64c18 0 36 -5 48 -13l-124 -576c-11 -52 -2 -73 27 -73c21 0 48 12 66 48c19 0 30 -10 30 -27c0 -70 -88 -117 -148 -117c-55 0 -127 24 -102 142z" />
    <glyph glyph-name="K_" horiz-adv-x="614" 
d="M260 716c-91 0 -124 -51 -124 -98c0 -22 8 -44 20 -58c-15 -7 -29 -10 -43 -10c-51 0 -81 45 -81 95c0 63 48 135 166 135c83 0 168 -44 211 -20c10 -6 14 -16 14 -26c0 -19 -12 -39 -35 -39h-9l-65 -307l24 8c139 81 181 237 205 350c11 6 25 8 37 8c33 0 69 -23 69 -60
c0 -100 -84 -205 -206 -297c70 -450 192 -454 270 -454c39 0 82 7 121 21c15 -3 16 -27 6 -37c-51 -48 -122 -73 -186 -73c-103 0 -259 24 -321 485l-31 -4l-59 -279c-10 -47 -49 -64 -86 -64c-23 0 -42 5 -53 13l161 711h-5z" />
    <glyph glyph-name="less" unicode="&#x3c;" horiz-adv-x="336" 
d="M346 494c-75 -83 -152 -162 -236 -229c46 -79 107 -153 174 -225c-35 -33 -93 -49 -124 -9c-62 81 -121 156 -165 236c83 74 157 154 230 236c39 43 96 24 121 -9z" />
    <glyph glyph-name="greater" unicode="&#x3e;" horiz-adv-x="336" 
d="M-10 40c75 82 151 162 235 229c-45 79 -106 153 -173 225c35 33 93 49 124 9c62 -81 121 -156 165 -236c-83 -74 -157 -154 -230 -236c-39 -43 -96 -24 -121 9z" />
    <glyph glyph-name="L_" horiz-adv-x="349" 
d="M397 698h-11l-99 -456c-17 -78 -45 -132 -77 -170c70 -59 144 -127 249 -127c46 0 98 13 159 47c11 -3 18 -19 4 -31c-87 -77 -158 -106 -216 -106c-109 0 -176 101 -237 178c-44 -32 -92 -41 -132 -41c-51 0 -90 26 -89 70c1 43 37 91 104 91c28 0 54 -9 79 -23
c11 20 21 45 28 77l108 512c-77 -2 -116 -46 -116 -108c0 -17 5 -34 14 -52c-93 -24 -126 28 -126 80c0 112 78 141 168 140c83 0 168 -40 211 -16c10 -6 14 -16 14 -26c0 -19 -12 -39 -35 -39zM44 66c19 0 43 8 64 31c-17 14 -36 23 -55 23c-28 0 -45 -15 -45 -29
c0 -15 15 -25 36 -25z" />
    <glyph glyph-name="R_" horiz-adv-x="623" 
d="M361 722c-168 0 -225 -88 -225 -163c0 -26 8 -44 20 -58c-15 -7 -29 -10 -43 -10c-51 0 -81 45 -81 95c0 118 154 184 349 184c176 0 244 -80 244 -174c0 -92 -66 -198 -161 -255c78 -385 185 -398 259 -398c39 0 82 7 121 21c15 -3 16 -27 6 -37
c-51 -48 -122 -73 -186 -73c-100 0 -250 22 -315 447c-10 -1 -19 -1 -28 -1h-14l-52 -244c-10 -47 -49 -64 -86 -64c-23 0 -42 5 -53 13l141 623c10 46 48 62 83 62c18 0 35 -5 47 -13l-70 -330c103 8 185 136 185 241c0 73 -40 134 -141 134z" />
    <glyph glyph-name="Z_" horiz-adv-x="386" 
d="M470 -145c-150 0 -239 117 -323 195c-51 -42 -104 -58 -147 -58c-50 0 -88 22 -88 70c0 43 37 91 104 91c27 0 53 -6 78 -15c6 11 13 23 20 37l254 504c-113 -3 -211 19 -295 -43c-18 20 -26 41 -26 61c0 44 27 83 92 83c118 0 219 -36 346 -36c21 0 42 8 50 16
c12 -4 17 -16 17 -26c0 -18 -13 -43 -45 -47l-247 -490c-22 -44 -47 -80 -72 -108c94 -61 191 -144 335 -144c46 0 98 13 159 47c11 -3 18 -19 4 -31c-88 -77 -158 -106 -216 -106zM-28 91c0 -13 12 -25 37 -25c21 0 41 10 64 40c-18 9 -37 14 -56 14c-28 0 -45 -15 -45 -29
z" />
    <glyph glyph-name="percent" horiz-adv-x="774" 
d="M532 -8c-107 0 -129 73 -129 163c0 128 61 308 219 308c107 0 129 -72 129 -162c0 -128 -61 -309 -219 -309zM504 139c0 -54 18 -72 43 -72c86 0 104 217 104 249c0 54 -18 73 -42 73c-86 0 -105 -212 -105 -250zM147 287c-107 0 -129 73 -129 163c0 128 61 308 219 308
c107 0 129 -72 129 -162c0 -128 -61 -309 -219 -309zM119 434c0 -54 18 -72 43 -72c86 0 104 217 104 249c0 54 -18 73 -42 73c-86 0 -105 -212 -105 -250zM572 678l-346 -686c-35 0 -57 36 -39 72l346 686c40 0 59 -31 39 -72z" />
    <glyph glyph-name="quotedbl" unicode="&#x22;" horiz-adv-x="352" 
d="M49 500c-11 0 -21 10 -21 26c31 35 38 63 38 83c0 32 -23 49 -23 84c0 36 30 67 69 67c41 0 71 -33 71 -71c0 -74 -76 -164 -134 -189zM227 500c-11 0 -21 10 -21 26c31 35 38 63 38 83c0 32 -23 49 -23 84c0 36 30 67 69 67c41 0 71 -33 71 -71
c0 -74 -76 -164 -134 -189z" />
    <glyph glyph-name="Euro" unicode="&#x20ac;" horiz-adv-x="558" 
d="M271 393h-99c-2 -18 -4 -35 -5 -53h117c5 -8 8 -19 8 -30c0 -28 -20 -57 -65 -57h-59c10 -96 52 -168 139 -168c59 0 106 24 134 81c19 0 30 -10 30 -27c0 -70 -112 -147 -220 -147c-147 0 -216 120 -225 261h-76c-6 6 -9 16 -9 26c0 27 21 61 66 61h20c2 18 4 35 7 53
h-40c-6 6 -9 16 -9 26c0 27 21 61 66 61h4c52 166 169 290 303 290c97 0 139 -66 139 -127c0 -53 -32 -102 -81 -102c-18 0 -48 12 -59 40c60 25 65 121 -13 121c-61 0 -123 -96 -156 -222h140c5 -8 8 -19 8 -30c0 -28 -20 -57 -65 -57z" />
    <glyph glyph-name="quoteright" unicode="&#x2019;" horiz-adv-x="216" 
d="M49 500c-11 0 -21 10 -21 26c31 35 38 63 38 83c0 32 -23 49 -23 84c0 36 30 67 69 67c41 0 71 -33 71 -71c0 -74 -76 -164 -134 -189z" />
    <glyph glyph-name="quoteleft" unicode="&#x2018;" horiz-adv-x="216" 
d="M162 760c11 0 21 -10 21 -26c-31 -35 -38 -63 -38 -83c0 -32 23 -49 23 -84c0 -36 -30 -67 -69 -67c-41 0 -71 33 -71 71c0 74 76 164 134 189z" />
    <glyph glyph-name="quotedblleft" unicode="&#x201c;" horiz-adv-x="387" 
d="M162 760c11 0 21 -10 21 -26c-31 -35 -38 -63 -38 -83c0 -32 23 -49 23 -84c0 -36 -30 -67 -69 -67c-41 0 -71 33 -71 71c0 74 76 164 134 189zM340 760c11 0 21 -10 21 -26c-31 -35 -38 -63 -38 -83c0 -32 23 -49 23 -84c0 -36 -30 -67 -69 -67c-41 0 -71 33 -71 71
c0 74 76 164 134 189z" />
    <glyph glyph-name="quotedblright" unicode="&#x201d;" horiz-adv-x="387" 
d="M49 500c-11 0 -21 10 -21 26c31 35 38 63 38 83c0 32 -23 49 -23 84c0 36 30 67 69 67c41 0 71 -33 71 -71c0 -74 -76 -164 -134 -189zM227 500c-11 0 -21 10 -21 26c31 35 38 63 38 83c0 32 -23 49 -23 84c0 36 30 67 69 67c41 0 71 -33 71 -71
c0 -74 -76 -164 -134 -189z" />
    <glyph glyph-name="bar" unicode="|" horiz-adv-x="309" 
d="M284 680l-179 -840c-35 -3 -64 21 -56 60l179 840c37 -2 65 -15 56 -60z" />
    <glyph glyph-name="Rub" horiz-adv-x="631" 
d="M361 722c-168 0 -225 -88 -225 -163c0 -26 8 -44 20 -58c-15 -7 -29 -10 -43 -10c-51 0 -81 45 -81 95c0 118 154 184 349 184c176 0 244 -80 244 -174c0 -180 -139 -296 -304 -296h-15l-16 -74h196c5 -37 -2 -67 -47 -67h-163l-21 -103c-10 -47 -49 -64 -86 -64
c-23 0 -42 5 -53 13l34 154h-84c-10 33 7 67 47 67h52l14 59h-86c-10 33 7 67 47 67h54l62 276c10 46 48 62 83 62c18 0 35 -5 47 -13l-70 -330c104 5 186 102 186 241c0 73 -40 134 -141 134z" />
    <glyph glyph-name="numbersign" unicode="#" horiz-adv-x="542" 
d="M518 453h-73l-32 -151h102c5 -37 -2 -67 -47 -67h-70l-52 -243c-35 -3 -64 21 -56 60l39 183h-143l-52 -243c-35 -3 -64 21 -56 60l39 183h-106c-10 33 7 67 47 67h74l32 151h-103c-10 33 7 67 47 67h71l47 220c37 -2 65 -15 56 -60l-34 -160h143l47 220
c37 -2 65 -15 56 -60l-34 -160h105c5 -37 -2 -67 -47 -67zM233 453l-32 -151h143l32 151h-143z" />
    <glyph glyph-name="quotedblbase" unicode="&#x201e;" horiz-adv-x="387" 
d="M49 -144c-11 0 -21 10 -21 26c31 35 38 63 38 83c0 32 -23 49 -23 84c0 36 30 67 69 67c41 0 71 -33 71 -71c0 -74 -76 -164 -134 -189zM227 -144c-11 0 -21 10 -21 26c31 35 38 63 38 83c0 32 -23 49 -23 84c0 36 30 67 69 67c41 0 71 -33 71 -71
c0 -74 -76 -164 -134 -189z" />
    <glyph glyph-name="quotesinglbase" unicode="&#x201a;" horiz-adv-x="216" 
d="M19 -144c-11 -4 -24 8 -17 26c74 64 62 140 40 169c5 36 34 66 73 66c41 0 65 -29 65 -67c0 -72 -66 -161 -161 -194z" />
    <glyph glyph-name="afii10079_afii10097" horiz-adv-x="920" 
d="M-38 5l83 384c3 16 -1 25 -10 25c-5 0 -11 -4 -20 -12c-13 8 -20 39 0 55c34 27 70 48 112 48c36 0 57 -17 48 -55l-35 -160c45 1 86 4 124 8l31 144c10 46 44 63 80 63c18 0 35 -5 47 -13l-70 -331c-12 -57 6 -86 45 -86c46 0 117 32 175 136c-63 18 -93 69 -93 125
c0 122 114 174 208 174c91 0 166 -50 136 -168l-38 -181c-12 -56 4 -74 30 -74c37 0 80 25 105 50c11 -5 17 -14 17 -24c0 -7 -3 -15 -9 -22c-47 -53 -116 -99 -173 -99c-50 0 -120 28 -93 157l12 56h-48c-75 -156 -194 -213 -286 -213c-77 0 -129 51 -107 157l20 97
c-38 -12 -83 -22 -127 -24l-36 -167c-10 -46 -45 -63 -81 -63c-18 0 -35 5 -47 13zM594 336c-1 -40 15 -76 49 -76h42l25 115c11 55 -9 76 -33 76c-53 0 -82 -62 -83 -115z" />
    <glyph glyph-name="afii10079_afii10097.end" horiz-adv-x="932" 
d="M661 149l12 56h-48c-75 -156 -194 -213 -286 -213c-77 0 -129 51 -107 157l20 97c-38 -12 -83 -22 -127 -24l-36 -167c-10 -46 -45 -63 -81 -63c-18 0 -35 5 -47 13l83 384c3 16 -1 25 -10 25c-5 0 -11 -4 -20 -12c-13 8 -20 39 0 55c34 27 70 48 112 48
c36 0 57 -17 48 -55l-35 -160c45 1 86 4 124 8l31 144c10 46 44 63 80 63c18 0 35 -5 47 -13l-70 -331c-12 -57 6 -86 45 -86c46 0 117 32 175 136c-63 18 -93 69 -93 125c0 122 114 174 208 174c91 0 161 -49 136 -168l-38 -181c-11 -51 2 -73 22 -73c18 0 41 12 56 48
c19 0 30 -10 30 -27c0 -70 -82 -117 -138 -117c-50 0 -120 28 -93 157zM593 336c-1 -40 15 -76 49 -76h42l25 115c11 55 -9 76 -33 76c-53 0 -82 -62 -83 -115z" />
    <glyph glyph-name="afii10066.alt" horiz-adv-x="396" 
d="M687 548c-148 0 -366 77 -529 73h1c82 -58 193 -146 193 -277c0 -144 -88 -352 -237 -352c-104 0 -145 79 -145 171c0 139 102 316 246 316c12 0 23 -1 33 -3c-42 51 -106 84 -144 110c0 50 3 114 96 114c160 0 295 -34 415 -34c71 0 136 12 197 50c14 -12 20 -33 20 -49
c0 -91 -59 -119 -146 -119zM292 363c0 20 -4 39 -10 56c-16 4 -31 4 -44 4c-86 0 -140 -134 -140 -230c0 -51 18 -91 59 -91c87 0 135 164 135 261z" />
    <glyph glyph-name="P.swash" horiz-adv-x="631" 
d="M361 722c-145 0 -392 -107 -392 -342c0 -37 7 -72 32 -102c-96 -46 -167 -2 -167 94c0 248 318 398 547 398c176 0 244 -80 244 -174c0 -180 -139 -296 -304 -296h-15l-51 -244c-10 -47 -49 -64 -86 -64c-23 0 -42 5 -53 13l140 623c10 46 48 62 83 62c18 0 35 -5 47 -13
l-70 -330c104 5 186 102 186 241c0 73 -40 134 -141 134z" />
    <glyph glyph-name="y.alt" horiz-adv-x="459" 
d="M-3 184l47 205c4 16 -1 25 -10 25c-5 0 -11 -4 -20 -12c-13 8 -20 39 0 55c34 27 70 48 112 48c36 0 56 -17 48 -55l-62 -288c-7 -31 1 -55 34 -55c29 0 54 14 77 36l65 299c10 46 48 63 84 63c18 0 35 -5 47 -13l-85 -396c-10 -46 -21 -95 -34 -143
c109 -7 216 -23 289 -23c44 0 90 9 118 29c29 -84 -11 -149 -81 -149c-105 0 -219 48 -347 72c-48 -144 -124 -267 -271 -267c-57 0 -115 50 -115 123c0 140 132 208 288 216c11 36 22 76 35 120c-39 -48 -84 -81 -134 -81c-99 0 -105 98 -85 191zM15 -296
c64 0 103 58 147 191h-20c-98 0 -168 -63 -168 -144c0 -32 24 -47 41 -47z" />
    <glyph glyph-name="afii10090.alt" horiz-adv-x="743" 
d="M-3 184l47 205c4 16 -1 25 -10 25c-5 0 -11 -4 -20 -12c-13 8 -20 39 0 55c34 27 70 48 112 48c36 0 56 -17 48 -55l-61 -284c-9 -41 4 -59 34 -59c35 0 65 20 92 52l60 283c10 46 48 63 84 63c18 0 35 -5 47 -13l-69 -326c-9 -41 4 -59 34 -59c35 0 65 20 92 52l60 283
c10 46 48 63 84 63c18 0 35 -5 47 -13l-70 -331c-12 -56 4 -74 30 -74c37 0 80 25 105 50c11 -5 17 -14 17 -24c0 -7 -3 -15 -9 -22c-44 -53 -107 -99 -173 -99c-49 0 -98 25 -93 113c-40 -65 -89 -113 -146 -113c-76 0 -100 54 -102 112c-40 -64 -90 -112 -146 -112
c-111 0 -111 117 -94 192zM71 -162c-26 0 -40 -8 -50 -20c-36 46 3 104 86 104c164 0 290 -33 416 0c33 -51 -5 -133 -75 -133c-124 0 -237 49 -377 49z" />
    <glyph glyph-name="afii10090.001.alt" horiz-adv-x="743" 
d="M-3 184l47 205c4 16 -1 25 -10 25c-5 0 -11 -4 -20 -12c-13 8 -20 39 0 55c34 27 70 48 112 48c36 0 56 -17 48 -55l-61 -284c-9 -41 4 -59 34 -59c35 0 65 20 92 52l60 283c10 46 48 63 84 63c18 0 35 -5 47 -13l-69 -326c-9 -41 4 -59 34 -59c35 0 65 20 92 52l60 283
c10 46 48 63 84 63c18 0 35 -5 47 -13l-70 -331c-11 -51 2 -73 22 -73c18 0 41 12 56 48c19 0 30 -10 30 -27c0 -70 -82 -117 -138 -117c-49 0 -98 25 -93 113c-40 -65 -89 -113 -146 -113c-76 0 -100 54 -102 112c-40 -64 -90 -112 -146 -112c-111 0 -111 117 -94 192z
M71 -162c-26 0 -40 -8 -50 -20c-36 46 3 104 86 104c164 0 290 -33 416 0c33 -51 -5 -133 -75 -133c-124 0 -237 49 -377 49z" />
    <glyph glyph-name="afii10084.alt" horiz-adv-x="713" 
d="M174 450l-10 -45c41 59 91 100 148 100c41 0 87 -32 84 -103c42 60 92 103 150 103c45 0 110 -30 84 -147l-49 -230c-6 -29 7 -41 27 -41c37 0 80 25 105 50c11 -5 17 -14 17 -24c0 -7 -3 -15 -9 -22c-47 -53 -114 -99 -181 -99c-50 0 -103 25 -78 142l42 199
c8 32 9 59 -24 59c-34 0 -61 -18 -87 -46l-62 -291c-10 -46 -48 -63 -84 -63c-18 0 -35 5 -47 13l70 328c7 32 9 59 -24 59c-36 0 -65 -20 -92 -52l-61 -285c-10 -46 -48 -63 -84 -63c-18 0 -35 5 -47 13l82 384c4 16 -1 25 -10 25c-5 0 -11 -4 -20 -12c-13 8 -20 39 0 55
c34 27 70 48 112 48c36 0 57 -17 48 -55zM198 627c-26 0 -40 -8 -50 -20c-36 46 3 104 86 104c164 0 290 -33 416 0c33 -51 -5 -133 -75 -133c-124 0 -237 49 -377 49z" />
    <glyph glyph-name="afii10084.001.alt" horiz-adv-x="714" 
d="M631 358l-42 -197c-11 -51 2 -73 22 -73c18 0 41 12 56 48c19 0 30 -10 30 -27c0 -70 -82 -117 -138 -117c-50 0 -121 25 -96 142l42 199c8 32 9 59 -24 59c-34 0 -61 -18 -87 -46l-62 -291c-10 -46 -48 -63 -84 -63c-18 0 -35 5 -47 13l70 328c7 32 9 59 -24 59
c-36 0 -65 -20 -92 -52l-61 -285c-10 -46 -48 -63 -84 -63c-18 0 -35 5 -47 13l82 384c4 16 -1 25 -10 25c-5 0 -11 -4 -20 -12c-13 8 -20 39 0 55c34 27 70 48 112 48c36 0 57 -17 48 -55l-10 -45c41 59 91 100 148 100c41 0 87 -32 84 -103c42 60 92 103 150 103
c45 0 110 -30 84 -147zM198 627c-26 0 -40 -8 -50 -20c-36 46 3 104 86 104c164 0 290 -33 416 0c33 -51 -5 -133 -75 -133c-124 0 -237 49 -377 49z" />
    <glyph glyph-name="B.swash" horiz-adv-x="659" 
d="M352 723c-145 0 -383 -108 -383 -343c0 -37 7 -72 32 -102c-96 -46 -167 -2 -167 94c0 248 305 398 534 398c124 0 215 -29 215 -145c0 -77 -57 -167 -157 -220l1 -1c105 0 151 -56 151 -127c0 -121 -132 -285 -323 -285c-110 0 -202 30 -202 76c0 22 12 43 40 52
c15 -13 30 -23 46 -32l114 538c10 47 49 64 86 64c18 0 36 -5 48 -13l-58 -271c82 25 144 126 144 207c0 77 -39 110 -121 110zM363 361c-14 0 -29 -2 -45 -6l-64 -299h1c103 0 195 109 195 216c0 52 -28 89 -87 89z" />
    <glyph glyph-name="A.swash" horiz-adv-x="652" 
d="M385 111l34 162h-112c-98 -234 -167 -287 -267 -287c-95 0 -137 102 -72 154c29 -18 63 -24 80 -24c113 0 171 67 359 569c-48 4 -92 8 -130 8c-56 0 -98 -9 -123 -42c-18 20 -26 41 -26 61c0 54 30 103 102 103c124 0 241 -70 376 -70c26 0 40 3 50 15
c10 -6 14 -16 14 -26c0 -19 -12 -41 -39 -39l-114 -534c-12 -58 6 -74 33 -74c32 0 79 30 102 50c11 -5 17 -14 17 -24c0 -7 -3 -15 -9 -22c-56 -57 -122 -99 -173 -99c-57 0 -121 28 -102 119zM505 679c-18 1 -36 2 -53 3c-46 -144 -86 -259 -122 -351h101z" />
    <glyph glyph-name="D.swash" horiz-adv-x="691" 
d="M366 722c-171 0 -347 -107 -347 -342c0 -37 7 -72 32 -102c-97 -46 -167 -2 -167 94c0 248 220 398 493 398c154 0 301 -70 301 -262c0 -221 -120 -520 -337 -520c-59 0 -108 24 -149 52c-44 -34 -97 -46 -148 -46c-122 0 -98 159 24 159c26 0 51 -13 78 -28
c12 21 22 49 29 82l89 419c10 47 49 64 86 64c18 0 36 -5 48 -13l-95 -435c-16 -75 -42 -128 -74 -166c24 -12 50 -20 78 -20c139 0 241 254 241 452c0 157 -88 214 -182 214zM63 69c22 0 42 8 59 25c-20 15 -38 26 -53 26c-51 0 -67 -51 -6 -51z" />
    <glyph glyph-name="F.swash" horiz-adv-x="484" 
d="M169 -8c-23 0 -42 5 -53 13l158 696c-134 -6 -305 -95 -305 -321c0 -37 7 -72 32 -102c-96 -46 -167 -2 -167 94c0 248 258 390 475 390c111 0 207 -43 322 8c22 -90 -26 -151 -98 -151c-40 0 -96 27 -147 50l-55 -254c48 -5 88 -18 129 2c24 -31 -3 -82 -55 -82
c-30 0 -58 11 -87 17l-63 -296c-10 -47 -49 -64 -86 -64z" />
    <glyph glyph-name="H.swash" horiz-adv-x="672" 
d="M411 137l53 251c-43 -15 -108 -25 -156 -26l-65 -306c-10 -47 -49 -64 -86 -64c-23 0 -42 5 -53 13l153 674c-89 3 -168 14 -232 14c-56 0 -98 -9 -123 -42c-18 20 -26 41 -26 61c0 54 30 103 102 103c124 0 241 -70 376 -70c26 0 40 3 50 15c10 -6 14 -16 14 -26
c0 -19 -12 -41 -39 -39l-57 -265c51 0 109 4 152 8l53 248c10 47 49 64 86 64c18 0 35 -5 48 -13l-124 -576c-11 -58 6 -74 33 -74c32 0 79 30 102 50c11 -5 17 -14 17 -24c0 -7 -3 -15 -9 -22c-58 -54 -116 -99 -174 -99c-60 0 -120 28 -95 145z" />
    <glyph glyph-name="I.swash" horiz-adv-x="383" 
d="M379 695l-136 -639c-10 -47 -49 -64 -86 -64c-23 0 -42 5 -53 13l153 674c-89 3 -168 14 -232 14c-56 0 -98 -9 -123 -42c-18 20 -26 41 -26 61c0 54 30 103 102 103c127 0 247 -63 386 -63c21 0 32 4 40 8c12 -4 17 -16 17 -26c0 -19 -15 -39 -42 -39z" />
    <glyph glyph-name="J.swash" horiz-adv-x="536" 
d="M559 695c-4 -1 -8 -1 -12 -2l-136 -646c-35 -164 -119 -248 -246 -248c-104 0 -148 73 -148 146c0 71 46 141 125 141c72 0 102 -43 75 -117c-17 16 -32 18 -47 18c-51 0 -73 -36 -73 -70c0 -29 24 -60 67 -60c61 0 92 57 130 229l132 604c-166 4 -296 40 -348 -29
c-41 68 0 154 76 154c124 0 241 -70 376 -70h6l23 4l-1 -2c10 2 16 6 22 13c10 -6 14 -16 14 -26c0 -19 -12 -36 -35 -39z" />
    <glyph glyph-name="K.swash" horiz-adv-x="660" 
d="M582 87c27 0 59 23 78 50c11 -5 15 -14 15 -23c0 -33 -61 -122 -156 -122c-115 0 -154 193 -166 350l-51 -7l-59 -279c-10 -47 -49 -64 -86 -64c-23 0 -42 5 -53 13l153 674c-89 3 -168 14 -232 14c-56 0 -98 -9 -123 -42c-18 20 -26 41 -26 61c0 54 30 103 102 103
c124 0 241 -70 376 -70c26 0 40 3 50 15c10 -6 14 -16 14 -26c0 -19 -12 -41 -39 -39l-65 -307l24 8c139 81 181 237 205 350c11 6 25 8 37 8c33 0 69 -23 69 -60c0 -94 -75 -193 -186 -282c15 -152 45 -325 119 -325z" />
    <glyph glyph-name="K_.swash" horiz-adv-x="635" 
d="M713 -57c39 0 82 7 121 21c15 -3 16 -27 6 -37c-51 -48 -122 -73 -186 -73c-103 0 -259 24 -321 485l-31 -4l-59 -279c-10 -47 -49 -64 -86 -64c-23 0 -42 5 -53 13l153 674c-89 3 -168 14 -232 14c-56 0 -98 -9 -123 -42c-18 20 -26 41 -26 61c0 54 30 103 102 103
c124 0 241 -70 376 -70c26 0 40 3 50 15c10 -6 14 -16 14 -26c0 -19 -12 -41 -39 -39l-65 -307l24 8c139 81 181 237 205 350c11 6 25 8 37 8c33 0 69 -23 69 -60c0 -100 -84 -205 -206 -297c70 -450 192 -454 270 -454z" />
    <glyph glyph-name="L.swash" horiz-adv-x="514" 
d="M373 88c71 0 118 28 141 49c11 -5 17 -14 17 -24c0 -26 -85 -121 -182 -121c-83 0 -129 26 -164 55c-47 -39 -102 -53 -157 -53c-122 0 -98 159 24 159c30 0 59 -4 87 -11c8 19 14 40 20 65l99 473c-87 3 -164 13 -227 13c-56 0 -98 -9 -123 -42c-18 20 -26 41 -26 61
c0 54 30 103 102 103c120 0 233 -66 362 -70l50 5c6 2 10 5 14 10c10 -6 14 -16 14 -26c0 -19 -12 -41 -39 -39l-98 -453c-12 -53 -28 -95 -48 -128c46 -14 90 -26 134 -26zM47 69c26 0 50 12 68 34c-17 10 -37 17 -62 17c-51 0 -67 -51 -6 -51z" />
    <glyph glyph-name="L_.swash" horiz-adv-x="343" 
d="M131 130c11 20 21 45 28 77l99 473c-87 3 -164 13 -227 13c-56 0 -98 -9 -123 -42c-18 20 -26 41 -26 61c0 54 30 103 102 103c124 0 241 -70 376 -70c26 0 40 3 50 15c10 -6 14 -16 14 -26c0 -19 -12 -41 -39 -39l-98 -453c-17 -78 -45 -132 -77 -170
c70 -59 144 -127 249 -127c46 0 98 13 159 47c11 -3 18 -19 4 -31c-87 -77 -158 -106 -216 -106c-109 0 -176 101 -237 178c-44 -32 -92 -41 -132 -41c-51 0 -90 26 -89 70c1 43 37 91 104 91c28 0 54 -9 79 -23zM44 66c19 0 43 8 64 31c-17 14 -36 23 -55 23
c-28 0 -45 -15 -45 -29c0 -15 15 -25 36 -25z" />
    <glyph glyph-name="M.swash" horiz-adv-x="949" 
d="M688 137l64 426l-218 -512c-18 -46 -48 -59 -85 -59c-18 0 -36 5 -48 13l36 443l5 122c-163 -496 -233 -584 -367 -584c-95 0 -137 102 -72 154c29 -18 63 -24 80 -24c112 0 163 67 348 564c-87 3 -164 13 -226 13c-56 0 -98 -9 -123 -42c-18 20 -26 41 -26 61
c0 54 30 103 102 103c124 0 241 -70 376 -70c26 0 40 3 50 15c10 -6 14 -16 14 -26c0 -19 -12 -41 -39 -39l-36 -532l232 523c18 45 49 64 86 64c18 0 43 -5 55 -13l-82 -576c-8 -58 6 -74 33 -74c32 0 79 30 102 50c11 -5 17 -14 17 -24c0 -7 -3 -15 -9 -22
c-58 -54 -116 -99 -174 -99c-60 0 -113 27 -95 145z" />
    <glyph glyph-name="N.swash" horiz-adv-x="671" 
d="M443 695l107 -467c38 149 48 245 48 326c0 85 -16 159 -53 210c18 16 44 26 82 26c55 0 66 -45 66 -83c0 -134 -41 -311 -77 -438l-78 -272c-30 -10 -55 -5 -63 28l-128 559c-58 -500 -123 -598 -247 -598c-95 0 -143 63 -100 154c104 -49 169 -18 209 77
c33 79 64 198 103 463c-86 3 -161 13 -223 13c-56 0 -98 -9 -123 -42c-18 20 -26 41 -26 61c0 54 30 103 102 103c124 0 241 -70 376 -70c26 0 40 3 50 15c10 -6 14 -16 14 -26c0 -19 -12 -41 -39 -39z" />
    <glyph glyph-name="R.swash" horiz-adv-x="684" 
d="M519 -8c-105 0 -147 162 -163 310c-11 -1 -23 -2 -35 -2h-14l-52 -244c-10 -47 -49 -64 -86 -64c-23 0 -42 5 -53 13l141 623c10 46 48 62 83 62c18 0 35 -5 47 -13l-70 -330c103 8 185 136 185 241c0 73 -40 134 -141 134c-145 0 -392 -107 -392 -342
c0 -37 7 -72 32 -102c-96 -46 -167 -2 -167 94c0 248 318 398 547 398c176 0 244 -80 244 -174c0 -91 -63 -194 -155 -251c18 -132 49 -258 112 -258c32 0 79 29 102 50c11 -5 17 -14 17 -24c0 -7 -3 -15 -9 -22c-53 -56 -115 -99 -173 -99z" />
    <glyph glyph-name="R_.swash" horiz-adv-x="621" 
d="M361 722c-145 0 -392 -107 -392 -342c0 -37 7 -72 32 -102c-96 -46 -167 -2 -167 94c0 248 318 398 547 398c176 0 244 -80 244 -174c0 -92 -66 -198 -161 -255c78 -385 185 -398 259 -398c39 0 82 7 121 21c15 -3 16 -27 6 -37c-51 -48 -122 -73 -186 -73
c-100 0 -250 22 -315 447c-10 -1 -19 -1 -28 -1h-14l-52 -244c-10 -47 -49 -64 -86 -64c-23 0 -42 5 -53 13l141 623c10 46 48 62 83 62c18 0 35 -5 47 -13l-70 -330c103 8 185 136 185 241c0 73 -40 134 -141 134z" />
    <glyph glyph-name="U.swash" horiz-adv-x="612" 
d="M311 95c116 0 215 305 215 522c0 56 -10 108 -35 148c17 21 40 35 72 39c50 6 70 -29 72 -52c1 -13 2 -26 2 -39c-1 -231 -174 -721 -383 -721c-86 0 -124 99 -93 248l93 439c-88 3 -166 14 -229 14c-56 0 -98 -9 -123 -42c-18 20 -26 41 -26 61c0 54 30 103 102 103
c124 0 241 -70 376 -70c26 0 40 3 50 15c10 -6 14 -16 14 -26c0 -19 -12 -40 -37 -39l-101 -476c-17 -79 -9 -124 31 -124z" />
    <glyph glyph-name="V.swash" horiz-adv-x="670" 
d="M291 0l-16 679c-88 3 -165 14 -228 14c-56 0 -98 -9 -123 -42c-18 20 -26 41 -26 61c0 54 30 103 102 103c124 0 241 -70 376 -70c26 0 40 3 50 15c10 -6 14 -16 14 -26c0 -19 -12 -41 -39 -39l9 -568l95 181c63 119 144 329 85 452c19 18 44 30 76 30
c51 0 66 -37 66 -60c0 -147 -111 -340 -186 -474l-117 -207c-24 -43 -46 -62 -83 -62c-18 0 -43 5 -55 13z" />
    <glyph glyph-name="W.swash" horiz-adv-x="946" 
d="M292 0l-17 679c-88 3 -165 14 -228 14c-56 0 -98 -9 -123 -42c-18 20 -26 41 -26 61c0 54 30 103 102 103c124 0 241 -70 376 -70c26 0 40 3 50 15c10 -6 14 -16 14 -26c0 -19 -12 -41 -39 -39l8 -533l169 534c13 39 42 54 73 54c16 0 37 -4 47 -11l36 -605l73 182
c50 125 111 331 39 448c16 16 48 26 76 26c49 0 69 -32 69 -82c0 -112 -83 -312 -138 -439l-95 -218c-19 -46 -48 -64 -85 -64c-18 0 -43 5 -55 13l-35 526l-151 -475c-19 -46 -48 -64 -85 -64c-18 0 -43 5 -55 13z" />
    <glyph glyph-name="X.swash" horiz-adv-x="620" 
d="M481 -8c-47 0 -88 29 -101 92l-39 185c-56 -134 -139 -277 -247 -277c-86 0 -113 72 -93 145c100 -43 235 24 326 197l-74 346c-83 3 -157 13 -217 13c-56 0 -98 -9 -123 -42c-18 20 -26 41 -26 61c0 54 30 103 102 103c124 0 241 -70 376 -70c26 0 40 3 50 15
c10 -6 14 -16 14 -26c0 -19 -12 -41 -39 -39l51 -247c66 91 97 206 87 316c18 13 38 26 66 26c48 0 57 -38 57 -57c0 -149 -91 -253 -198 -345l54 -260c5 -26 17 -41 38 -41c32 0 79 30 102 50c11 -5 17 -14 17 -24c0 -7 -3 -15 -9 -22c-58 -54 -116 -99 -174 -99z" />
    <glyph glyph-name="Y.swash" horiz-adv-x="650" 
d="M515 307l-52 -243c-11 -53 -55 -72 -96 -72c-21 0 -40 6 -54 15l66 302l-96 371c-83 3 -156 13 -216 13c-56 0 -98 -9 -123 -42c-18 20 -26 41 -26 61c0 54 30 103 102 103c124 0 241 -70 376 -70c26 0 40 3 50 15c10 -6 14 -16 14 -26c0 -19 -12 -41 -39 -39l76 -315
c86 126 122 246 101 384c16 16 38 26 66 26c48 0 59 -38 57 -57c-12 -136 -115 -311 -206 -426z" />
    <glyph glyph-name="afii10017.swash" horiz-adv-x="683" 
d="M416 111l34 162h-112c-98 -234 -167 -287 -267 -287c-95 0 -137 102 -72 154c29 -18 63 -24 80 -24c113 0 171 67 359 569c-48 4 -92 8 -130 8c-56 0 -98 -9 -123 -42c-18 20 -26 41 -26 61c0 54 30 103 102 103c124 0 241 -70 376 -70c26 0 40 3 50 15
c10 -6 14 -16 14 -26c0 -19 -12 -41 -39 -39l-114 -534c-12 -58 6 -74 33 -74c32 0 79 30 102 50c11 -5 17 -14 17 -24c0 -7 -3 -15 -9 -22c-56 -57 -122 -99 -173 -99c-57 0 -121 28 -102 119zM536 679c-18 1 -36 2 -53 3c-46 -144 -86 -259 -122 -351h101z" />
    <glyph glyph-name="afii10018.swash" horiz-adv-x="628" 
d="M543 638c-46 -5 -96 23 -155 43l-56 -259c33 11 61 16 86 16c131 0 164 -90 164 -151c0 -125 -134 -295 -327 -295c-110 0 -202 30 -202 76c0 22 12 43 40 52c15 -13 30 -23 46 -32l132 612c-135 -5 -302 -92 -302 -320c0 -37 7 -72 32 -102c-96 -46 -167 -2 -167 94
c0 248 300 398 517 398c41 0 111 -12 155 -12s90 9 118 29c29 -84 -11 -142 -81 -149zM367 371c-15 0 -31 -2 -47 -6l-66 -309h1c105 0 199 114 199 226c0 52 -28 89 -87 89z" />
    <glyph glyph-name="afii10019.swash" horiz-adv-x="623" 
d="M352 723c-145 0 -383 -108 -383 -343c0 -37 7 -72 32 -102c-96 -46 -167 -2 -167 94c0 248 305 398 534 398c124 0 215 -29 215 -145c0 -77 -57 -167 -157 -220l1 -1c105 0 151 -56 151 -127c0 -121 -132 -285 -323 -285c-110 0 -202 30 -202 76c0 22 12 43 40 52
c15 -13 30 -23 46 -32l114 538c10 47 49 64 86 64c18 0 36 -5 48 -13l-58 -271c82 25 144 126 144 207c0 77 -39 110 -121 110zM363 361c-14 0 -29 -2 -45 -6l-64 -299h1c103 0 195 109 195 216c0 52 -28 89 -87 89z" />
    <glyph glyph-name="afii10021.swash" horiz-adv-x="691" 
d="M366 722c-171 0 -347 -107 -347 -342c0 -37 7 -72 32 -102c-97 -46 -167 -2 -167 94c0 248 220 398 493 398c154 0 301 -70 301 -262c0 -221 -120 -520 -337 -520c-59 0 -108 24 -149 52c-44 -34 -97 -46 -148 -46c-122 0 -98 159 24 159c26 0 51 -13 78 -28
c12 21 22 49 29 82l89 419c10 47 49 64 86 64c18 0 36 -5 48 -13l-95 -435c-16 -75 -42 -128 -74 -166c24 -12 50 -20 78 -20c139 0 241 254 241 452c0 157 -88 214 -182 214zM63 69c22 0 42 8 59 25c-20 15 -38 26 -53 26c-51 0 -67 -51 -6 -51z" />
    <glyph glyph-name="afii10026.swash" horiz-adv-x="702" 
d="M441 137l81 383l-279 -464c-25 -45 -49 -64 -86 -64c-18 0 -36 5 -48 13l143 675c-87 3 -164 13 -227 13c-56 0 -98 -9 -123 -42c-18 20 -26 41 -26 61c0 54 30 103 102 103c124 0 241 -70 376 -70c26 0 40 3 50 15c10 -6 14 -16 14 -26c0 -19 -12 -41 -39 -39l-101 -477
l279 468c24 44 49 64 86 64c18 0 36 -5 48 -13l-124 -576c-11 -58 6 -74 33 -74c32 0 79 30 102 50c11 -5 17 -14 17 -24c0 -7 -3 -15 -9 -22c-58 -54 -116 -99 -174 -99c-60 0 -120 28 -95 145z" />
    <glyph glyph-name="afii10027.swash" horiz-adv-x="702" 
d="M441 137l81 383l-279 -464c-25 -45 -49 -64 -86 -64c-18 0 -36 5 -48 13l143 675c-87 3 -164 13 -227 13c-56 0 -98 -9 -123 -42c-18 20 -26 41 -26 61c0 54 30 103 102 103c124 0 241 -70 376 -70c26 0 40 3 50 15c10 -6 14 -16 14 -26c0 -19 -12 -41 -39 -39l-101 -477
l279 468c24 44 49 64 86 64c18 0 36 -5 48 -13l-124 -576c-11 -58 6 -74 33 -74c32 0 79 30 102 50c11 -5 17 -14 17 -24c0 -7 -3 -15 -9 -22c-58 -54 -116 -99 -174 -99c-60 0 -120 28 -95 145zM663 914c-7 -71 -84 -144 -191 -144c-70 0 -102 49 -102 97c0 44 29 85 84 85
c16 0 26 -2 40 -10c-5 -9 -7 -18 -7 -30c0 -30 20 -45 46 -45c33 0 74 26 94 81c18 3 40 -7 36 -34z" />
    <glyph glyph-name="afii10028.swash" horiz-adv-x="660" 
d="M582 87c27 0 59 23 78 50c11 -5 15 -14 15 -23c0 -33 -61 -122 -156 -122c-115 0 -154 193 -166 350l-51 -7l-59 -279c-10 -47 -49 -64 -86 -64c-23 0 -42 5 -53 13l153 674c-89 3 -168 14 -232 14c-56 0 -98 -9 -123 -42c-18 20 -26 41 -26 61c0 54 30 103 102 103
c124 0 241 -70 376 -70c26 0 40 3 50 15c10 -6 14 -16 14 -26c0 -19 -12 -41 -39 -39l-65 -307l24 8c139 81 181 237 205 350c11 6 25 8 37 8c33 0 69 -23 69 -60c0 -94 -75 -193 -186 -282c15 -152 45 -325 119 -325z" />
    <glyph glyph-name="afii10029.swash" horiz-adv-x="687" 
d="M426 137l116 553c-24 0 -48 1 -71 2c-171 -597 -253 -706 -396 -706c-95 0 -137 102 -72 154c29 -18 63 -24 80 -24c113 0 171 69 343 580c-114 9 -201 18 -241 -35c-41 68 0 154 76 154c124 0 241 -70 376 -70c26 0 40 3 50 15c10 -6 14 -16 14 -26
c0 -19 -12 -36 -35 -39l-114 -534c-11 -58 6 -74 33 -74c32 0 79 30 102 50c11 -5 17 -14 17 -24c0 -7 -3 -15 -9 -22c-58 -54 -116 -99 -174 -99c-60 0 -120 28 -95 145z" />
    <glyph glyph-name="afii10030.swash" horiz-adv-x="949" 
d="M688 137l64 426l-218 -512c-18 -46 -48 -59 -85 -59c-18 0 -36 5 -48 13l36 443l5 122c-163 -496 -233 -584 -367 -584c-95 0 -137 102 -72 154c29 -18 63 -24 80 -24c112 0 163 67 348 564c-87 3 -164 13 -226 13c-56 0 -98 -9 -123 -42c-18 20 -26 41 -26 61
c0 54 30 103 102 103c124 0 241 -70 376 -70c26 0 40 3 50 15c10 -6 14 -16 14 -26c0 -19 -12 -41 -39 -39l-36 -532l232 523c18 45 49 64 86 64c18 0 43 -5 55 -13l-82 -576c-8 -58 6 -74 33 -74c32 0 79 30 102 50c11 -5 17 -14 17 -24c0 -7 -3 -15 -9 -22
c-58 -54 -116 -99 -174 -99c-60 0 -113 27 -95 145z" />
    <glyph glyph-name="afii10031.swash" horiz-adv-x="672" 
d="M411 137l53 251c-43 -15 -108 -25 -156 -26l-65 -306c-10 -47 -49 -64 -86 -64c-23 0 -42 5 -53 13l153 674c-89 3 -168 14 -232 14c-56 0 -98 -9 -123 -42c-18 20 -26 41 -26 61c0 54 30 103 102 103c124 0 241 -70 376 -70c26 0 40 3 50 15c10 -6 14 -16 14 -26
c0 -19 -12 -41 -39 -39l-57 -265c51 0 109 4 152 8l53 248c10 47 49 64 86 64c18 0 35 -5 48 -13l-124 -576c-11 -58 6 -74 33 -74c32 0 79 30 102 50c11 -5 17 -14 17 -24c0 -7 -3 -15 -9 -22c-58 -54 -116 -99 -174 -99c-60 0 -120 28 -95 145z" />
    <glyph glyph-name="afii10033.swash" horiz-adv-x="672" 
d="M411 137l108 510c-45 10 -96 22 -144 30l-132 -621c-10 -47 -49 -64 -86 -64c-23 0 -42 5 -53 13l154 680c-155 -3 -294 -104 -294 -305c0 -37 7 -72 32 -102c-84 -46 -147 -2 -147 94c0 231 234 382 470 382c51 0 190 -14 244 -14c44 0 90 9 118 29
c63 -24 43 -133 -43 -139l-101 -469c-11 -58 6 -74 33 -74c32 0 79 30 102 50c11 -5 17 -14 17 -24c0 -7 -3 -15 -9 -22c-58 -54 -116 -99 -174 -99c-60 0 -120 28 -95 145z" />
    <glyph glyph-name="afii10034.swash" horiz-adv-x="631" 
d="M361 722c-145 0 -392 -107 -392 -342c0 -37 7 -72 32 -102c-96 -46 -167 -2 -167 94c0 248 318 398 547 398c176 0 244 -80 244 -174c0 -180 -139 -296 -304 -296h-15l-51 -244c-10 -47 -49 -64 -86 -64c-23 0 -42 5 -53 13l140 623c10 46 48 62 83 62c18 0 35 -5 47 -13
l-70 -330c104 5 186 102 186 241c0 73 -40 134 -141 134z" />
    <glyph glyph-name="afii10036.swash" horiz-adv-x="854" 
d="M593 137l110 518c-40 4 -83 10 -129 16l-131 -615c-10 -47 -49 -64 -86 -64c-23 0 -42 5 -53 13l154 680c-43 5 -87 10 -130 13l-137 -642c-10 -47 -49 -64 -86 -64c-23 0 -42 5 -53 13l158 696c-161 -19 -298 -119 -298 -302c0 -37 7 -72 32 -102
c-84 -46 -147 -2 -147 94c0 231 261 382 522 382c109 0 303 -14 413 -14c44 0 90 9 118 29c58 -22 46 -117 -25 -136l-106 -491c-12 -58 6 -74 33 -74c32 0 79 30 102 50c11 -5 17 -14 17 -24c0 -7 -3 -15 -9 -22c-58 -54 -116 -99 -174 -99c-60 0 -120 28 -95 145z" />
    <glyph glyph-name="afii10037.swash" horiz-adv-x="656" 
d="M188 -11c-68 0 -100 50 -100 97c0 25 10 50 28 65c31 -38 79 -50 129 -50c38 0 73 6 105 17c13 189 -21 395 -76 562c-82 3 -155 13 -215 13c-56 0 -98 -9 -123 -42c-18 20 -26 41 -26 61c0 54 30 103 102 103c124 0 241 -70 376 -70c26 0 40 3 50 15
c10 -6 14 -16 14 -26c0 -19 -12 -41 -39 -39c38 -134 66 -353 43 -505c89 96 134 268 134 505c0 23 -1 46 -5 69c16 16 38 26 66 26c48 0 58 -38 57 -57c-12 -251 -183 -744 -520 -744z" />
    <glyph glyph-name="afii10039.swash" horiz-adv-x="620" 
d="M481 -8c-47 0 -88 29 -101 92l-39 185c-56 -134 -139 -277 -247 -277c-86 0 -113 72 -93 145c100 -43 235 24 326 197l-74 346c-83 3 -157 13 -217 13c-56 0 -98 -9 -123 -42c-18 20 -26 41 -26 61c0 54 30 103 102 103c124 0 241 -70 376 -70c26 0 40 3 50 15
c10 -6 14 -16 14 -26c0 -19 -12 -41 -39 -39l51 -247c66 91 97 206 87 316c18 13 38 26 66 26c48 0 57 -38 57 -57c0 -149 -91 -253 -198 -345l54 -260c5 -26 17 -41 38 -41c32 0 79 30 102 50c11 -5 17 -14 17 -24c0 -7 -3 -15 -9 -22c-58 -54 -116 -99 -174 -99z" />
    <glyph glyph-name="afii10040.swash" horiz-adv-x="684" 
d="M381 695l-125 -587c42 -11 81 -27 150 -34l133 615c10 47 49 64 86 64c18 0 36 -5 48 -13l-151 -670c37 1 58 31 72 66c14 2 27 -4 36 -15c8 -232 -139 -328 -234 -329c-94 0 -90 83 -35 141c33 -46 188 -23 218 107c-16 -25 -45 -40 -73 -40c-107 0 -174 12 -284 12
c-44 0 -90 -9 -118 -29c-60 22 -45 122 31 137l119 560c-87 3 -165 13 -227 13c-56 0 -98 -9 -123 -42c-18 20 -26 41 -26 61c0 54 30 103 102 103c124 0 241 -70 376 -70c26 0 40 3 50 15c10 -6 14 -16 14 -26c0 -19 -12 -41 -39 -39z" />
    <glyph glyph-name="afii10041.swash" horiz-adv-x="673" 
d="M412 137l51 216c-42 -29 -86 -46 -124 -46c-117 0 -138 74 -103 216l39 156c-90 3 -169 14 -233 14c-56 0 -98 -9 -123 -42c-18 20 -26 41 -26 61c0 54 30 103 102 103c124 0 241 -70 376 -70c26 0 40 3 50 15c10 -6 14 -16 14 -26c0 -19 -12 -41 -39 -39l-46 -204
c-21 -87 0 -101 33 -101c24 0 60 7 93 20l69 291c11 46 49 63 84 63c17 0 37 -5 47 -13l-138 -590c-13 -57 6 -74 33 -74c32 0 79 30 102 50c11 -5 17 -14 17 -24c0 -7 -3 -15 -9 -22c-58 -54 -116 -99 -174 -99c-60 0 -122 29 -95 145z" />
    <glyph glyph-name="afii10042.swash" horiz-adv-x="847" 
d="M646 740l-148 -655c45 -5 89 -10 133 -13l133 617c10 47 49 64 86 64c18 0 36 -5 48 -13l-167 -740c-107 0 -399 12 -509 12c-44 0 -90 -9 -118 -29c-60 22 -45 122 31 137l119 560c-87 3 -165 13 -227 13c-56 0 -98 -9 -123 -42c-18 20 -26 41 -26 61
c0 54 30 103 102 103c124 0 241 -70 376 -70c26 0 40 3 50 15c10 -6 14 -16 14 -26c0 -19 -12 -41 -39 -39l-124 -580c39 -4 82 -10 128 -16l127 590c10 47 49 64 86 64c18 0 36 -5 48 -13z" />
    <glyph glyph-name="afii10043.swash" horiz-adv-x="945" 
d="M898 740l-151 -670c37 1 58 31 72 66c14 2 27 -4 36 -15c8 -232 -139 -328 -234 -329c-94 0 -90 83 -35 141c33 -46 188 -23 218 107c-16 -25 -45 -40 -73 -40c-107 0 -399 12 -509 12c-44 0 -90 -9 -118 -29c-60 22 -45 122 31 137l119 560c-87 3 -165 13 -227 13
c-56 0 -98 -9 -123 -42c-18 20 -26 41 -26 61c0 54 30 103 102 103c124 0 241 -70 376 -70c26 0 40 3 50 15c10 -6 14 -16 14 -26c0 -19 -12 -41 -39 -39l-124 -580c39 -4 82 -10 128 -16l127 590c10 47 49 64 86 64c18 0 36 -5 48 -13l-148 -655c45 -5 89 -10 133 -13
l133 617c10 47 49 64 86 64c18 0 36 -5 48 -13z" />
    <glyph glyph-name="afii10048.swash" horiz-adv-x="946" 
d="M379 695l-56 -265c31 0 65 2 96 4c43 180 157 328 319 328c146 0 207 -128 200 -307c-8 -235 -136 -467 -338 -467c-153 0 -216 128 -199 307c1 27 3 54 7 81c-33 -7 -69 -12 -100 -14l-65 -306c-10 -47 -49 -64 -86 -64c-23 0 -42 5 -53 13l153 674
c-89 3 -168 14 -232 14c-56 0 -98 -9 -123 -42c-18 20 -26 41 -26 61c0 54 30 103 102 103c124 0 241 -70 376 -70c26 0 40 3 50 15c10 -6 14 -16 14 -26c0 -19 -12 -41 -39 -39zM547 259c0 -95 44 -144 99 -144c87 0 201 125 201 382c0 126 -47 187 -103 187
c-87 0 -197 -145 -197 -425z" />
    <glyph glyph-name="j.alt" horiz-adv-x="201" 
d="M-17 106l61 283c3 16 -1 25 -10 25c-5 0 -11 -4 -20 -12c-13 8 -20 39 0 55c34 27 70 48 112 48c36 0 56 -17 48 -55l-76 -354c-10 -46 -21 -95 -34 -143c109 -7 216 -23 289 -23c44 0 90 9 118 29c29 -84 -11 -149 -81 -149c-105 0 -219 48 -347 72
c-47 -144 -124 -267 -271 -267c-57 0 -115 50 -115 123c0 141 134 208 290 216c12 44 24 94 36 152zM-221 -296c65 0 109 57 151 191h-24c-98 0 -168 -63 -168 -144c0 -32 24 -47 41 -47zM79 634c2 39 34 70 73 70s69 -31 67 -70c-3 -39 -35 -70 -74 -70s-69 31 -66 70z" />
    <glyph glyph-name="g.alt" horiz-adv-x="499" 
d="M459 492l-84 -396c-10 -46 -21 -95 -34 -143c109 -7 216 -23 289 -23c44 0 90 9 118 29c29 -84 -11 -149 -81 -149c-105 0 -219 48 -347 72c-48 -144 -124 -267 -271 -267c-57 0 -115 50 -115 123c0 140 132 208 288 216c12 39 24 82 38 131c-41 -55 -92 -93 -146 -93
c-104 0 -125 104 -125 168c0 175 113 349 252 349c45 0 77 -11 102 -33c17 20 44 29 69 29c18 0 35 -5 47 -13zM268 158l56 268c-17 6 -32 8 -47 8c-121 0 -164 -158 -164 -267c0 -50 23 -72 54 -72c32 0 74 26 101 63zM56 -296c64 0 103 58 147 191h-20
c-98 0 -168 -63 -168 -144c0 -32 24 -47 41 -47z" />
    <glyph glyph-name="afii10069.alt" horiz-adv-x="499" 
d="M459 492l-84 -396c-10 -46 -21 -95 -34 -143c109 -7 216 -23 289 -23c44 0 90 9 118 29c29 -84 -11 -149 -81 -149c-105 0 -219 48 -347 72c-48 -144 -124 -267 -271 -267c-57 0 -115 50 -115 123c0 140 132 208 288 216c12 39 24 82 38 131c-41 -55 -92 -93 -146 -93
c-104 0 -125 104 -125 168c0 175 113 349 252 349c45 0 77 -11 102 -33c17 20 44 29 69 29c18 0 35 -5 47 -13zM268 158l56 268c-17 6 -32 8 -47 8c-121 0 -164 -158 -164 -267c0 -50 23 -72 54 -72c32 0 74 26 101 63zM56 -296c64 0 103 58 147 191h-20
c-98 0 -168 -63 -168 -144c0 -32 24 -47 41 -47z" />
    <glyph glyph-name="afii10073.alt" horiz-adv-x="360" 
d="M-41 -385c-80 0 -146 50 -146 123c0 144 140 211 301 217c11 44 19 86 19 115c0 55 -34 94 -92 94c-5 31 11 58 42 58c65 0 119 82 119 144c0 48 -29 71 -66 71c-13 0 -27 -3 -40 -8c-2 -6 -2 -12 -2 -20c0 -14 5 -41 16 -65c-11 -10 -27 -14 -40 -14
c-36 0 -60 32 -60 69c0 52 47 113 172 113c86 0 138 -56 138 -122c0 -99 -65 -172 -165 -200c60 -19 93 -67 93 -125c0 -29 -7 -69 -18 -113c105 -7 208 -22 279 -22c44 0 90 9 118 29c29 -84 -11 -149 -81 -149c-103 0 -213 45 -337 70c-18 -55 -40 -109 -61 -144
c-45 -74 -105 -121 -189 -121zM48 -224c15 27 33 71 48 118c-11 1 -23 1 -34 1c-125 0 -167 -72 -167 -128c0 -35 26 -63 55 -63c39 0 71 26 98 72z" />
    <glyph glyph-name="afii10085.alt" horiz-adv-x="459" 
d="M-3 184l47 205c4 16 -1 25 -10 25c-5 0 -11 -4 -20 -12c-13 8 -20 39 0 55c34 27 70 48 112 48c36 0 56 -17 48 -55l-62 -288c-7 -31 1 -55 34 -55c29 0 54 14 77 36l65 299c10 46 48 63 84 63c18 0 35 -5 47 -13l-85 -396c-10 -46 -21 -95 -34 -143
c109 -7 216 -23 289 -23c44 0 90 9 118 29c29 -84 -11 -149 -81 -149c-105 0 -219 48 -347 72c-48 -144 -124 -267 -271 -267c-57 0 -115 50 -115 123c0 140 132 208 288 216c11 36 22 76 35 120c-39 -48 -84 -81 -134 -81c-99 0 -105 98 -85 191zM15 -296
c64 0 103 58 147 191h-20c-98 0 -168 -63 -168 -144c0 -32 24 -47 41 -47z" />
    <glyph glyph-name="l.alt" horiz-adv-x="323" 
d="M350 155c-35 -91 -155 -163 -247 -163c-51 0 -94 23 -107 76c-32 -13 -67 4 -73 39c29 6 49 22 72 45c45 355 112 562 242 562c47 0 80 -29 80 -81c0 -78 -65 -238 -194 -435c-2 -12 -4 -25 -5 -37c-7 -52 19 -72 54 -72c55 0 135 49 154 104c19 3 31 -19 24 -38z
M244 648c-33 0 -74 -150 -108 -361c88 163 125 305 125 339c0 17 -6 22 -17 22z" />
    <glyph glyph-name="afii10065_afii10097" horiz-adv-x="953" 
d="M848 87c37 0 80 25 105 50c11 -5 17 -14 17 -24c0 -7 -3 -15 -9 -22c-47 -53 -116 -99 -173 -99c-50 0 -120 28 -93 157l12 56h-48c-75 -156 -194 -213 -286 -213c-61 0 -105 31 -111 96c-42 -56 -93 -96 -148 -96c-104 0 -125 104 -125 168c0 175 113 349 252 349
c45 0 78 -11 103 -33c17 20 43 29 68 29c18 0 35 -5 47 -13l-70 -331c-12 -57 2 -86 41 -86c46 0 117 32 175 136c-63 18 -93 69 -93 125c0 122 114 174 208 174c91 0 166 -50 136 -168l-38 -181c-12 -56 4 -74 30 -74zM167 95c32 0 74 26 101 63l56 268c-17 6 -32 8 -47 8
c-121 0 -164 -158 -164 -267c0 -50 23 -72 54 -72zM627 336c-1 -40 15 -76 49 -76h42l25 115c11 55 -9 76 -33 76c-53 0 -82 -62 -83 -115z" />
    <glyph glyph-name="afii10065_afii10097.end" horiz-adv-x="966" 
d="M695 149l12 56h-48c-75 -156 -194 -213 -286 -213c-61 0 -105 31 -111 96c-42 -56 -93 -96 -148 -96c-104 0 -125 104 -125 168c0 175 113 349 252 349c45 0 78 -11 103 -33c17 20 43 29 68 29c18 0 35 -5 47 -13l-70 -331c-12 -57 2 -86 41 -86c46 0 117 32 175 136
c-63 18 -93 69 -93 125c0 122 114 174 208 174c91 0 161 -49 136 -168l-38 -181c-11 -51 2 -73 22 -73c18 0 41 12 56 48c19 0 30 -10 30 -27c0 -70 -82 -117 -138 -117c-50 0 -120 28 -93 157zM167 95c32 0 74 26 101 63l56 268c-17 6 -32 8 -47 8
c-121 0 -164 -158 -164 -267c0 -50 23 -72 54 -72zM627 336c-1 -40 15 -76 49 -76h42l25 115c11 55 -9 76 -33 76c-53 0 -82 -62 -83 -115z" />
    <glyph glyph-name="afii10074_afii10097" horiz-adv-x="924" 
d="M430 492l-70 -331c-12 -57 6 -86 45 -86c46 0 113 32 171 136c-63 18 -93 69 -93 125c0 122 114 174 208 174c91 0 166 -50 136 -168l-38 -181c-12 -56 4 -74 30 -74c37 0 80 25 105 50c11 -5 17 -14 17 -24c0 -7 -3 -15 -9 -22c-47 -53 -116 -99 -173 -99
c-50 0 -120 28 -93 157l12 56h-48c-75 -156 -194 -213 -286 -213c-63 0 -110 34 -112 105c-39 -61 -87 -105 -141 -105c-111 0 -111 117 -94 192l47 205c4 16 -1 25 -10 25c-5 0 -11 -4 -20 -12c-13 8 -20 39 0 55c34 27 70 48 112 48c36 0 57 -17 48 -55l-61 -284
c-9 -41 4 -59 34 -59c35 0 65 20 92 52l60 283c10 46 48 63 84 63c18 0 35 -5 47 -13zM598 336c-1 -40 15 -76 49 -76h42l25 115c11 55 -9 76 -33 76c-53 0 -82 -62 -83 -115z" />
    <glyph glyph-name="afii10074_afii10097.end" horiz-adv-x="937" 
d="M430 492l-70 -331c-12 -57 6 -86 45 -86c46 0 113 32 171 136c-63 18 -93 69 -93 125c0 122 114 174 208 174c91 0 161 -49 136 -168l-38 -181c-11 -51 2 -73 22 -73c18 0 41 12 56 48c19 0 30 -10 30 -27c0 -70 -82 -117 -138 -117c-50 0 -120 28 -93 157l12 56h-48
c-75 -156 -194 -213 -286 -213c-63 0 -110 34 -112 105c-39 -61 -87 -105 -141 -105c-111 0 -111 117 -94 192l47 205c4 16 -1 25 -10 25c-5 0 -11 -4 -20 -12c-13 8 -20 39 0 55c34 27 70 48 112 48c36 0 57 -17 48 -55l-61 -284c-9 -41 4 -59 34 -59c35 0 65 20 92 52
l60 283c10 46 48 63 84 63c18 0 35 -5 47 -13zM598 336c-1 -40 15 -76 49 -76h42l25 115c11 55 -9 76 -33 76c-53 0 -82 -62 -83 -115z" />
    <glyph glyph-name="afii10075_afii10097" horiz-adv-x="919" 
d="M430 492l-70 -331c-12 -57 6 -86 45 -86c46 0 113 32 171 136c-63 18 -93 69 -93 125c0 122 114 174 208 174c91 0 166 -50 136 -168l-38 -181c-12 -56 4 -74 30 -74c37 0 80 25 105 50c11 -5 17 -14 17 -24c0 -7 -3 -15 -9 -22c-47 -53 -116 -99 -173 -99
c-50 0 -120 28 -93 157l12 56h-48c-75 -156 -194 -213 -286 -213c-63 0 -110 34 -112 105c-39 -61 -87 -105 -141 -105c-111 0 -111 117 -94 192l47 205c4 16 -1 25 -10 25c-5 0 -11 -4 -20 -12c-13 8 -20 39 0 55c34 27 70 48 112 48c36 0 57 -17 48 -55l-61 -284
c-9 -41 4 -59 34 -59c35 0 65 20 92 52l60 283c10 46 48 63 84 63c18 0 35 -5 47 -13zM428 684c-7 -71 -84 -144 -191 -144c-70 0 -102 49 -102 97c0 44 29 85 84 85c16 0 26 -2 40 -10c-5 -9 -7 -18 -7 -30c0 -30 20 -45 46 -45c33 0 74 26 94 81c18 3 40 -7 36 -34z
M598 336c-1 -40 15 -76 49 -76h42l25 115c11 55 -9 76 -33 76c-53 0 -82 -62 -83 -115z" />
    <glyph glyph-name="afii10075_afii10097.end" horiz-adv-x="937" 
d="M430 492l-70 -331c-12 -57 6 -86 45 -86c46 0 113 32 171 136c-63 18 -93 69 -93 125c0 122 114 174 208 174c91 0 161 -49 136 -168l-38 -181c-11 -51 2 -73 22 -73c18 0 41 12 56 48c19 0 30 -10 30 -27c0 -70 -82 -117 -138 -117c-50 0 -120 28 -93 157l12 56h-48
c-75 -156 -194 -213 -286 -213c-63 0 -110 34 -112 105c-39 -61 -87 -105 -141 -105c-111 0 -111 117 -94 192l47 205c4 16 -1 25 -10 25c-5 0 -11 -4 -20 -12c-13 8 -20 39 0 55c34 27 70 48 112 48c36 0 57 -17 48 -55l-61 -284c-9 -41 4 -59 34 -59c35 0 65 20 92 52
l60 283c10 46 48 63 84 63c18 0 35 -5 47 -13zM428 684c-7 -71 -84 -144 -191 -144c-70 0 -102 49 -102 97c0 44 29 85 84 85c16 0 26 -2 40 -10c-5 -9 -7 -18 -7 -30c0 -30 20 -45 46 -45c33 0 74 26 94 81c18 3 40 -7 36 -34zM598 336c-1 -40 15 -76 49 -76h42l25 115
c11 55 -9 76 -33 76c-53 0 -82 -62 -83 -115z" />
    <glyph glyph-name="afii10077_afii10097" horiz-adv-x="962" 
d="M271 153l59 277c-20 -1 -41 -2 -62 -4c-38 -154 -77 -254 -114 -318c-45 -78 -94 -115 -132 -116c-41 -1 -71 39 -71 112c0 48 33 62 70 62c12 0 28 -5 41 -14c-13 -28 -17 -58 -17 -78c52 32 101 84 172 346c-54 -8 -99 -21 -119 -44c-14 16 -21 34 -21 51
c0 62 54 86 111 86c63 0 278 -8 270 -48l-64 -304c-12 -57 6 -86 45 -86c46 0 117 32 175 136c-63 18 -93 69 -93 125c0 122 114 174 208 174c91 0 166 -50 136 -168l-38 -181c-12 -56 4 -74 30 -74c37 0 80 25 105 50c11 -5 17 -14 17 -24c0 -7 -3 -15 -9 -22
c-47 -53 -116 -99 -173 -99c-50 0 -120 28 -93 157l12 56h-48c-75 -156 -194 -213 -286 -213c-77 0 -134 55 -111 161zM636 336c-1 -40 15 -76 49 -76h42l25 115c11 55 -9 76 -33 76c-53 0 -82 -62 -83 -115z" />
    <glyph glyph-name="afii10077_afii10097.end" horiz-adv-x="975" 
d="M271 153l59 277c-20 -1 -41 -2 -62 -4c-38 -154 -77 -254 -114 -318c-45 -78 -94 -115 -132 -116c-41 -1 -71 39 -71 112c0 48 33 62 70 62c12 0 28 -5 41 -14c-13 -28 -17 -58 -17 -78c52 32 101 84 172 346c-54 -8 -99 -21 -119 -44c-14 16 -21 34 -21 51
c0 62 54 86 111 86c63 0 278 -8 270 -48l-64 -304c-12 -57 6 -86 45 -86c46 0 117 32 175 136c-63 18 -93 69 -93 125c0 122 114 174 208 174c91 0 161 -49 136 -168l-38 -181c-11 -51 2 -73 22 -73c18 0 41 12 56 48c19 0 30 -10 30 -27c0 -70 -82 -117 -138 -117
c-50 0 -120 28 -93 157l12 56h-48c-75 -156 -194 -213 -286 -213c-77 0 -133 55 -111 161zM636 336c-1 -40 15 -76 49 -76h42l25 115c11 55 -9 76 -33 76c-53 0 -82 -62 -83 -115z" />
    <glyph glyph-name="afii10078_afii10097" horiz-adv-x="1164" 
d="M473 149l25 178l-168 -331c-47 -12 -82 1 -84 48l-15 251c-26 -83 -52 -143 -78 -187c-45 -78 -94 -115 -132 -116c-41 -1 -71 39 -71 112c0 48 33 62 70 62c12 0 28 -5 41 -14c-13 -28 -17 -58 -17 -78c52 32 102 84 174 352c-51 -6 -88 -20 -115 -50
c-14 16 -21 34 -21 51c0 62 54 86 111 86c51 0 120 -5 148 -16l13 -340l155 282c27 49 49 66 85 66c18 0 35 -5 48 -13l-46 -331c-8 -58 6 -86 45 -86c46 0 117 32 175 136c-63 18 -93 69 -93 125c0 122 114 174 208 174c91 0 166 -50 136 -168l-38 -181
c-12 -56 4 -74 30 -74c37 0 80 25 105 50c11 -5 17 -14 17 -24c0 -7 -3 -15 -9 -22c-47 -53 -116 -99 -173 -99c-50 0 -120 28 -93 157l12 56h-48c-75 -156 -194 -213 -286 -213c-77 0 -129 51 -111 157zM838 336c-1 -40 15 -76 49 -76h42l25 115c11 55 -9 76 -33 76
c-53 0 -82 -62 -83 -115z" />
    <glyph glyph-name="afii10078_afii10097.end" horiz-adv-x="1177" 
d="M473 153l24 173l-167 -330c-47 -12 -82 1 -84 48l-11 265c-27 -90 -55 -154 -82 -201c-45 -78 -94 -115 -132 -116c-41 -1 -71 39 -71 112c0 48 33 62 70 62c12 0 28 -5 41 -14c-13 -28 -17 -58 -17 -78c52 32 102 84 174 352c-51 -6 -88 -20 -115 -50
c-14 16 -21 34 -21 51c0 62 54 86 111 86c51 0 120 -5 148 -16l13 -340l155 282c27 49 49 66 85 66c18 0 35 -5 48 -13l-46 -331c-8 -58 6 -86 45 -86c46 0 117 32 175 136c-63 18 -93 69 -93 125c0 122 114 174 208 174c91 0 161 -49 136 -168l-38 -181
c-11 -51 2 -73 22 -73c18 0 41 12 56 48c19 0 30 -10 30 -27c0 -70 -82 -117 -138 -117c-50 0 -120 28 -93 157l12 56h-48c-75 -156 -194 -213 -286 -213c-77 0 -126 54 -111 161zM838 336c-1 -40 15 -76 49 -76h42l25 115c11 55 -9 76 -33 76c-53 0 -82 -62 -83 -115z" />
    <glyph glyph-name="afii10081_afii10097" horiz-adv-x="922" 
d="M757 -8c-50 0 -120 28 -93 157l12 56h-48c-75 -156 -194 -213 -286 -213c-77 0 -133 51 -111 157l39 184c7 32 9 59 -24 59c-36 0 -65 -20 -92 -52l-61 -285c-10 -46 -48 -63 -84 -63c-18 0 -35 5 -47 13l82 384c3 16 -1 25 -10 25c-5 0 -11 -4 -20 -12
c-13 8 -20 39 0 55c34 27 70 48 112 48c36 0 56 -17 48 -55l-10 -45c41 59 91 100 148 100c45 0 109 -30 84 -147l-42 -197c-12 -57 6 -86 45 -86c46 0 117 32 175 136c-63 18 -93 69 -93 125c0 122 114 174 208 174c91 0 166 -50 136 -168l-38 -181c-12 -56 4 -74 30 -74
c37 0 80 25 105 50c11 -5 17 -14 17 -24c0 -7 -3 -15 -9 -22c-47 -53 -116 -99 -173 -99zM596 336c-1 -40 15 -76 49 -76h42l25 115c11 55 -9 76 -33 76c-53 0 -82 -62 -83 -115z" />
    <glyph glyph-name="afii10081_afii10097.end" horiz-adv-x="935" 
d="M-38 5l82 384c3 16 -1 25 -10 25c-5 0 -11 -4 -20 -12c-13 8 -20 39 0 55c34 27 70 48 112 48c36 0 56 -17 48 -55l-10 -45c41 59 91 100 148 100c45 0 109 -30 84 -147l-42 -197c-12 -57 6 -86 45 -86c46 0 117 32 175 136c-63 18 -93 69 -93 125c0 122 114 174 208 174
c91 0 161 -49 136 -168l-38 -181c-11 -51 2 -73 22 -73c18 0 41 12 56 48c19 0 30 -10 30 -27c0 -70 -82 -117 -138 -117c-50 0 -120 28 -93 157l12 56h-48c-75 -156 -194 -213 -286 -213c-77 0 -133 55 -111 157l39 184c7 32 9 59 -24 59c-36 0 -65 -20 -92 -52l-61 -285
c-10 -46 -48 -63 -84 -63c-18 0 -35 5 -47 13zM596 336c-1 -40 15 -76 49 -76h42l25 115c11 55 -9 76 -33 76c-53 0 -82 -62 -83 -115z" />
    <glyph glyph-name="afii10084_afii10097" horiz-adv-x="1156" 
d="M-38 5l82 384c3 16 -1 25 -10 25c-5 0 -11 -4 -20 -12c-13 8 -20 39 0 55c34 27 70 48 112 48c36 0 56 -17 48 -55l-10 -45c41 59 91 100 148 100c41 0 87 -32 84 -103c42 60 92 103 150 103c45 0 109 -30 84 -147l-42 -197c-12 -57 6 -86 45 -86c46 0 117 32 175 136
c-63 18 -93 69 -93 125c0 122 114 174 208 174c91 0 166 -50 136 -168l-38 -181c-12 -56 4 -74 30 -74c37 0 80 25 105 50c11 -5 17 -14 17 -24c0 -7 -3 -15 -9 -22c-47 -53 -116 -99 -173 -99c-50 0 -120 28 -93 157l12 56h-48c-75 -156 -194 -213 -286 -213
c-77 0 -129 51 -111 157l39 184c7 32 9 59 -24 59c-34 0 -61 -18 -87 -46l-62 -291c-10 -46 -48 -63 -84 -63c-18 0 -35 5 -47 13l70 328c7 32 9 59 -24 59c-36 0 -65 -20 -92 -52l-61 -285c-10 -46 -48 -63 -84 -63c-18 0 -35 5 -47 13zM830 336c-1 -40 15 -76 49 -76h42
l25 115c11 55 -9 76 -33 76c-53 0 -82 -62 -83 -115z" />
    <glyph glyph-name="afii10084_afii10097.end" horiz-adv-x="1169" 
d="M-38 5l82 384c3 16 -1 25 -10 25c-5 0 -11 -4 -20 -12c-13 8 -20 39 0 55c34 27 70 48 112 48c36 0 56 -17 48 -55l-10 -45c41 59 91 100 148 100c41 0 87 -32 84 -103c42 60 92 103 150 103c45 0 109 -30 84 -147l-42 -197c-12 -57 6 -86 45 -86c46 0 117 32 175 136
c-63 18 -93 69 -93 125c0 122 114 174 208 174c91 0 161 -49 136 -168l-38 -181c-11 -51 2 -73 22 -73c18 0 41 12 56 48c19 0 30 -10 30 -27c0 -70 -82 -117 -138 -117c-50 0 -120 28 -93 157l12 56h-48c-75 -156 -194 -213 -286 -213c-77 0 -133 55 -111 157l39 184
c7 32 9 59 -24 59c-34 0 -61 -18 -87 -46l-62 -291c-10 -46 -48 -63 -84 -63c-18 0 -35 5 -47 13l70 328c7 32 9 59 -24 59c-36 0 -65 -20 -92 -52l-61 -285c-10 -46 -48 -63 -84 -63c-18 0 -35 5 -47 13zM830 336c-1 -40 15 -76 49 -76h42l25 115c11 55 -9 76 -33 76
c-53 0 -82 -62 -83 -115z" />
    <glyph glyph-name="afii10090_afii10097" horiz-adv-x="1176" 
d="M1011 -8c-50 0 -120 28 -93 157l12 56h-48c-75 -156 -194 -213 -286 -213c-65 0 -112 36 -112 111c-40 -64 -89 -111 -145 -111c-76 0 -100 54 -102 112c-40 -64 -90 -112 -146 -112c-111 0 -111 117 -94 192l47 205c4 16 -1 25 -10 25c-5 0 -11 -4 -20 -12
c-13 8 -20 39 0 55c34 27 70 48 112 48c36 0 56 -17 48 -55l-61 -284c-9 -41 4 -59 34 -59c35 0 65 20 92 52l59 278c10 46 48 63 84 63c18 0 35 -5 47 -13l-68 -321c-9 -41 4 -59 34 -59c35 0 65 20 92 52l59 278c10 46 48 63 84 63c18 0 35 -5 47 -13l-69 -326
c-12 -57 6 -86 45 -86c46 0 117 32 175 136c-63 18 -93 69 -93 125c0 122 114 174 208 174c91 0 166 -50 136 -168l-38 -181c-12 -56 4 -74 30 -74c37 0 80 25 105 50c11 -5 17 -14 17 -24c0 -7 -3 -15 -9 -22c-47 -53 -116 -99 -173 -99zM850 336c-1 -40 15 -76 49 -76h42
l25 115c11 55 -9 76 -33 76c-53 0 -82 -62 -83 -115z" />
    <glyph glyph-name="afii10090_afii10097.end" horiz-adv-x="1189" 
d="M-3 184l47 205c4 16 -1 25 -10 25c-5 0 -11 -4 -20 -12c-13 8 -20 39 0 55c34 27 70 48 112 48c36 0 56 -17 48 -55l-61 -284c-9 -41 4 -59 34 -59c35 0 65 20 92 52l59 278c10 46 48 63 84 63c18 0 35 -5 47 -13l-68 -321c-9 -41 4 -59 34 -59c36 0 65 21 92 53l59 277
c10 46 48 63 84 63c18 0 35 -5 47 -13l-69 -326c-12 -57 6 -86 45 -86c46 0 117 32 175 136c-63 18 -93 69 -93 125c0 122 114 174 208 174c91 0 161 -49 136 -168l-38 -181c-11 -51 2 -73 22 -73c18 0 41 12 56 48c19 0 30 -10 30 -27c0 -70 -82 -117 -138 -117
c-50 0 -120 28 -93 157l12 56h-48c-75 -156 -194 -213 -286 -213c-62 0 -111 36 -116 105c-39 -61 -87 -105 -141 -105c-76 0 -100 54 -102 112c-40 -64 -90 -112 -146 -112c-111 0 -111 117 -94 192zM850 336c-1 -40 15 -76 49 -76h42l25 115c11 55 -9 76 -33 76
c-53 0 -82 -62 -83 -115z" />
    <glyph glyph-name="afii10093_afii10097" horiz-adv-x="1060" 
d="M562 492l-70 -331c-12 -57 6 -86 45 -86c46 0 117 32 175 136c-63 18 -93 69 -93 125c0 122 114 174 208 174c91 0 166 -50 136 -168l-38 -181c-12 -56 4 -74 30 -74c37 0 80 25 105 50c11 -5 17 -14 17 -24c0 -7 -3 -15 -9 -22c-47 -53 -116 -99 -173 -99
c-50 0 -120 28 -93 157l12 56h-48c-75 -156 -194 -213 -286 -213c-77 0 -132 51 -110 157l50 238c-31 -33 -68 -66 -107 -91c10 -17 16 -38 16 -62c0 -110 -71 -242 -238 -242c-111 0 -111 117 -94 192l47 205c4 16 -1 25 -10 25c-5 0 -11 -4 -20 -12c-13 8 -20 39 0 55
c34 27 70 48 112 48c36 0 57 -17 48 -55l-61 -284c-13 -62 7 -91 34 -91c30 0 94 41 73 177c-18 -1 -36 0 -53 2c-21 50 1 95 58 95c18 0 37 -6 54 -17c70 37 133 101 172 148c7 9 30 25 64 25c18 0 35 -5 47 -13zM734 336c-1 -40 15 -76 49 -76h42l25 115
c11 55 -9 76 -33 76c-53 0 -82 -62 -83 -115z" />
    <glyph glyph-name="afii10093_afii10097.end" horiz-adv-x="1073" 
d="M562 492l-70 -331c-12 -57 6 -86 45 -86c46 0 117 32 175 136c-63 18 -93 69 -93 125c0 122 114 174 208 174c91 0 161 -49 136 -168l-38 -181c-11 -51 2 -73 22 -73c18 0 41 12 56 48c19 0 30 -10 30 -27c0 -70 -82 -117 -138 -117c-50 0 -120 28 -93 157l12 56h-48
c-75 -156 -194 -213 -286 -213c-77 0 -131 55 -110 157l50 238c-31 -33 -68 -66 -107 -91c10 -17 16 -38 16 -62c0 -110 -71 -242 -238 -242c-111 0 -111 117 -94 192l47 205c4 16 -1 25 -10 25c-5 0 -11 -4 -20 -12c-13 8 -20 39 0 55c34 27 70 48 112 48
c36 0 57 -17 48 -55l-61 -284c-13 -62 7 -91 34 -91c30 0 94 41 73 177c-18 -1 -36 0 -53 2c-21 50 1 95 58 95c18 0 37 -6 54 -17c70 37 133 101 172 148c7 9 30 25 64 25c18 0 35 -5 47 -13zM734 336c-1 -40 15 -76 49 -76h42l25 115c11 55 -9 76 -33 76
c-53 0 -82 -62 -83 -115z" />
    <glyph glyph-name="afii10097_afii10097" horiz-adv-x="936" 
d="M245 149l12 56h-47c-37 -79 -110 -211 -188 -213c-41 -1 -71 39 -71 112c0 48 33 62 70 62c12 0 28 -5 41 -14c-13 -29 -17 -59 -17 -79c36 21 71 49 112 138c-64 17 -95 68 -95 125c0 122 114 174 208 174c91 0 161 -49 136 -168l-38 -181c-12 -57 6 -86 45 -86
c46 0 117 32 175 136c-63 18 -93 69 -93 125c0 122 114 174 208 174c91 0 166 -50 136 -168l-38 -181c-12 -56 4 -74 30 -74c37 0 80 25 105 50c11 -5 17 -14 17 -24c0 -7 -3 -15 -9 -22c-47 -53 -116 -99 -173 -99c-50 0 -120 28 -93 157l12 56h-48
c-75 -156 -194 -213 -286 -213c-77 0 -129 51 -111 157zM177 336c-1 -40 15 -76 49 -76h42l25 115c12 55 -8 76 -33 76c-53 0 -82 -62 -83 -115zM610 336c-1 -40 15 -76 49 -76h42l25 115c11 55 -9 76 -33 76c-53 0 -82 -62 -83 -115z" />
    <glyph glyph-name="afii10097_afii10097.end" horiz-adv-x="949" 
d="M245 149l12 56h-47c-37 -79 -110 -211 -188 -213c-41 -1 -71 39 -71 112c0 48 33 62 70 62c12 0 28 -5 41 -14c-13 -29 -17 -59 -17 -79c36 21 71 49 112 138c-64 17 -95 68 -95 125c0 122 114 174 208 174c91 0 161 -49 136 -168l-38 -181c-12 -57 6 -86 45 -86
c46 0 117 32 175 136c-63 18 -93 69 -93 125c0 122 114 174 208 174c91 0 161 -49 136 -168l-38 -181c-11 -51 2 -73 22 -73c18 0 41 12 56 48c19 0 30 -10 30 -27c0 -70 -82 -117 -138 -117c-50 0 -120 28 -93 157l12 56h-48c-75 -156 -194 -213 -286 -213
c-77 0 -133 51 -111 157zM177 336c-1 -40 15 -76 49 -76h42l25 115c12 55 -8 76 -33 76c-53 0 -82 -62 -83 -115zM610 336c-1 -40 15 -76 49 -76h42l25 115c11 55 -9 76 -33 76c-53 0 -82 -62 -83 -115z" />
    <glyph glyph-name="A" unicode="A" horiz-adv-x="647" 
d="M655 91c-56 -57 -122 -99 -173 -99c-57 0 -121 28 -102 119l34 162h-112c-89 -206 -168 -281 -254 -281c-50 0 -86 48 -86 137c0 58 40 75 85 75c18 0 36 -6 50 -17c-17 -39 -21 -80 -21 -103v-9c79 30 180 153 326 641h-20c-91 0 -124 -51 -124 -98c0 -22 8 -44 20 -58
c-15 -7 -29 -10 -43 -10c-51 0 -81 45 -81 95c0 63 48 135 166 135c131 0 254 -45 331 -20c10 -6 14 -16 14 -26c0 -19 -12 -39 -35 -39h-4l-114 -534c-12 -58 6 -74 33 -74c32 0 79 30 102 50c11 -5 17 -14 17 -24c0 -7 -3 -15 -9 -22zM506 707c-18 2 -36 4 -55 6
c-45 -157 -86 -282 -125 -382h100z" />
    <glyph glyph-name="ampersand.alt" horiz-adv-x="726" 
d="M305 518c156 0 178 227 389 227c88 0 151 -65 151 -161c0 -32 -26 -86 -83 -86c0 72 -38 135 -125 135c-64 0 -105 -32 -143 -70c39 -95 56 -177 56 -247c0 -213 -171 -324 -310 -324c-95 0 -198 49 -198 192c0 105 75 222 189 222c74 0 112 -60 75 -131
c-12 6 -22 8 -31 8c-57 0 -96 -59 -96 -112c0 -72 53 -98 101 -98c70 0 157 81 157 233c0 50 -10 101 -35 165c-33 -27 -71 -45 -124 -45c-89 0 -133 67 -133 140c0 89 64 186 193 186c55 0 99 -46 99 -87c0 -37 -34 -64 -65 -64c-17 0 -31 6 -42 23c10 3 19 21 19 36
s-9 31 -35 31c-50 0 -75 -46 -75 -91c0 -42 22 -82 66 -82z" />
    <glyph glyph-name="z.end" horiz-adv-x="399" 
d="M268 67c18 0 39 14 48 39c19 0 30 -10 30 -27c0 -52 -51 -87 -128 -87c-36 0 -78 22 -127 39c-15 -26 -34 -39 -54 -39c-57 0 -79 45 -58 95c17 8 33 13 49 16c56 113 141 228 210 311c-48 -8 -97 0 -135 0c-28 0 -52 -4 -64 -21c-9 14 -13 30 -13 44c0 41 29 78 77 78
c59 0 96 -35 144 -35c19 0 40 4 64 17c28 -14 44 -31 65 -68c-86 -88 -174 -228 -227 -338c39 -11 78 -24 119 -24z" />
    <glyph glyph-name="asciitilde" unicode="~" horiz-adv-x="352" 
d="M100 256c-23 0 -47 -12 -58 -36c-20 9 -26 28 -26 45c0 31 26 80 80 80c78 0 142 -58 188 3c20 -12 30 -34 30 -57c0 -43 -35 -80 -75 -80c-45 -2 -94 46 -139 45z" />
    <glyph glyph-name="afii61352" unicode="&#x2116;" horiz-adv-x="1071" 
d="M315 716c-91 0 -124 -51 -124 -98c0 -22 8 -44 20 -58c-15 -7 -29 -10 -43 -10c-51 0 -81 45 -81 95c0 63 48 135 166 135c83 0 168 -44 211 -20c10 -6 14 -16 14 -26c0 -19 -12 -39 -35 -39h-1l108 -467c38 149 48 245 48 326c0 85 -16 159 -53 210c18 16 44 26 82 26
c55 0 66 -45 66 -83c0 -134 -41 -311 -77 -438l-78 -272c-30 -10 -55 -5 -63 28l-125 545c-82 -472 -177 -578 -264 -578c-50 0 -86 48 -86 137c0 58 40 75 85 75c18 0 36 -6 50 -17c-17 -39 -21 -80 -21 -103v-5c56 36 132 167 205 626l-3 11h-1zM851 375
c-77 0 -110 62 -110 133c0 113 79 255 191 255c77 0 110 -62 110 -133c0 -113 -79 -255 -191 -255zM993 632c0 47 -22 69 -50 69c-46 0 -106 -59 -106 -169c0 -66 22 -92 48 -92c63 0 108 101 108 192zM744 267c-26 0 -40 -8 -50 -20c-23 45 -5 92 78 92c80 0 143 -33 206 0
c33 -43 3 -101 -67 -101c-58 0 -109 29 -167 29z" />
    <glyph glyph-name="fi.end" horiz-adv-x="511" 
d="M-36 0l95 442h-50c-5 32 11 58 42 58h20l8 36c31 146 124 207 234 207c80 0 146 -42 146 -107c0 -51 -28 -78 -71 -78c-18 0 -44 6 -62 20c10 31 17 62 19 90c-20 6 -34 8 -46 8c-53 0 -83 -49 -104 -146l-7 -30h187c36 0 56 -17 48 -55l-60 -284c-11 -51 2 -73 22 -73
c18 0 41 12 56 48c19 0 30 -10 30 -27c0 -70 -82 -117 -138 -117c-55 0 -119 24 -97 119l64 306c4 17 -5 25 -21 25h-103l-95 -442c-58 -270 -110 -385 -250 -385c-60 0 -110 33 -110 117c0 17 13 27 33 27c8 -36 31 -55 69 -55c68 0 97 92 141 296z" />
    <glyph glyph-name="fh.end" horiz-adv-x="746" 
d="M219 442h-43l-95 -442c-58 -270 -110 -385 -250 -385c-60 0 -110 33 -110 117c0 17 13 27 33 27c8 -36 31 -55 69 -55c68 0 97 92 141 296l95 442h-50c-5 32 11 58 42 58h20l8 36c30 141 129 207 244 207c73 0 149 -47 124 -167l-34 -162c37 54 82 91 133 91
c50 0 119 -29 94 -147l-42 -197c-11 -51 2 -73 22 -73c18 0 41 12 56 48c19 0 30 -10 30 -27c0 -70 -82 -117 -138 -117c-50 0 -117 28 -99 119l45 222c6 32 9 59 -24 59c-36 0 -66 -21 -93 -53l-63 -284c-10 -46 -48 -63 -84 -63c-18 0 -30 2 -42 10l124 585
c13 60 1 95 -44 95c-51 0 -74 -63 -93 -152l-7 -30h73c5 -32 -11 -58 -42 -58z" />
    <glyph glyph-name="fk.end" horiz-adv-x="703" 
d="M219 442h-43l-95 -442c-58 -270 -110 -385 -250 -385c-60 0 -110 33 -110 117c0 17 13 27 33 27c8 -36 31 -55 69 -55c68 0 97 92 141 296l95 442h-50c-5 32 11 58 42 58h20l8 36c30 141 129 207 244 207c73 0 150 -47 124 -167l-65 -300l20 5c64 19 97 56 97 116
c0 28 -3 50 -14 62c13 27 43 47 78 48c38 2 56 -23 56 -77c1 -80 -62 -140 -125 -170c14 -59 41 -172 93 -172c26 0 38 14 46 48c19 0 30 -10 30 -27c0 -70 -60 -117 -128 -117c-100 0 -126 160 -141 238l-24 -6l-36 -169c-10 -46 -48 -63 -84 -63c-18 0 -30 2 -42 10
l124 585c13 60 1 95 -44 95c-51 0 -74 -63 -93 -152l-7 -30h73c5 -32 -11 -58 -42 -58z" />
    <glyph glyph-name="fl.end" horiz-adv-x="506" 
d="M219 442h-43l-95 -442c-58 -270 -110 -385 -250 -385c-60 0 -110 33 -110 117c0 17 13 27 33 27c8 -36 31 -55 69 -55c68 0 97 92 141 296l95 442h-50c-5 32 11 58 42 58h20l8 36c30 141 129 207 244 207c73 0 150 -47 124 -167l-89 -415c-11 -51 2 -73 22 -73
c18 0 41 12 56 48c19 0 30 -10 30 -27c0 -70 -82 -117 -138 -117c-50 0 -116 28 -97 119l101 476c13 60 1 95 -44 95c-51 0 -74 -63 -93 -152l-7 -30h73c5 -32 -11 -58 -42 -58z" />
    <glyph glyph-name="Th.end" horiz-adv-x="937" 
d="M658 111l47 222c7 32 9 59 -24 59c-36 0 -66 -21 -93 -53l-61 -276c-10 -46 -48 -63 -84 -63c-18 0 -30 2 -42 10l128 610c-35 3 -74 21 -117 37l-128 -601c-10 -47 -49 -64 -86 -64c-23 0 -42 5 -53 13l153 677h-8c-71 0 -148 -51 -148 -150c0 -17 3 -34 14 -52
c-93 -25 -126 28 -126 80c0 156 185 192 289 192c53 0 138 -12 194 -12c44 0 90 9 118 29c29 -36 32 -71 22 -121l-49 -234c37 54 82 91 133 91c50 0 119 -29 94 -147l-42 -197c-11 -51 2 -73 22 -73c18 0 41 12 56 48c19 0 30 -10 30 -27c0 -70 -82 -117 -138 -117
c-50 0 -120 28 -101 119z" />
    <glyph glyph-name="Tk.end" horiz-adv-x="894" 
d="M778 88c26 0 38 14 46 48c19 0 30 -10 30 -27c0 -70 -60 -117 -128 -117c-100 0 -126 160 -141 238l-24 -6l-36 -169c-10 -46 -48 -63 -84 -63c-18 0 -30 2 -42 10l130 618c-35 3 -74 21 -117 37l-128 -601c-10 -47 -49 -64 -86 -64c-23 0 -42 5 -53 13l153 677h-8
c-71 0 -148 -51 -148 -150c0 -17 3 -34 14 -52c-93 -25 -126 28 -126 80c0 156 185 192 289 192c53 0 138 -12 194 -12c44 0 90 9 118 29c29 -36 32 -71 22 -121l-81 -372l21 5c64 19 97 56 97 116c0 28 -3 50 -14 62c13 27 43 47 78 48c38 2 56 -23 56 -77
c1 -80 -62 -140 -125 -170c14 -59 41 -172 93 -172z" />
    <glyph glyph-name="afii10038.alt" horiz-adv-x="723" 
d="M362 737c46 0 98 21 128 21c23 0 35 -15 35 -36c0 -10 -4 -23 -14 -29c-8 7 -15 11 -26 12l-16 -75h11c152 0 219 -103 219 -227c0 -183 -139 -411 -354 -411h-10c-29 -155 -106 -270 -249 -270c-90 0 -128 63 -128 126c0 61 38 121 105 121c72 0 102 -43 75 -117
c-17 16 -32 18 -47 18c-37 0 -53 -26 -53 -50c0 -19 16 -40 47 -40c64 0 90 54 126 212h-8c-152 0 -219 103 -219 227c0 183 139 411 354 411h9l11 50c-19 -4 -39 -7 -58 -7c-100 0 -137 49 -137 97s30 83 72 83c14 0 28 -3 43 -10c-8 -21 -12 -38 -12 -51
c0 -47 44 -54 96 -55zM460 579h-5l-113 -536h3c141 0 230 192 230 345c0 104 -35 191 -115 191zM108 234c0 -104 35 -191 115 -191h3l114 536h-2c-141 0 -230 -192 -230 -345z" />
    <glyph glyph-name="ft.end" horiz-adv-x="498" 
d="M-36 0l95 442h-50c-5 32 11 58 42 58h20l8 36c30 141 129 207 244 207c73 0 152 -47 127 -167l-16 -76h73c5 -32 -11 -58 -42 -58h-44l-59 -281c-11 -51 2 -73 22 -73c18 0 41 12 56 48c19 0 30 -10 30 -27c0 -70 -82 -117 -138 -117c-50 0 -125 7 -95 148l64 302h-125
l-95 -442c-58 -270 -110 -385 -250 -385c-60 0 -110 33 -110 117c0 17 13 27 33 27c8 -36 31 -55 69 -55c68 0 97 92 141 296zM195 530l-7 -30h125l18 82c13 60 2 100 -43 100c-51 0 -74 -63 -93 -152z" />
    <glyph glyph-name="ov" horiz-adv-x="852" 
d="M477 399c2 8 -2 15 -11 15c-5 0 -11 -4 -20 -12c-11 -13 -32 -35 -58 -57c6 -14 8 -31 8 -49c-5 -151 -141 -304 -261 -304c-103 0 -147 83 -147 177c0 151 105 340 256 340c50 0 90 -14 120 -59c-2 -23 -19 -34 -34 -28c-19 7 -40 11 -64 11c-91 0 -150 -134 -150 -232
c0 -88 30 -122 65 -122c59 0 134 97 110 205c-18 1 -35 5 -46 12c-21 55 1 105 58 105c22 0 42 -8 58 -20c30 22 56 47 78 69c2 3 4 5 7 7c34 27 70 48 112 48c36 0 57 -17 48 -55c-26 -123 -38 -272 4 -354c76 60 126 165 126 259c0 67 -20 126 -62 145c2 52 34 78 67 77
c39 -1 81 -38 81 -111c0 -229 -164 -474 -272 -474c-106 0 -109 291 -73 407z" />
    <glyph glyph-name="ow" horiz-adv-x="1101" 
d="M733 442c9 46 48 63 84 63c17 0 36 -5 47 -13c-19 -88 -35 -171 -35 -246c0 -54 9 -105 30 -150c76 60 126 165 126 259c0 67 -20 126 -62 145c2 52 34 78 67 77c39 -1 81 -38 81 -111c0 -229 -164 -474 -272 -474c-52 0 -71 94 -77 193c-53 -120 -119 -193 -172 -193
c-68 0 -94 120 -94 237c0 65 8 129 21 170c3 10 -4 15 -11 15c-6 0 -13 -4 -19 -11c-11 -12 -32 -36 -59 -58c6 -14 8 -31 8 -49c-5 -151 -141 -304 -261 -304c-103 0 -147 83 -147 177c0 151 105 340 256 340c50 0 90 -14 120 -59c-2 -23 -19 -34 -34 -28
c-19 7 -40 11 -64 11c-91 0 -150 -134 -150 -232c0 -88 30 -122 65 -122c59 0 134 97 110 205c-18 1 -35 5 -46 12c-21 55 1 105 58 105c22 0 42 -8 58 -20c31 23 58 49 81 72c21 23 74 52 116 52c36 0 56 -17 48 -55c-14 -65 -24 -137 -24 -203c0 -59 8 -112 28 -151
c61 60 90 167 123 346z" />
    <glyph glyph-name="afii10073.alt_afii10088" horiz-adv-x="866" 
d="M519 -190c-100 0 -206 42 -326 67c-50 -134 -154 -262 -284 -262c-69 0 -123 50 -123 123c0 147 146 214 311 217c5 27 8 56 8 87c0 70 -26 122 -91 122c-5 31 11 58 42 58c65 0 119 82 119 144c0 48 -29 71 -66 71c-13 0 -27 -3 -40 -8c-2 -6 -2 -12 -2 -20
c0 -14 5 -41 16 -65c-11 -10 -27 -14 -40 -14c-36 0 -60 32 -60 69c0 52 47 113 172 113c86 0 138 -56 138 -122c0 -99 -64 -172 -163 -200c66 -24 94 -84 94 -156c0 -26 -3 -54 -9 -83c101 -7 199 -21 267 -21c44 0 90 9 118 29c29 -84 -11 -149 -81 -149zM681 -8
c-49 0 -98 25 -93 113c-40 -65 -89 -113 -146 -113c-111 0 -111 117 -94 192l46 203c6 27 -13 33 -29 14c-14 13 -15 23 -15 31c0 23 72 71 126 71c36 0 56 -17 48 -55l-60 -282c-9 -41 4 -59 34 -59c35 0 65 20 92 52l59 278c10 46 48 63 84 63c18 0 35 -5 47 -13l-69 -326
c-18 -98 36 -87 64 -25c14 2 26 -4 36 -15c0 -371 -225 -484 -328 -484c-59 0 -84 40 -84 72c0 26 7 50 32 76c195 -25 281 36 328 249c-17 -24 -47 -42 -78 -42zM-92 -296c53 0 135 68 174 189c-15 1 -31 2 -47 2c-98 0 -168 -63 -168 -144c0 -32 24 -47 41 -47z" />
    <glyph glyph-name="ti.alt" horiz-adv-x="541" 
d="M-9 140l64 302h-50c-5 32 11 58 42 58h20l18 82c10 46 48 63 84 63c18 0 35 -5 47 -13l-28 -132h217c36 0 56 -17 48 -55l-60 -284c-11 -51 2 -73 22 -73c18 0 41 12 56 48c19 0 30 -10 30 -27c0 -70 -82 -117 -138 -117c-50 0 -116 28 -97 119l64 306c4 17 -5 25 -21 25
h-134l-59 -281c-11 -51 2 -73 22 -73c18 0 41 12 56 48c19 0 30 -10 30 -27c0 -70 -82 -117 -138 -117c-50 0 -120 29 -95 148zM357 634c4 39 37 70 76 70s68 -31 64 -70c-6 -39 -39 -70 -78 -70s-68 31 -62 70z" />
    <glyph glyph-name="afii10085.alt_afii10088" horiz-adv-x="974" 
d="M-3 184l47 205c4 16 -1 25 -10 25c-5 0 -11 -4 -20 -12c-13 8 -20 39 0 55c34 27 70 48 112 48c36 0 56 -17 48 -55l-62 -288c-7 -31 1 -55 34 -55c29 0 54 14 77 36l65 299c10 46 48 63 84 63c18 0 35 -5 47 -13l-85 -396c-10 -46 -21 -95 -34 -143
c109 -7 216 -23 289 -23c44 0 90 9 118 29c29 -84 -11 -149 -81 -149c-105 0 -219 48 -347 72c-48 -144 -124 -267 -271 -267c-57 0 -115 50 -115 123c0 140 132 208 288 216c11 36 22 76 35 120c-39 -48 -84 -81 -134 -81c-99 0 -105 98 -85 191zM789 -8
c-49 0 -98 25 -93 113c-40 -65 -89 -113 -146 -113c-111 0 -111 117 -94 192l46 203c6 27 -13 33 -29 14c-14 13 -15 23 -15 31c0 23 72 71 126 71c36 0 56 -17 48 -55l-60 -282c-9 -41 4 -59 34 -59c35 0 65 20 92 52l59 278c10 46 48 63 84 63c18 0 35 -5 47 -13l-69 -326
c-18 -98 36 -87 64 -25c14 2 26 -4 36 -15c0 -371 -225 -484 -328 -484c-59 0 -84 40 -84 72c0 26 7 50 32 76c195 -25 281 36 328 249c-17 -24 -47 -42 -78 -42zM15 -296c64 0 103 58 147 191h-20c-98 0 -168 -63 -168 -144c0 -32 24 -47 41 -47z" />
    <glyph glyph-name="C.swash" 
d="M438 533c-29 0 -55 18 -59 58c-41 -14 -95 -16 -152 -14c-37 -75 -61 -173 -61 -276c0 -118 40 -216 141 -216c53 0 113 15 179 52c11 -5 17 -14 17 -24c0 -7 -2 -15 -9 -22c-71 -71 -159 -99 -243 -99c-157 0 -226 138 -226 292c0 111 29 218 76 303c-41 4 -79 8 -104 8
c-55 0 -90 -11 -116 -43c-17 21 -24 42 -24 62c3 54 35 98 107 98c66 0 128 -24 192 -46c56 64 126 104 202 104c114 0 156 -75 156 -141c0 -64 -35 -96 -76 -96zM374 712c-39 0 -79 -29 -113 -77c24 -5 49 -7 75 -7c28 0 46 1 58 9c1 1 2 1 3 2c18 -11 39 -2 39 23
c0 37 -25 50 -62 50z" />
    <glyph glyph-name="E.swash" 
d="M-36 712c68 0 131 -25 197 -48c33 60 99 106 191 106c114 0 162 -75 162 -141c0 -64 -35 -96 -76 -96c-29 0 -55 18 -59 58c-36 -12 -84 -15 -134 -14v-9c0 -63 32 -126 102 -143c2 -13 -1 -27 -10 -38c-99 -7 -154 -98 -154 -179c0 -67 37 -128 119 -128
c59 0 129 16 184 57c11 -5 17 -14 17 -24c0 -7 -2 -15 -9 -22c-70 -70 -174 -99 -263 -99c-131 0 -189 94 -189 198c0 97 64 199 175 233c-55 36 -80 91 -80 148v13c-56 5 -107 11 -140 11c-55 0 -90 -11 -116 -43c-17 21 -24 42 -24 62c3 54 35 98 107 98zM365 714
c-52 0 -89 -34 -107 -78c25 -5 51 -8 78 -8c31 0 49 2 61 11c18 -11 39 -2 39 23c0 37 -34 52 -71 52z" />
    <glyph glyph-name="G.swash" horiz-adv-x="572" 
d="M25 284c0 111 29 218 76 303c-41 4 -79 8 -104 8c-55 0 -90 -11 -116 -43c-17 21 -24 42 -24 62c3 54 35 98 107 98c66 0 128 -24 192 -46c56 64 126 104 202 104c114 0 156 -75 156 -141c0 -64 -35 -96 -76 -96c-29 0 -55 18 -59 58c-41 -14 -95 -16 -152 -14
c-37 -75 -61 -173 -61 -276c0 -118 40 -216 141 -216c65 0 124 64 132 189c-34 -8 -67 -21 -103 -21c-70 0 -108 70 -75 113c60 -33 120 0 196 0c69 0 102 -54 72 -96c-6 6 -15 11 -29 12c-17 -198 -134 -290 -249 -290c-157 0 -226 138 -226 292zM374 712
c-39 0 -79 -29 -113 -77c24 -5 49 -7 75 -7c28 0 46 1 58 9l3 2c18 -11 39 -2 39 23c0 37 -25 50 -62 50z" />
    <glyph glyph-name="S.swash" horiz-adv-x="570" 
d="M-16 712c68 0 132 -26 198 -48c34 64 103 106 190 106c114 0 162 -75 162 -141c0 -64 -35 -96 -76 -96c-29 0 -55 18 -59 58c-30 -10 -67 -14 -107 -15c15 -129 208 -173 208 -338c0 -155 -114 -246 -264 -246c-139 0 -204 97 -204 190c0 85 55 166 159 166
c33 0 66 -24 66 -62c0 -10 -2 -20 -7 -32c-66 22 -115 -22 -115 -79c0 -53 36 -106 105 -106c82 0 121 65 121 139c0 161 -200 183 -200 367v8c-58 5 -110 12 -144 12c-55 0 -90 -11 -116 -43c-17 21 -24 42 -24 62c3 54 35 98 107 98zM385 714c-49 0 -79 -35 -90 -81
c20 -4 40 -5 61 -5c31 0 49 2 61 11c18 -11 39 -2 39 23c0 37 -34 52 -71 52z" />
    <glyph glyph-name="afii10022.swash" 
d="M-36 712c68 0 131 -25 197 -48c33 60 99 106 191 106c114 0 162 -75 162 -141c0 -64 -35 -96 -76 -96c-29 0 -55 18 -59 58c-36 -12 -84 -15 -134 -14v-9c0 -63 32 -126 102 -143c2 -13 -1 -27 -10 -38c-99 -7 -154 -98 -154 -179c0 -67 37 -128 119 -128
c59 0 129 16 184 57c11 -5 17 -14 17 -24c0 -7 -2 -15 -9 -22c-70 -70 -174 -99 -263 -99c-131 0 -189 94 -189 198c0 97 64 199 175 233c-55 36 -80 91 -80 148v13c-56 5 -107 11 -140 11c-55 0 -90 -11 -116 -43c-17 21 -24 42 -24 62c3 54 35 98 107 98zM365 714
c-52 0 -89 -34 -107 -78c25 -5 51 -8 78 -8c31 0 49 2 61 11c18 -11 39 -2 39 23c0 37 -34 52 -71 52z" />
    <glyph glyph-name="afii10035.swash" 
d="M438 533c-29 0 -55 18 -59 58c-41 -14 -95 -16 -152 -14c-37 -75 -61 -173 -61 -276c0 -118 40 -216 141 -216c53 0 113 15 179 52c11 -5 17 -14 17 -24c0 -7 -2 -15 -9 -22c-71 -71 -159 -99 -243 -99c-157 0 -226 138 -226 292c0 111 29 218 76 303c-41 4 -79 8 -104 8
c-55 0 -90 -11 -116 -43c-17 21 -24 42 -24 62c3 54 35 98 107 98c66 0 128 -24 192 -46c56 64 126 104 202 104c114 0 156 -75 156 -141c0 -64 -35 -96 -76 -96zM374 712c-39 0 -79 -29 -113 -77c24 -5 49 -7 75 -7c28 0 46 1 58 9l3 2c18 -11 39 -2 39 23
c0 37 -25 50 -62 50z" />
    <glyph glyph-name="afii10023.swash" 
d="M-36 712c68 0 131 -25 197 -48c33 60 99 106 191 106c114 0 162 -75 162 -141c0 -64 -35 -96 -76 -96c-29 0 -55 18 -59 58c-36 -12 -84 -15 -134 -14v-9c0 -63 32 -126 102 -143c2 -13 -1 -27 -10 -38c-99 -7 -154 -98 -154 -179c0 -67 37 -128 119 -128
c59 0 129 16 184 57c11 -5 17 -14 17 -24c0 -7 -2 -15 -9 -22c-70 -70 -174 -99 -263 -99c-131 0 -189 94 -189 198c0 97 64 199 175 233c-55 36 -80 91 -80 148v13c-56 5 -107 11 -140 11c-55 0 -90 -11 -116 -43c-17 21 -24 42 -24 62c3 54 35 98 107 98zM222 862
c0 35 27 62 62 62s62 -27 62 -62s-27 -62 -62 -62s-62 27 -62 62zM419 862c0 35 28 62 62 62c35 0 62 -27 62 -62s-27 -62 -62 -62c-34 0 -62 27 -62 62zM365 714c-52 0 -89 -34 -107 -78c25 -5 51 -8 78 -8c31 0 49 2 61 11c18 -11 39 -2 39 23c0 37 -34 52 -71 52z" />
    <glyph glyph-name="ol.end" horiz-adv-x="745" 
d="M441 140c4 29 7 58 11 86c-21 0 -43 3 -65 8c-33 -128 -149 -242 -252 -242s-147 83 -147 177c0 151 105 340 256 340c50 0 90 -14 120 -59c-2 -23 -19 -34 -34 -28c-19 7 -40 11 -64 11c-91 0 -150 -134 -150 -232c0 -88 30 -122 65 -122c56 0 126 88 113 190
c-16 8 -33 17 -49 27c-21 55 1 105 58 105c54 0 95 -41 93 -105c0 -7 -1 -15 -2 -22c23 -5 44 -8 65 -8c45 284 111 448 226 448c47 0 80 -29 80 -81c0 -118 -70 -286 -183 -364c-6 -35 -11 -71 -16 -108c-6 -53 2 -73 22 -73c18 0 41 12 56 48c19 0 30 -10 30 -27
c0 -70 -82 -117 -138 -117c-50 0 -108 30 -95 148zM692 648c-31 0 -69 -134 -102 -326c78 75 119 208 119 304c0 17 -6 22 -17 22z" />
    <glyph glyph-name="afii10080_afii10067_" horiz-adv-x="894" 
d="M266 433c-91 0 -150 -134 -150 -232c0 -88 30 -122 65 -122c56 0 127 89 112 192c-16 7 -32 15 -48 25c-21 55 1 105 58 105c54 0 95 -41 93 -105c0 -5 0 -9 -1 -13c21 -3 40 -5 59 -5c30 200 126 436 289 436c61 0 99 -33 94 -97c-6 -74 -136 -256 -267 -338
c-5 -30 -8 -57 -9 -79c-5 -98 25 -125 58 -125c85 0 116 140 105 206c-16 -1 -31 1 -39 5c-18 50 6 95 63 95c30 0 55 -13 71 -35c60 17 114 49 156 78c12 -9 12 -37 -5 -50c-22 -17 -77 -56 -134 -74c1 -8 0 -16 0 -24c-12 -151 -151 -284 -277 -284
c-72 0 -122 52 -114 192c1 17 2 35 4 54c-20 0 -40 1 -60 5c-30 -132 -148 -251 -254 -251c-103 0 -147 83 -147 177c0 151 105 340 256 340c50 0 90 -14 120 -59c-2 -23 -19 -34 -34 -28c-19 7 -40 11 -64 11zM740 652c-66 0 -129 -174 -160 -320c90 72 174 197 184 274
c4 29 -3 46 -24 46z" />
    <glyph glyph-name="afii10080_afii10067.end" horiz-adv-x="898" 
d="M266 433c-91 0 -150 -134 -150 -232c0 -88 30 -122 65 -122c56 0 127 89 112 192c-16 7 -32 15 -48 25c-21 55 1 105 58 105c54 0 95 -41 93 -105c0 -5 0 -9 -1 -13c21 -3 40 -5 59 -5c30 200 126 436 289 436c61 0 99 -33 94 -97c-6 -74 -136 -256 -267 -338
c-5 -30 -8 -57 -9 -79c-5 -98 25 -125 58 -125c85 0 116 140 105 206c-16 -1 -31 1 -39 5c-18 50 6 95 63 95c20 0 39 -6 54 -17c42 26 77 60 106 89c14 -6 19 -33 5 -50c-14 -16 -45 -49 -83 -77c5 -15 7 -31 6 -50c-12 -151 -151 -284 -277 -284c-72 0 -122 52 -114 192
c1 17 2 35 4 54c-20 0 -40 1 -60 5c-30 -132 -148 -251 -254 -251c-103 0 -147 83 -147 177c0 151 105 340 256 340c50 0 90 -14 120 -59c-2 -23 -19 -34 -34 -28c-19 7 -40 11 -64 11zM740 652c-66 0 -129 -174 -160 -320c90 72 174 197 184 274c4 29 -3 46 -24 46z" />
    <glyph glyph-name="l.end.alt" horiz-adv-x="296" 
d="M87 -8c-38 0 -80 17 -93 76c-31 -12 -65 4 -71 39c28 6 48 22 70 44c41 356 113 563 243 563c47 0 80 -29 80 -81c0 -78 -65 -239 -195 -436c-1 -12 -3 -24 -4 -36c-6 -53 2 -73 22 -73c18 0 41 12 56 48c19 0 30 -10 30 -27c0 -70 -82 -117 -138 -117zM243 648
c-33 0 -76 -152 -109 -363c89 163 126 307 126 341c0 17 -6 22 -17 22z" />
    <glyph glyph-name="e.alt" horiz-adv-x="415" 
d="M354 413c0 -85 -45 -153 -238 -260c10 -54 47 -74 93 -74c72 0 164 51 207 108c26 5 36 -16 25 -34c-69 -101 -185 -161 -282 -161c-66 0 -124 27 -152 87c-4 -2 -8 -4 -12 -5c-39 -10 -75 19 -68 58c23 -3 43 2 64 11c-1 9 -2 18 -2 28c0 130 86 338 251 338
c91 0 114 -51 114 -96zM247 431c-99 0 -131 -165 -134 -235c97 61 163 131 163 196c0 23 -12 39 -29 39z" />
    <glyph glyph-name="afii10067.alt" horiz-adv-x="453" 
d="M467 457c19 -16 14 -43 0 -55c-21 -18 -50 -52 -82 -78c5 -14 7 -30 6 -48c-12 -151 -151 -284 -277 -284c-52 0 -93 27 -108 95c-29 -7 -59 10 -64 42c23 5 40 16 57 31c0 8 1 16 1 24c10 212 109 530 298 530c61 0 97 -33 94 -97c-5 -80 -99 -191 -274 -392
c-1 -9 -2 -17 -2 -25c-5 -98 25 -125 58 -125c85 0 116 140 105 206c-16 -1 -31 1 -39 5c-18 50 6 95 63 95c21 0 41 -7 56 -19c36 25 70 64 108 95zM295 652c-71 0 -138 -203 -166 -353c131 164 187 256 190 307c1 29 -3 46 -24 46z" />
    <glyph glyph-name="afii10067.end.alt" horiz-adv-x="420" 
d="M392 617c-3 -58 -54 -133 -149 -247c20 7 41 11 60 11c54 0 93 -41 88 -105c-12 -151 -151 -284 -277 -284c-52 0 -93 27 -108 95c-29 -7 -59 10 -64 42c23 5 40 16 57 31c0 8 1 16 1 24c10 212 109 530 298 530c61 0 98 -33 94 -97zM276 293c-10 25 -33 38 -65 40
c-28 -33 -59 -69 -93 -108c-1 -9 -2 -17 -2 -25c-5 -98 25 -125 58 -125c91 0 123 160 102 218zM295 652c-71 0 -138 -203 -166 -353c131 164 187 256 190 307c1 29 -3 46 -24 46z" />
    <glyph glyph-name="afii10067_.alt" horiz-adv-x="449" 
d="M-58 127c23 5 40 16 57 31c0 8 1 17 1 26c10 212 109 530 298 530c61 0 98 -33 94 -97c-4 -80 -98 -191 -274 -392c-1 -9 -2 -17 -2 -25c-5 -98 25 -125 58 -125c85 0 116 140 105 206c-16 -1 -31 1 -39 5c-18 50 6 95 63 95c30 0 55 -13 71 -35c60 17 114 49 156 78
c12 -9 12 -37 -5 -50c-22 -17 -77 -56 -134 -74c1 -8 0 -16 0 -24c-12 -151 -151 -284 -277 -284c-52 0 -92 26 -108 93c-29 -7 -59 10 -64 42zM295 652c-71 0 -138 -203 -166 -353c131 164 187 256 190 307c1 29 -3 46 -24 46z" />
    <glyph glyph-name="afii10070.alt" horiz-adv-x="415" 
d="M354 413c0 -85 -45 -153 -238 -260c10 -54 47 -74 93 -74c72 0 164 51 207 108c26 5 36 -16 25 -34c-69 -101 -185 -161 -282 -161c-66 0 -124 27 -152 87c-4 -2 -8 -4 -12 -5c-39 -10 -75 19 -68 58c23 -3 43 2 64 11c-1 9 -2 18 -2 28c0 130 86 338 251 338
c91 0 114 -51 114 -96zM247 431c-99 0 -131 -165 -134 -235c97 61 163 131 163 196c0 23 -12 39 -29 39z" />
    <glyph glyph-name="afii10070.end.alt" horiz-adv-x="393" 
d="M145 -8c-66 0 -117 24 -142 85c-3 -2 -5 -3 -8 -3c-39 -10 -75 19 -68 58c23 -3 42 2 62 10c0 9 -1 19 -1 29c0 130 86 338 251 338c91 0 114 -51 114 -96c0 -85 -45 -153 -238 -260c10 -51 44 -74 87 -74c44 0 76 21 93 57c19 0 30 -10 30 -27c0 -55 -92 -117 -180 -117
zM246 431c-99 0 -131 -165 -134 -235c97 61 163 131 163 196c0 23 -12 39 -29 39z" />
    <glyph glyph-name="e.end.alt" horiz-adv-x="393" 
d="M145 -8c-66 0 -117 24 -142 85c-3 -2 -5 -3 -8 -3c-39 -10 -75 19 -68 58c23 -3 42 2 62 10c0 9 -1 19 -1 29c0 130 86 338 251 338c91 0 114 -51 114 -96c0 -85 -45 -153 -238 -260c10 -51 44 -74 87 -74c44 0 76 21 93 57c19 0 30 -10 30 -27c0 -55 -92 -117 -180 -117
zM246 431c-99 0 -131 -165 -134 -235c97 61 163 131 163 196c0 23 -12 39 -29 39z" />
    <glyph glyph-name="bracketleft" unicode="[" horiz-adv-x="422" 
d="M35 -80c46 218 140 543 175 755c-24 8 -32 25 -32 49c0 45 35 61 74 61c24 0 39 -13 47 -36c13 0 53 23 84 23c70 0 98 -63 65 -110c-22 12 -44 15 -67 15c-33 0 -54 -2 -75 -4c-35 -193 -119 -523 -159 -722c22 7 44 14 68 14c70 0 108 -70 75 -113
c-57 33 -137 0 -211 0c-56 0 -51 34 -44 68z" />
    <glyph glyph-name="bracketright" unicode="]" horiz-adv-x="402" 
d="M367 717c-47 -219 -140 -543 -176 -755c25 -8 33 -25 33 -49c0 -45 -35 -61 -74 -61c-24 0 -39 13 -47 36c-13 0 -53 -23 -84 -23c-70 0 -98 63 -65 110c22 -12 44 -15 67 -15c32 0 53 2 75 4c34 192 118 522 158 722c-22 -7 -44 -14 -67 -14c-70 0 -108 70 -75 113
c57 -33 137 0 211 0c56 0 51 -34 44 -68z" />
    <glyph glyph-name="braceleft" unicode="{" horiz-adv-x="387" 
d="M237 200c-15 -104 -78 -178 -91 -273c-8 -56 25 -73 70 -73c29 0 64 8 99 19c17 -56 -49 -86 -155 -86c-108 0 -132 60 -120 144c10 78 92 196 100 260c4 29 0 47 -18 53c-14 -12 -34 -18 -51 -18c-37 0 -50 26 -47 48c3 21 23 53 80 53c14 0 31 -3 47 -10
c25 19 36 54 41 88c11 80 5 158 10 193c10 77 52 172 165 172c106 0 125 -28 103 -65c-29 8 -55 13 -76 13c-48 0 -73 -28 -81 -115l-12 -138c-7 -73 -34 -147 -105 -177c28 -19 46 -47 41 -88z" />
    <glyph glyph-name="braceright" unicode="}" horiz-adv-x="387" 
d="M148 357c15 104 78 178 91 273c8 56 -25 73 -70 73c-29 0 -64 -8 -99 -19c-17 56 49 86 155 86c108 0 132 -60 120 -144c-10 -78 -92 -196 -100 -260c-4 -29 -1 -47 17 -54c14 13 34 19 52 19c37 0 50 -26 47 -48c-3 -21 -23 -53 -80 -53c-14 0 -31 2 -48 9
c-24 -19 -36 -54 -40 -87c-11 -80 -5 -158 -10 -193c-10 -77 -52 -172 -165 -172c-106 0 -125 28 -103 65c29 -8 55 -13 76 -13c48 0 73 28 81 115l12 138c6 72 34 147 105 177c-29 18 -47 46 -41 88z" />
    <glyph glyph-name="afii10071.alt" horiz-adv-x="415" 
d="M354 413c0 -85 -45 -153 -238 -260c10 -54 47 -74 93 -74c72 0 164 51 207 108c26 5 36 -16 25 -34c-69 -101 -185 -161 -282 -161c-66 0 -124 27 -152 87c-4 -2 -8 -4 -12 -5c-39 -10 -75 19 -68 58c23 -3 43 2 64 11c-1 9 -2 18 -2 28c0 130 86 338 251 338
c91 0 114 -51 114 -96zM247 431c-99 0 -131 -165 -134 -235c97 61 163 131 163 196c0 23 -12 39 -29 39zM116 642c0 35 27 62 62 62s62 -27 62 -62s-27 -62 -62 -62s-62 27 -62 62zM313 642c0 35 28 62 62 62c35 0 62 -27 62 -62s-27 -62 -62 -62c-34 0 -62 27 -62 62z" />
    <glyph glyph-name="afii10071.end.alt" horiz-adv-x="393" 
d="M145 -8c-66 0 -117 24 -142 85c-3 -2 -5 -3 -8 -3c-39 -10 -75 19 -68 58c23 -3 42 2 62 10c0 9 -1 19 -1 29c0 130 86 338 251 338c91 0 114 -51 114 -96c0 -85 -45 -153 -238 -260c10 -51 44 -74 87 -74c44 0 76 21 93 57c19 0 30 -10 30 -27c0 -55 -92 -117 -180 -117
zM246 431c-99 0 -131 -165 -134 -235c97 61 163 131 163 196c0 23 -12 39 -29 39zM117 642c0 35 27 62 62 62s62 -27 62 -62s-27 -62 -62 -62s-62 27 -62 62zM314 642c0 35 28 62 62 62c35 0 62 -27 62 -62s-27 -62 -62 -62c-34 0 -62 27 -62 62z" />
    <glyph glyph-name="afii10069.alt_afii10088" horiz-adv-x="993" 
d="M459 492l-84 -396c-10 -46 -21 -95 -34 -143c109 -7 216 -23 289 -23c44 0 90 9 118 29c29 -84 -11 -149 -81 -149c-105 0 -219 48 -347 72c-48 -144 -124 -267 -271 -267c-57 0 -115 50 -115 123c0 140 132 208 288 216c12 39 24 82 38 131c-41 -55 -92 -93 -146 -93
c-104 0 -125 104 -125 168c0 175 113 349 252 349c45 0 77 -11 102 -33c17 20 44 29 69 29c18 0 35 -5 47 -13zM807 -8c-49 0 -98 25 -93 113c-40 -65 -89 -113 -146 -113c-111 0 -111 117 -94 192l46 203c6 27 -13 33 -29 14c-14 13 -15 23 -15 31c0 23 72 71 126 71
c36 0 56 -17 48 -55l-60 -282c-9 -41 4 -59 34 -59c35 0 65 20 92 52l59 278c10 46 48 63 84 63c18 0 35 -5 47 -13l-69 -326c-18 -98 36 -87 64 -25c14 2 26 -4 36 -15c0 -371 -225 -484 -328 -484c-59 0 -84 40 -84 72c0 26 7 50 32 76c195 -25 281 36 328 249
c-17 -24 -47 -42 -78 -42zM268 158l56 268c-17 6 -32 8 -47 8c-121 0 -164 -158 -164 -267c0 -50 23 -72 54 -72c32 0 74 26 101 63zM56 -296c64 0 103 58 147 191h-20c-98 0 -168 -63 -168 -144c0 -32 24 -47 41 -47z" />
    <glyph glyph-name="Fi.end" horiz-adv-x="754" 
d="M136 546c0 -17 6 -42 20 -58c-15 -7 -29 -10 -42 -10c-52 0 -82 45 -82 93c0 164 182 199 277 199c134 0 251 -43 392 8c42 -108 -25 -181 -98 -181c-64 0 -138 54 -214 88l-58 -270c48 -5 88 -18 129 2c24 -31 -3 -82 -55 -82c-30 0 -58 11 -87 17l-63 -296
c-10 -47 -49 -64 -86 -64c-23 0 -42 5 -53 13l159 704c-67 -7 -139 -58 -139 -163zM470 111l58 278c3 16 -1 25 -10 25c-5 0 -11 -4 -20 -12c-13 8 -20 39 0 55c34 27 70 48 112 48c36 0 56 -17 48 -55l-61 -289c-11 -51 2 -73 22 -73c18 0 41 12 56 48c19 0 30 -10 30 -27
c0 -70 -82 -117 -138 -117c-50 0 -116 28 -97 119z" />
    </font>
</defs>
</svg>
