<svg id="Capa_1" enable-background="new 0 0 512 512" height="512" viewBox="0 0 512 512" width="512" xmlns="http://www.w3.org/2000/svg"><g><path d="m356 320h-200c-63.411 0-115 51.589-115 115v62c0 8.284 6.716 15 15 15h55l15-17 15 17h70l45-17 45 17h70l15-17 15 17h55c8.284 0 15-6.716 15-15v-62c0-63.411-51.589-115-115-115z" fill="#7d4b3b"/><path d="m471 497v-62c0-63.411-51.589-115-115-115h-100v175l45 17h70l15-17 15 17h55c8.284 0 15-6.716 15-15z" fill="#5b362a"/><path d="m386 420c-8.284 0-15 6.716-15 15v77h30v-77c0-8.284-6.716-15-15-15z" fill="#38211a"/><path d="m126 420c-8.284 0-15 6.716-15 15v77h30v-77c0-8.284-6.716-15-15-15z" fill="#5b362a"/><path d="m211 320h90v192h-90z" fill="#f9f9f9"/><path d="m256 320h45v192h-45z" fill="#e2dff4"/><path d="m256 0c-90.981 0-165 74.019-165 165v50c0 90.981 74.019 165 165 165 13.532 0 38.373-9.008 46.969-21.34l9.586 11.354c63.211-23.134 108.445-83.89 108.445-155.014v-50c0-90.981-74.019-165-165-165z" fill="#e2dff4"/><path d="m302.969 358.66 9.586 11.354c63.211-23.134 108.445-83.89 108.445-155.014v-50c0-90.981-74.019-165-165-165v380c13.532 0 38.373-9.008 46.969-21.34z" fill="#bebcdd"/><path d="m256 290h-15l15 30c16.542 0 30 13.458 30 30s-13.458 30-30 30c19.858 0 38.907-3.528 56.555-9.986 2.223-6.264 3.445-12.998 3.445-20.014 0-33.084-26.916-60-60-60z" fill="#aaa5d3"/><path d="m360.512 154.901-.098.099-104.414-64-104.414 64-.095-.139c-.321 3.338-.491 6.719-.491 10.139v50c0 57.897 47.103 105 105 105s105-47.103 105-105v-50c0-3.407-.169-6.774-.488-10.099z" fill="#ffeee5"/><path d="m361 215v-50c0-3.407-.169-6.774-.488-10.099l-.098.099-104.414-64v229c57.897 0 105-47.103 105-105z" fill="#ffdecf"/><path d="m256 60c-54.477 0-99.391 41.703-104.509 94.861l.095.139h54.414c20.085 0 38.068-9.16 50-23.518 11.932 14.358 29.915 23.518 50 23.518h54.414l.099-.099c-5.099-53.177-50.023-94.901-104.513-94.901z" fill="#08475e"/><path d="m306 155h54.414l.099-.099c-5.099-53.177-50.023-94.901-104.513-94.901v71.482c11.932 14.358 29.915 23.518 50 23.518z" fill="#05303d"/></g></svg>
