<?xml version="1.0" standalone="no"?>
<!DOCTYPE svg PUBLIC "-//W3C//DTD SVG 1.1//EN" "http://www.w3.org/Graphics/SVG/1.1/DTD/svg11.dtd" >
<svg xmlns="http://www.w3.org/2000/svg" xmlns:xlink="http://www.w3.org/1999/xlink" version="1.1">
<metadata>
Created by FontForge 20170910 at Sun Sep  2 13:13:05 2012
 By Jimmy Wärting
Copyright (c) 2011-2012, Nikita Volchenkov &#60;nikitavolchenkov@gmail.com&#62;

Created with FontForge 2.0 (http://fontforge.sf.net)
</metadata>
<defs>
<font id="OpenGostTypeATT-Regular" horiz-adv-x="900" >
  <font-face 
    font-family="OpenGost Type A TT"
    font-weight="400"
    font-stretch="normal"
    units-per-em="2200"
    panose-1="2 0 5 3 0 0 0 0 0 0"
    ascent="1800"
    descent="-400"
    x-height="1000"
    cap-height="1400"
    bbox="-100 -400 4400 1800"
    underline-thickness="100"
    underline-position="-200"
    unicode-range="U+0020-E05F"
  />
<missing-glyph horiz-adv-x="804" 
d="M73 0v1466h585v-1466h-585zM146 73h439v1320h-439v-1320z" />
    <glyph glyph-name=".notdef" horiz-adv-x="804" 
d="M73 0v1466h585v-1466h-585zM146 73h439v1320h-439v-1320z" />
    <glyph glyph-name=".null" horiz-adv-x="0" 
 />
    <glyph glyph-name="nonmarkingreturn" horiz-adv-x="733" 
 />
    <glyph glyph-name="space" unicode=" " horiz-adv-x="600" 
 />
    <glyph glyph-name="exclam" unicode="!" horiz-adv-x="300" 
d="M200 50q0 -21 -14.5 -35.5t-35.5 -14.5t-35.5 14.5t-14.5 35.5t14.5 35.5t35.5 14.5t35.5 -14.5t14.5 -35.5zM150 1400q21 0 35.5 -14.5t14.5 -35.5v-1000q0 -21 -14.5 -35.5t-35.5 -14.5t-35.5 14.5t-14.5 35.5v1000q0 21 14.5 35.5t35.5 14.5z" />
    <glyph glyph-name="quotedbl" unicode="&#x22;" horiz-adv-x="450" 
d="M350 1400q21 0 35.5 -14.5t14.5 -35.5q0 -8 -1 -12l-50 -200q-4 -16 -18 -27t-31 -11q-21 0 -35.5 14.5t-14.5 35.5q0 8 1 12l50 200q4 16 18 27t31 11zM150 1400q21 0 35.5 -14.5t14.5 -35.5q0 -8 -1 -12l-50 -200q-4 -16 -18 -27t-31 -11q-21 0 -35.5 14.5t-14.5 35.5
q0 8 1 12l50 200q4 16 18 27t31 11z" />
    <glyph glyph-name="numbersign" unicode="#" 
d="M300 1400q21 0 35.5 -14.5t14.5 -35.5v-300h200v300q0 21 14.5 35.5t35.5 14.5t35.5 -14.5t14.5 -35.5v-300h100q21 0 35.5 -14.5t14.5 -35.5t-14.5 -35.5t-35.5 -14.5h-100v-500h100q21 0 35.5 -14.5t14.5 -35.5t-14.5 -35.5t-35.5 -14.5h-100v-300q0 -21 -14.5 -35.5
t-35.5 -14.5t-35.5 14.5t-14.5 35.5v300h-200v-300q0 -21 -14.5 -35.5t-35.5 -14.5t-35.5 14.5t-14.5 35.5v300h-100q-21 0 -35.5 14.5t-14.5 35.5t14.5 35.5t35.5 14.5h100v500h-100q-21 0 -35.5 14.5t-14.5 35.5t14.5 35.5t35.5 14.5h100v300q0 21 14.5 35.5t35.5 14.5z
M350 950v-500h200v500h-200z" />
    <glyph glyph-name="dollar" unicode="$" 
d="M450 1600q21 0 35.5 -14.5t14.5 -35.5v-122q175 -13 255 -93q15 -15 15 -35q0 -21 -14.5 -35.5t-35.5 -14.5q-20 0 -35 15q-49 49 -185 62v-582l233 -285q67 -83 67 -190q0 -132 -87 -213q-79 -73 -213 -85v-122q0 -21 -14.5 -35.5t-35.5 -14.5t-35.5 14.5t-14.5 35.5
v121q-199 7 -285 94q-15 15 -15 35q0 21 14.5 35.5t35.5 14.5q20 0 35 -15q57 -57 215 -64v638l-242 297q-58 72 -58 164q0 116 86 187q78 65 214 72v121q0 21 14.5 35.5t35.5 14.5zM400 1329q-101 -7 -151 -49q-49 -39 -49 -110q0 -55 36 -101l164 -201v461zM500 587v-515
q91 9 145 58q55 51 55 140q0 71 -45 126z" />
    <glyph glyph-name="percent" unicode="%" horiz-adv-x="1700" 
d="M400 1400q124 0 212 -88t88 -212t-88 -212t-212 -88t-212 88t-88 212t88 212t212 88zM400 1300q-83 0 -141.5 -58.5t-58.5 -141.5t58.5 -141.5t141.5 -58.5t141.5 58.5t58.5 141.5t-58.5 141.5t-141.5 58.5zM1300 600q124 0 212 -88t88 -212t-88 -212t-212 -88t-212 88
t-88 212t88 212t212 88zM1300 500q-83 0 -141.5 -58.5t-58.5 -141.5t58.5 -141.5t141.5 -58.5t141.5 58.5t58.5 141.5t-58.5 141.5t-141.5 58.5zM1250 1400q21 0 35.5 -14.5t14.5 -35.5q0 -14 -7 -26l-800 -1300q-15 -24 -43 -24q-21 0 -35.5 14.5t-14.5 35.5q0 14 7 26
l800 1300q15 24 43 24z" />
    <glyph glyph-name="ampersand" unicode="&#x26;" horiz-adv-x="1100" 
d="M425 1430q93 0 159 -66t66 -159q0 -61 -32 -115l-130 -218l323 -510l102 122q14 16 37 16q21 0 35.5 -14.5t14.5 -35.5q0 -19 -10 -30l-123 -146l125 -197q8 -13 8 -27q0 -21 -14.5 -35.5t-35.5 -14.5q-27 0 -42 23l-108 170l-82 -98q-49 -59 -118.5 -92t-149.5 -33
q-145 0 -247.5 102.5t-102.5 247.5q0 97 49 179l222 371l-136 214q-35 56 -35 121q0 93 66 159t159 66zM425 1330q-52 0 -88.5 -36.5t-36.5 -88.5q0 -37 19 -67l109 -172l104 175q18 31 18 64q0 52 -36.5 88.5t-88.5 36.5zM431 776l-196 -328q-35 -59 -35 -128
q0 -104 73 -177t177 -73q117 0 192 90l102 122z" />
    <glyph glyph-name="quotesingle" unicode="'" horiz-adv-x="250" 
d="M150 1400q21 0 35.5 -14.5t14.5 -35.5q0 -8 -1 -12l-50 -200q-4 -16 -18 -27t-31 -11q-21 0 -35.5 14.5t-14.5 35.5q0 8 1 12l50 200q4 16 18 27t31 11z" />
    <glyph glyph-name="parenleft" unicode="(" horiz-adv-x="400" 
d="M250 1500q21 0 35.5 -14.5t14.5 -35.5q0 -9 -2 -13q-98 -371 -98 -737q0 -371 98 -737q2 -8 2 -13q0 -21 -14.5 -35.5t-35.5 -14.5q-19 0 -32.5 13.5t-18.5 34.5q-99 402 -99 752q0 347 98 752q13 48 52 48z" />
    <glyph glyph-name="parenright" unicode=")" horiz-adv-x="400" 
d="M150 1500q39 0 52 -48q98 -405 98 -752t-98 -752q-13 -48 -52 -48q-20 0 -35 14.5t-15 35.5q0 5 2 13q98 366 98 737t-98 737q-2 8 -2 13q0 21 15 35.5t35 14.5z" />
    <glyph glyph-name="asterisk" unicode="*" 
d="M350 1400q31 0 45 -28l55 -110l55 110q14 28 45 28q21 0 35.5 -14.5t14.5 -35.5q0 -12 -5 -22l-64 -128h119q21 0 35.5 -14.5t14.5 -35.5t-14.5 -35.5t-35.5 -14.5h-119l64 -128q5 -10 5 -22q0 -21 -14.5 -35.5t-35.5 -14.5q-31 0 -45 28l-55 110l-55 -110
q-14 -28 -45 -28q-21 0 -35.5 14.5t-14.5 35.5q0 12 5 22l64 128h-119q-21 0 -35.5 14.5t-14.5 35.5t14.5 35.5t35.5 14.5h119l-64 128q-5 10 -5 22q0 21 14.5 35.5t35.5 14.5z" />
    <glyph glyph-name="plus" unicode="+" horiz-adv-x="700" 
d="M350 800q21 0 35.5 -14.5t14.5 -35.5v-200h200q21 0 35.5 -14.5t14.5 -35.5t-14.5 -35.5t-35.5 -14.5h-200v-200q0 -21 -14.5 -35.5t-35.5 -14.5t-35.5 14.5t-14.5 35.5v200h-200q-21 0 -35.5 14.5t-14.5 35.5t14.5 35.5t35.5 14.5h200v200q0 21 14.5 35.5t35.5 14.5z
" />
    <glyph glyph-name="comma" unicode="," horiz-adv-x="300" 
d="M150 100q21 0 35.5 -14.5t14.5 -35.5q0 -6 -1 -12l-50 -200q-5 -17 -18.5 -27.5t-30.5 -10.5q-21 0 -35.5 14.5t-14.5 35.5q0 6 1 12l50 200q5 17 18.5 27.5t30.5 10.5z" />
    <glyph glyph-name="hyphen" unicode="-" horiz-adv-x="700" 
d="M100 550h500q21 0 35.5 -14.5t14.5 -35.5t-14.5 -35.5t-35.5 -14.5h-500q-21 0 -35.5 14.5t-14.5 35.5t14.5 35.5t35.5 14.5z" />
    <glyph glyph-name="period" unicode="." horiz-adv-x="300" 
d="M200 50q0 -21 -14.5 -35.5t-35.5 -14.5t-35.5 14.5t-14.5 35.5t14.5 35.5t35.5 14.5t35.5 -14.5t14.5 -35.5z" />
    <glyph glyph-name="slash" unicode="/" horiz-adv-x="1100" 
d="M950 1700q21 0 35.5 -14.5t14.5 -35.5q0 -12 -4 -20l-800 -1800q-14 -30 -46 -30q-21 0 -35.5 14.5t-14.5 35.5q0 12 4 20l800 1800q14 30 46 30z" />
    <glyph glyph-name="zero" unicode="0" 
d="M450 1430q145 0 247.5 -102.5t102.5 -247.5v-760q0 -145 -102.5 -247.5t-247.5 -102.5t-247.5 102.5t-102.5 247.5v760q0 145 102.5 247.5t247.5 102.5zM450 1330q-104 0 -177 -73t-73 -177v-760q0 -104 73 -177t177 -73t177 73t73 177v760q0 104 -73 177t-177 73z" />
    <glyph glyph-name="one" unicode="1" horiz-adv-x="550" 
d="M400 1400q21 0 35.5 -14.5t14.5 -35.5v-1300q0 -21 -14.5 -35.5t-35.5 -14.5t-35.5 14.5t-14.5 35.5v1179l-215 -214q-15 -15 -35 -15q-21 0 -35.5 14.5t-14.5 35.5q0 20 15 35l300 300q15 15 35 15z" />
    <glyph glyph-name="two" unicode="2" 
d="M450 1430q145 0 247.5 -102.5t102.5 -247.5q0 -103 -55 -188l-504 -792h509q21 0 35.5 -14.5t14.5 -35.5t-14.5 -35.5t-35.5 -14.5h-600q-21 0 -35.5 14.5t-14.5 35.5q0 14 8 27l553 869q39 61 39 134q0 104 -73 177t-177 73q-89 0 -161 -55.5t-90 -134.5
q-4 -17 -17.5 -28.5t-31.5 -11.5q-21 0 -35.5 14.5t-14.5 35.5q0 7 1 11q27 116 126 192.5t223 76.5z" />
    <glyph glyph-name="three" unicode="3" horiz-adv-x="800" 
d="M150 1400h200q124 0 212 -88t88 -212v-100q0 -75 -34 -139.5t-93 -105.5q81 -46 129 -127t48 -178v-100q0 -145 -102.5 -247.5t-247.5 -102.5h-200q-21 0 -35.5 14.5t-14.5 35.5t14.5 35.5t35.5 14.5h200q104 0 177 73t73 177v100q0 104 -73 177t-177 73
q-21 0 -35.5 14.5t-14.5 35.5t14.5 35.5t35.5 14.5q82 0 141 59t59 141v100q0 82 -59 141t-141 59h-200q-21 0 -35.5 14.5t-14.5 35.5t14.5 35.5t35.5 14.5z" />
    <glyph glyph-name="four" unicode="4" 
d="M400 1400q21 0 35.5 -14.5t14.5 -35.5q0 -4 -2 -12l-234 -938h286v250q0 21 14.5 35.5t35.5 14.5t35.5 -14.5t14.5 -35.5v-250h150q21 0 35.5 -14.5t14.5 -35.5t-14.5 -35.5t-35.5 -14.5h-150v-250q0 -21 -14.5 -35.5t-35.5 -14.5t-35.5 14.5t-14.5 35.5v250h-350
q-21 0 -35.5 14.5t-14.5 35.5q0 8 1 12l250 1000q4 16 18 27t31 11z" />
    <glyph glyph-name="five" unicode="5" horiz-adv-x="800" 
d="M150 1400h500q21 0 35.5 -14.5t14.5 -35.5t-14.5 -35.5t-35.5 -14.5h-450v-500h150q145 0 247.5 -102.5t102.5 -247.5v-100q0 -145 -102.5 -247.5t-247.5 -102.5h-200q-21 0 -35.5 14.5t-14.5 35.5t14.5 35.5t35.5 14.5h200q104 0 177 73t73 177v100q0 104 -73 177
t-177 73h-200q-21 0 -35.5 14.5t-14.5 35.5v600q0 21 14.5 35.5t35.5 14.5z" />
    <glyph glyph-name="six" unicode="6" 
d="M550 1400q21 0 35.5 -14.5t14.5 -35.5q0 -27 -24 -42q-145 -91 -242.5 -226t-124.5 -282h241q145 0 247.5 -102.5t102.5 -247.5v-130q0 -145 -102.5 -247.5t-247.5 -102.5t-247.5 102.5t-102.5 247.5v380q0 200 115.5 386t308.5 306q13 8 26 8zM200 700v-380
q0 -104 73 -177t177 -73t177 73t73 177v130q0 104 -73 177t-177 73h-250z" />
    <glyph glyph-name="seven" unicode="7" horiz-adv-x="820" 
d="M100 1400h600q21 0 35.5 -14.5t14.5 -35.5q0 -8 -1 -12l-300 -1299q-4 -17 -17.5 -28t-31.5 -11q-21 0 -35.5 14.5t-14.5 35.5q0 7 1 11l286 1239h-487v-100q0 -21 -14.5 -35.5t-35.5 -14.5t-35.5 14.5t-14.5 35.5v150q0 21 14.5 35.5t35.5 14.5z" />
    <glyph glyph-name="eight" unicode="8" 
d="M450 1430q145 0 234 -92q96 -99 96 -273t-96 -273q-23 -23 -45 -38q45 -25 80 -60q111 -113 111 -309t-111 -309q-105 -106 -269 -106t-269 106q-111 113 -111 309t111 309q35 35 80 60q-22 15 -45 38q-96 99 -96 273t96 273q89 92 234 92zM450 1330q-102 0 -162 -62
q-68 -70 -68 -203t68 -203q60 -62 162 -62t162 62q68 70 68 203t-68 203q-60 62 -162 62zM450 700q-124 0 -198 -76q-82 -84 -82 -239t82 -239q74 -76 198 -76t198 76q82 84 82 239t-82 239q-74 76 -198 76z" />
    <glyph glyph-name="nine" unicode="9" 
d="M350 0q-21 0 -35.5 14.5t-14.5 35.5q0 27 24 42q145 91 242.5 226t124.5 282h-241q-145 0 -247.5 102.5t-102.5 247.5v130q0 145 102.5 247.5t247.5 102.5t247.5 -102.5t102.5 -247.5v-380q0 -200 -115.5 -386t-308.5 -306q-13 -8 -26 -8zM700 700v380q0 104 -73 177
t-177 73t-177 -73t-73 -177v-130q0 -104 73 -177t177 -73h250z" />
    <glyph glyph-name="colon" unicode=":" horiz-adv-x="300" 
d="M200 50q0 -21 -14.5 -35.5t-35.5 -14.5t-35.5 14.5t-14.5 35.5t14.5 35.5t35.5 14.5t35.5 -14.5t14.5 -35.5zM200 650q0 -21 -14.5 -35.5t-35.5 -14.5t-35.5 14.5t-14.5 35.5t14.5 35.5t35.5 14.5t35.5 -14.5t14.5 -35.5z" />
    <glyph glyph-name="semicolon" unicode=";" horiz-adv-x="300" 
d="M150 100q21 0 35.5 -14.5t14.5 -35.5q0 -6 -1 -12l-50 -200q-5 -17 -18.5 -27.5t-30.5 -10.5q-21 0 -35.5 14.5t-14.5 35.5q0 6 1 12l50 200q5 17 18.5 27.5t30.5 10.5zM200 650q0 -21 -14.5 -35.5t-35.5 -14.5t-35.5 14.5t-14.5 35.5t14.5 35.5t35.5 14.5t35.5 -14.5
t14.5 -35.5z" />
    <glyph glyph-name="less" unicode="&#x3c;" horiz-adv-x="800" 
d="M650 800q21 0 35.5 -14.5t14.5 -35.5q0 -31 -28 -45l-410 -205l410 -205q28 -14 28 -45q0 -21 -14.5 -35.5t-35.5 -14.5q-12 0 -24 6l-498 249q-28 14 -28 45t28 45l498 249q12 6 24 6z" />
    <glyph glyph-name="equal" unicode="=" horiz-adv-x="700" 
d="M100 400h500q21 0 35.5 -14.5t14.5 -35.5t-14.5 -35.5t-35.5 -14.5h-500q-21 0 -35.5 14.5t-14.5 35.5t14.5 35.5t35.5 14.5zM100 700h500q21 0 35.5 -14.5t14.5 -35.5t-14.5 -35.5t-35.5 -14.5h-500q-21 0 -35.5 14.5t-14.5 35.5t14.5 35.5t35.5 14.5z" />
    <glyph glyph-name="greater" unicode="&#x3e;" horiz-adv-x="800" 
d="M150 800q12 0 24 -6l498 -249q28 -14 28 -45t-28 -45l-498 -249q-12 -6 -24 -6q-21 0 -35.5 14.5t-14.5 35.5q0 31 28 45l410 205l-410 205q-28 14 -28 45q0 21 14.5 35.5t35.5 14.5z" />
    <glyph glyph-name="question" unicode="?" horiz-adv-x="800" 
d="M450 50q0 -21 -14.5 -35.5t-35.5 -14.5t-35.5 14.5t-14.5 35.5t14.5 35.5t35.5 14.5t35.5 -14.5t14.5 -35.5zM400 1430q124 0 212 -88t88 -212q0 -110 -70 -193l-133 -159q-47 -57 -47 -128v-300q0 -21 -14.5 -35.5t-35.5 -14.5t-35.5 14.5t-14.5 35.5v300q0 110 70 193
l133 159q47 57 47 128q0 82 -59 141t-141 59q-62 0 -123.5 -30.5t-81.5 -71.5q-14 -28 -45 -28q-21 0 -35.5 14.5t-14.5 35.5q0 10 5 22q38 76 120 117t175 41z" />
    <glyph glyph-name="at" unicode="@" horiz-adv-x="1600" 
d="M800 1430q143 0 272.5 -55.5t223 -149t149 -223t55.5 -272.5v-380q0 -145 -102.5 -247.5t-247.5 -102.5q-41 0 -75.5 20.5t-54.5 55.5q-89 -96 -220 -96q-124 0 -212 88t-88 212v470q0 104 73 177t177 73h300q21 0 35.5 -14.5t14.5 -35.5v-800q0 -21 14.5 -35.5
t35.5 -14.5q104 0 177 73t73 177v380q0 163 -80.5 301t-218.5 218.5t-301 80.5t-301 -80.5t-218.5 -218.5t-80.5 -301v-430q0 -163 80.5 -301t218.5 -218.5t301 -80.5q21 0 35.5 -14.5t14.5 -35.5t-14.5 -35.5t-35.5 -14.5q-143 0 -272.5 55.5t-223 149t-149 223
t-55.5 272.5v430q0 143 55.5 272.5t149 223t223 149t272.5 55.5zM750 900q-62 0 -106 -44t-44 -106v-470q0 -82 59 -141t141 -59t141 59t59 141v620h-250z" />
    <glyph glyph-name="A" unicode="A" 
d="M450 1400q17 0 30.5 -10.5t18.5 -27.5l349 -1299q2 -8 2 -13q0 -21 -14.5 -35.5t-35.5 -14.5q-17 0 -30 10.5t-18 26.5l-98 363h-408l-98 -363q-5 -16 -18 -26.5t-30 -10.5q-21 0 -35.5 14.5t-14.5 35.5q0 5 2 13l350 1300q5 16 18 26.5t30 10.5zM450 1158l-177 -658h354
z" />
    <glyph glyph-name="B" unicode="B" horiz-adv-x="870" 
d="M150 1400h250q145 0 247.5 -102.5t102.5 -247.5q0 -92 -44 -170.5t-119 -125.5q97 -51 155 -145.5t58 -208.5q0 -166 -117 -283t-283 -117h-250q-21 0 -35.5 14.5t-14.5 35.5v1300q0 21 14.5 35.5t35.5 14.5zM200 1300v-500h200q104 0 177 73t73 177t-73 177t-177 73
h-200zM200 700v-600h200q124 0 212 88t88 212t-88 212t-212 88h-200z" />
    <glyph glyph-name="C" unicode="C" horiz-adv-x="760" 
d="M440 1400h200q21 0 35.5 -14.5t14.5 -35.5t-14.5 -35.5t-35.5 -14.5h-200q-104 0 -177 -73t-73 -177v-700q0 -104 73 -177t177 -73h200q21 0 35.5 -14.5t14.5 -35.5t-14.5 -35.5t-35.5 -14.5h-200q-145 0 -247.5 102.5t-102.5 247.5v700q0 145 102.5 247.5t247.5 102.5z
" />
    <glyph glyph-name="D" unicode="D" horiz-adv-x="890" 
d="M150 1400h300q145 0 247.5 -102.5t102.5 -247.5v-700q0 -145 -102.5 -247.5t-247.5 -102.5h-300q-21 0 -35.5 14.5t-14.5 35.5v1300q0 21 14.5 35.5t35.5 14.5zM200 1300v-1200h250q104 0 177 73t73 177v700q0 104 -73 177t-177 73h-250z" />
    <glyph glyph-name="E" unicode="E" horiz-adv-x="780" 
d="M150 1400h500q21 0 35.5 -14.5t14.5 -35.5t-14.5 -35.5t-35.5 -14.5h-450v-500h250q21 0 35.5 -14.5t14.5 -35.5t-14.5 -35.5t-35.5 -14.5h-250v-600h450q21 0 35.5 -14.5t14.5 -35.5t-14.5 -35.5t-35.5 -14.5h-500q-21 0 -35.5 14.5t-14.5 35.5v1300q0 21 14.5 35.5
t35.5 14.5z" />
    <glyph glyph-name="F" unicode="F" horiz-adv-x="780" 
d="M150 1400h500q21 0 35.5 -14.5t14.5 -35.5t-14.5 -35.5t-35.5 -14.5h-450v-500h450q21 0 35.5 -14.5t14.5 -35.5t-14.5 -35.5t-35.5 -14.5h-450v-650q0 -21 -14.5 -35.5t-35.5 -14.5t-35.5 14.5t-14.5 35.5v1300q0 21 14.5 35.5t35.5 14.5z" />
    <glyph glyph-name="G" unicode="G" horiz-adv-x="890" 
d="M440 1400h300q21 0 35.5 -14.5t14.5 -35.5t-14.5 -35.5t-35.5 -14.5h-300q-104 0 -177 -73t-73 -177v-700q0 -104 73 -177t177 -73h250v600h-150q-21 0 -35.5 14.5t-14.5 35.5t14.5 35.5t35.5 14.5h200q21 0 35.5 -14.5t14.5 -35.5v-700q0 -21 -14.5 -35.5t-35.5 -14.5
h-300q-145 0 -247.5 102.5t-102.5 247.5v700q0 145 102.5 247.5t247.5 102.5z" />
    <glyph glyph-name="H" unicode="H" 
d="M150 1400q21 0 35.5 -14.5t14.5 -35.5v-550h500v550q0 21 14.5 35.5t35.5 14.5t35.5 -14.5t14.5 -35.5v-1300q0 -21 -14.5 -35.5t-35.5 -14.5t-35.5 14.5t-14.5 35.5v650h-500v-650q0 -21 -14.5 -35.5t-35.5 -14.5t-35.5 14.5t-14.5 35.5v1300q0 21 14.5 35.5t35.5 14.5z
" />
    <glyph glyph-name="I" unicode="I" horiz-adv-x="300" 
d="M150 1400q21 0 35.5 -14.5t14.5 -35.5v-1300q0 -21 -14.5 -35.5t-35.5 -14.5t-35.5 14.5t-14.5 35.5v1300q0 21 14.5 35.5t35.5 14.5z" />
    <glyph glyph-name="J" unicode="J" horiz-adv-x="640" 
d="M500 1400q21 0 35.5 -14.5t14.5 -35.5v-1000q0 -145 -102.5 -247.5t-247.5 -102.5h-100q-21 0 -35.5 14.5t-14.5 35.5t14.5 35.5t35.5 14.5h100q104 0 177 73t73 177v1000q0 21 14.5 35.5t35.5 14.5z" />
    <glyph glyph-name="K" unicode="K" horiz-adv-x="880" 
d="M150 1400q21 0 35.5 -14.5t14.5 -35.5v-650l510 680q15 20 40 20q21 0 35.5 -14.5t14.5 -35.5q0 -17 -10 -30l-386 -515l390 -731q6 -10 6 -24q0 -21 -14.5 -35.5t-35.5 -14.5q-31 0 -44 26l-368 691l-138 -184v-483q0 -21 -14.5 -35.5t-35.5 -14.5t-35.5 14.5
t-14.5 35.5v1300q0 21 14.5 35.5t35.5 14.5z" />
    <glyph glyph-name="L" unicode="L" horiz-adv-x="650" 
d="M150 1400q21 0 35.5 -14.5t14.5 -35.5v-1250h350q21 0 35.5 -14.5t14.5 -35.5t-14.5 -35.5t-35.5 -14.5h-400q-21 0 -35.5 14.5t-14.5 35.5v1300q0 21 14.5 35.5t35.5 14.5z" />
    <glyph glyph-name="M" unicode="M" horiz-adv-x="1100" 
d="M150 1400q29 0 43 -25l357 -624l357 624q14 25 43 25q21 0 35.5 -14.5t14.5 -35.5v-1300q0 -21 -14.5 -35.5t-35.5 -14.5t-35.5 14.5t-14.5 35.5v1112l-307 -537q-14 -25 -43 -25t-44 26l-306 536v-1112q0 -21 -14.5 -35.5t-35.5 -14.5t-35.5 14.5t-14.5 35.5v1300
q0 21 14.5 35.5t35.5 14.5z" />
    <glyph glyph-name="N" unicode="N" 
d="M150 1400q32 0 45 -29l505 -1093v1072q0 21 14.5 35.5t35.5 14.5t35.5 -14.5t14.5 -35.5v-1300q0 -21 -14.5 -35.5t-35.5 -14.5q-32 0 -45 29l-505 1093v-1072q0 -21 -14.5 -35.5t-35.5 -14.5t-35.5 14.5t-14.5 35.5v1300q0 21 14.5 35.5t35.5 14.5z" />
    <glyph glyph-name="O" unicode="O" horiz-adv-x="880" 
d="M440 1430q145 0 247.5 -102.5t102.5 -247.5v-760q0 -145 -102.5 -247.5t-247.5 -102.5t-247.5 102.5t-102.5 247.5v760q0 145 102.5 247.5t247.5 102.5zM440 1330q-104 0 -177 -73t-73 -177v-760q0 -104 73 -177t177 -73t177 73t73 177v760q0 104 -73 177t-177 73z" />
    <glyph glyph-name="P" unicode="P" horiz-adv-x="870" 
d="M150 1400h250q166 0 283 -117t117 -283t-117 -283t-283 -117h-200v-550q0 -21 -14.5 -35.5t-35.5 -14.5t-35.5 14.5t-14.5 35.5v1300q0 21 14.5 35.5t35.5 14.5zM200 1300v-600h200q124 0 212 88t88 212t-88 212t-212 88h-200z" />
    <glyph glyph-name="Q" unicode="Q" horiz-adv-x="890" 
d="M440 1430q145 0 247.5 -102.5t102.5 -247.5v-760q0 -76 -32 -146l112 -84q20 -15 20 -40q0 -21 -14.5 -35.5t-35.5 -14.5q-17 0 -30 10l-106 80q-49 -56 -118 -88t-146 -32q-145 0 -247.5 102.5t-102.5 247.5v760q0 145 102.5 247.5t247.5 102.5zM440 1330
q-104 0 -177 -73t-73 -177v-760q0 -104 73 -177t177 -73q108 0 183 80l-213 160q-20 15 -20 40q0 21 14.5 35.5t35.5 14.5q17 0 30 -10l206 -154q14 40 14 84v760q0 104 -73 177t-177 73z" />
    <glyph glyph-name="R" unicode="R" horiz-adv-x="880" 
d="M150 1400h250q166 0 283 -117t117 -283q0 -144 -90 -253.5t-228 -138.5l311 -533q7 -12 7 -25q0 -21 -14.5 -35.5t-35.5 -14.5q-28 0 -43 25l-336 575h-171v-550q0 -21 -14.5 -35.5t-35.5 -14.5t-35.5 14.5t-14.5 35.5v1300q0 21 14.5 35.5t35.5 14.5zM200 1300v-600h200
q124 0 212 88t88 212t-88 212t-212 88h-200z" />
    <glyph glyph-name="S" unicode="S" horiz-adv-x="850" 
d="M415 1430q226 0 320 -95q15 -15 15 -35q0 -21 -14.5 -35.5t-35.5 -14.5q-20 0 -35 15q-28 28 -93.5 46.5t-156.5 18.5q-123 0 -186 -50q-49 -39 -49 -110q0 -55 36 -101l497 -609q67 -83 67 -190q0 -132 -87 -213q-93 -87 -263 -87q-119 0 -200.5 20.5t-134.5 74.5
q-15 15 -15 35q0 21 14.5 35.5t35.5 14.5q20 0 35 -15q65 -65 265 -65q130 0 195 60q55 51 55 140q0 71 -45 126l-497 610q-58 72 -58 164q0 116 86 187q88 73 249 73z" />
    <glyph glyph-name="T" unicode="T" horiz-adv-x="840" 
d="M120 1400h600q21 0 35.5 -14.5t14.5 -35.5t-14.5 -35.5t-35.5 -14.5h-250v-1250q0 -21 -14.5 -35.5t-35.5 -14.5t-35.5 14.5t-14.5 35.5v1250h-250q-21 0 -35.5 14.5t-14.5 35.5t14.5 35.5t35.5 14.5z" />
    <glyph glyph-name="U" unicode="U" 
d="M150 1400q21 0 35.5 -14.5t14.5 -35.5v-1030q0 -104 73 -177t177 -73t177 73t73 177v1030q0 21 14.5 35.5t35.5 14.5t35.5 -14.5t14.5 -35.5v-1030q0 -145 -102.5 -247.5t-247.5 -102.5t-247.5 102.5t-102.5 247.5v1030q0 21 14.5 35.5t35.5 14.5z" />
    <glyph glyph-name="V" unicode="V" 
d="M100 1400q17 0 30 -10.5t18 -26.5l302 -1121l301 1120q5 17 18.5 27.5t30.5 10.5q21 0 35.5 -14.5t14.5 -35.5q0 -5 -2 -13l-349 -1299q-5 -17 -18.5 -27.5t-30.5 -10.5t-30.5 10.5t-18.5 27.5l-349 1299q-2 8 -2 13q0 21 14.5 35.5t35.5 14.5z" />
    <glyph glyph-name="W" unicode="W" horiz-adv-x="1320" 
d="M110 1400q18 0 32 -12t17 -29l214 -1112l240 719q12 34 47 34q16 0 29.5 -10t18.5 -25l239 -718l214 1112q3 17 17 29t32 12q21 0 35.5 -14.5t14.5 -35.5q0 -6 -1 -9l-250 -1300q-3 -17 -17 -29t-32 -12q-16 0 -29.5 10t-18.5 25l-252 757l-252 -757q-5 -15 -18.5 -25
t-29.5 -10q-18 0 -32 12t-17 29l-250 1300q-1 3 -1 9q0 21 14.5 35.5t35.5 14.5z" />
    <glyph glyph-name="X" unicode="X" horiz-adv-x="960" 
d="M130 1400q31 0 44 -26l306 -568l306 568q13 26 44 26q21 0 35.5 -14.5t14.5 -35.5q0 -14 -6 -24l-337 -626l337 -626q6 -10 6 -24q0 -21 -14.5 -35.5t-35.5 -14.5q-31 0 -44 26l-306 568l-306 -568q-13 -26 -44 -26q-21 0 -35.5 14.5t-14.5 35.5q0 14 6 24l337 626
l-337 626q-6 10 -6 24q0 21 14.5 35.5t35.5 14.5z" />
    <glyph glyph-name="Y" unicode="Y" 
d="M100 1400q31 0 44 -26l306 -568l306 568q13 26 44 26q21 0 35.5 -14.5t14.5 -35.5q0 -14 -6 -24l-344 -639v-637q0 -21 -14.5 -35.5t-35.5 -14.5t-35.5 14.5t-14.5 35.5v637l-344 639q-6 10 -6 24q0 21 14.5 35.5t35.5 14.5z" />
    <glyph glyph-name="Z" unicode="Z" horiz-adv-x="840" 
d="M120 1400h600q21 0 35.5 -14.5t14.5 -35.5q0 -11 -5 -21l-567 -1229h522q21 0 35.5 -14.5t14.5 -35.5t-14.5 -35.5t-35.5 -14.5h-600q-21 0 -35.5 14.5t-14.5 35.5q0 11 5 21l567 1229h-522q-21 0 -35.5 14.5t-14.5 35.5t14.5 35.5t35.5 14.5z" />
    <glyph glyph-name="bracketleft" unicode="[" horiz-adv-x="400" 
d="M150 1500h100q21 0 35.5 -14.5t14.5 -35.5t-14.5 -35.5t-35.5 -14.5h-50v-1400h50q21 0 35.5 -14.5t14.5 -35.5t-14.5 -35.5t-35.5 -14.5h-100q-21 0 -35.5 14.5t-14.5 35.5v1500q0 21 14.5 35.5t35.5 14.5z" />
    <glyph glyph-name="backslash" unicode="\" horiz-adv-x="1100" 
d="M150 1700q32 0 46 -30l800 -1800q4 -8 4 -20q0 -21 -14.5 -35.5t-35.5 -14.5q-32 0 -46 30l-800 1800q-4 8 -4 20q0 21 14.5 35.5t35.5 14.5z" />
    <glyph glyph-name="bracketright" unicode="]" horiz-adv-x="400" 
d="M250 1500q21 0 35.5 -14.5t14.5 -35.5v-1500q0 -21 -14.5 -35.5t-35.5 -14.5h-100q-21 0 -35.5 14.5t-14.5 35.5t14.5 35.5t35.5 14.5h50v1400h-50q-21 0 -35.5 14.5t-14.5 35.5t14.5 35.5t35.5 14.5h100z" />
    <glyph glyph-name="asciicircum" unicode="^" horiz-adv-x="600" 
d="M300 1600q21 0 35 -15l200 -200q15 -14 15 -35t-14.5 -35.5t-35.5 -14.5t-35 15l-165 164l-165 -164q-14 -15 -35 -15t-35.5 14.5t-14.5 35.5t15 35l200 200q14 15 35 15z" />
    <glyph glyph-name="underscore" unicode="_" horiz-adv-x="800" 
d="M50 -100h700q21 0 35.5 -14.5t14.5 -35.5t-14.5 -35.5t-35.5 -14.5h-700q-21 0 -35.5 14.5t-14.5 35.5t14.5 35.5t35.5 14.5z" />
    <glyph glyph-name="grave" unicode="`" horiz-adv-x="300" 
d="M150 1400q31 0 45 -28l50 -100q5 -12 5 -22q0 -21 -14.5 -35.5t-35.5 -14.5q-31 0 -45 28l-50 100q-5 12 -5 22q0 21 14.5 35.5t35.5 14.5z" />
    <glyph glyph-name="a" unicode="a" horiz-adv-x="820" 
d="M340 1000h300q21 0 35.5 -14.5t14.5 -35.5v-800q0 -21 14.5 -35.5t35.5 -14.5t35.5 -14.5t14.5 -35.5t-14.5 -35.5t-35.5 -14.5q-41 0 -75.5 20.5t-54.5 55.5q-89 -96 -220 -96q-124 0 -212 88t-88 212v470q0 104 73 177t177 73zM340 900q-62 0 -106 -44t-44 -106v-470
q0 -82 59 -141t141 -59t141 59t59 141v620h-250z" />
    <glyph glyph-name="b" unicode="b" horiz-adv-x="790" 
d="M150 1400q21 0 35.5 -14.5t14.5 -35.5v-350h250q104 0 177 -73t73 -177v-500q0 -104 -73 -177t-177 -73h-300q-21 0 -35.5 14.5t-14.5 35.5v1300q0 21 14.5 35.5t35.5 14.5zM200 900v-800h250q62 0 106 44t44 106v500q0 62 -44 106t-106 44h-250z" />
    <glyph glyph-name="c" unicode="c" horiz-adv-x="670" 
d="M340 1000h200q21 0 35.5 -14.5t14.5 -35.5t-14.5 -35.5t-35.5 -14.5h-200q-62 0 -106 -44t-44 -106v-500q0 -62 44 -106t106 -44h200q21 0 35.5 -14.5t14.5 -35.5t-14.5 -35.5t-35.5 -14.5h-200q-104 0 -177 73t-73 177v500q0 104 73 177t177 73z" />
    <glyph glyph-name="d" unicode="d" horiz-adv-x="790" 
d="M640 1400q21 0 35.5 -14.5t14.5 -35.5v-1300q0 -21 -14.5 -35.5t-35.5 -14.5h-300q-104 0 -177 73t-73 177v500q0 104 73 177t177 73h250v350q0 21 14.5 35.5t35.5 14.5zM590 900h-250q-62 0 -106 -44t-44 -106v-500q0 -62 44 -106t106 -44h250v800z" />
    <glyph glyph-name="e" unicode="e" horiz-adv-x="780" 
d="M390 1020q124 0 212 -88t88 -212v-220q0 -21 -14.5 -35.5t-35.5 -14.5h-450v-200q0 -62 44 -106t106 -44h300q21 0 35.5 -14.5t14.5 -35.5t-14.5 -35.5t-35.5 -14.5h-300q-104 0 -177 73t-73 177v470q0 124 88 212t212 88zM390 920q-82 0 -141 -59t-59 -141v-170h400v170
q0 82 -59 141t-141 59z" />
    <glyph glyph-name="f" unicode="f" horiz-adv-x="500" 
d="M350 1400h50q21 0 35.5 -14.5t14.5 -35.5t-14.5 -35.5t-35.5 -14.5h-50q-41 0 -70.5 -29.5t-29.5 -70.5v-200h150q21 0 35.5 -14.5t14.5 -35.5t-14.5 -35.5t-35.5 -14.5h-150v-850q0 -21 -14.5 -35.5t-35.5 -14.5t-35.5 14.5t-14.5 35.5v850h-50q-21 0 -35.5 14.5
t-14.5 35.5t14.5 35.5t35.5 14.5h50v200q0 82 59 141t141 59z" />
    <glyph glyph-name="g" unicode="g" horiz-adv-x="790" 
d="M340 1000h300q21 0 35.5 -14.5t14.5 -35.5v-1100q0 -104 -73 -177t-177 -73h-300q-21 0 -35.5 14.5t-14.5 35.5t14.5 35.5t35.5 14.5h300q62 0 106 44t44 106v150h-250q-104 0 -177 73t-73 177v500q0 104 73 177t177 73zM340 900q-62 0 -106 -44t-44 -106v-500
q0 -62 44 -106t106 -44h250v800h-250z" />
    <glyph glyph-name="h" unicode="h" horiz-adv-x="800" 
d="M150 1400q21 0 35.5 -14.5t14.5 -35.5v-350h250q104 0 177 -73t73 -177v-700q0 -21 -14.5 -35.5t-35.5 -14.5t-35.5 14.5t-14.5 35.5v700q0 62 -44 106t-106 44h-250v-850q0 -21 -14.5 -35.5t-35.5 -14.5t-35.5 14.5t-14.5 35.5v1300q0 21 14.5 35.5t35.5 14.5z" />
    <glyph glyph-name="i" unicode="i" horiz-adv-x="300" 
d="M150 1000q21 0 35.5 -14.5t14.5 -35.5v-900q0 -21 -14.5 -35.5t-35.5 -14.5t-35.5 14.5t-14.5 35.5v900q0 21 14.5 35.5t35.5 14.5zM200 1350q0 -21 -14.5 -35.5t-35.5 -14.5t-35.5 14.5t-14.5 35.5t14.5 35.5t35.5 14.5t35.5 -14.5t14.5 -35.5z" />
    <glyph glyph-name="j" unicode="j" horiz-adv-x="300" 
d="M150 1000q21 0 35.5 -14.5t14.5 -35.5v-1100q0 -104 -73 -177t-177 -73q-21 0 -35.5 14.5t-14.5 35.5t14.5 35.5t35.5 14.5q62 0 106 44t44 106v1100q0 21 14.5 35.5t35.5 14.5zM200 1350q0 -21 -14.5 -35.5t-35.5 -14.5t-35.5 14.5t-14.5 35.5t14.5 35.5t35.5 14.5
t35.5 -14.5t14.5 -35.5z" />
    <glyph glyph-name="k" unicode="k" horiz-adv-x="770" 
d="M150 1400q21 0 35.5 -14.5t14.5 -35.5v-779l415 414q15 15 35 15q21 0 35.5 -14.5t14.5 -35.5q0 -20 -15 -35l-321 -322l328 -516q8 -13 8 -27q0 -21 -14.5 -35.5t-35.5 -14.5q-28 0 -43 24l-316 497l-91 -92v-379q0 -21 -14.5 -35.5t-35.5 -14.5t-35.5 14.5t-14.5 35.5
v1300q0 21 14.5 35.5t35.5 14.5z" />
    <glyph glyph-name="l" unicode="l" horiz-adv-x="440" 
d="M140 1400q21 0 35.5 -14.5t14.5 -35.5v-1100q0 -62 44 -106t106 -44q21 0 35.5 -14.5t14.5 -35.5t-14.5 -35.5t-35.5 -14.5q-104 0 -177 73t-73 177v1100q0 21 14.5 35.5t35.5 14.5z" />
    <glyph glyph-name="m" unicode="m" horiz-adv-x="1100" 
d="M150 1000h600q104 0 177 -73t73 -177v-700q0 -21 -14.5 -35.5t-35.5 -14.5t-35.5 14.5t-14.5 35.5v700q0 62 -44 106t-106 44h-150v-850q0 -21 -14.5 -35.5t-35.5 -14.5t-35.5 14.5t-14.5 35.5v850h-300v-850q0 -21 -14.5 -35.5t-35.5 -14.5t-35.5 14.5t-14.5 35.5v900
q0 21 14.5 35.5t35.5 14.5z" />
    <glyph glyph-name="n" unicode="n" horiz-adv-x="800" 
d="M150 1000h300q104 0 177 -73t73 -177v-700q0 -21 -14.5 -35.5t-35.5 -14.5t-35.5 14.5t-14.5 35.5v700q0 62 -44 106t-106 44h-250v-850q0 -21 -14.5 -35.5t-35.5 -14.5t-35.5 14.5t-14.5 35.5v900q0 21 14.5 35.5t35.5 14.5z" />
    <glyph glyph-name="o" unicode="o" horiz-adv-x="780" 
d="M390 1020q124 0 212 -88t88 -212v-440q0 -124 -88 -212t-212 -88t-212 88t-88 212v440q0 124 88 212t212 88zM390 920q-82 0 -141 -59t-59 -141v-440q0 -82 59 -141t141 -59t141 59t59 141v440q0 82 -59 141t-141 59z" />
    <glyph glyph-name="p" unicode="p" horiz-adv-x="790" 
d="M150 -400q-21 0 -35.5 14.5t-14.5 35.5v1300q0 21 14.5 35.5t35.5 14.5h300q104 0 177 -73t73 -177v-500q0 -104 -73 -177t-177 -73h-250v-350q0 -21 -14.5 -35.5t-35.5 -14.5zM200 100h250q62 0 106 44t44 106v500q0 62 -44 106t-106 44h-250v-800z" />
    <glyph glyph-name="q" unicode="q" horiz-adv-x="790" 
d="M640 -400q-21 0 -35.5 14.5t-14.5 35.5v350h-250q-104 0 -177 73t-73 177v500q0 104 73 177t177 73h300q21 0 35.5 -14.5t14.5 -35.5v-1300q0 -21 -14.5 -35.5t-35.5 -14.5zM590 100v800h-250q-62 0 -106 -44t-44 -106v-500q0 -62 44 -106t106 -44h250z" />
    <glyph glyph-name="r" unicode="r" horiz-adv-x="650" 
d="M150 1000h250q82 0 141 -59t59 -141q0 -21 -14.5 -35.5t-35.5 -14.5t-35.5 14.5t-14.5 35.5q0 41 -29.5 70.5t-70.5 29.5h-200v-850q0 -21 -14.5 -35.5t-35.5 -14.5t-35.5 14.5t-14.5 35.5v900q0 21 14.5 35.5t35.5 14.5z" />
    <glyph glyph-name="s" unicode="s" horiz-adv-x="750" 
d="M370 1020q191 0 275 -85q15 -15 15 -35q0 -21 -14.5 -35.5t-35.5 -14.5q-20 0 -35 15q-29 29 -75 42t-130 13q-103 0 -153 -39q-37 -29 -37 -81q0 -59 46 -95l358 -278q96 -75 96 -197q0 -111 -74 -178q-80 -72 -226 -72q-201 0 -285 85q-15 15 -15 35q0 21 14.5 35.5
t35.5 14.5q20 0 35 -15q55 -55 215 -55q109 0 159 46q41 38 41 104q0 73 -58 118l-357 278q-85 65 -85 174q0 101 75 160q77 60 215 60z" />
    <glyph glyph-name="t" unicode="t" horiz-adv-x="500" 
d="M200 1400q21 0 35.5 -14.5t14.5 -35.5v-350h150q21 0 35.5 -14.5t14.5 -35.5t-14.5 -35.5t-35.5 -14.5h-150v-850q0 -21 -14.5 -35.5t-35.5 -14.5t-35.5 14.5t-14.5 35.5v850h-50q-21 0 -35.5 14.5t-14.5 35.5t14.5 35.5t35.5 14.5h50v350q0 21 14.5 35.5t35.5 14.5z" />
    <glyph glyph-name="u" unicode="u" horiz-adv-x="800" 
d="M650 0h-300q-104 0 -177 73t-73 177v700q0 21 14.5 35.5t35.5 14.5t35.5 -14.5t14.5 -35.5v-700q0 -62 44 -106t106 -44h250v850q0 21 14.5 35.5t35.5 14.5t35.5 -14.5t14.5 -35.5v-900q0 -21 -14.5 -35.5t-35.5 -14.5z" />
    <glyph glyph-name="v" unicode="v" horiz-adv-x="740" 
d="M120 1000q17 0 30 -10.5t18 -26.5l202 -726l202 726q5 16 18 26.5t30 10.5q21 0 35.5 -14.5t14.5 -35.5q0 -5 -2 -13l-250 -900q-5 -16 -18 -26.5t-30 -10.5t-30 10.5t-18 26.5l-250 900q-2 8 -2 13q0 21 14.5 35.5t35.5 14.5z" />
    <glyph glyph-name="w" unicode="w" horiz-adv-x="1160" 
d="M130 1000q18 0 31.5 -11t17.5 -28l162 -731l192 537q12 33 47 33t47 -33l192 -537l162 731q4 17 17.5 28t31.5 11q21 0 35.5 -14.5t14.5 -35.5q0 -8 -1 -11l-200 -899q-4 -17 -17.5 -28.5t-31.5 -11.5q-35 0 -47 33l-203 568l-203 -568q-12 -33 -47 -33q-18 0 -31.5 11.5
t-17.5 28.5l-200 899q-1 3 -1 11q0 21 14.5 35.5t35.5 14.5z" />
    <glyph glyph-name="x" unicode="x" horiz-adv-x="760" 
d="M130 1000q28 0 44 -26l206 -371l206 371q16 26 44 26q21 0 35.5 -14.5t14.5 -35.5q0 -14 -6 -24l-237 -426l237 -426q6 -10 6 -24q0 -21 -14.5 -35.5t-35.5 -14.5q-28 0 -44 26l-206 371l-206 -371q-16 -26 -44 -26q-21 0 -35.5 14.5t-14.5 35.5q0 14 6 24l237 426
l-237 426q-6 10 -6 24q0 21 14.5 35.5t35.5 14.5z" />
    <glyph glyph-name="y" unicode="y" horiz-adv-x="750" 
d="M130 1000q17 0 30 -11t18 -27l202 -725l202 726q5 16 18 26.5t30 10.5q21 0 35.5 -14.5t14.5 -35.5q0 -5 -2 -13l-316 -1137q-32 -113 -86.5 -156.5t-145.5 -43.5q-21 0 -35.5 14.5t-14.5 35.5t14.5 35.5t35.5 14.5q39 0 77.5 27t51.5 73l69 250l-246 887q-2 8 -2 13
q0 21 14.5 35.5t35.5 14.5z" />
    <glyph glyph-name="z" unicode="z" horiz-adv-x="760" 
d="M130 1000h500q21 0 35.5 -14.5t14.5 -35.5q0 -14 -6 -24l-459 -826h415q21 0 35.5 -14.5t14.5 -35.5t-14.5 -35.5t-35.5 -14.5h-500q-21 0 -35.5 14.5t-14.5 35.5q0 14 6 24l459 826h-415q-21 0 -35.5 14.5t-14.5 35.5t14.5 35.5t35.5 14.5z" />
    <glyph glyph-name="braceleft" unicode="{" horiz-adv-x="500" 
d="M350 1500q21 0 35.5 -14.5t14.5 -35.5t-14.5 -35.5t-35.5 -14.5t-35.5 -14.5t-14.5 -35.5v-550q0 -57 -38 -100q38 -43 38 -100v-550q0 -21 14.5 -35.5t35.5 -14.5t35.5 -14.5t14.5 -35.5t-14.5 -35.5t-35.5 -14.5q-62 0 -106 44t-44 106v550q0 21 -14.5 35.5t-35.5 14.5
t-35.5 14.5t-14.5 35.5t14.5 35.5t35.5 14.5t35.5 14.5t14.5 35.5v550q0 62 44 106t106 44z" />
    <glyph glyph-name="bar" unicode="|" horiz-adv-x="300" 
d="M150 1500q21 0 35.5 -14.5t14.5 -35.5v-1500q0 -21 -14.5 -35.5t-35.5 -14.5t-35.5 14.5t-14.5 35.5v1500q0 21 14.5 35.5t35.5 14.5z" />
    <glyph glyph-name="braceright" unicode="}" horiz-adv-x="500" 
d="M150 1500q62 0 106 -44t44 -106v-550q0 -21 14.5 -35.5t35.5 -14.5t35.5 -14.5t14.5 -35.5t-14.5 -35.5t-35.5 -14.5t-35.5 -14.5t-14.5 -35.5v-550q0 -62 -44 -106t-106 -44q-21 0 -35.5 14.5t-14.5 35.5t14.5 35.5t35.5 14.5t35.5 14.5t14.5 35.5v550q0 57 38 100
q-38 43 -38 100v550q0 21 -14.5 35.5t-35.5 14.5t-35.5 14.5t-14.5 35.5t14.5 35.5t35.5 14.5z" />
    <glyph glyph-name="asciitilde" unicode="~" 
d="M300 600q94 0 179 -59q58 -41 121 -41t121 41q12 9 29 9q21 0 35.5 -14.5t14.5 -35.5q0 -26 -24 -43q-82 -57 -176 -57t-179 59q-58 41 -121 41t-120 -40q-15 -10 -30 -10q-21 0 -35.5 14.5t-14.5 35.5q0 27 23 42q85 58 177 58z" />
    <glyph glyph-name="uni00A0" unicode="&#xa0;" horiz-adv-x="600" 
 />
    <glyph glyph-name="exclamdown" unicode="&#xa1;" horiz-adv-x="300" 
d="M200 1350q0 -21 -14.5 -35.5t-35.5 -14.5t-35.5 14.5t-14.5 35.5t14.5 35.5t35.5 14.5t35.5 -14.5t14.5 -35.5zM150 0q-21 0 -35.5 14.5t-14.5 35.5v1000q0 21 14.5 35.5t35.5 14.5t35.5 -14.5t14.5 -35.5v-1000q0 -21 -14.5 -35.5t-35.5 -14.5z" />
    <glyph glyph-name="cent" unicode="&#xa2;" horiz-adv-x="800" 
d="M450 1200q21 0 35.5 -14.5t14.5 -35.5v-150h150q21 0 35.5 -14.5t14.5 -35.5t-14.5 -35.5t-35.5 -14.5h-150v-800h150q21 0 35.5 -14.5t14.5 -35.5t-14.5 -35.5t-35.5 -14.5h-150v-150q0 -21 -14.5 -35.5t-35.5 -14.5t-35.5 14.5t-14.5 35.5v150h-50q-104 0 -177 73
t-73 177v500q0 104 73 177t177 73h50v150q0 21 14.5 35.5t35.5 14.5zM350 900q-62 0 -106 -44t-44 -106v-500q0 -62 44 -106t106 -44h50v800h-50z" />
    <glyph glyph-name="sterling" unicode="&#xa3;" 
d="M450 1400q104 0 177 -73t73 -177q0 -21 -14.5 -35.5t-35.5 -14.5t-35.5 14.5t-14.5 35.5q0 62 -44 106t-106 44t-106 -44t-44 -106v-350h150q21 0 35.5 -14.5t14.5 -35.5t-14.5 -35.5t-35.5 -14.5h-150v-550q0 -26 -9 -50h309q41 0 70.5 29.5t29.5 70.5q0 21 14.5 35.5
t35.5 14.5t35.5 -14.5t14.5 -35.5q0 -83 -58.5 -141.5t-141.5 -58.5h-450q-21 0 -35.5 14.5t-14.5 35.5t14.5 35.5t35.5 14.5t35.5 14.5t14.5 35.5v550h-50q-21 0 -35.5 14.5t-14.5 35.5t14.5 35.5t35.5 14.5h50v350q0 104 73 177t177 73z" />
    <glyph glyph-name="currency" unicode="&#xa4;" horiz-adv-x="1400" 
d="M150 1300q21 0 35 -15l128 -127q79 68 178.5 105t208.5 37t208.5 -37t178.5 -105l128 127q14 15 35 15t35.5 -14.5t14.5 -35.5t-15 -35l-127 -128q68 -79 105 -178.5t37 -208.5t-37 -208.5t-105 -178.5l127 -128q15 -14 15 -35t-14.5 -35.5t-35.5 -14.5t-35 15l-128 127
q-79 -68 -178.5 -105t-208.5 -37t-208.5 37t-178.5 105l-128 -127q-14 -15 -35 -15t-35.5 14.5t-14.5 35.5t15 35l127 128q-68 79 -105 178.5t-37 208.5t37 208.5t105 178.5l-127 128q-15 14 -15 35t14.5 35.5t35.5 14.5zM700 1200q-136 0 -251 -67t-182 -182t-67 -251
t67 -251t182 -182t251 -67t251 67t182 182t67 251t-67 251t-182 182t-251 67z" />
    <glyph glyph-name="yen" unicode="&#xa5;" horiz-adv-x="1000" 
d="M150 1400q30 0 44 -26l306 -568l306 568q14 26 44 26q21 0 35.5 -14.5t14.5 -35.5q0 -13 -6 -24l-283 -526h189q21 0 35.5 -14.5t14.5 -35.5t-14.5 -35.5t-35.5 -14.5h-243l-7 -13v-87h250q21 0 35.5 -14.5t14.5 -35.5t-14.5 -35.5t-35.5 -14.5h-250v-450
q0 -21 -14.5 -35.5t-35.5 -14.5t-35.5 14.5t-14.5 35.5v450h-250q-21 0 -35.5 14.5t-14.5 35.5t14.5 35.5t35.5 14.5h250v87l-7 13h-243q-21 0 -35.5 14.5t-14.5 35.5t14.5 35.5t35.5 14.5h189l-283 526q-6 11 -6 24q0 21 14.5 35.5t35.5 14.5z" />
    <glyph glyph-name="brokenbar" unicode="&#xa6;" horiz-adv-x="300" 
d="M150 1500q21 0 35.5 -14.5t14.5 -35.5v-600q0 -21 -14.5 -35.5t-35.5 -14.5t-35.5 14.5t-14.5 35.5v600q0 21 14.5 35.5t35.5 14.5zM150 600q21 0 35.5 -14.5t14.5 -35.5v-600q0 -21 -14.5 -35.5t-35.5 -14.5t-35.5 14.5t-14.5 35.5v600q0 21 14.5 35.5t35.5 14.5z" />
    <glyph glyph-name="section" unicode="&#xa7;" horiz-adv-x="800" 
d="M400 1500q157 0 240 -120q10 -15 10 -30q0 -21 -14.5 -35.5t-35.5 -14.5q-25 0 -40 20q-31 42 -66.5 61t-93.5 19q-62 0 -106 -44t-44 -106q0 -67 50 -112l266 -239q63 -57 98.5 -134.5t35.5 -164.5q0 -81 -30.5 -153.5t-85.5 -127.5q66 -72 66 -169q0 -104 -73 -177
t-177 -73q-157 0 -240 120q-10 15 -10 30q0 21 14.5 35.5t35.5 14.5q25 0 40 -20q31 -42 66.5 -61t93.5 -19q62 0 106 44t44 106q0 67 -50 112l-266 239q-63 57 -98.5 134.5t-35.5 164.5q0 81 30.5 153.5t85.5 127.5q-66 72 -66 169q0 104 73 177t177 73zM289 1013
q-89 -88 -89 -213q0 -65 26.5 -123.5t73.5 -100.5l211 -189q89 88 89 213q0 65 -26.5 123.5t-73.5 100.5z" />
    <glyph glyph-name="dieresis" unicode="&#xa8;" horiz-adv-x="600" 
d="M200 1350q0 -21 -14.5 -35.5t-35.5 -14.5t-35.5 14.5t-14.5 35.5t14.5 35.5t35.5 14.5t35.5 -14.5t14.5 -35.5zM500 1350q0 -21 -14.5 -35.5t-35.5 -14.5t-35.5 14.5t-14.5 35.5t14.5 35.5t35.5 14.5t35.5 -14.5t14.5 -35.5z" />
    <glyph glyph-name="copyright" unicode="&#xa9;" horiz-adv-x="1700" 
d="M850 1650q153 0 291.5 -59.5t239 -160t160 -239t59.5 -291.5t-59.5 -291.5t-160 -239t-239 -160t-291.5 -59.5t-291.5 59.5t-239 160t-160 239t-59.5 291.5t59.5 291.5t160 239t239 160t291.5 59.5zM850 1550q-132 0 -252.5 -51.5t-207.5 -138.5t-138.5 -207.5
t-51.5 -252.5t51.5 -252.5t138.5 -207.5t207.5 -138.5t252.5 -51.5t252.5 51.5t207.5 138.5t138.5 207.5t51.5 252.5t-51.5 252.5t-138.5 207.5t-207.5 138.5t-252.5 51.5zM800 1400h200q21 0 35.5 -14.5t14.5 -35.5t-14.5 -35.5t-35.5 -14.5h-200q-62 0 -106 -44t-44 -106
v-500q0 -62 44 -106t106 -44h200q21 0 35.5 -14.5t14.5 -35.5t-14.5 -35.5t-35.5 -14.5h-200q-104 0 -177 73t-73 177v500q0 104 73 177t177 73z" />
    <glyph glyph-name="ordfeminine" unicode="&#xaa;" horiz-adv-x="750" 
d="M300 1400h250q21 0 35.5 -14.5t14.5 -35.5v-450v-50q0 -21 14.5 -35.5t35.5 -14.5t35.5 -14.5t14.5 -35.5t-14.5 -35.5t-35.5 -14.5q-68 0 -114 53q-58 -53 -136 -53h-100q-82 0 -141 59t-59 141v300q0 82 59 141t141 59zM300 1300q-41 0 -70.5 -29.5t-29.5 -70.5v-300
q0 -41 29.5 -70.5t70.5 -29.5h100q41 0 70.5 29.5t29.5 70.5v400h-200z" />
    <glyph glyph-name="guillemotleft" unicode="&#xab;" horiz-adv-x="850" 
d="M400 900q21 0 35.5 -14.5t14.5 -35.5q0 -16 -9 -29l-230 -321l230 -321q9 -13 9 -29q0 -21 -14.5 -35.5t-35.5 -14.5q-26 0 -41 21l-249 349q-10 14 -10 30t10 30l249 349q15 21 41 21zM700 900q21 0 35.5 -14.5t14.5 -35.5q0 -16 -9 -29l-230 -321l230 -321q9 -13 9 -29
q0 -21 -14.5 -35.5t-35.5 -14.5q-26 0 -41 21l-249 349q-10 14 -10 30t10 30l249 349q15 21 41 21z" />
    <glyph glyph-name="logicalnot" unicode="&#xac;" 
d="M150 650h600q21 0 35.5 -14.5t14.5 -35.5v-200q0 -21 -14.5 -35.5t-35.5 -14.5t-35.5 14.5t-14.5 35.5v150h-550q-21 0 -35.5 14.5t-14.5 35.5t14.5 35.5t35.5 14.5z" />
    <glyph glyph-name="uni00AD" unicode="&#xad;" horiz-adv-x="700" 
d="M100 550h500q21 0 35.5 -14.5t14.5 -35.5t-14.5 -35.5t-35.5 -14.5h-500q-21 0 -35.5 14.5t-14.5 35.5t14.5 35.5t35.5 14.5z" />
    <glyph glyph-name="registered" unicode="&#xae;" horiz-adv-x="1700" 
d="M850 1650q153 0 291.5 -59.5t239 -160t160 -239t59.5 -291.5t-59.5 -291.5t-160 -239t-239 -160t-291.5 -59.5t-291.5 59.5t-239 160t-160 239t-59.5 291.5t59.5 291.5t160 239t239 160t291.5 59.5zM850 1550q-132 0 -252.5 -51.5t-207.5 -138.5t-138.5 -207.5
t-51.5 -252.5t51.5 -252.5t138.5 -207.5t207.5 -138.5t252.5 -51.5t252.5 51.5t207.5 138.5t138.5 207.5t51.5 252.5t-51.5 252.5t-138.5 207.5t-207.5 138.5t-252.5 51.5zM600 1400h300q104 0 177 -73t73 -177v-100q0 -88 -54.5 -156t-138.5 -88l187 -332q6 -10 6 -24
q0 -21 -14.5 -35.5t-35.5 -14.5q-28 0 -44 26l-210 374h-196v-350q0 -21 -14.5 -35.5t-35.5 -14.5t-35.5 14.5t-14.5 35.5v900q0 21 14.5 35.5t35.5 14.5zM650 1300v-400h250q62 0 106 44t44 106v100q0 62 -44 106t-106 44h-250z" />
    <glyph glyph-name="macron" unicode="&#xaf;" horiz-adv-x="500" 
d="M150 1400h200q21 0 35.5 -14.5t14.5 -35.5t-14.5 -35.5t-35.5 -14.5h-200q-21 0 -35.5 14.5t-14.5 35.5t14.5 35.5t35.5 14.5z" />
    <glyph glyph-name="degree" unicode="&#xb0;" horiz-adv-x="600" 
d="M300 1400q83 0 141.5 -58.5t58.5 -141.5t-58.5 -141.5t-141.5 -58.5t-141.5 58.5t-58.5 141.5t58.5 141.5t141.5 58.5zM300 1300q-41 0 -70.5 -29.5t-29.5 -70.5t29.5 -70.5t70.5 -29.5t70.5 29.5t29.5 70.5t-29.5 70.5t-70.5 29.5z" />
    <glyph glyph-name="plusminus" unicode="&#xb1;" horiz-adv-x="800" 
d="M400 900q21 0 35.5 -14.5t14.5 -35.5v-200h200q21 0 35.5 -14.5t14.5 -35.5t-14.5 -35.5t-35.5 -14.5h-200v-200q0 -21 -14.5 -35.5t-35.5 -14.5t-35.5 14.5t-14.5 35.5v200h-200q-21 0 -35.5 14.5t-14.5 35.5t14.5 35.5t35.5 14.5h200v200q0 21 14.5 35.5t35.5 14.5z
M150 150h500q21 0 35.5 -14.5t14.5 -35.5t-14.5 -35.5t-35.5 -14.5h-500q-21 0 -35.5 14.5t-14.5 35.5t14.5 35.5t35.5 14.5z" />
    <glyph glyph-name="uni00B2" unicode="&#xb2;" horiz-adv-x="650" 
d="M320 1750q104 0 177 -73t73 -177q0 -72 -38 -132l-322 -518h310q21 0 35.5 -14.5t14.5 -35.5t-14.5 -35.5t-35.5 -14.5h-400q-21 0 -35.5 14.5t-14.5 35.5q0 13 8 26l369 595q23 38 23 79q0 62 -44 106t-106 44q-60 0 -90 -15q-32 -16 -70 -65q-17 -20 -40 -20
q-21 0 -35.5 14.5t-14.5 35.5q0 17 13 33q52 67 102 91q52 26 135 26z" />
    <glyph glyph-name="uni00B3" unicode="&#xb3;" horiz-adv-x="630" 
d="M100 1750h200q104 0 177 -73t73 -177q0 -60 -26.5 -112.5t-73.5 -87.5q47 -35 73.5 -87.5t26.5 -112.5v-100q0 -104 -73 -177t-177 -73h-200q-21 0 -35.5 14.5t-14.5 35.5t14.5 35.5t35.5 14.5h200q62 0 106 44t44 106v100q0 62 -44 106t-106 44h-100q-21 0 -35.5 14.5
t-14.5 35.5t14.5 35.5t35.5 14.5h100q62 0 106 44t44 106t-44 106t-106 44h-200q-21 0 -35.5 14.5t-14.5 35.5t14.5 35.5t35.5 14.5z" />
    <glyph glyph-name="acute" unicode="&#xb4;" horiz-adv-x="300" 
d="M150 1400q21 0 35.5 -14.5t14.5 -35.5q0 -10 -5 -22l-50 -100q-14 -28 -45 -28q-21 0 -35.5 14.5t-14.5 35.5q0 10 5 22l50 100q14 28 45 28z" />
    <glyph glyph-name="uni00B5" unicode="&#xb5;" horiz-adv-x="830" 
d="M150 1000q21 0 35.5 -14.5t14.5 -35.5v-670q0 -82 59 -141t141 -59t141 59t59 141v670q0 21 14.5 35.5t35.5 14.5t35.5 -14.5t14.5 -35.5v-800q0 -21 14.5 -35.5t35.5 -14.5t35.5 -14.5t14.5 -35.5t-14.5 -35.5t-35.5 -14.5q-41 0 -75.5 20.5t-54.5 55.5
q-89 -96 -220 -96q-116 0 -200 76v-406q0 -21 -14.5 -35.5t-35.5 -14.5t-35.5 14.5t-14.5 35.5v1300q0 21 14.5 35.5t35.5 14.5z" />
    <glyph glyph-name="paragraph" unicode="&#xb6;" horiz-adv-x="1100" 
d="M450 1400h500q21 0 35.5 -14.5t14.5 -35.5t-14.5 -35.5t-35.5 -14.5h-100v-1650q0 -21 -14.5 -35.5t-35.5 -14.5t-35.5 14.5t-14.5 35.5v1650h-200v-1650q0 -21 -14.5 -35.5t-35.5 -14.5t-35.5 14.5t-14.5 35.5v1050q-145 0 -247.5 102.5t-102.5 247.5t102.5 247.5
t247.5 102.5zM450 1300q-104 0 -177 -73t-73 -177t73 -177t177 -73v500z" />
    <glyph glyph-name="periodcentered" unicode="&#xb7;" horiz-adv-x="300" 
d="M200 500q0 -21 -14.5 -35.5t-35.5 -14.5t-35.5 14.5t-14.5 35.5t14.5 35.5t35.5 14.5t35.5 -14.5t14.5 -35.5z" />
    <glyph glyph-name="cedilla" unicode="&#xb8;" horiz-adv-x="300" 
d="M119 0h112l-86 -172q-14 -28 -45 -28q-21 0 -35.5 14.5t-14.5 35.5q0 10 5 22z" />
    <glyph glyph-name="uni00B9" unicode="&#xb9;" horiz-adv-x="450" 
d="M300 1750q21 0 35.5 -14.5t14.5 -35.5v-900q0 -21 -14.5 -35.5t-35.5 -14.5t-35.5 14.5t-14.5 35.5v779l-115 -114q-15 -15 -35 -15q-21 0 -35.5 14.5t-14.5 35.5q0 20 15 35l200 200q15 15 35 15z" />
    <glyph glyph-name="ordmasculine" unicode="&#xba;" horiz-adv-x="700" 
d="M300 1400h100q82 0 141 -59t59 -141v-300q0 -82 -59 -141t-141 -59h-100q-82 0 -141 59t-59 141v300q0 82 59 141t141 59zM300 1300q-41 0 -70.5 -29.5t-29.5 -70.5v-300q0 -41 29.5 -70.5t70.5 -29.5h100q41 0 70.5 29.5t29.5 70.5v300q0 41 -29.5 70.5t-70.5 29.5h-100
z" />
    <glyph glyph-name="guillemotright" unicode="&#xbb;" horiz-adv-x="850" 
d="M450 900q26 0 41 -21l249 -349q10 -14 10 -30t-10 -30l-249 -349q-15 -21 -41 -21q-21 0 -35.5 14.5t-14.5 35.5q0 16 9 29l230 321l-230 321q-9 13 -9 29q0 21 14.5 35.5t35.5 14.5zM150 900q26 0 41 -21l249 -349q10 -14 10 -30t-10 -30l-249 -349q-15 -21 -41 -21
q-21 0 -35.5 14.5t-14.5 35.5q0 16 9 29l230 321l-230 321q-9 13 -9 29q0 21 14.5 35.5t35.5 14.5z" />
    <glyph glyph-name="onequarter" unicode="&#xbc;" horiz-adv-x="1320" 
d="M870 850q21 0 35.5 -14.5t14.5 -35.5q0 -6 -2 -14l-182 -636h234v150q0 21 14.5 35.5t35.5 14.5t35.5 -14.5t14.5 -35.5v-150h100q21 0 35.5 -14.5t14.5 -35.5t-14.5 -35.5t-35.5 -14.5h-100v-150q0 -21 -14.5 -35.5t-35.5 -14.5t-35.5 14.5t-14.5 35.5v150h-300
q-21 0 -35.5 14.5t-14.5 35.5q0 6 2 14l200 700q5 16 18 26t30 10zM350 1750q21 0 35.5 -14.5t14.5 -35.5v-900q0 -21 -14.5 -35.5t-35.5 -14.5t-35.5 14.5t-14.5 35.5v779l-115 -114q-15 -15 -35 -15q-21 0 -35.5 14.5t-14.5 35.5q0 20 15 35l200 200q15 15 35 15z
M1000 1700q21 0 35.5 -14.5t14.5 -35.5q0 -12 -4 -20l-800 -1800q-14 -30 -46 -30q-21 0 -35.5 14.5t-14.5 35.5q0 12 4 20l800 1800q14 30 46 30z" />
    <glyph glyph-name="onehalf" unicode="&#xbd;" horiz-adv-x="1370" 
d="M1020 850q104 0 177 -73t73 -177q0 -72 -38 -132l-322 -518h310q21 0 35.5 -14.5t14.5 -35.5t-14.5 -35.5t-35.5 -14.5h-400q-21 0 -35.5 14.5t-14.5 35.5q0 13 8 26l369 595q23 38 23 79q0 62 -44 106t-106 44q-60 0 -90 -15q-32 -16 -70 -65q-17 -20 -40 -20
q-21 0 -35.5 14.5t-14.5 35.5q0 17 13 33q52 67 102 91q52 26 135 26zM350 1750q21 0 35.5 -14.5t14.5 -35.5v-900q0 -21 -14.5 -35.5t-35.5 -14.5t-35.5 14.5t-14.5 35.5v779l-115 -114q-15 -15 -35 -15q-21 0 -35.5 14.5t-14.5 35.5q0 20 15 35l200 200q15 15 35 15z
M1000 1700q21 0 35.5 -14.5t14.5 -35.5q0 -12 -4 -20l-800 -1800q-14 -30 -46 -30q-21 0 -35.5 14.5t-14.5 35.5q0 12 4 20l800 1800q14 30 46 30z" />
    <glyph glyph-name="threequarters" unicode="&#xbe;" horiz-adv-x="1420" 
d="M150 1750h200q104 0 177 -73t73 -177q0 -60 -26.5 -112.5t-73.5 -87.5q47 -35 73.5 -87.5t26.5 -112.5v-100q0 -104 -73 -177t-177 -73h-200q-21 0 -35.5 14.5t-14.5 35.5t14.5 35.5t35.5 14.5h200q62 0 106 44t44 106v100q0 62 -44 106t-106 44h-100q-21 0 -35.5 14.5
t-14.5 35.5t14.5 35.5t35.5 14.5h100q62 0 106 44t44 106t-44 106t-106 44h-200q-21 0 -35.5 14.5t-14.5 35.5t14.5 35.5t35.5 14.5zM970 850q21 0 35.5 -14.5t14.5 -35.5q0 -6 -2 -14l-182 -636h234v150q0 21 14.5 35.5t35.5 14.5t35.5 -14.5t14.5 -35.5v-150h100
q21 0 35.5 -14.5t14.5 -35.5t-14.5 -35.5t-35.5 -14.5h-100v-150q0 -21 -14.5 -35.5t-35.5 -14.5t-35.5 14.5t-14.5 35.5v150h-300q-21 0 -35.5 14.5t-14.5 35.5q0 6 2 14l200 700q5 16 18 26t30 10zM1100 1700q21 0 35.5 -14.5t14.5 -35.5q0 -12 -4 -20l-800 -1800
q-14 -30 -46 -30q-21 0 -35.5 14.5t-14.5 35.5q0 12 4 20l800 1800q14 30 46 30z" />
    <glyph glyph-name="questiondown" unicode="&#xbf;" horiz-adv-x="800" 
d="M350 1350q0 21 14.5 35.5t35.5 14.5t35.5 -14.5t14.5 -35.5t-14.5 -35.5t-35.5 -14.5t-35.5 14.5t-14.5 35.5zM400 -30q-124 0 -212 88t-88 212q0 110 70 193l133 159q47 57 47 128v300q0 21 14.5 35.5t35.5 14.5t35.5 -14.5t14.5 -35.5v-300q0 -110 -70 -193l-133 -159
q-47 -57 -47 -128q0 -82 59 -141t141 -59q62 0 123.5 30.5t81.5 71.5q14 28 45 28q21 0 35.5 -14.5t14.5 -35.5q0 -10 -5 -22q-38 -76 -120 -117t-175 -41z" />
    <glyph glyph-name="Agrave" unicode="&#xc0;" 
d="M400 1700q31 0 45 -28l50 -100q5 -12 5 -22q0 -21 -14.5 -35.5t-35.5 -14.5q-31 0 -45 28l-50 100q-5 12 -5 22q0 21 14.5 35.5t35.5 14.5zM450 1400q17 0 30.5 -10.5t18.5 -27.5l349 -1299q2 -8 2 -13q0 -21 -14.5 -35.5t-35.5 -14.5q-17 0 -30 10.5t-18 26.5l-98 363
h-408l-98 -363q-5 -16 -18 -26.5t-30 -10.5q-21 0 -35.5 14.5t-14.5 35.5q0 5 2 13l350 1300q5 16 18 26.5t30 10.5zM450 1158l-177 -658h354z" />
    <glyph glyph-name="Aacute" unicode="&#xc1;" 
d="M500 1700q21 0 35.5 -14.5t14.5 -35.5q0 -10 -5 -22l-50 -100q-14 -28 -45 -28q-21 0 -35.5 14.5t-14.5 35.5q0 10 5 22l50 100q14 28 45 28zM450 1400q17 0 30.5 -10.5t18.5 -27.5l349 -1299q2 -8 2 -13q0 -21 -14.5 -35.5t-35.5 -14.5q-17 0 -30 10.5t-18 26.5l-98 363
h-408l-98 -363q-5 -16 -18 -26.5t-30 -10.5q-21 0 -35.5 14.5t-14.5 35.5q0 5 2 13l350 1300q5 16 18 26.5t30 10.5zM450 1158l-177 -658h354z" />
    <glyph glyph-name="Acircumflex" unicode="&#xc2;" 
d="M450 1700q20 0 35 -15l100 -100q15 -15 15 -35q0 -21 -14.5 -35.5t-35.5 -14.5q-20 0 -35 15l-65 64l-65 -64q-15 -15 -35 -15q-21 0 -35.5 14.5t-14.5 35.5q0 20 15 35l100 100q15 15 35 15zM450 1400q17 0 30.5 -10.5t18.5 -27.5l349 -1299q2 -8 2 -13
q0 -21 -14.5 -35.5t-35.5 -14.5q-17 0 -30 10.5t-18 26.5l-98 363h-408l-98 -363q-5 -16 -18 -26.5t-30 -10.5q-21 0 -35.5 14.5t-14.5 35.5q0 5 2 13l350 1300q5 16 18 26.5t30 10.5zM450 1158l-177 -658h354z" />
    <glyph glyph-name="Atilde" unicode="&#xc3;" 
d="M375 1700q57 0 105 -35q20 -15 45 -15t45 15q13 10 30 10q21 0 35.5 -14.5t14.5 -35.5q0 -28 -22 -42q-46 -33 -103 -33t-105 35q-20 15 -45 15t-45 -15q-13 -10 -30 -10q-21 0 -35.5 14.5t-14.5 35.5q0 27 23 42q49 33 102 33zM450 1400q17 0 30.5 -10.5t18.5 -27.5
l349 -1299q2 -8 2 -13q0 -21 -14.5 -35.5t-35.5 -14.5q-17 0 -30 10.5t-18 26.5l-98 363h-408l-98 -363q-5 -16 -18 -26.5t-30 -10.5q-21 0 -35.5 14.5t-14.5 35.5q0 5 2 13l350 1300q5 16 18 26.5t30 10.5zM450 1158l-177 -658h354z" />
    <glyph glyph-name="Adieresis" unicode="&#xc4;" 
d="M350 1650q0 -21 -14.5 -35.5t-35.5 -14.5t-35.5 14.5t-14.5 35.5t14.5 35.5t35.5 14.5t35.5 -14.5t14.5 -35.5zM650 1650q0 -21 -14.5 -35.5t-35.5 -14.5t-35.5 14.5t-14.5 35.5t14.5 35.5t35.5 14.5t35.5 -14.5t14.5 -35.5zM450 1400q17 0 30.5 -10.5t18.5 -27.5
l349 -1299q2 -8 2 -13q0 -21 -14.5 -35.5t-35.5 -14.5q-17 0 -30 10.5t-18 26.5l-98 363h-408l-98 -363q-5 -16 -18 -26.5t-30 -10.5q-21 0 -35.5 14.5t-14.5 35.5q0 5 2 13l350 1300q5 16 18 26.5t30 10.5zM450 1158l-177 -658h354z" />
    <glyph glyph-name="Aring" unicode="&#xc5;" 
d="M450 1701q62 0 106 -44t44 -106t-44 -106t-106 -44t-106 44t-44 106t44 106t106 44zM450 1601q-21 0 -35.5 -14.5t-14.5 -35.5t14.5 -35.5t35.5 -14.5t35.5 14.5t14.5 35.5t-14.5 35.5t-35.5 14.5zM450 1400q17 0 30.5 -10.5t18.5 -27.5l349 -1299q2 -8 2 -13
q0 -21 -14.5 -35.5t-35.5 -14.5q-17 0 -30 10.5t-18 26.5l-98 363h-408l-98 -363q-5 -16 -18 -26.5t-30 -10.5q-21 0 -35.5 14.5t-14.5 35.5q0 5 2 13l350 1300q5 16 18 26.5t30 10.5zM450 1158l-177 -658h354z" />
    <glyph glyph-name="AE" unicode="&#xc6;" horiz-adv-x="1330" 
d="M450 1400h750q21 0 35.5 -14.5t14.5 -35.5t-14.5 -35.5t-35.5 -14.5h-450v-500h250q21 0 35.5 -14.5t14.5 -35.5t-14.5 -35.5t-35.5 -14.5h-250v-600h450q21 0 35.5 -14.5t14.5 -35.5t-14.5 -35.5t-35.5 -14.5h-500q-21 0 -35.5 14.5t-14.5 35.5v350h-404l-98 -363
q-5 -16 -18 -26.5t-30 -10.5q-21 0 -35.5 14.5t-14.5 35.5q0 5 2 13l350 1300q5 16 18 26.5t30 10.5zM488 1300l-215 -800h377v800h-162z" />
    <glyph glyph-name="Ccedilla" unicode="&#xc7;" horiz-adv-x="770" 
d="M400 1400h250q21 0 35.5 -14.5t14.5 -35.5t-14.5 -35.5t-35.5 -14.5h-250q-82 0 -141 -59t-59 -141v-800q0 -82 59 -141t141 -59h250q21 0 35.5 -14.5t14.5 -35.5t-14.5 -35.5t-35.5 -14.5h-169l-86 -172q-14 -28 -45 -28q-21 0 -35.5 14.5t-14.5 35.5q0 10 5 22l65 130
q-115 11 -192.5 96.5t-77.5 201.5v800q0 124 88 212t212 88z" />
    <glyph glyph-name="Egrave" unicode="&#xc8;" horiz-adv-x="780" 
d="M350 1700q31 0 45 -28l50 -100q5 -12 5 -22q0 -21 -14.5 -35.5t-35.5 -14.5q-31 0 -45 28l-50 100q-5 12 -5 22q0 21 14.5 35.5t35.5 14.5zM150 1400h500q21 0 35.5 -14.5t14.5 -35.5t-14.5 -35.5t-35.5 -14.5h-450v-500h250q21 0 35.5 -14.5t14.5 -35.5t-14.5 -35.5
t-35.5 -14.5h-250v-600h450q21 0 35.5 -14.5t14.5 -35.5t-14.5 -35.5t-35.5 -14.5h-500q-21 0 -35.5 14.5t-14.5 35.5v1300q0 21 14.5 35.5t35.5 14.5z" />
    <glyph glyph-name="Eacute" unicode="&#xc9;" horiz-adv-x="780" 
d="M450 1700q21 0 35.5 -14.5t14.5 -35.5q0 -10 -5 -22l-50 -100q-14 -28 -45 -28q-21 0 -35.5 14.5t-14.5 35.5q0 10 5 22l50 100q14 28 45 28zM150 1400h500q21 0 35.5 -14.5t14.5 -35.5t-14.5 -35.5t-35.5 -14.5h-450v-500h250q21 0 35.5 -14.5t14.5 -35.5t-14.5 -35.5
t-35.5 -14.5h-250v-600h450q21 0 35.5 -14.5t14.5 -35.5t-14.5 -35.5t-35.5 -14.5h-500q-21 0 -35.5 14.5t-14.5 35.5v1300q0 21 14.5 35.5t35.5 14.5z" />
    <glyph glyph-name="Ecircumflex" unicode="&#xca;" horiz-adv-x="780" 
d="M400 1700q20 0 35 -15l100 -100q15 -15 15 -35q0 -21 -14.5 -35.5t-35.5 -14.5q-20 0 -35 15l-65 64l-65 -64q-15 -15 -35 -15q-21 0 -35.5 14.5t-14.5 35.5q0 20 15 35l100 100q15 15 35 15zM150 1400h500q21 0 35.5 -14.5t14.5 -35.5t-14.5 -35.5t-35.5 -14.5h-450
v-500h250q21 0 35.5 -14.5t14.5 -35.5t-14.5 -35.5t-35.5 -14.5h-250v-600h450q21 0 35.5 -14.5t14.5 -35.5t-14.5 -35.5t-35.5 -14.5h-500q-21 0 -35.5 14.5t-14.5 35.5v1300q0 21 14.5 35.5t35.5 14.5z" />
    <glyph glyph-name="Edieresis" unicode="&#xcb;" horiz-adv-x="780" 
d="M300 1650q0 -21 -14.5 -35.5t-35.5 -14.5t-35.5 14.5t-14.5 35.5t14.5 35.5t35.5 14.5t35.5 -14.5t14.5 -35.5zM600 1650q0 -21 -14.5 -35.5t-35.5 -14.5t-35.5 14.5t-14.5 35.5t14.5 35.5t35.5 14.5t35.5 -14.5t14.5 -35.5zM150 1400h500q21 0 35.5 -14.5t14.5 -35.5
t-14.5 -35.5t-35.5 -14.5h-450v-500h250q21 0 35.5 -14.5t14.5 -35.5t-14.5 -35.5t-35.5 -14.5h-250v-600h450q21 0 35.5 -14.5t14.5 -35.5t-14.5 -35.5t-35.5 -14.5h-500q-21 0 -35.5 14.5t-14.5 35.5v1300q0 21 14.5 35.5t35.5 14.5z" />
    <glyph glyph-name="Igrave" unicode="&#xcc;" horiz-adv-x="300" 
d="M100 1700q31 0 45 -28l50 -100q5 -12 5 -22q0 -21 -14.5 -35.5t-35.5 -14.5q-31 0 -45 28l-50 100q-5 12 -5 22q0 21 14.5 35.5t35.5 14.5zM150 1400q21 0 35.5 -14.5t14.5 -35.5v-1300q0 -21 -14.5 -35.5t-35.5 -14.5t-35.5 14.5t-14.5 35.5v1300q0 21 14.5 35.5
t35.5 14.5z" />
    <glyph glyph-name="Iacute" unicode="&#xcd;" horiz-adv-x="300" 
d="M200 1700q21 0 35.5 -14.5t14.5 -35.5q0 -10 -5 -22l-50 -100q-14 -28 -45 -28q-21 0 -35.5 14.5t-14.5 35.5q0 10 5 22l50 100q14 28 45 28zM150 1400q21 0 35.5 -14.5t14.5 -35.5v-1300q0 -21 -14.5 -35.5t-35.5 -14.5t-35.5 14.5t-14.5 35.5v1300q0 21 14.5 35.5
t35.5 14.5z" />
    <glyph glyph-name="Icircumflex" unicode="&#xce;" horiz-adv-x="400" 
d="M200 1700q20 0 35 -15l100 -100q15 -15 15 -35q0 -21 -14.5 -35.5t-35.5 -14.5q-20 0 -35 15l-65 64l-65 -64q-15 -15 -35 -15q-21 0 -35.5 14.5t-14.5 35.5q0 20 15 35l100 100q15 15 35 15zM200 1400q21 0 35.5 -14.5t14.5 -35.5v-1300q0 -21 -14.5 -35.5t-35.5 -14.5
t-35.5 14.5t-14.5 35.5v1300q0 21 14.5 35.5t35.5 14.5z" />
    <glyph glyph-name="Idieresis" unicode="&#xcf;" horiz-adv-x="500" 
d="M150 1650q0 -21 -14.5 -35.5t-35.5 -14.5t-35.5 14.5t-14.5 35.5t14.5 35.5t35.5 14.5t35.5 -14.5t14.5 -35.5zM450 1650q0 -21 -14.5 -35.5t-35.5 -14.5t-35.5 14.5t-14.5 35.5t14.5 35.5t35.5 14.5t35.5 -14.5t14.5 -35.5zM250 1400q21 0 35.5 -14.5t14.5 -35.5v-1300
q0 -21 -14.5 -35.5t-35.5 -14.5t-35.5 14.5t-14.5 35.5v1300q0 21 14.5 35.5t35.5 14.5z" />
    <glyph glyph-name="Ntilde" unicode="&#xd1;" 
d="M375 1700q57 0 105 -35q20 -15 45 -15t45 15q13 10 30 10q21 0 35.5 -14.5t14.5 -35.5q0 -28 -22 -42q-46 -33 -103 -33t-105 35q-20 15 -45 15t-45 -15q-13 -10 -30 -10q-21 0 -35.5 14.5t-14.5 35.5q0 27 23 42q49 33 102 33zM150 1400q32 0 45 -29l505 -1093v1072
q0 21 14.5 35.5t35.5 14.5t35.5 -14.5t14.5 -35.5v-1300q0 -21 -14.5 -35.5t-35.5 -14.5q-32 0 -45 29l-505 1093v-1072q0 -21 -14.5 -35.5t-35.5 -14.5t-35.5 14.5t-14.5 35.5v1300q0 21 14.5 35.5t35.5 14.5z" />
    <glyph glyph-name="Ograve" unicode="&#xd2;" horiz-adv-x="880" 
d="M390 1700q31 0 45 -28l50 -100q5 -12 5 -22q0 -21 -14.5 -35.5t-35.5 -14.5q-31 0 -45 28l-50 100q-5 12 -5 22q0 21 14.5 35.5t35.5 14.5zM440 1430q145 0 247.5 -102.5t102.5 -247.5v-760q0 -145 -102.5 -247.5t-247.5 -102.5t-247.5 102.5t-102.5 247.5v760
q0 145 102.5 247.5t247.5 102.5zM440 1330q-104 0 -177 -73t-73 -177v-760q0 -104 73 -177t177 -73t177 73t73 177v760q0 104 -73 177t-177 73z" />
    <glyph glyph-name="Oacute" unicode="&#xd3;" horiz-adv-x="880" 
d="M490 1700q21 0 35.5 -14.5t14.5 -35.5q0 -10 -5 -22l-50 -100q-14 -28 -45 -28q-21 0 -35.5 14.5t-14.5 35.5q0 10 5 22l50 100q14 28 45 28zM440 1430q145 0 247.5 -102.5t102.5 -247.5v-760q0 -145 -102.5 -247.5t-247.5 -102.5t-247.5 102.5t-102.5 247.5v760
q0 145 102.5 247.5t247.5 102.5zM440 1330q-104 0 -177 -73t-73 -177v-760q0 -104 73 -177t177 -73t177 73t73 177v760q0 104 -73 177t-177 73z" />
    <glyph glyph-name="Ocircumflex" unicode="&#xd4;" horiz-adv-x="880" 
d="M440 1700q20 0 35 -15l100 -100q15 -15 15 -35q0 -21 -14.5 -35.5t-35.5 -14.5q-20 0 -35 15l-65 64l-65 -64q-15 -15 -35 -15q-21 0 -35.5 14.5t-14.5 35.5q0 20 15 35l100 100q15 15 35 15zM440 1430q145 0 247.5 -102.5t102.5 -247.5v-760q0 -145 -102.5 -247.5
t-247.5 -102.5t-247.5 102.5t-102.5 247.5v760q0 145 102.5 247.5t247.5 102.5zM440 1330q-104 0 -177 -73t-73 -177v-760q0 -104 73 -177t177 -73t177 73t73 177v760q0 104 -73 177t-177 73z" />
    <glyph glyph-name="Otilde" unicode="&#xd5;" horiz-adv-x="880" 
d="M365 1700q57 0 105 -35q20 -15 45 -15t45 15q13 10 30 10q21 0 35.5 -14.5t14.5 -35.5q0 -28 -22 -42q-46 -33 -103 -33t-105 35q-20 15 -45 15t-45 -15q-13 -10 -30 -10q-21 0 -35.5 14.5t-14.5 35.5q0 27 23 42q49 33 102 33zM440 1430q145 0 247.5 -102.5
t102.5 -247.5v-760q0 -145 -102.5 -247.5t-247.5 -102.5t-247.5 102.5t-102.5 247.5v760q0 145 102.5 247.5t247.5 102.5zM440 1330q-104 0 -177 -73t-73 -177v-760q0 -104 73 -177t177 -73t177 73t73 177v760q0 104 -73 177t-177 73z" />
    <glyph glyph-name="Odieresis" unicode="&#xd6;" horiz-adv-x="880" 
d="M340 1650q0 -21 -14.5 -35.5t-35.5 -14.5t-35.5 14.5t-14.5 35.5t14.5 35.5t35.5 14.5t35.5 -14.5t14.5 -35.5zM640 1650q0 -21 -14.5 -35.5t-35.5 -14.5t-35.5 14.5t-14.5 35.5t14.5 35.5t35.5 14.5t35.5 -14.5t14.5 -35.5zM440 1430q145 0 247.5 -102.5t102.5 -247.5
v-760q0 -145 -102.5 -247.5t-247.5 -102.5t-247.5 102.5t-102.5 247.5v760q0 145 102.5 247.5t247.5 102.5zM440 1330q-104 0 -177 -73t-73 -177v-760q0 -104 73 -177t177 -73t177 73t73 177v760q0 104 -73 177t-177 73z" />
    <glyph glyph-name="multiply" unicode="&#xd7;" horiz-adv-x="700" 
d="M100 800q21 0 35 -15l215 -214l215 214q14 15 35 15t35.5 -14.5t14.5 -35.5t-15 -35l-214 -215l214 -215q15 -14 15 -35t-14.5 -35.5t-35.5 -14.5t-35 15l-215 214l-215 -214q-14 -15 -35 -15t-35.5 14.5t-14.5 35.5t15 35l214 215l-214 215q-15 14 -15 35t14.5 35.5
t35.5 14.5z" />
    <glyph glyph-name="Oslash" unicode="&#xd8;" horiz-adv-x="1000" 
d="M450 1400h100q74 0 138.5 -34t105.5 -92l63 102q15 24 43 24q21 0 35.5 -14.5t14.5 -35.5q0 -15 -7 -26l-100 -161q7 -35 7 -63v-800q0 -124 -88 -212t-212 -88h-100q-74 0 -138.5 34t-105.5 92l-63 -102q-15 -24 -43 -24q-21 0 -35.5 14.5t-14.5 35.5q0 15 7 26l100 161
q-7 35 -7 63v800q0 124 88 212t212 88zM450 1300q-82 0 -141 -59t-59 -141v-711l485 788q-23 55 -73.5 89t-111.5 34h-100zM750 1011l-485 -788q23 -55 73.5 -89t111.5 -34h100q82 0 141 59t59 141v711z" />
    <glyph glyph-name="Ugrave" unicode="&#xd9;" 
d="M400 1700q31 0 45 -28l50 -100q5 -12 5 -22q0 -21 -14.5 -35.5t-35.5 -14.5q-31 0 -45 28l-50 100q-5 12 -5 22q0 21 14.5 35.5t35.5 14.5zM150 1400q21 0 35.5 -14.5t14.5 -35.5v-1030q0 -104 73 -177t177 -73t177 73t73 177v1030q0 21 14.5 35.5t35.5 14.5t35.5 -14.5
t14.5 -35.5v-1030q0 -145 -102.5 -247.5t-247.5 -102.5t-247.5 102.5t-102.5 247.5v1030q0 21 14.5 35.5t35.5 14.5z" />
    <glyph glyph-name="Uacute" unicode="&#xda;" 
d="M500 1700q21 0 35.5 -14.5t14.5 -35.5q0 -10 -5 -22l-50 -100q-14 -28 -45 -28q-21 0 -35.5 14.5t-14.5 35.5q0 10 5 22l50 100q14 28 45 28zM150 1400q21 0 35.5 -14.5t14.5 -35.5v-1030q0 -104 73 -177t177 -73t177 73t73 177v1030q0 21 14.5 35.5t35.5 14.5
t35.5 -14.5t14.5 -35.5v-1030q0 -145 -102.5 -247.5t-247.5 -102.5t-247.5 102.5t-102.5 247.5v1030q0 21 14.5 35.5t35.5 14.5z" />
    <glyph glyph-name="Ucircumflex" unicode="&#xdb;" 
d="M450 1700q20 0 35 -15l100 -100q15 -15 15 -35q0 -21 -14.5 -35.5t-35.5 -14.5q-20 0 -35 15l-65 64l-65 -64q-15 -15 -35 -15q-21 0 -35.5 14.5t-14.5 35.5q0 20 15 35l100 100q15 15 35 15zM150 1400q21 0 35.5 -14.5t14.5 -35.5v-1030q0 -104 73 -177t177 -73t177 73
t73 177v1030q0 21 14.5 35.5t35.5 14.5t35.5 -14.5t14.5 -35.5v-1030q0 -145 -102.5 -247.5t-247.5 -102.5t-247.5 102.5t-102.5 247.5v1030q0 21 14.5 35.5t35.5 14.5z" />
    <glyph glyph-name="Udieresis" unicode="&#xdc;" 
d="M350 1650q0 -21 -14.5 -35.5t-35.5 -14.5t-35.5 14.5t-14.5 35.5t14.5 35.5t35.5 14.5t35.5 -14.5t14.5 -35.5zM650 1650q0 -21 -14.5 -35.5t-35.5 -14.5t-35.5 14.5t-14.5 35.5t14.5 35.5t35.5 14.5t35.5 -14.5t14.5 -35.5zM150 1400q21 0 35.5 -14.5t14.5 -35.5v-1030
q0 -104 73 -177t177 -73t177 73t73 177v1030q0 21 14.5 35.5t35.5 14.5t35.5 -14.5t14.5 -35.5v-1030q0 -145 -102.5 -247.5t-247.5 -102.5t-247.5 102.5t-102.5 247.5v1030q0 21 14.5 35.5t35.5 14.5z" />
    <glyph glyph-name="Yacute" unicode="&#xdd;" 
d="M500 1700q21 0 35.5 -14.5t14.5 -35.5q0 -10 -5 -22l-50 -100q-14 -28 -45 -28q-21 0 -35.5 14.5t-14.5 35.5q0 10 5 22l50 100q14 28 45 28zM100 1400q31 0 44 -26l306 -568l306 568q13 26 44 26q21 0 35.5 -14.5t14.5 -35.5q0 -14 -6 -24l-344 -639v-637
q0 -21 -14.5 -35.5t-35.5 -14.5t-35.5 14.5t-14.5 35.5v637l-344 639q-6 10 -6 24q0 21 14.5 35.5t35.5 14.5z" />
    <glyph glyph-name="germandbls" unicode="&#xdf;" 
d="M400 1400h100q124 0 212 -88t88 -212v-50q0 -77 -36 -143t-98 -107q62 -41 98 -107t36 -143v-250q0 -124 -88 -212t-212 -88q-21 0 -35.5 14.5t-14.5 35.5t14.5 35.5t35.5 14.5q82 0 141 59t59 141v250q0 82 -59 141t-141 59q-21 0 -35.5 14.5t-14.5 35.5t14.5 35.5
t35.5 14.5q82 0 141 59t59 141v50q0 82 -59 141t-141 59h-100q-82 0 -141 -59t-59 -141v-1050q0 -21 -14.5 -35.5t-35.5 -14.5t-35.5 14.5t-14.5 35.5v1050q0 124 88 212t212 88z" />
    <glyph glyph-name="agrave" unicode="&#xe0;" horiz-adv-x="820" 
d="M390 1400q31 0 45 -28l50 -100q5 -12 5 -22q0 -21 -14.5 -35.5t-35.5 -14.5q-31 0 -45 28l-50 100q-5 12 -5 22q0 21 14.5 35.5t35.5 14.5zM340 1000h300q21 0 35.5 -14.5t14.5 -35.5v-800q0 -21 14.5 -35.5t35.5 -14.5t35.5 -14.5t14.5 -35.5t-14.5 -35.5t-35.5 -14.5
q-41 0 -75.5 20.5t-54.5 55.5q-89 -96 -220 -96q-124 0 -212 88t-88 212v470q0 104 73 177t177 73zM340 900q-62 0 -106 -44t-44 -106v-470q0 -82 59 -141t141 -59t141 59t59 141v620h-250z" />
    <glyph glyph-name="aacute" unicode="&#xe1;" horiz-adv-x="820" 
d="M490 1400q21 0 35.5 -14.5t14.5 -35.5q0 -10 -5 -22l-50 -100q-14 -28 -45 -28q-21 0 -35.5 14.5t-14.5 35.5q0 10 5 22l50 100q14 28 45 28zM340 1000h300q21 0 35.5 -14.5t14.5 -35.5v-800q0 -21 14.5 -35.5t35.5 -14.5t35.5 -14.5t14.5 -35.5t-14.5 -35.5t-35.5 -14.5
q-41 0 -75.5 20.5t-54.5 55.5q-89 -96 -220 -96q-124 0 -212 88t-88 212v470q0 104 73 177t177 73zM340 900q-62 0 -106 -44t-44 -106v-470q0 -82 59 -141t141 -59t141 59t59 141v620h-250z" />
    <glyph glyph-name="acircumflex" unicode="&#xe2;" horiz-adv-x="820" 
d="M440 1400q20 0 35 -15l100 -100q15 -15 15 -35q0 -21 -14.5 -35.5t-35.5 -14.5q-20 0 -35 15l-65 64l-65 -64q-15 -15 -35 -15q-21 0 -35.5 14.5t-14.5 35.5q0 20 15 35l100 100q15 15 35 15zM340 1000h300q21 0 35.5 -14.5t14.5 -35.5v-800q0 -21 14.5 -35.5t35.5 -14.5
t35.5 -14.5t14.5 -35.5t-14.5 -35.5t-35.5 -14.5q-41 0 -75.5 20.5t-54.5 55.5q-89 -96 -220 -96q-124 0 -212 88t-88 212v470q0 104 73 177t177 73zM340 900q-62 0 -106 -44t-44 -106v-470q0 -82 59 -141t141 -59t141 59t59 141v620h-250z" />
    <glyph glyph-name="atilde" unicode="&#xe3;" horiz-adv-x="820" 
d="M365 1400q57 0 105 -35q20 -15 45 -15t45 15q13 10 30 10q21 0 35.5 -14.5t14.5 -35.5q0 -28 -22 -42q-46 -33 -103 -33t-105 35q-20 15 -45 15t-45 -15q-13 -10 -30 -10q-21 0 -35.5 14.5t-14.5 35.5q0 27 23 42q49 33 102 33zM340 1000h300q21 0 35.5 -14.5t14.5 -35.5
v-800q0 -21 14.5 -35.5t35.5 -14.5t35.5 -14.5t14.5 -35.5t-14.5 -35.5t-35.5 -14.5q-41 0 -75.5 20.5t-54.5 55.5q-89 -96 -220 -96q-124 0 -212 88t-88 212v470q0 104 73 177t177 73zM340 900q-62 0 -106 -44t-44 -106v-470q0 -82 59 -141t141 -59t141 59t59 141v620h-250
z" />
    <glyph glyph-name="adieresis" unicode="&#xe4;" horiz-adv-x="820" 
d="M340 1350q0 -21 -14.5 -35.5t-35.5 -14.5t-35.5 14.5t-14.5 35.5t14.5 35.5t35.5 14.5t35.5 -14.5t14.5 -35.5zM640 1350q0 -21 -14.5 -35.5t-35.5 -14.5t-35.5 14.5t-14.5 35.5t14.5 35.5t35.5 14.5t35.5 -14.5t14.5 -35.5zM340 1000h300q21 0 35.5 -14.5t14.5 -35.5
v-800q0 -21 14.5 -35.5t35.5 -14.5t35.5 -14.5t14.5 -35.5t-14.5 -35.5t-35.5 -14.5q-41 0 -75.5 20.5t-54.5 55.5q-89 -96 -220 -96q-124 0 -212 88t-88 212v470q0 104 73 177t177 73zM340 900q-62 0 -106 -44t-44 -106v-470q0 -82 59 -141t141 -59t141 59t59 141v620h-250
z" />
    <glyph glyph-name="aring" unicode="&#xe5;" horiz-adv-x="820" 
d="M440 1400q62 0 106 -44t44 -106t-44 -106t-106 -44t-106 44t-44 106t44 106t106 44zM440 1300q-21 0 -35.5 -14.5t-14.5 -35.5t14.5 -35.5t35.5 -14.5t35.5 14.5t14.5 35.5t-14.5 35.5t-35.5 14.5zM340 1000h300q21 0 35.5 -14.5t14.5 -35.5v-800q0 -21 14.5 -35.5
t35.5 -14.5t35.5 -14.5t14.5 -35.5t-14.5 -35.5t-35.5 -14.5q-41 0 -75.5 20.5t-54.5 55.5q-89 -96 -220 -96q-124 0 -212 88t-88 212v470q0 104 73 177t177 73zM340 900q-62 0 -106 -44t-44 -106v-470q0 -82 59 -141t141 -59t141 59t59 141v620h-250z" />
    <glyph glyph-name="ae" unicode="&#xe6;" horiz-adv-x="1270" 
d="M170 1000h300q90 0 150 -68q60 68 150 68h200q82 0 141 -59t59 -141v-300q0 -21 -14.5 -35.5t-35.5 -14.5h-450v-250q0 -41 29.5 -70.5t70.5 -29.5h350q21 0 35.5 -14.5t14.5 -35.5t-14.5 -35.5t-35.5 -14.5h-350q-90 0 -150 68q-60 -68 -150 -68h-200q-82 0 -141 59
t-59 141v150q0 82 59 141t141 59h300v250q0 41 -29.5 70.5t-70.5 29.5h-300q-21 0 -35.5 14.5t-14.5 35.5t14.5 35.5t35.5 14.5zM770 900q-41 0 -70.5 -29.5t-29.5 -70.5v-250h400v250q0 41 -29.5 70.5t-70.5 29.5h-200zM270 450q-41 0 -70.5 -29.5t-29.5 -70.5v-150
q0 -41 29.5 -70.5t70.5 -29.5h200q41 0 70.5 29.5t29.5 70.5v250h-300z" />
    <glyph glyph-name="ccedilla" unicode="&#xe7;" horiz-adv-x="700" 
d="M300 1000h250q21 0 35.5 -14.5t14.5 -35.5t-14.5 -35.5t-35.5 -14.5h-250q-41 0 -70.5 -29.5t-29.5 -70.5v-600q0 -41 29.5 -70.5t70.5 -29.5h250q21 0 35.5 -14.5t14.5 -35.5t-14.5 -35.5t-35.5 -14.5h-169l-86 -172q-14 -28 -45 -28q-21 0 -35.5 14.5t-14.5 35.5
q0 10 5 22l65 130q-72 11 -121 67t-49 131v600q0 82 59 141t141 59z" />
    <glyph glyph-name="egrave" unicode="&#xe8;" horiz-adv-x="780" 
d="M340 1400q31 0 45 -28l50 -100q5 -12 5 -22q0 -21 -14.5 -35.5t-35.5 -14.5q-31 0 -45 28l-50 100q-5 12 -5 22q0 21 14.5 35.5t35.5 14.5zM390 1020q124 0 212 -88t88 -212v-220q0 -21 -14.5 -35.5t-35.5 -14.5h-450v-200q0 -62 44 -106t106 -44h300q21 0 35.5 -14.5
t14.5 -35.5t-14.5 -35.5t-35.5 -14.5h-300q-104 0 -177 73t-73 177v470q0 124 88 212t212 88zM390 920q-82 0 -141 -59t-59 -141v-170h400v170q0 82 -59 141t-141 59z" />
    <glyph glyph-name="eacute" unicode="&#xe9;" horiz-adv-x="780" 
d="M440 1400q21 0 35.5 -14.5t14.5 -35.5q0 -10 -5 -22l-50 -100q-14 -28 -45 -28q-21 0 -35.5 14.5t-14.5 35.5q0 10 5 22l50 100q14 28 45 28zM390 1020q124 0 212 -88t88 -212v-220q0 -21 -14.5 -35.5t-35.5 -14.5h-450v-200q0 -62 44 -106t106 -44h300q21 0 35.5 -14.5
t14.5 -35.5t-14.5 -35.5t-35.5 -14.5h-300q-104 0 -177 73t-73 177v470q0 124 88 212t212 88zM390 920q-82 0 -141 -59t-59 -141v-170h400v170q0 82 -59 141t-141 59z" />
    <glyph glyph-name="ecircumflex" unicode="&#xea;" horiz-adv-x="780" 
d="M390 1400q20 0 35 -15l100 -100q15 -15 15 -35q0 -21 -14.5 -35.5t-35.5 -14.5q-20 0 -35 15l-65 64l-65 -64q-15 -15 -35 -15q-21 0 -35.5 14.5t-14.5 35.5q0 20 15 35l100 100q15 15 35 15zM390 1020q124 0 212 -88t88 -212v-220q0 -21 -14.5 -35.5t-35.5 -14.5h-450
v-200q0 -62 44 -106t106 -44h300q21 0 35.5 -14.5t14.5 -35.5t-14.5 -35.5t-35.5 -14.5h-300q-104 0 -177 73t-73 177v470q0 124 88 212t212 88zM390 920q-82 0 -141 -59t-59 -141v-170h400v170q0 82 -59 141t-141 59z" />
    <glyph glyph-name="edieresis" unicode="&#xeb;" horiz-adv-x="780" 
d="M290 1350q0 -21 -14.5 -35.5t-35.5 -14.5t-35.5 14.5t-14.5 35.5t14.5 35.5t35.5 14.5t35.5 -14.5t14.5 -35.5zM590 1350q0 -21 -14.5 -35.5t-35.5 -14.5t-35.5 14.5t-14.5 35.5t14.5 35.5t35.5 14.5t35.5 -14.5t14.5 -35.5zM390 1020q124 0 212 -88t88 -212v-220
q0 -21 -14.5 -35.5t-35.5 -14.5h-450v-200q0 -62 44 -106t106 -44h300q21 0 35.5 -14.5t14.5 -35.5t-14.5 -35.5t-35.5 -14.5h-300q-104 0 -177 73t-73 177v470q0 124 88 212t212 88zM390 920q-82 0 -141 -59t-59 -141v-170h400v170q0 82 -59 141t-141 59z" />
    <glyph glyph-name="igrave" unicode="&#xec;" horiz-adv-x="300" 
d="M100 1400q31 0 45 -28l50 -100q5 -12 5 -22q0 -21 -14.5 -35.5t-35.5 -14.5q-31 0 -45 28l-50 100q-5 12 -5 22q0 21 14.5 35.5t35.5 14.5zM150 1000q21 0 35.5 -14.5t14.5 -35.5v-900q0 -21 -14.5 -35.5t-35.5 -14.5t-35.5 14.5t-14.5 35.5v900q0 21 14.5 35.5
t35.5 14.5z" />
    <glyph glyph-name="iacute" unicode="&#xed;" horiz-adv-x="300" 
d="M200 1400q21 0 35.5 -14.5t14.5 -35.5q0 -10 -5 -22l-50 -100q-14 -28 -45 -28q-21 0 -35.5 14.5t-14.5 35.5q0 10 5 22l50 100q14 28 45 28zM150 1000q21 0 35.5 -14.5t14.5 -35.5v-900q0 -21 -14.5 -35.5t-35.5 -14.5t-35.5 14.5t-14.5 35.5v900q0 21 14.5 35.5
t35.5 14.5z" />
    <glyph glyph-name="icircumflex" unicode="&#xee;" horiz-adv-x="400" 
d="M200 1400q20 0 35 -15l100 -100q15 -15 15 -35q0 -21 -14.5 -35.5t-35.5 -14.5q-20 0 -35 15l-65 64l-65 -64q-15 -15 -35 -15q-21 0 -35.5 14.5t-14.5 35.5q0 20 15 35l100 100q15 15 35 15zM200 1000q21 0 35.5 -14.5t14.5 -35.5v-900q0 -21 -14.5 -35.5t-35.5 -14.5
t-35.5 14.5t-14.5 35.5v900q0 21 14.5 35.5t35.5 14.5z" />
    <glyph glyph-name="idieresis" unicode="&#xef;" horiz-adv-x="500" 
d="M150 1350q0 -21 -14.5 -35.5t-35.5 -14.5t-35.5 14.5t-14.5 35.5t14.5 35.5t35.5 14.5t35.5 -14.5t14.5 -35.5zM450 1350q0 -21 -14.5 -35.5t-35.5 -14.5t-35.5 14.5t-14.5 35.5t14.5 35.5t35.5 14.5t35.5 -14.5t14.5 -35.5zM250 1000q21 0 35.5 -14.5t14.5 -35.5v-900
q0 -21 -14.5 -35.5t-35.5 -14.5t-35.5 14.5t-14.5 35.5v900q0 21 14.5 35.5t35.5 14.5z" />
    <glyph glyph-name="ntilde" unicode="&#xf1;" horiz-adv-x="800" 
d="M325 1400q57 0 105 -35q20 -15 45 -15t45 15q13 10 30 10q21 0 35.5 -14.5t14.5 -35.5q0 -28 -22 -42q-46 -33 -103 -33t-105 35q-20 15 -45 15t-45 -15q-13 -10 -30 -10q-21 0 -35.5 14.5t-14.5 35.5q0 27 23 42q49 33 102 33zM150 1000h300q104 0 177 -73t73 -177v-700
q0 -21 -14.5 -35.5t-35.5 -14.5t-35.5 14.5t-14.5 35.5v700q0 62 -44 106t-106 44h-250v-850q0 -21 -14.5 -35.5t-35.5 -14.5t-35.5 14.5t-14.5 35.5v900q0 21 14.5 35.5t35.5 14.5z" />
    <glyph glyph-name="ograve" unicode="&#xf2;" horiz-adv-x="780" 
d="M340 1400q31 0 45 -28l50 -100q5 -12 5 -22q0 -21 -14.5 -35.5t-35.5 -14.5q-31 0 -45 28l-50 100q-5 12 -5 22q0 21 14.5 35.5t35.5 14.5zM390 1020q124 0 212 -88t88 -212v-440q0 -124 -88 -212t-212 -88t-212 88t-88 212v440q0 124 88 212t212 88zM390 920
q-82 0 -141 -59t-59 -141v-440q0 -82 59 -141t141 -59t141 59t59 141v440q0 82 -59 141t-141 59z" />
    <glyph glyph-name="oacute" unicode="&#xf3;" horiz-adv-x="780" 
d="M440 1400q21 0 35.5 -14.5t14.5 -35.5q0 -10 -5 -22l-50 -100q-14 -28 -45 -28q-21 0 -35.5 14.5t-14.5 35.5q0 10 5 22l50 100q14 28 45 28zM390 1020q124 0 212 -88t88 -212v-440q0 -124 -88 -212t-212 -88t-212 88t-88 212v440q0 124 88 212t212 88zM390 920
q-82 0 -141 -59t-59 -141v-440q0 -82 59 -141t141 -59t141 59t59 141v440q0 82 -59 141t-141 59z" />
    <glyph glyph-name="ocircumflex" unicode="&#xf4;" horiz-adv-x="780" 
d="M390 1400q20 0 35 -15l100 -100q15 -15 15 -35q0 -21 -14.5 -35.5t-35.5 -14.5q-20 0 -35 15l-65 64l-65 -64q-15 -15 -35 -15q-21 0 -35.5 14.5t-14.5 35.5q0 20 15 35l100 100q15 15 35 15zM390 1020q124 0 212 -88t88 -212v-440q0 -124 -88 -212t-212 -88t-212 88
t-88 212v440q0 124 88 212t212 88zM390 920q-82 0 -141 -59t-59 -141v-440q0 -82 59 -141t141 -59t141 59t59 141v440q0 82 -59 141t-141 59z" />
    <glyph glyph-name="otilde" unicode="&#xf5;" horiz-adv-x="780" 
d="M315 1400q57 0 105 -35q20 -15 45 -15t45 15q13 10 30 10q21 0 35.5 -14.5t14.5 -35.5q0 -28 -22 -42q-46 -33 -103 -33t-105 35q-20 15 -45 15t-45 -15q-13 -10 -30 -10q-21 0 -35.5 14.5t-14.5 35.5q0 27 23 42q49 33 102 33zM390 1020q124 0 212 -88t88 -212v-440
q0 -124 -88 -212t-212 -88t-212 88t-88 212v440q0 124 88 212t212 88zM390 920q-82 0 -141 -59t-59 -141v-440q0 -82 59 -141t141 -59t141 59t59 141v440q0 82 -59 141t-141 59z" />
    <glyph glyph-name="odieresis" unicode="&#xf6;" horiz-adv-x="780" 
d="M290 1350q0 -21 -14.5 -35.5t-35.5 -14.5t-35.5 14.5t-14.5 35.5t14.5 35.5t35.5 14.5t35.5 -14.5t14.5 -35.5zM590 1350q0 -21 -14.5 -35.5t-35.5 -14.5t-35.5 14.5t-14.5 35.5t14.5 35.5t35.5 14.5t35.5 -14.5t14.5 -35.5zM390 1020q124 0 212 -88t88 -212v-440
q0 -124 -88 -212t-212 -88t-212 88t-88 212v440q0 124 88 212t212 88zM390 920q-82 0 -141 -59t-59 -141v-440q0 -82 59 -141t141 -59t141 59t59 141v440q0 82 -59 141t-141 59z" />
    <glyph glyph-name="divide" unicode="&#xf7;" horiz-adv-x="700" 
d="M100 550h500q21 0 35.5 -14.5t14.5 -35.5t-14.5 -35.5t-35.5 -14.5h-500q-21 0 -35.5 14.5t-14.5 35.5t14.5 35.5t35.5 14.5zM400 250q0 -21 -14.5 -35.5t-35.5 -14.5t-35.5 14.5t-14.5 35.5t14.5 35.5t35.5 14.5t35.5 -14.5t14.5 -35.5zM400 750q0 -21 -14.5 -35.5
t-35.5 -14.5t-35.5 14.5t-14.5 35.5t14.5 35.5t35.5 14.5t35.5 -14.5t14.5 -35.5z" />
    <glyph glyph-name="oslash" unicode="&#xf8;" 
d="M350 1000h200q49 0 92 -22t70 -60l49 63q14 19 39 19q21 0 35.5 -14.5t14.5 -35.5q0 -18 -11 -31l-89 -115v-4v-600q0 -82 -59 -141t-141 -59h-200q-49 0 -92 22t-70 60l-49 -63q-14 -19 -39 -19q-21 0 -35.5 14.5t-14.5 35.5q0 18 11 31l89 115v4v600q0 82 59 141
t141 59zM350 900q-41 0 -70.5 -29.5t-29.5 -70.5v-476l395 508q-10 30 -36 49t-59 19h-200zM650 676l-395 -508q10 -30 36 -49t59 -19h200q41 0 70.5 29.5t29.5 70.5v476z" />
    <glyph glyph-name="ugrave" unicode="&#xf9;" horiz-adv-x="800" 
d="M350 1400q31 0 45 -28l50 -100q5 -12 5 -22q0 -21 -14.5 -35.5t-35.5 -14.5q-31 0 -45 28l-50 100q-5 12 -5 22q0 21 14.5 35.5t35.5 14.5zM650 0h-300q-104 0 -177 73t-73 177v700q0 21 14.5 35.5t35.5 14.5t35.5 -14.5t14.5 -35.5v-700q0 -62 44 -106t106 -44h250v850
q0 21 14.5 35.5t35.5 14.5t35.5 -14.5t14.5 -35.5v-900q0 -21 -14.5 -35.5t-35.5 -14.5z" />
    <glyph glyph-name="uacute" unicode="&#xfa;" horiz-adv-x="800" 
d="M450 1400q21 0 35.5 -14.5t14.5 -35.5q0 -10 -5 -22l-50 -100q-14 -28 -45 -28q-21 0 -35.5 14.5t-14.5 35.5q0 10 5 22l50 100q14 28 45 28zM650 0h-300q-104 0 -177 73t-73 177v700q0 21 14.5 35.5t35.5 14.5t35.5 -14.5t14.5 -35.5v-700q0 -62 44 -106t106 -44h250
v850q0 21 14.5 35.5t35.5 14.5t35.5 -14.5t14.5 -35.5v-900q0 -21 -14.5 -35.5t-35.5 -14.5z" />
    <glyph glyph-name="ucircumflex" unicode="&#xfb;" horiz-adv-x="800" 
d="M400 1400q20 0 35 -15l100 -100q15 -15 15 -35q0 -21 -14.5 -35.5t-35.5 -14.5q-20 0 -35 15l-65 64l-65 -64q-15 -15 -35 -15q-21 0 -35.5 14.5t-14.5 35.5q0 20 15 35l100 100q15 15 35 15zM650 0h-300q-104 0 -177 73t-73 177v700q0 21 14.5 35.5t35.5 14.5
t35.5 -14.5t14.5 -35.5v-700q0 -62 44 -106t106 -44h250v850q0 21 14.5 35.5t35.5 14.5t35.5 -14.5t14.5 -35.5v-900q0 -21 -14.5 -35.5t-35.5 -14.5z" />
    <glyph glyph-name="udieresis" unicode="&#xfc;" horiz-adv-x="800" 
d="M300 1350q0 -21 -14.5 -35.5t-35.5 -14.5t-35.5 14.5t-14.5 35.5t14.5 35.5t35.5 14.5t35.5 -14.5t14.5 -35.5zM600 1350q0 -21 -14.5 -35.5t-35.5 -14.5t-35.5 14.5t-14.5 35.5t14.5 35.5t35.5 14.5t35.5 -14.5t14.5 -35.5zM650 0h-300q-104 0 -177 73t-73 177v700
q0 21 14.5 35.5t35.5 14.5t35.5 -14.5t14.5 -35.5v-700q0 -62 44 -106t106 -44h250v850q0 21 14.5 35.5t35.5 14.5t35.5 -14.5t14.5 -35.5v-900q0 -21 -14.5 -35.5t-35.5 -14.5z" />
    <glyph glyph-name="yacute" unicode="&#xfd;" horiz-adv-x="750" 
d="M430 1400q21 0 35.5 -14.5t14.5 -35.5q0 -10 -5 -22l-50 -100q-14 -28 -45 -28q-21 0 -35.5 14.5t-14.5 35.5q0 10 5 22l50 100q14 28 45 28zM130 1000q17 0 30 -11t18 -27l202 -725l202 726q5 16 18 26.5t30 10.5q21 0 35.5 -14.5t14.5 -35.5q0 -5 -2 -13l-316 -1137
q-32 -113 -86.5 -156.5t-145.5 -43.5q-21 0 -35.5 14.5t-14.5 35.5t14.5 35.5t35.5 14.5q39 0 77.5 27t51.5 73l69 250l-246 887q-2 8 -2 13q0 21 14.5 35.5t35.5 14.5z" />
    <glyph glyph-name="ydieresis" unicode="&#xff;" horiz-adv-x="750" 
d="M280 1350q0 -21 -14.5 -35.5t-35.5 -14.5t-35.5 14.5t-14.5 35.5t14.5 35.5t35.5 14.5t35.5 -14.5t14.5 -35.5zM580 1350q0 -21 -14.5 -35.5t-35.5 -14.5t-35.5 14.5t-14.5 35.5t14.5 35.5t35.5 14.5t35.5 -14.5t14.5 -35.5zM130 1000q17 0 30 -11t18 -27l202 -725
l202 726q5 16 18 26.5t30 10.5q21 0 35.5 -14.5t14.5 -35.5q0 -5 -2 -13l-316 -1137q-32 -113 -86.5 -156.5t-145.5 -43.5q-21 0 -35.5 14.5t-14.5 35.5t14.5 35.5t35.5 14.5q39 0 77.5 27t51.5 73l69 250l-246 887q-2 8 -2 13q0 21 14.5 35.5t35.5 14.5z" />
    <glyph glyph-name="dotlessi" unicode="&#x131;" horiz-adv-x="300" 
d="M150 1000q21 0 35.5 -14.5t14.5 -35.5v-900q0 -21 -14.5 -35.5t-35.5 -14.5t-35.5 14.5t-14.5 35.5v900q0 21 14.5 35.5t35.5 14.5z" />
    <glyph glyph-name="circumflex" unicode="&#x2c6;" horiz-adv-x="500" 
d="M250 1400q20 0 35 -15l100 -100q15 -15 15 -35q0 -21 -14.5 -35.5t-35.5 -14.5q-20 0 -35 15l-65 64l-65 -64q-15 -15 -35 -15q-21 0 -35.5 14.5t-14.5 35.5q0 20 15 35l100 100q15 15 35 15z" />
    <glyph glyph-name="caron" unicode="&#x2c7;" horiz-adv-x="500" 
d="M250 1200q-20 0 -35 15l-100 100q-15 15 -15 35q0 21 14.5 35.5t35.5 14.5q20 0 35 -15l65 -64l65 64q15 15 35 15q21 0 35.5 -14.5t14.5 -35.5q0 -20 -15 -35l-100 -100q-15 -15 -35 -15z" />
    <glyph glyph-name="breve" unicode="&#x2d8;" horiz-adv-x="500" 
d="M150 1400q21 0 35.5 -14.5t14.5 -35.5t14.5 -35.5t35.5 -14.5t35.5 14.5t14.5 35.5t14.5 35.5t35.5 14.5t35.5 -14.5t14.5 -35.5q0 -62 -44 -106t-106 -44t-106 44t-44 106q0 21 14.5 35.5t35.5 14.5z" />
    <glyph glyph-name="dotaccent" unicode="&#x2d9;" horiz-adv-x="300" 
d="M200 1350q0 -21 -14.5 -35.5t-35.5 -14.5t-35.5 14.5t-14.5 35.5t14.5 35.5t35.5 14.5t35.5 -14.5t14.5 -35.5z" />
    <glyph glyph-name="ring" unicode="&#x2da;" horiz-adv-x="500" 
d="M250 1400q62 0 106 -44t44 -106t-44 -106t-106 -44t-106 44t-44 106t44 106t106 44zM250 1300q-21 0 -35.5 -14.5t-14.5 -35.5t14.5 -35.5t35.5 -14.5t35.5 14.5t14.5 35.5t-14.5 35.5t-35.5 14.5z" />
    <glyph glyph-name="tilde" unicode="&#x2dc;" horiz-adv-x="600" 
d="M225 1400q57 0 105 -35q20 -15 45 -15t45 15q13 10 30 10q21 0 35.5 -14.5t14.5 -35.5q0 -28 -22 -42q-46 -33 -103 -33t-105 35q-20 15 -45 15t-45 -15q-13 -10 -30 -10q-21 0 -35.5 14.5t-14.5 35.5q0 27 23 42q49 33 102 33z" />
    <glyph glyph-name="hungarumlaut" unicode="&#x2dd;" horiz-adv-x="550" 
d="M400 1400q21 0 35.5 -14.5t14.5 -35.5q0 -10 -5 -22l-50 -100q-14 -28 -45 -28q-21 0 -35.5 14.5t-14.5 35.5q0 10 5 22l50 100q14 28 45 28zM150 1400q21 0 35.5 -14.5t14.5 -35.5q0 -10 -5 -22l-50 -100q-14 -28 -45 -28q-21 0 -35.5 14.5t-14.5 35.5q0 10 5 22l50 100
q14 28 45 28z" />
    <glyph glyph-name="Alpha" unicode="&#x391;" 
d="M450 1400q17 0 30.5 -10.5t18.5 -27.5l349 -1299q2 -8 2 -13q0 -21 -14.5 -35.5t-35.5 -14.5q-17 0 -30 10.5t-18 26.5l-98 363h-408l-98 -363q-5 -16 -18 -26.5t-30 -10.5q-21 0 -35.5 14.5t-14.5 35.5q0 5 2 13l350 1300q5 16 18 26.5t30 10.5zM450 1158l-177 -658h354
z" />
    <glyph glyph-name="Beta" unicode="&#x392;" horiz-adv-x="870" 
d="M150 1400h250q145 0 247.5 -102.5t102.5 -247.5q0 -92 -44 -170.5t-119 -125.5q97 -51 155 -145.5t58 -208.5q0 -166 -117 -283t-283 -117h-250q-21 0 -35.5 14.5t-14.5 35.5v1300q0 21 14.5 35.5t35.5 14.5zM200 1300v-500h200q104 0 177 73t73 177t-73 177t-177 73
h-200zM200 700v-600h200q124 0 212 88t88 212t-88 212t-212 88h-200z" />
    <glyph glyph-name="Gamma" unicode="&#x393;" horiz-adv-x="750" 
d="M150 1400h500q21 0 35.5 -14.5t14.5 -35.5t-14.5 -35.5t-35.5 -14.5h-450v-1250q0 -21 -14.5 -35.5t-35.5 -14.5t-35.5 14.5t-14.5 35.5v1300q0 21 14.5 35.5t35.5 14.5z" />
    <glyph glyph-name="Delta" unicode="&#x394;" 
d="M450 1400q17 0 30.5 -10.5t18.5 -27.5l349 -1299q2 -8 2 -13q0 -21 -14.5 -35.5t-35.5 -14.5h-700q-21 0 -35.5 14.5t-14.5 35.5q0 5 2 13l349 1299q5 17 18.5 27.5t30.5 10.5zM450 1158l-285 -1058h570z" />
    <glyph glyph-name="Epsilon" unicode="&#x395;" horiz-adv-x="780" 
d="M150 1400h500q21 0 35.5 -14.5t14.5 -35.5t-14.5 -35.5t-35.5 -14.5h-450v-500h250q21 0 35.5 -14.5t14.5 -35.5t-14.5 -35.5t-35.5 -14.5h-250v-600h450q21 0 35.5 -14.5t14.5 -35.5t-14.5 -35.5t-35.5 -14.5h-500q-21 0 -35.5 14.5t-14.5 35.5v1300q0 21 14.5 35.5
t35.5 14.5z" />
    <glyph glyph-name="Zeta" unicode="&#x396;" horiz-adv-x="840" 
d="M120 1400h600q21 0 35.5 -14.5t14.5 -35.5q0 -11 -5 -21l-567 -1229h522q21 0 35.5 -14.5t14.5 -35.5t-14.5 -35.5t-35.5 -14.5h-600q-21 0 -35.5 14.5t-14.5 35.5q0 11 5 21l567 1229h-522q-21 0 -35.5 14.5t-14.5 35.5t14.5 35.5t35.5 14.5z" />
    <glyph glyph-name="Eta" unicode="&#x397;" 
d="M150 1400q21 0 35.5 -14.5t14.5 -35.5v-550h500v550q0 21 14.5 35.5t35.5 14.5t35.5 -14.5t14.5 -35.5v-1300q0 -21 -14.5 -35.5t-35.5 -14.5t-35.5 14.5t-14.5 35.5v650h-500v-650q0 -21 -14.5 -35.5t-35.5 -14.5t-35.5 14.5t-14.5 35.5v1300q0 21 14.5 35.5t35.5 14.5z
" />
    <glyph glyph-name="Theta" unicode="&#x398;" horiz-adv-x="880" 
d="M340 800h200q21 0 35.5 -14.5t14.5 -35.5t-14.5 -35.5t-35.5 -14.5h-200q-21 0 -35.5 14.5t-14.5 35.5t14.5 35.5t35.5 14.5zM440 1430q145 0 247.5 -102.5t102.5 -247.5v-760q0 -145 -102.5 -247.5t-247.5 -102.5t-247.5 102.5t-102.5 247.5v760q0 145 102.5 247.5
t247.5 102.5zM440 1330q-104 0 -177 -73t-73 -177v-760q0 -104 73 -177t177 -73t177 73t73 177v760q0 104 -73 177t-177 73z" />
    <glyph glyph-name="Iota" unicode="&#x399;" horiz-adv-x="300" 
d="M150 1400q21 0 35.5 -14.5t14.5 -35.5v-1300q0 -21 -14.5 -35.5t-35.5 -14.5t-35.5 14.5t-14.5 35.5v1300q0 21 14.5 35.5t35.5 14.5z" />
    <glyph glyph-name="Kappa" unicode="&#x39a;" horiz-adv-x="880" 
d="M150 1400q21 0 35.5 -14.5t14.5 -35.5v-650l510 680q15 20 40 20q21 0 35.5 -14.5t14.5 -35.5q0 -17 -10 -30l-386 -515l390 -731q6 -10 6 -24q0 -21 -14.5 -35.5t-35.5 -14.5q-31 0 -44 26l-368 691l-138 -184v-483q0 -21 -14.5 -35.5t-35.5 -14.5t-35.5 14.5
t-14.5 35.5v1300q0 21 14.5 35.5t35.5 14.5z" />
    <glyph glyph-name="Lambda" unicode="&#x39b;" 
d="M450 1400q17 0 30.5 -10.5t18.5 -27.5l349 -1299q2 -8 2 -13q0 -21 -14.5 -35.5t-35.5 -14.5q-17 0 -30 10.5t-18 26.5l-302 1121l-302 -1121q-5 -16 -18 -26.5t-30 -10.5q-21 0 -35.5 14.5t-14.5 35.5q0 5 2 13l350 1300q5 16 18 26.5t30 10.5z" />
    <glyph glyph-name="Mu" unicode="&#x39c;" horiz-adv-x="1100" 
d="M150 1400q29 0 43 -25l357 -624l357 624q14 25 43 25q21 0 35.5 -14.5t14.5 -35.5v-1300q0 -21 -14.5 -35.5t-35.5 -14.5t-35.5 14.5t-14.5 35.5v1112l-307 -537q-14 -25 -43 -25t-44 26l-306 536v-1112q0 -21 -14.5 -35.5t-35.5 -14.5t-35.5 14.5t-14.5 35.5v1300
q0 21 14.5 35.5t35.5 14.5z" />
    <glyph glyph-name="Nu" unicode="&#x39d;" 
d="M150 1400q32 0 45 -29l505 -1093v1072q0 21 14.5 35.5t35.5 14.5t35.5 -14.5t14.5 -35.5v-1300q0 -21 -14.5 -35.5t-35.5 -14.5q-32 0 -45 29l-505 1093v-1072q0 -21 -14.5 -35.5t-35.5 -14.5t-35.5 14.5t-14.5 35.5v1300q0 21 14.5 35.5t35.5 14.5z" />
    <glyph glyph-name="Xi" unicode="&#x39e;" horiz-adv-x="840" 
d="M120 100h600q21 0 35.5 -14.5t14.5 -35.5t-14.5 -35.5t-35.5 -14.5h-600q-21 0 -35.5 14.5t-14.5 35.5t14.5 35.5t35.5 14.5zM270 800h300q21 0 35.5 -14.5t14.5 -35.5t-14.5 -35.5t-35.5 -14.5h-300q-21 0 -35.5 14.5t-14.5 35.5t14.5 35.5t35.5 14.5zM120 1400h600
q21 0 35.5 -14.5t14.5 -35.5t-14.5 -35.5t-35.5 -14.5h-600q-21 0 -35.5 14.5t-14.5 35.5t14.5 35.5t35.5 14.5z" />
    <glyph glyph-name="Omicron" unicode="&#x39f;" horiz-adv-x="880" 
d="M440 1430q145 0 247.5 -102.5t102.5 -247.5v-760q0 -145 -102.5 -247.5t-247.5 -102.5t-247.5 102.5t-102.5 247.5v760q0 145 102.5 247.5t247.5 102.5zM440 1330q-104 0 -177 -73t-73 -177v-760q0 -104 73 -177t177 -73t177 73t73 177v760q0 104 -73 177t-177 73z" />
    <glyph glyph-name="Pi" unicode="&#x3a0;" 
d="M150 1400h600q21 0 35.5 -14.5t14.5 -35.5v-1300q0 -21 -14.5 -35.5t-35.5 -14.5t-35.5 14.5t-14.5 35.5v1250h-500v-1250q0 -21 -14.5 -35.5t-35.5 -14.5t-35.5 14.5t-14.5 35.5v1300q0 21 14.5 35.5t35.5 14.5z" />
    <glyph glyph-name="Rho" unicode="&#x3a1;" horiz-adv-x="870" 
d="M150 1400h250q166 0 283 -117t117 -283t-117 -283t-283 -117h-200v-550q0 -21 -14.5 -35.5t-35.5 -14.5t-35.5 14.5t-14.5 35.5v1300q0 21 14.5 35.5t35.5 14.5zM200 1300v-600h200q124 0 212 88t88 212t-88 212t-212 88h-200z" />
    <glyph glyph-name="Sigma" unicode="&#x3a3;" horiz-adv-x="870" 
d="M140 1400h600q21 0 35.5 -14.5t14.5 -35.5t-14.5 -35.5t-35.5 -14.5h-522l267 -579q5 -10 5 -21t-5 -21l-267 -579h522q21 0 35.5 -14.5t14.5 -35.5t-14.5 -35.5t-35.5 -14.5h-600q-21 0 -35.5 14.5t-14.5 35.5q0 11 5 21l290 629l-290 629q-5 10 -5 21q0 21 14.5 35.5
t35.5 14.5z" />
    <glyph glyph-name="Tau" unicode="&#x3a4;" horiz-adv-x="840" 
d="M120 1400h600q21 0 35.5 -14.5t14.5 -35.5t-14.5 -35.5t-35.5 -14.5h-250v-1250q0 -21 -14.5 -35.5t-35.5 -14.5t-35.5 14.5t-14.5 35.5v1250h-250q-21 0 -35.5 14.5t-14.5 35.5t14.5 35.5t35.5 14.5z" />
    <glyph glyph-name="Upsilon" unicode="&#x3a5;" 
d="M100 1400q31 0 44 -26l306 -568l306 568q13 26 44 26q21 0 35.5 -14.5t14.5 -35.5q0 -14 -6 -24l-344 -639v-637q0 -21 -14.5 -35.5t-35.5 -14.5t-35.5 14.5t-14.5 35.5v637l-344 639q-6 10 -6 24q0 21 14.5 35.5t35.5 14.5z" />
    <glyph glyph-name="Phi" unicode="&#x3a6;" horiz-adv-x="940" 
d="M470 1400q21 0 35.5 -14.5t14.5 -35.5v-153q149 -19 249.5 -132t100.5 -265v-200q0 -152 -100.5 -265t-249.5 -132v-153q0 -21 -14.5 -35.5t-35.5 -14.5t-35.5 14.5t-14.5 35.5v153q-149 19 -249.5 132t-100.5 265v200q0 152 100.5 265t249.5 132v153q0 21 14.5 35.5
t35.5 14.5zM420 1096q-107 -18 -178.5 -101.5t-71.5 -194.5v-200q0 -111 71.5 -194.5t178.5 -101.5v792zM520 1096v-792q107 18 178.5 101.5t71.5 194.5v200q0 111 -71.5 194.5t-178.5 101.5z" />
    <glyph glyph-name="Chi" unicode="&#x3a7;" horiz-adv-x="960" 
d="M130 1400q31 0 44 -26l306 -568l306 568q13 26 44 26q21 0 35.5 -14.5t14.5 -35.5q0 -14 -6 -24l-337 -626l337 -626q6 -10 6 -24q0 -21 -14.5 -35.5t-35.5 -14.5q-31 0 -44 26l-306 568l-306 -568q-13 -26 -44 -26q-21 0 -35.5 14.5t-14.5 35.5q0 14 6 24l337 626
l-337 626q-6 10 -6 24q0 21 14.5 35.5t35.5 14.5z" />
    <glyph glyph-name="Psi" unicode="&#x3a8;" horiz-adv-x="980" 
d="M140 1400q21 0 35.5 -14.5t14.5 -35.5v-550q0 -111 71.5 -194.5t178.5 -101.5v846q0 21 14.5 35.5t35.5 14.5t35.5 -14.5t14.5 -35.5v-846q107 18 178.5 101.5t71.5 194.5v550q0 21 14.5 35.5t35.5 14.5t35.5 -14.5t14.5 -35.5v-550q0 -152 -100.5 -265t-249.5 -132v-353
q0 -21 -14.5 -35.5t-35.5 -14.5t-35.5 14.5t-14.5 35.5v353q-149 19 -249.5 132t-100.5 265v550q0 21 14.5 35.5t35.5 14.5z" />
    <glyph glyph-name="Omega" unicode="&#x3a9;" horiz-adv-x="980" 
d="M490 1430q166 0 283 -117t117 -283v-480q0 -111 -71.5 -194.5t-178.5 -101.5v-154h100q21 0 35.5 -14.5t14.5 -35.5t-14.5 -35.5t-35.5 -14.5h-150q-21 0 -35.5 14.5t-14.5 35.5v250q0 21 14.5 35.5t35.5 14.5q82 0 141 59t59 141v480q0 124 -88 212t-212 88t-212 -88
t-88 -212v-480q0 -82 59 -141t141 -59q21 0 35.5 -14.5t14.5 -35.5v-250q0 -21 -14.5 -35.5t-35.5 -14.5h-150q-21 0 -35.5 14.5t-14.5 35.5t14.5 35.5t35.5 14.5h100v154q-107 18 -178.5 101.5t-71.5 194.5v480q0 166 117 283t283 117z" />
    <glyph glyph-name="alpha" unicode="&#x3b1;" horiz-adv-x="870" 
d="M340 1020q86 0 153 -52t89 -133l37 -142l73 270q5 16 18 26.5t30 10.5q21 0 35.5 -14.5t14.5 -35.5q0 -5 -2 -13l-117 -437l104 -388q4 -12 15 -12q21 0 35.5 -14.5t14.5 -35.5t-14.5 -35.5t-35.5 -14.5h-10q-39 0 -65.5 25t-36.5 65l-59 217l-37 -142q-22 -81 -89 -133
t-153 -52q-104 0 -177 73t-73 177v540q0 104 73 177t177 73zM340 920q-62 0 -106 -44t-44 -106v-540q0 -62 44 -106t106 -44q51 0 91.5 31.5t53.5 79.5l83 309l-83 309q-13 48 -53.5 79.5t-91.5 31.5z" />
    <glyph glyph-name="beta" unicode="&#x3b2;" horiz-adv-x="790" 
d="M375 1420q114 0 194.5 -80.5t80.5 -194.5v-70q0 -63 -27.5 -119.5t-74.5 -94.5q69 -40 110.5 -109t41.5 -152v-300q0 -124 -88 -212t-212 -88h-50q-21 0 -35.5 14.5t-14.5 35.5t14.5 35.5t35.5 14.5h50q82 0 141 59t59 141v300q0 82 -59 141t-141 59h-50
q-21 0 -35.5 14.5t-14.5 35.5t14.5 35.5t35.5 14.5h25q73 0 124 51t51 124v70q0 73 -51 124t-124 51t-124 -51t-51 -124v-1495q0 -21 -14.5 -35.5t-35.5 -14.5t-35.5 14.5t-14.5 35.5v1495q0 114 80.5 194.5t194.5 80.5z" />
    <glyph glyph-name="gamma" unicode="&#x3b3;" horiz-adv-x="690" 
d="M90 1000q133 0 226 -163q38 -67 75 -171q62 172 157 311q15 23 42 23q21 0 35.5 -14.5t14.5 -35.5q0 -16 -9 -29q-115 -166 -189 -422q20 -80 34 -209t14 -240q0 -224 -6 -298q-7 -63 -18 -93q-12 -26 -25 -38q-21 -21 -51 -21t-51 21q-14 13 -25 39q-11 28 -18 92
q-6 74 -6 298q0 112 14 241t34 208q-56 197 -109 288q-65 113 -139 113q-21 0 -35.5 14.5t-14.5 35.5t14.5 35.5t35.5 14.5z" />
    <glyph glyph-name="delta" unicode="&#x3b4;" horiz-adv-x="780" 
d="M370 1420q105 0 202 -82q18 -15 18 -38q0 -21 -14.5 -35.5t-35.5 -14.5q-17 0 -32 12q-41 33 -71 45.5t-67 12.5q-49 0 -68 -17q-12 -11 -12 -33q0 -29 21 -50l290 -287q89 -87 89 -213v-440q0 -124 -88 -212t-212 -88t-212 88t-88 212v440q0 120 82 206t200 93l-132 130
q-50 50 -50 121q0 66 46 108t134 42zM390 920q-82 0 -141 -59t-59 -141v-440q0 -82 59 -141t141 -59t141 59t59 141v440q0 82 -59 141t-141 59z" />
    <glyph glyph-name="epsilon" unicode="&#x3b5;" horiz-adv-x="770" 
d="M375 1020q84 0 144 -12t123 -43q28 -14 28 -45q0 -21 -14.5 -35.5t-35.5 -14.5q-10 0 -22 5q-54 27 -99.5 36t-123.5 9q-77 0 -131 -54t-54 -131t54 -131t131 -54h65q21 0 35.5 -14.5t14.5 -35.5t-14.5 -35.5t-35.5 -14.5h-65q-77 0 -131 -54t-54 -131t54 -131t131 -54
q83 0 127.5 8.5t118.5 37.5q12 4 19 4q21 0 35.5 -14.5t14.5 -35.5q0 -34 -31 -46q-78 -31 -137.5 -42.5t-146.5 -11.5q-118 0 -201.5 83.5t-83.5 201.5q0 72 33.5 134t90.5 101q-57 39 -90.5 101t-33.5 134q0 118 83.5 201.5t201.5 83.5z" />
    <glyph glyph-name="zeta" unicode="&#x3b6;" horiz-adv-x="710" 
d="M130 1400q21 0 35.5 -14.5t14.5 -35.5q0 -62 44 -106t106 -44h250q21 0 35.5 -14.5t14.5 -35.5q0 -26 -22 -41q-205 -145 -316.5 -362.5t-111.5 -446.5q0 -82 59 -141t141 -59h50q104 0 177 -73t73 -177t-73 -177t-177 -73h-200q-21 0 -35.5 14.5t-14.5 35.5t14.5 35.5
t35.5 14.5h200q62 0 106 44t44 106t-44 106t-106 44h-50q-124 0 -212 88t-88 212q0 215 91.5 427t266.5 373h-108q-104 0 -177 73t-73 177q0 21 14.5 35.5t35.5 14.5z" />
    <glyph glyph-name="eta" unicode="&#x3b7;" horiz-adv-x="830" 
d="M430 1020q124 0 212 -88t88 -212v-1070q0 -21 -14.5 -35.5t-35.5 -14.5t-35.5 14.5t-14.5 35.5v1070q0 82 -59 141t-141 59t-141 -59t-59 -141v-670q0 -21 -14.5 -35.5t-35.5 -14.5t-35.5 14.5t-14.5 35.5v800q0 21 -14.5 35.5t-35.5 14.5t-35.5 14.5t-14.5 35.5
t14.5 35.5t35.5 14.5q41 0 75.5 -20.5t54.5 -55.5q89 96 220 96z" />
    <glyph glyph-name="theta" unicode="&#x3b8;" horiz-adv-x="980" 
d="M550 1420q124 0 212 -88t88 -212v-220h50q21 0 35.5 -14.5t14.5 -35.5t-14.5 -35.5t-35.5 -14.5h-50v-620q0 -82 -59 -141t-141 -59q-54 0 -99.5 26.5t-72.5 71.5l-235 397q-15 25 -43 25q-21 0 -35.5 -14.5t-14.5 -35.5t-14.5 -35.5t-35.5 -14.5t-35.5 14.5t-14.5 35.5
q0 62 44 106t106 44q40 0 74.5 -20t54.5 -54l235 -397q29 -49 86 -49q41 0 70.5 29.5t29.5 70.5v620h-200q-124 0 -212 88t-88 212v20q0 124 88 212t212 88zM550 1320q-82 0 -141 -59t-59 -141v-20q0 -82 59 -141t141 -59h200v220q0 82 -59 141t-141 59z" />
    <glyph glyph-name="iota" unicode="&#x3b9;" horiz-adv-x="480" 
d="M140 1000q21 0 35.5 -14.5t14.5 -35.5v-790q0 -33 23.5 -56.5t56.5 -23.5q23 0 45 12.5t30 29.5q14 28 45 28q21 0 35.5 -14.5t14.5 -35.5q0 -10 -5 -22q-23 -46 -67.5 -72t-97.5 -26q-74 0 -127 53t-53 127v790q0 21 14.5 35.5t35.5 14.5z" />
    <glyph glyph-name="kappa" unicode="&#x3ba;" horiz-adv-x="810" 
d="M80 1000q62 0 106 -44t44 -106v-362l412 494q15 18 38 18q21 0 35.5 -14.5t14.5 -35.5q0 -17 -12 -32l-320 -385l239 -408q15 -25 43 -25h50q21 0 35.5 -14.5t14.5 -35.5t-14.5 -35.5t-35.5 -14.5h-50q-40 0 -74.5 20t-54.5 54l-221 378l-100 -120v-282
q0 -21 -14.5 -35.5t-35.5 -14.5t-35.5 14.5t-14.5 35.5v800q0 21 -14.5 35.5t-35.5 14.5t-35.5 14.5t-14.5 35.5t14.5 35.5t35.5 14.5z" />
    <glyph glyph-name="lambda" unicode="&#x3bb;" horiz-adv-x="760" 
d="M180 1400q63 0 107 -42t62 -108l315 -1135q4 -15 16 -15q21 0 35.5 -14.5t14.5 -35.5t-14.5 -35.5t-35.5 -14.5q-88 0 -116 100l-184 663l-202 -726q-5 -16 -18 -26.5t-30 -10.5q-21 0 -35.5 14.5t-14.5 35.5q0 5 2 13l246 887l-83 300q-6 23 -23.5 36.5t-41.5 13.5
q-21 0 -35.5 14.5t-14.5 35.5t14.5 35.5t35.5 14.5z" />
    <glyph glyph-name="mu" unicode="&#x3bc;" horiz-adv-x="830" 
d="M150 1000q21 0 35.5 -14.5t14.5 -35.5v-670q0 -82 59 -141t141 -59t141 59t59 141v670q0 21 14.5 35.5t35.5 14.5t35.5 -14.5t14.5 -35.5v-800q0 -21 14.5 -35.5t35.5 -14.5t35.5 -14.5t14.5 -35.5t-14.5 -35.5t-35.5 -14.5q-41 0 -75.5 20.5t-54.5 55.5
q-89 -96 -220 -96q-116 0 -200 76v-406q0 -21 -14.5 -35.5t-35.5 -14.5t-35.5 14.5t-14.5 35.5v1300q0 21 14.5 35.5t35.5 14.5z" />
    <glyph glyph-name="nu" unicode="&#x3bd;" horiz-adv-x="700" 
d="M80 1000q62 0 106 -44t44 -106q0 -140 21 -337t54 -353q110 154 167.5 363t57.5 427q0 21 14.5 35.5t35.5 14.5t35.5 -14.5t14.5 -35.5q0 -266 -79 -514.5t-234 -419.5q-14 -16 -37 -16q-14 0 -29 11t-19 27q-46 165 -74 399.5t-28 412.5q0 21 -14.5 35.5t-35.5 14.5
t-35.5 14.5t-14.5 35.5t14.5 35.5t35.5 14.5z" />
    <glyph glyph-name="xi" unicode="&#x3be;" horiz-adv-x="810" 
d="M130 1400q21 0 35.5 -14.5t14.5 -35.5t14.5 -35.5t35.5 -14.5h350q21 0 35.5 -14.5t14.5 -35.5t-14.5 -35.5t-35.5 -14.5h-100q-82 0 -141 -59t-59 -141t59 -141t141 -59h100q21 0 35.5 -14.5t14.5 -35.5t-14.5 -35.5t-35.5 -14.5h-100q-124 0 -212 -88t-88 -212t88 -212
t212 -88h50q104 0 177 -73t73 -177t-73 -177t-177 -73h-200q-21 0 -35.5 14.5t-14.5 35.5t14.5 35.5t35.5 14.5h200q62 0 106 44t44 106t-44 106t-106 44h-50q-166 0 -283 117t-117 283q0 116 61 212.5t161 145.5q-57 42 -89.5 105.5t-32.5 136.5q0 116 76 200h-26
q-62 0 -106 44t-44 106q0 21 14.5 35.5t35.5 14.5z" />
    <glyph glyph-name="omicron" unicode="&#x3bf;" horiz-adv-x="780" 
d="M390 1020q124 0 212 -88t88 -212v-440q0 -124 -88 -212t-212 -88t-212 88t-88 212v440q0 124 88 212t212 88zM390 920q-82 0 -141 -59t-59 -141v-440q0 -82 59 -141t141 -59t141 59t59 141v440q0 82 -59 141t-141 59z" />
    <glyph glyph-name="pi" unicode="&#x3c0;" 
d="M810 1050q21 0 35.5 -14.5t14.5 -35.5q0 -26 -19 -40q-60 -45 -131 -56v-754q0 -21 14.5 -35.5t35.5 -14.5t35.5 -14.5t14.5 -35.5t-14.5 -35.5t-35.5 -14.5q-62 0 -106 44t-44 106v750h-300v-750q0 -62 -44 -106t-106 -44q-21 0 -35.5 14.5t-14.5 35.5t14.5 35.5
t35.5 14.5t35.5 14.5t14.5 35.5v750h-100q-21 0 -35.5 14.5t-14.5 35.5t14.5 35.5t35.5 14.5h550q68 0 119 40q13 10 31 10z" />
    <glyph glyph-name="rho" unicode="&#x3c1;" horiz-adv-x="780" 
d="M390 1020q124 0 212 -88t88 -212v-440q0 -124 -88 -212t-212 -88q-16 0 -24 1q44 -88 44 -181q0 -110 -24 -169q-12 -31 -46 -31q-21 0 -35.5 14.5t-14.5 35.5q0 7 4 19q16 43 16 131q0 67 -27.5 129t-104.5 139q-88 88 -88 212v440q0 124 88 212t212 88zM390 920
q-82 0 -141 -59t-59 -141v-440q0 -82 59 -141t141 -59t141 59t59 141v440q0 82 -59 141t-141 59z" />
    <glyph glyph-name="sigma1" unicode="&#x3c2;" horiz-adv-x="800" 
d="M350 1000q143 0 270 -54q13 -6 21.5 -18.5t8.5 -27.5q0 -21 -14.5 -35.5t-35.5 -14.5q-10 0 -20 4q-106 46 -230 46q-62 0 -106 -44t-44 -106v-500q0 -62 44 -106t106 -44h100q104 0 177 -73t73 -177t-73 -177t-177 -73h-200q-21 0 -35.5 14.5t-14.5 35.5t14.5 35.5
t35.5 14.5h200q62 0 106 44t44 106t-44 106t-106 44h-100q-104 0 -177 73t-73 177v500q0 104 73 177t177 73z" />
    <glyph glyph-name="sigma" unicode="&#x3c3;" horiz-adv-x="810" 
d="M740 1050q21 0 35.5 -14.5t14.5 -35.5q0 -26 -19 -40q-63 -48 -143 -58q62 -81 62 -182v-440q0 -124 -88 -212t-212 -88t-212 88t-88 212v440q0 124 88 212t212 88q43 0 77 -10t123 -10q68 0 119 40q13 10 31 10zM390 920q-82 0 -141 -59t-59 -141v-440q0 -82 59 -141
t141 -59t141 59t59 141v440q0 82 -59 141t-141 59z" />
    <glyph glyph-name="tau" unicode="&#x3c4;" horiz-adv-x="730" 
d="M650 1050q21 0 35.5 -14.5t14.5 -35.5q0 -26 -19 -40q-80 -60 -181 -60h-100v-750q0 -21 14.5 -35.5t35.5 -14.5h50q21 0 35.5 -14.5t14.5 -35.5t-14.5 -35.5t-35.5 -14.5h-50q-62 0 -106 44t-44 106v750h-200q-21 0 -35.5 14.5t-14.5 35.5t14.5 35.5t35.5 14.5h400
q68 0 119 40q13 10 31 10z" />
    <glyph glyph-name="upsilon" unicode="&#x3c5;" horiz-adv-x="730" 
d="M100 1000q41 0 70.5 -29.5t29.5 -70.5v-720q0 -41 29.5 -70.5t70.5 -29.5q79 0 146 97q104 151 104 473q0 145 -47 283q-3 7 -3 17q0 21 14.5 35.5t35.5 14.5q35 0 47 -34q53 -155 53 -316q0 -352 -121 -530q-49 -72 -110.5 -106t-118.5 -34q-82 0 -141 59t-59 141v700
q0 16 -19 24q-31 14 -31 46q0 21 14.5 35.5t35.5 14.5z" />
    <glyph glyph-name="phi" unicode="&#x3c6;" horiz-adv-x="960" 
d="M610 1020q50 0 101.5 -30.5t86.5 -96.5q82 -153 82 -513q0 -152 -100.5 -265t-249.5 -132v-333q0 -21 -14.5 -35.5t-35.5 -14.5t-35.5 14.5t-14.5 35.5v333q-149 19 -249.5 132t-100.5 265q0 170 20 285t83 301q12 34 47 34q21 0 35.5 -14.5t14.5 -35.5q0 -8 -3 -16
q-62 -183 -79.5 -285t-17.5 -269q0 -111 71.5 -194.5t178.5 -101.5v756q0 74 53 127t127 53zM610 920q-33 0 -56.5 -23.5t-23.5 -56.5v-756q107 18 178.5 101.5t71.5 194.5q0 335 -70 467q-17 33 -36 50t-31.5 20t-32.5 3z" />
    <glyph glyph-name="chi" unicode="&#x3c7;" horiz-adv-x="780" 
d="M110 1000q48 0 87 -28t55 -72l160 -455l201 523q12 32 47 32q21 0 35.5 -14.5t14.5 -35.5q0 -9 -3 -18l-244 -633l200 -566q12 -33 47 -33q21 0 35.5 -14.5t14.5 -35.5t-14.5 -35.5t-35.5 -14.5q-48 0 -87 28t-55 72l-160 455l-201 -523q-12 -32 -47 -32
q-21 0 -35.5 14.5t-14.5 35.5q0 9 3 18l244 633l-200 566q-12 33 -47 33q-21 0 -35.5 14.5t-14.5 35.5t14.5 35.5t35.5 14.5z" />
    <glyph glyph-name="psi" unicode="&#x3c8;" horiz-adv-x="1000" 
d="M500 1200q21 0 35.5 -14.5t14.5 -35.5v-1066q107 18 178.5 101.5t71.5 194.5v570q0 21 14.5 35.5t35.5 14.5t35.5 -14.5t14.5 -35.5v-570q0 -152 -100.5 -265t-249.5 -132v-333q0 -21 -14.5 -35.5t-35.5 -14.5t-35.5 14.5t-14.5 35.5v333q-149 19 -249.5 132t-100.5 265
v570q0 21 14.5 35.5t35.5 14.5t35.5 -14.5t14.5 -35.5v-570q0 -111 71.5 -194.5t178.5 -101.5v1066q0 21 14.5 35.5t35.5 14.5z" />
    <glyph glyph-name="omega" unicode="&#x3c9;" horiz-adv-x="1080" 
d="M240 1000q21 0 35.5 -14.5t14.5 -35.5q0 -7 -4 -19q-42 -104 -69 -256t-27 -275v-170q0 -62 44 -106t106 -44t106 44t44 106v220q0 21 14.5 35.5t35.5 14.5t35.5 -14.5t14.5 -35.5v-220q0 -62 44 -106t106 -44t106 44t44 106v170q0 123 -27 275t-69 256q-4 12 -4 19
q0 21 14.5 35.5t35.5 14.5q34 0 46 -31q47 -118 75.5 -275.5t28.5 -293.5v-170q0 -104 -73 -177t-177 -73q-60 0 -112.5 26.5t-87.5 73.5q-35 -47 -87.5 -73.5t-112.5 -26.5q-104 0 -177 73t-73 177v170q0 136 28.5 293.5t75.5 275.5q12 31 46 31z" />
    <glyph glyph-name="uni0400" unicode="&#x400;" horiz-adv-x="780" 
d="M350 1700q31 0 45 -28l50 -100q5 -12 5 -22q0 -21 -14.5 -35.5t-35.5 -14.5q-31 0 -45 28l-50 100q-5 12 -5 22q0 21 14.5 35.5t35.5 14.5zM150 1400h500q21 0 35.5 -14.5t14.5 -35.5t-14.5 -35.5t-35.5 -14.5h-450v-500h250q21 0 35.5 -14.5t14.5 -35.5t-14.5 -35.5
t-35.5 -14.5h-250v-600h450q21 0 35.5 -14.5t14.5 -35.5t-14.5 -35.5t-35.5 -14.5h-500q-21 0 -35.5 14.5t-14.5 35.5v1300q0 21 14.5 35.5t35.5 14.5z" />
    <glyph glyph-name="afii10023" unicode="&#x401;" horiz-adv-x="780" 
d="M300 1650q0 -21 -14.5 -35.5t-35.5 -14.5t-35.5 14.5t-14.5 35.5t14.5 35.5t35.5 14.5t35.5 -14.5t14.5 -35.5zM600 1650q0 -21 -14.5 -35.5t-35.5 -14.5t-35.5 14.5t-14.5 35.5t14.5 35.5t35.5 14.5t35.5 -14.5t14.5 -35.5zM150 1400h500q21 0 35.5 -14.5t14.5 -35.5
t-14.5 -35.5t-35.5 -14.5h-450v-500h250q21 0 35.5 -14.5t14.5 -35.5t-14.5 -35.5t-35.5 -14.5h-250v-600h450q21 0 35.5 -14.5t14.5 -35.5t-14.5 -35.5t-35.5 -14.5h-500q-21 0 -35.5 14.5t-14.5 35.5v1300q0 21 14.5 35.5t35.5 14.5z" />
    <glyph glyph-name="afii10051" unicode="&#x402;" horiz-adv-x="1130" 
d="M100 1400h600q21 0 35.5 -14.5t14.5 -35.5t-14.5 -35.5t-35.5 -14.5h-250v-500h300q124 0 212 -88t88 -212v-200q0 -124 -88 -212t-212 -88h-50q-21 0 -35.5 14.5t-14.5 35.5t14.5 35.5t35.5 14.5h50q82 0 141 59t59 141v200q0 82 -59 141t-141 59h-300v-650
q0 -21 -14.5 -35.5t-35.5 -14.5t-35.5 14.5t-14.5 35.5v1250h-250q-21 0 -35.5 14.5t-14.5 35.5t14.5 35.5t35.5 14.5z" />
    <glyph glyph-name="afii10052" unicode="&#x403;" horiz-adv-x="750" 
d="M400 1700q21 0 35.5 -14.5t14.5 -35.5q0 -10 -5 -22l-50 -100q-14 -28 -45 -28q-21 0 -35.5 14.5t-14.5 35.5q0 10 5 22l50 100q14 28 45 28zM150 1400h500q21 0 35.5 -14.5t14.5 -35.5t-14.5 -35.5t-35.5 -14.5h-450v-1250q0 -21 -14.5 -35.5t-35.5 -14.5t-35.5 14.5
t-14.5 35.5v1300q0 21 14.5 35.5t35.5 14.5z" />
    <glyph glyph-name="afii10053" unicode="&#x404;" horiz-adv-x="880" 
d="M750 1400q21 0 35.5 -14.5t14.5 -35.5t-14.5 -35.5t-35.5 -14.5h-300q-104 0 -177 -73t-73 -177v-250h350q21 0 35.5 -14.5t14.5 -35.5t-14.5 -35.5t-35.5 -14.5h-350v-350q0 -104 73 -177t177 -73h300q21 0 35.5 -14.5t14.5 -35.5t-14.5 -35.5t-35.5 -14.5h-300
q-145 0 -247.5 102.5t-102.5 247.5v700q0 145 102.5 247.5t247.5 102.5h300z" />
    <glyph glyph-name="afii10054" unicode="&#x405;" horiz-adv-x="850" 
d="M415 1430q226 0 320 -95q15 -15 15 -35q0 -21 -14.5 -35.5t-35.5 -14.5q-20 0 -35 15q-28 28 -93.5 46.5t-156.5 18.5q-123 0 -186 -50q-49 -39 -49 -110q0 -55 36 -101l497 -609q67 -83 67 -190q0 -132 -87 -213q-93 -87 -263 -87q-119 0 -200.5 20.5t-134.5 74.5
q-15 15 -15 35q0 21 14.5 35.5t35.5 14.5q20 0 35 -15q65 -65 265 -65q130 0 195 60q55 51 55 140q0 71 -45 126l-497 610q-58 72 -58 164q0 116 86 187q88 73 249 73z" />
    <glyph glyph-name="afii10055" unicode="&#x406;" horiz-adv-x="300" 
d="M150 1400q21 0 35.5 -14.5t14.5 -35.5v-1300q0 -21 -14.5 -35.5t-35.5 -14.5t-35.5 14.5t-14.5 35.5v1300q0 21 14.5 35.5t35.5 14.5z" />
    <glyph glyph-name="afii10056" unicode="&#x407;" horiz-adv-x="500" 
d="M150 1650q0 -21 -14.5 -35.5t-35.5 -14.5t-35.5 14.5t-14.5 35.5t14.5 35.5t35.5 14.5t35.5 -14.5t14.5 -35.5zM450 1650q0 -21 -14.5 -35.5t-35.5 -14.5t-35.5 14.5t-14.5 35.5t14.5 35.5t35.5 14.5t35.5 -14.5t14.5 -35.5zM250 1400q21 0 35.5 -14.5t14.5 -35.5v-1300
q0 -21 -14.5 -35.5t-35.5 -14.5t-35.5 14.5t-14.5 35.5v1300q0 21 14.5 35.5t35.5 14.5z" />
    <glyph glyph-name="afii10057" unicode="&#x408;" horiz-adv-x="640" 
d="M500 1400q21 0 35.5 -14.5t14.5 -35.5v-1000q0 -145 -102.5 -247.5t-247.5 -102.5h-100q-21 0 -35.5 14.5t-14.5 35.5t14.5 35.5t35.5 14.5h100q104 0 177 73t73 177v1000q0 21 14.5 35.5t35.5 14.5z" />
    <glyph glyph-name="afii10058" unicode="&#x409;" horiz-adv-x="1420" 
d="M410 1400h290q21 0 35.5 -14.5t14.5 -35.5v-550h200q166 0 283 -117t117 -283t-117 -283t-283 -117h-250q-21 0 -35.5 14.5t-14.5 35.5v1250h-201l-300 -1262q-4 -17 -17.5 -27.5t-31.5 -10.5q-21 0 -35.5 14.5t-14.5 35.5q0 8 1 12l310 1300q4 17 17.5 27.5t31.5 10.5z
M750 700v-600h200q124 0 212 88t88 212t-88 212t-212 88h-200z" />
    <glyph glyph-name="afii10059" unicode="&#x40a;" horiz-adv-x="1470" 
d="M150 1400q21 0 35.5 -14.5t14.5 -35.5v-550h500v550q0 21 14.5 35.5t35.5 14.5t35.5 -14.5t14.5 -35.5v-550h200q166 0 283 -117t117 -283t-117 -283t-283 -117h-250q-21 0 -35.5 14.5t-14.5 35.5v650h-500v-650q0 -21 -14.5 -35.5t-35.5 -14.5t-35.5 14.5t-14.5 35.5
v1300q0 21 14.5 35.5t35.5 14.5zM800 700v-600h200q124 0 212 88t88 212t-88 212t-212 88h-200z" />
    <glyph glyph-name="afii10060" unicode="&#x40b;" horiz-adv-x="1130" 
d="M100 1400h600q21 0 35.5 -14.5t14.5 -35.5t-14.5 -35.5t-35.5 -14.5h-250v-500h300q124 0 212 -88t88 -212v-450q0 -21 -14.5 -35.5t-35.5 -14.5t-35.5 14.5t-14.5 35.5v450q0 82 -59 141t-141 59h-300v-650q0 -21 -14.5 -35.5t-35.5 -14.5t-35.5 14.5t-14.5 35.5v1250
h-250q-21 0 -35.5 14.5t-14.5 35.5t14.5 35.5t35.5 14.5z" />
    <glyph glyph-name="afii10061" unicode="&#x40c;" horiz-adv-x="880" 
d="M450 1700q21 0 35.5 -14.5t14.5 -35.5q0 -10 -5 -22l-50 -100q-14 -28 -45 -28q-21 0 -35.5 14.5t-14.5 35.5q0 10 5 22l50 100q14 28 45 28zM150 1400q21 0 35.5 -14.5t14.5 -35.5v-650l510 680q15 20 40 20q21 0 35.5 -14.5t14.5 -35.5q0 -17 -10 -30l-386 -515
l390 -731q6 -10 6 -24q0 -21 -14.5 -35.5t-35.5 -14.5q-31 0 -44 26l-368 691l-138 -184v-483q0 -21 -14.5 -35.5t-35.5 -14.5t-35.5 14.5t-14.5 35.5v1300q0 21 14.5 35.5t35.5 14.5z" />
    <glyph glyph-name="uni040D" unicode="&#x40d;" 
d="M400 1700q31 0 45 -28l50 -100q5 -12 5 -22q0 -21 -14.5 -35.5t-35.5 -14.5q-31 0 -45 28l-50 100q-5 12 -5 22q0 21 14.5 35.5t35.5 14.5zM150 1400q21 0 35.5 -14.5t14.5 -35.5v-1072l505 1093q13 29 45 29q21 0 35.5 -14.5t14.5 -35.5v-1300q0 -21 -14.5 -35.5
t-35.5 -14.5t-35.5 14.5t-14.5 35.5v1072l-505 -1093q-13 -29 -45 -29q-21 0 -35.5 14.5t-14.5 35.5v1300q0 21 14.5 35.5t35.5 14.5z" />
    <glyph glyph-name="afii10062" unicode="&#x40e;" 
d="M150 1400q21 0 35.5 -14.5t14.5 -35.5v-350q0 -124 88 -212t212 -88h200v650q0 21 14.5 35.5t35.5 14.5t35.5 -14.5t14.5 -35.5v-1050q0 -124 -88 -212t-212 -88h-250q-21 0 -35.5 14.5t-14.5 35.5t14.5 35.5t35.5 14.5h250q82 0 141 59t59 141v300h-200q-166 0 -283 117
t-117 283v350q0 21 14.5 35.5t35.5 14.5zM350 1600h200q21 0 35.5 -14.5t14.5 -35.5t-14.5 -35.5t-35.5 -14.5h-200q-21 0 -35.5 14.5t-14.5 35.5t14.5 35.5t35.5 14.5z" />
    <glyph glyph-name="afii10145" unicode="&#x40f;" 
d="M150 1400q21 0 35.5 -14.5t14.5 -35.5v-1250h500v1250q0 21 14.5 35.5t35.5 14.5t35.5 -14.5t14.5 -35.5v-1300q0 -21 -14.5 -35.5t-35.5 -14.5h-250v-200q0 -21 -14.5 -35.5t-35.5 -14.5t-35.5 14.5t-14.5 35.5v200h-250q-21 0 -35.5 14.5t-14.5 35.5v1300
q0 21 14.5 35.5t35.5 14.5z" />
    <glyph glyph-name="afii10017" unicode="&#x410;" 
d="M450 1400q17 0 30.5 -10.5t18.5 -27.5l349 -1299q2 -8 2 -13q0 -21 -14.5 -35.5t-35.5 -14.5q-17 0 -30 10.5t-18 26.5l-98 363h-408l-98 -363q-5 -16 -18 -26.5t-30 -10.5q-21 0 -35.5 14.5t-14.5 35.5q0 5 2 13l350 1300q5 16 18 26.5t30 10.5zM450 1158l-177 -658h354
z" />
    <glyph glyph-name="afii10018" unicode="&#x411;" horiz-adv-x="870" 
d="M150 1400h500q21 0 35.5 -14.5t14.5 -35.5t-14.5 -35.5t-35.5 -14.5h-450v-500h200q166 0 283 -117t117 -283t-117 -283t-283 -117h-250q-21 0 -35.5 14.5t-14.5 35.5v1300q0 21 14.5 35.5t35.5 14.5zM200 700v-600h200q124 0 212 88t88 212t-88 212t-212 88h-200z" />
    <glyph glyph-name="afii10019" unicode="&#x412;" horiz-adv-x="870" 
d="M150 1400h250q145 0 247.5 -102.5t102.5 -247.5q0 -92 -44 -170.5t-119 -125.5q97 -51 155 -145.5t58 -208.5q0 -166 -117 -283t-283 -117h-250q-21 0 -35.5 14.5t-14.5 35.5v1300q0 21 14.5 35.5t35.5 14.5zM200 1300v-500h200q104 0 177 73t73 177t-73 177t-177 73
h-200zM200 700v-600h200q124 0 212 88t88 212t-88 212t-212 88h-200z" />
    <glyph glyph-name="afii10020" unicode="&#x413;" horiz-adv-x="750" 
d="M150 1400h500q21 0 35.5 -14.5t14.5 -35.5t-14.5 -35.5t-35.5 -14.5h-450v-1250q0 -21 -14.5 -35.5t-35.5 -14.5t-35.5 14.5t-14.5 35.5v1300q0 21 14.5 35.5t35.5 14.5z" />
    <glyph glyph-name="afii10021" unicode="&#x414;" horiz-adv-x="850" 
d="M370 1400h300q21 0 35.5 -14.5t14.5 -35.5v-1250h50q21 0 35.5 -14.5t14.5 -35.5v-100q0 -21 -14.5 -35.5t-35.5 -14.5t-35.5 14.5t-14.5 35.5v50h-600v-50q0 -21 -14.5 -35.5t-35.5 -14.5t-35.5 14.5t-14.5 35.5v100q0 21 14.5 35.5t35.5 14.5h57l194 1258q3 18 16.5 30
t32.5 12zM413 1300l-185 -1200h392v1200h-207z" />
    <glyph glyph-name="afii10022" unicode="&#x415;" horiz-adv-x="780" 
d="M150 1400h500q21 0 35.5 -14.5t14.5 -35.5t-14.5 -35.5t-35.5 -14.5h-450v-500h250q21 0 35.5 -14.5t14.5 -35.5t-14.5 -35.5t-35.5 -14.5h-250v-600h450q21 0 35.5 -14.5t14.5 -35.5t-14.5 -35.5t-35.5 -14.5h-500q-21 0 -35.5 14.5t-14.5 35.5v1300q0 21 14.5 35.5
t35.5 14.5z" />
    <glyph glyph-name="afii10024" unicode="&#x416;" horiz-adv-x="1060" 
d="M130 1400q28 0 43 -25l307 -537v512q0 21 14.5 35.5t35.5 14.5t35.5 -14.5t14.5 -35.5v-512l307 537q15 25 43 25q21 0 35.5 -14.5t14.5 -35.5q0 -13 -7 -25l-333 -583l335 -670q5 -12 5 -22q0 -21 -14.5 -35.5t-35.5 -14.5q-31 0 -45 28l-305 610v-588
q0 -21 -14.5 -35.5t-35.5 -14.5t-35.5 14.5t-14.5 35.5v588l-305 -610q-14 -28 -45 -28q-21 0 -35.5 14.5t-14.5 35.5q0 10 5 22l335 670l-333 583q-7 12 -7 25q0 21 14.5 35.5t35.5 14.5z" />
    <glyph glyph-name="afii10025" unicode="&#x417;" horiz-adv-x="840" 
d="M420 1430q140 0 228 -97q92 -102 92 -268t-92 -268q-24 -26 -50 -43q40 -23 71 -57q101 -110 101 -312t-101 -312q-94 -103 -249 -103q-141 0 -223 45q-24 13 -47.5 32.5t-35 32.5t-32.5 37q-12 13 -12 33q0 21 14.5 35.5t35.5 14.5q24 0 38 -17q53 -62 87 -80
q61 -33 175 -33q110 0 175 71q75 82 75 244t-75 244q-65 71 -175 71h-100q-21 0 -35.5 14.5t-14.5 35.5t14.5 35.5t35.5 14.5h100q96 0 154 64q66 73 66 201t-66 201q-58 64 -154 64q-86 0 -134 -16t-81 -49q-15 -15 -35 -15q-21 0 -35.5 14.5t-14.5 35.5q0 20 15 35
q93 95 285 95z" />
    <glyph glyph-name="afii10026" unicode="&#x418;" 
d="M150 1400q21 0 35.5 -14.5t14.5 -35.5v-1072l505 1093q13 29 45 29q21 0 35.5 -14.5t14.5 -35.5v-1300q0 -21 -14.5 -35.5t-35.5 -14.5t-35.5 14.5t-14.5 35.5v1072l-505 -1093q-13 -29 -45 -29q-21 0 -35.5 14.5t-14.5 35.5v1300q0 21 14.5 35.5t35.5 14.5z" />
    <glyph glyph-name="afii10027" unicode="&#x419;" 
d="M150 1400q21 0 35.5 -14.5t14.5 -35.5v-1072l505 1093q13 29 45 29q21 0 35.5 -14.5t14.5 -35.5v-1300q0 -21 -14.5 -35.5t-35.5 -14.5t-35.5 14.5t-14.5 35.5v1072l-505 -1093q-13 -29 -45 -29q-21 0 -35.5 14.5t-14.5 35.5v1300q0 21 14.5 35.5t35.5 14.5zM350 1600
h200q21 0 35.5 -14.5t14.5 -35.5t-14.5 -35.5t-35.5 -14.5h-200q-21 0 -35.5 14.5t-14.5 35.5t14.5 35.5t35.5 14.5z" />
    <glyph glyph-name="afii10028" unicode="&#x41a;" horiz-adv-x="880" 
d="M150 1400q21 0 35.5 -14.5t14.5 -35.5v-650l510 680q15 20 40 20q21 0 35.5 -14.5t14.5 -35.5q0 -17 -10 -30l-386 -515l390 -731q6 -10 6 -24q0 -21 -14.5 -35.5t-35.5 -14.5q-31 0 -44 26l-368 691l-138 -184v-483q0 -21 -14.5 -35.5t-35.5 -14.5t-35.5 14.5
t-14.5 35.5v1300q0 21 14.5 35.5t35.5 14.5z" />
    <glyph glyph-name="afii10029" unicode="&#x41b;" horiz-adv-x="850" 
d="M410 1400h290q21 0 35.5 -14.5t14.5 -35.5v-1300q0 -21 -14.5 -35.5t-35.5 -14.5t-35.5 14.5t-14.5 35.5v1250h-201l-300 -1262q-4 -17 -17.5 -27.5t-31.5 -10.5q-21 0 -35.5 14.5t-14.5 35.5q0 8 1 12l310 1300q4 17 17.5 27.5t31.5 10.5z" />
    <glyph glyph-name="afii10030" unicode="&#x41c;" horiz-adv-x="1100" 
d="M150 1400q29 0 43 -25l357 -624l357 624q14 25 43 25q21 0 35.5 -14.5t14.5 -35.5v-1300q0 -21 -14.5 -35.5t-35.5 -14.5t-35.5 14.5t-14.5 35.5v1112l-307 -537q-14 -25 -43 -25t-44 26l-306 536v-1112q0 -21 -14.5 -35.5t-35.5 -14.5t-35.5 14.5t-14.5 35.5v1300
q0 21 14.5 35.5t35.5 14.5z" />
    <glyph glyph-name="afii10031" unicode="&#x41d;" 
d="M150 1400q21 0 35.5 -14.5t14.5 -35.5v-550h500v550q0 21 14.5 35.5t35.5 14.5t35.5 -14.5t14.5 -35.5v-1300q0 -21 -14.5 -35.5t-35.5 -14.5t-35.5 14.5t-14.5 35.5v650h-500v-650q0 -21 -14.5 -35.5t-35.5 -14.5t-35.5 14.5t-14.5 35.5v1300q0 21 14.5 35.5t35.5 14.5z
" />
    <glyph glyph-name="afii10032" unicode="&#x41e;" horiz-adv-x="880" 
d="M440 1430q145 0 247.5 -102.5t102.5 -247.5v-760q0 -145 -102.5 -247.5t-247.5 -102.5t-247.5 102.5t-102.5 247.5v760q0 145 102.5 247.5t247.5 102.5zM440 1330q-104 0 -177 -73t-73 -177v-760q0 -104 73 -177t177 -73t177 73t73 177v760q0 104 -73 177t-177 73z" />
    <glyph glyph-name="afii10033" unicode="&#x41f;" 
d="M150 1400h600q21 0 35.5 -14.5t14.5 -35.5v-1300q0 -21 -14.5 -35.5t-35.5 -14.5t-35.5 14.5t-14.5 35.5v1250h-500v-1250q0 -21 -14.5 -35.5t-35.5 -14.5t-35.5 14.5t-14.5 35.5v1300q0 21 14.5 35.5t35.5 14.5z" />
    <glyph glyph-name="afii10034" unicode="&#x420;" horiz-adv-x="870" 
d="M150 1400h250q166 0 283 -117t117 -283t-117 -283t-283 -117h-200v-550q0 -21 -14.5 -35.5t-35.5 -14.5t-35.5 14.5t-14.5 35.5v1300q0 21 14.5 35.5t35.5 14.5zM200 1300v-600h200q124 0 212 88t88 212t-88 212t-212 88h-200z" />
    <glyph glyph-name="afii10035" unicode="&#x421;" horiz-adv-x="760" 
d="M440 1400h200q21 0 35.5 -14.5t14.5 -35.5t-14.5 -35.5t-35.5 -14.5h-200q-104 0 -177 -73t-73 -177v-700q0 -104 73 -177t177 -73h200q21 0 35.5 -14.5t14.5 -35.5t-14.5 -35.5t-35.5 -14.5h-200q-145 0 -247.5 102.5t-102.5 247.5v700q0 145 102.5 247.5t247.5 102.5z
" />
    <glyph glyph-name="afii10036" unicode="&#x422;" horiz-adv-x="840" 
d="M120 1400h600q21 0 35.5 -14.5t14.5 -35.5t-14.5 -35.5t-35.5 -14.5h-250v-1250q0 -21 -14.5 -35.5t-35.5 -14.5t-35.5 14.5t-14.5 35.5v1250h-250q-21 0 -35.5 14.5t-14.5 35.5t14.5 35.5t35.5 14.5z" />
    <glyph glyph-name="afii10037" unicode="&#x423;" horiz-adv-x="890" 
d="M140 1400q21 0 35.5 -14.5t14.5 -35.5v-350q0 -124 88 -212t212 -88h200v650q0 21 14.5 35.5t35.5 14.5t35.5 -14.5t14.5 -35.5v-1050q0 -124 -88 -212t-212 -88h-250q-21 0 -35.5 14.5t-14.5 35.5t14.5 35.5t35.5 14.5h250q82 0 141 59t59 141v300h-200q-166 0 -283 117
t-117 283v350q0 21 14.5 35.5t35.5 14.5z" />
    <glyph glyph-name="afii10038" unicode="&#x424;" horiz-adv-x="1200" 
d="M600 1400q21 0 35.5 -14.5t14.5 -35.5v-150h50q122 0 226 -60t164 -164t60 -226t-60 -226t-164 -164t-226 -60h-50v-250q0 -21 -14.5 -35.5t-35.5 -14.5t-35.5 14.5t-14.5 35.5v250h-50q-122 0 -226 60t-164 164t-60 226t60 226t164 164t226 60h50v150q0 21 14.5 35.5
t35.5 14.5zM500 1100q-145 0 -247.5 -102.5t-102.5 -247.5t102.5 -247.5t247.5 -102.5h50v700h-50zM650 1100v-700h50q145 0 247.5 102.5t102.5 247.5t-102.5 247.5t-247.5 102.5h-50z" />
    <glyph glyph-name="afii10039" unicode="&#x425;" horiz-adv-x="960" 
d="M130 1400q31 0 44 -26l306 -568l306 568q13 26 44 26q21 0 35.5 -14.5t14.5 -35.5q0 -14 -6 -24l-337 -626l337 -626q6 -10 6 -24q0 -21 -14.5 -35.5t-35.5 -14.5q-31 0 -44 26l-306 568l-306 -568q-13 -26 -44 -26q-21 0 -35.5 14.5t-14.5 35.5q0 14 6 24l337 626
l-337 626q-6 10 -6 24q0 21 14.5 35.5t35.5 14.5z" />
    <glyph glyph-name="afii10040" unicode="&#x426;" horiz-adv-x="930" 
d="M150 1400q21 0 35.5 -14.5t14.5 -35.5v-1250h500v1250q0 21 14.5 35.5t35.5 14.5t35.5 -14.5t14.5 -35.5v-1250h50q21 0 35.5 -14.5t14.5 -35.5v-200q0 -21 -14.5 -35.5t-35.5 -14.5t-35.5 14.5t-14.5 35.5v150h-650q-21 0 -35.5 14.5t-14.5 35.5v1300q0 21 14.5 35.5
t35.5 14.5z" />
    <glyph glyph-name="afii10041" unicode="&#x427;" horiz-adv-x="890" 
d="M140 1400q21 0 35.5 -14.5t14.5 -35.5v-350q0 -124 88 -212t212 -88h200v650q0 21 14.5 35.5t35.5 14.5t35.5 -14.5t14.5 -35.5v-1300q0 -21 -14.5 -35.5t-35.5 -14.5t-35.5 14.5t-14.5 35.5v550h-200q-166 0 -283 117t-117 283v350q0 21 14.5 35.5t35.5 14.5z" />
    <glyph glyph-name="afii10042" unicode="&#x428;" horiz-adv-x="1100" 
d="M150 1400q21 0 35.5 -14.5t14.5 -35.5v-1250h300v1250q0 21 14.5 35.5t35.5 14.5t35.5 -14.5t14.5 -35.5v-1250h300v1250q0 21 14.5 35.5t35.5 14.5t35.5 -14.5t14.5 -35.5v-1300q0 -21 -14.5 -35.5t-35.5 -14.5h-800q-21 0 -35.5 14.5t-14.5 35.5v1300q0 21 14.5 35.5
t35.5 14.5z" />
    <glyph glyph-name="afii10043" unicode="&#x429;" horiz-adv-x="1130" 
d="M150 1400q21 0 35.5 -14.5t14.5 -35.5v-1250h300v1250q0 21 14.5 35.5t35.5 14.5t35.5 -14.5t14.5 -35.5v-1250h300v1250q0 21 14.5 35.5t35.5 14.5t35.5 -14.5t14.5 -35.5v-1250h50q21 0 35.5 -14.5t14.5 -35.5v-200q0 -21 -14.5 -35.5t-35.5 -14.5t-35.5 14.5
t-14.5 35.5v150h-850q-21 0 -35.5 14.5t-14.5 35.5v1300q0 21 14.5 35.5t35.5 14.5z" />
    <glyph glyph-name="afii10044" unicode="&#x42a;" horiz-adv-x="1000" 
d="M80 1400h200q21 0 35.5 -14.5t14.5 -35.5v-550h200q166 0 283 -117t117 -283t-117 -283t-283 -117h-250q-21 0 -35.5 14.5t-14.5 35.5v1250h-150q-21 0 -35.5 14.5t-14.5 35.5t14.5 35.5t35.5 14.5zM330 700v-600h200q124 0 212 88t88 212t-88 212t-212 88h-200z" />
    <glyph glyph-name="afii10045" unicode="&#x42b;" horiz-adv-x="1000" 
d="M150 1400q21 0 35.5 -14.5t14.5 -35.5v-550h100q166 0 283 -117t117 -283t-117 -283t-283 -117h-150q-21 0 -35.5 14.5t-14.5 35.5v1300q0 21 14.5 35.5t35.5 14.5zM200 700v-600h100q124 0 212 88t88 212t-88 212t-212 88h-100zM850 1400q21 0 35.5 -14.5t14.5 -35.5
v-1300q0 -21 -14.5 -35.5t-35.5 -14.5t-35.5 14.5t-14.5 35.5v1300q0 21 14.5 35.5t35.5 14.5z" />
    <glyph glyph-name="afii10046" unicode="&#x42c;" horiz-adv-x="870" 
d="M150 1400q21 0 35.5 -14.5t14.5 -35.5v-550h200q166 0 283 -117t117 -283t-117 -283t-283 -117h-250q-21 0 -35.5 14.5t-14.5 35.5v1300q0 21 14.5 35.5t35.5 14.5zM200 700v-600h200q124 0 212 88t88 212t-88 212t-212 88h-200z" />
    <glyph glyph-name="afii10047" unicode="&#x42d;" horiz-adv-x="870" 
d="M130 1400h300q145 0 247.5 -102.5t102.5 -247.5v-700q0 -145 -102.5 -247.5t-247.5 -102.5h-300q-21 0 -35.5 14.5t-14.5 35.5t14.5 35.5t35.5 14.5h300q104 0 177 73t73 177v350h-350q-21 0 -35.5 14.5t-14.5 35.5t14.5 35.5t35.5 14.5h350v250q0 104 -73 177t-177 73
h-300q-21 0 -35.5 14.5t-14.5 35.5t14.5 35.5t35.5 14.5z" />
    <glyph glyph-name="afii10048" unicode="&#x42e;" horiz-adv-x="990" 
d="M150 1400q21 0 35.5 -14.5t14.5 -35.5v-550h100v330q0 124 88 212t212 88t212 -88t88 -212v-860q0 -124 -88 -212t-212 -88t-212 88t-88 212v430h-100v-650q0 -21 -14.5 -35.5t-35.5 -14.5t-35.5 14.5t-14.5 35.5v1300q0 21 14.5 35.5t35.5 14.5zM600 1330
q-82 0 -141 -59t-59 -141v-860q0 -82 59 -141t141 -59t141 59t59 141v860q0 82 -59 141t-141 59z" />
    <glyph glyph-name="afii10049" unicode="&#x42f;" horiz-adv-x="880" 
d="M730 1400q21 0 35.5 -14.5t14.5 -35.5v-1300q0 -21 -14.5 -35.5t-35.5 -14.5t-35.5 14.5t-14.5 35.5v550h-171l-336 -575q-15 -25 -43 -25q-21 0 -35.5 14.5t-14.5 35.5q0 13 7 25l311 533q-138 29 -228 138.5t-90 253.5q0 166 117 283t283 117h250zM680 1300h-200
q-124 0 -212 -88t-88 -212t88 -212t212 -88h200v600z" />
    <glyph glyph-name="afii10065" unicode="&#x430;" horiz-adv-x="820" 
d="M340 1000h300q21 0 35.5 -14.5t14.5 -35.5v-800q0 -21 14.5 -35.5t35.5 -14.5t35.5 -14.5t14.5 -35.5t-14.5 -35.5t-35.5 -14.5q-41 0 -75.5 20.5t-54.5 55.5q-89 -96 -220 -96q-124 0 -212 88t-88 212v470q0 104 73 177t177 73zM340 900q-62 0 -106 -44t-44 -106v-470
q0 -82 59 -141t141 -59t141 59t59 141v620h-250z" />
    <glyph glyph-name="afii10066" unicode="&#x431;" horiz-adv-x="780" 
d="M140 1400h500q21 0 35.5 -14.5t14.5 -35.5t-14.5 -35.5t-35.5 -14.5h-384l352 -374q82 -87 82 -206v-440q0 -124 -88 -212t-212 -88t-212 88t-88 212v440q0 122 85 209.5t207 90.5l-278 296q-14 16 -14 34q0 21 14.5 35.5t35.5 14.5zM390 920q-82 0 -141 -59t-59 -141
v-440q0 -82 59 -141t141 -59t141 59t59 141v440q0 82 -59 141t-141 59z" />
    <glyph glyph-name="afii10067" unicode="&#x432;" horiz-adv-x="790" 
d="M300 1420q82 0 141 -59t59 -141q0 -74 -48 -130l-60 -70h8q124 0 212 -88t88 -212v-440q0 -124 -88 -212t-212 -88t-212 88t-88 212v940q0 82 59 141t141 59zM300 1320q-41 0 -70.5 -29.5t-29.5 -70.5v-272l176 207q24 27 24 65q0 41 -29.5 70.5t-70.5 29.5zM400 920
q-82 0 -141 -59t-59 -141v-440q0 -82 59 -141t141 -59t141 59t59 141v440q0 82 -59 141t-141 59z" />
    <glyph glyph-name="afii10068" unicode="&#x433;" horiz-adv-x="750" 
d="M380 1020q138 0 215 -60q75 -59 75 -160q0 -109 -85 -174l-357 -278q-58 -45 -58 -118q0 -66 41 -104q50 -46 159 -46q160 0 215 55q15 15 35 15q21 0 35.5 -14.5t14.5 -35.5q0 -20 -15 -35q-84 -85 -285 -85q-146 0 -226 72q-74 67 -74 178q0 122 96 197l358 278
q46 36 46 95q0 52 -37 81q-50 39 -153 39q-84 0 -130 -13t-75 -42q-15 -15 -35 -15q-21 0 -35.5 14.5t-14.5 35.5q0 20 15 35q84 85 275 85z" />
    <glyph glyph-name="afii10069" unicode="&#x434;" horiz-adv-x="790" 
d="M240 1400h250q82 0 141 -59t59 -141v-920q0 -124 -88 -212t-212 -88t-212 88t-88 212v470q0 104 73 177t177 73h250v200q0 41 -29.5 70.5t-70.5 29.5h-250q-21 0 -35.5 14.5t-14.5 35.5t14.5 35.5t35.5 14.5zM340 900q-62 0 -106 -44t-44 -106v-470q0 -82 59 -141
t141 -59t141 59t59 141v620h-250z" />
    <glyph glyph-name="afii10070" unicode="&#x435;" horiz-adv-x="780" 
d="M390 1020q124 0 212 -88t88 -212v-220q0 -21 -14.5 -35.5t-35.5 -14.5h-450v-200q0 -62 44 -106t106 -44h300q21 0 35.5 -14.5t14.5 -35.5t-14.5 -35.5t-35.5 -14.5h-300q-104 0 -177 73t-73 177v470q0 124 88 212t212 88zM390 920q-82 0 -141 -59t-59 -141v-170h400v170
q0 82 -59 141t-141 59z" />
    <glyph glyph-name="afii10072" unicode="&#x436;" horiz-adv-x="960" 
d="M130 1000q27 0 42 -23l258 -405v378q0 21 14.5 35.5t35.5 14.5t35.5 -14.5t14.5 -35.5v-378l258 405q15 23 42 23q21 0 35.5 -14.5t14.5 -35.5q0 -14 -8 -27l-269 -423l269 -423q8 -13 8 -27q0 -21 -14.5 -35.5t-35.5 -14.5q-27 0 -42 23l-258 405v-378
q0 -21 -14.5 -35.5t-35.5 -14.5t-35.5 14.5t-14.5 35.5v378l-258 -405q-15 -23 -42 -23q-21 0 -35.5 14.5t-14.5 35.5q0 14 8 27l269 423l-269 423q-8 13 -8 27q0 21 14.5 35.5t35.5 14.5z" />
    <glyph glyph-name="afii10073" unicode="&#x437;" horiz-adv-x="680" 
d="M325 1020q118 0 201.5 -83.5t83.5 -201.5q0 -72 -33.5 -134t-90.5 -101q57 -39 90.5 -101t33.5 -134q0 -118 -83.5 -201.5t-201.5 -83.5q-149 0 -247 82q-18 15 -18 38q0 21 14.5 35.5t35.5 14.5q17 0 32 -12q42 -34 78.5 -46t104.5 -12q77 0 131 54t54 131t-54 131
t-131 54h-15q-21 0 -35.5 14.5t-14.5 35.5t14.5 35.5t35.5 14.5h15q77 0 131 54t54 131t-54 131t-131 54q-76 0 -129 -55q-15 -15 -36 -15t-35.5 14.5t-14.5 35.5t14 35q83 85 201 85z" />
    <glyph glyph-name="afii10074" unicode="&#x438;" horiz-adv-x="800" 
d="M650 0h-300q-104 0 -177 73t-73 177v700q0 21 14.5 35.5t35.5 14.5t35.5 -14.5t14.5 -35.5v-700q0 -62 44 -106t106 -44h250v850q0 21 14.5 35.5t35.5 14.5t35.5 -14.5t14.5 -35.5v-900q0 -21 -14.5 -35.5t-35.5 -14.5z" />
    <glyph glyph-name="afii10075" unicode="&#x439;" horiz-adv-x="800" 
d="M150 1000q21 0 35.5 -14.5t14.5 -35.5v-750q0 -41 29.5 -70.5t70.5 -29.5h300v850q0 21 14.5 35.5t35.5 14.5t35.5 -14.5t14.5 -35.5v-900q0 -21 -14.5 -35.5t-35.5 -14.5h-350q-82 0 -141 59t-59 141v750q0 21 14.5 35.5t35.5 14.5zM300 1400h200q21 0 35.5 -14.5
t14.5 -35.5t-14.5 -35.5t-35.5 -14.5h-200q-21 0 -35.5 14.5t-14.5 35.5t14.5 35.5t35.5 14.5z" />
    <glyph glyph-name="afii10076" unicode="&#x43a;" horiz-adv-x="770" 
d="M150 1000q21 0 35.5 -14.5t14.5 -35.5v-462l412 494q15 18 38 18q21 0 35.5 -14.5t14.5 -35.5q0 -17 -12 -32l-318 -382l321 -457q9 -12 9 -29q0 -21 -14.5 -35.5t-35.5 -14.5q-26 0 -41 21l-305 436l-104 -125v-282q0 -21 -14.5 -35.5t-35.5 -14.5t-35.5 14.5
t-14.5 35.5v900q0 21 14.5 35.5t35.5 14.5z" />
    <glyph glyph-name="afii10077" unicode="&#x43b;" horiz-adv-x="750" 
d="M350 1000h250q21 0 35.5 -14.5t14.5 -35.5v-900q0 -21 -14.5 -35.5t-35.5 -14.5t-35.5 14.5t-14.5 35.5v850h-162l-240 -863q-5 -16 -18 -26.5t-30 -10.5q-21 0 -35.5 14.5t-14.5 35.5q0 5 2 13l250 900q5 16 18 26.5t30 10.5z" />
    <glyph glyph-name="afii10078" unicode="&#x43c;" 
d="M150 1000q27 0 42 -22l258 -388l258 388q15 22 42 22q21 0 35.5 -14.5t14.5 -35.5v-900q0 -21 -14.5 -35.5t-35.5 -14.5t-35.5 14.5t-14.5 35.5v735l-208 -313q-15 -22 -42 -22t-42 22l-208 313v-735q0 -21 -14.5 -35.5t-35.5 -14.5t-35.5 14.5t-14.5 35.5v900
q0 21 14.5 35.5t35.5 14.5z" />
    <glyph glyph-name="afii10079" unicode="&#x43d;" horiz-adv-x="800" 
d="M150 1000q21 0 35.5 -14.5t14.5 -35.5v-400h400v400q0 21 14.5 35.5t35.5 14.5t35.5 -14.5t14.5 -35.5v-900q0 -21 -14.5 -35.5t-35.5 -14.5t-35.5 14.5t-14.5 35.5v400h-400v-400q0 -21 -14.5 -35.5t-35.5 -14.5t-35.5 14.5t-14.5 35.5v900q0 21 14.5 35.5t35.5 14.5z
" />
    <glyph glyph-name="afii10080" unicode="&#x43e;" horiz-adv-x="780" 
d="M390 1020q124 0 212 -88t88 -212v-440q0 -124 -88 -212t-212 -88t-212 88t-88 212v440q0 124 88 212t212 88zM390 920q-82 0 -141 -59t-59 -141v-440q0 -82 59 -141t141 -59t141 59t59 141v440q0 82 -59 141t-141 59z" />
    <glyph glyph-name="afii10081" unicode="&#x43f;" horiz-adv-x="800" 
d="M150 1000h300q104 0 177 -73t73 -177v-700q0 -21 -14.5 -35.5t-35.5 -14.5t-35.5 14.5t-14.5 35.5v700q0 62 -44 106t-106 44h-250v-850q0 -21 -14.5 -35.5t-35.5 -14.5t-35.5 14.5t-14.5 35.5v900q0 21 14.5 35.5t35.5 14.5z" />
    <glyph glyph-name="afii10082" unicode="&#x440;" horiz-adv-x="790" 
d="M150 -400q-21 0 -35.5 14.5t-14.5 35.5v1300q0 21 14.5 35.5t35.5 14.5h300q104 0 177 -73t73 -177v-500q0 -104 -73 -177t-177 -73h-250v-350q0 -21 -14.5 -35.5t-35.5 -14.5zM200 100h250q62 0 106 44t44 106v500q0 62 -44 106t-106 44h-250v-800z" />
    <glyph glyph-name="afii10083" unicode="&#x441;" horiz-adv-x="670" 
d="M340 1000h200q21 0 35.5 -14.5t14.5 -35.5t-14.5 -35.5t-35.5 -14.5h-200q-62 0 -106 -44t-44 -106v-500q0 -62 44 -106t106 -44h200q21 0 35.5 -14.5t14.5 -35.5t-14.5 -35.5t-35.5 -14.5h-200q-104 0 -177 73t-73 177v500q0 104 73 177t177 73z" />
    <glyph glyph-name="afii10084" unicode="&#x442;" horiz-adv-x="1100" 
d="M150 1000h600q104 0 177 -73t73 -177v-700q0 -21 -14.5 -35.5t-35.5 -14.5t-35.5 14.5t-14.5 35.5v700q0 62 -44 106t-106 44h-150v-850q0 -21 -14.5 -35.5t-35.5 -14.5t-35.5 14.5t-14.5 35.5v850h-300v-850q0 -21 -14.5 -35.5t-35.5 -14.5t-35.5 14.5t-14.5 35.5v900
q0 21 14.5 35.5t35.5 14.5z" />
    <glyph glyph-name="afii10085" unicode="&#x443;" horiz-adv-x="800" 
d="M150 1000q21 0 35.5 -14.5t14.5 -35.5v-700q0 -62 44 -106t106 -44h250v850q0 21 14.5 35.5t35.5 14.5t35.5 -14.5t14.5 -35.5v-1150q0 -82 -59 -141t-141 -59h-300q-21 0 -35.5 14.5t-14.5 35.5t14.5 35.5t35.5 14.5h300q41 0 70.5 29.5t29.5 70.5v200h-250
q-104 0 -177 73t-73 177v700q0 21 14.5 35.5t35.5 14.5z" />
    <glyph glyph-name="afii10086" unicode="&#x444;" horiz-adv-x="1060" 
d="M530 1250q21 0 35.5 -14.5t14.5 -35.5v-200q166 0 283 -117t117 -283v-200q0 -166 -117 -283t-283 -117v-350q0 -21 -14.5 -35.5t-35.5 -14.5t-35.5 14.5t-14.5 35.5v350q-166 0 -283 117t-117 283v200q0 166 117 283t283 117v200q0 21 14.5 35.5t35.5 14.5zM480 900
q-124 0 -212 -88t-88 -212v-200q0 -124 88 -212t212 -88v800zM580 900v-800q124 0 212 88t88 212v200q0 124 -88 212t-212 88z" />
    <glyph glyph-name="afii10087" unicode="&#x445;" horiz-adv-x="760" 
d="M130 1000q28 0 44 -26l206 -371l206 371q16 26 44 26q21 0 35.5 -14.5t14.5 -35.5q0 -14 -6 -24l-237 -426l237 -426q6 -10 6 -24q0 -21 -14.5 -35.5t-35.5 -14.5q-28 0 -44 26l-206 371l-206 -371q-16 -26 -44 -26q-21 0 -35.5 14.5t-14.5 35.5q0 14 6 24l237 426
l-237 426q-6 10 -6 24q0 21 14.5 35.5t35.5 14.5z" />
    <glyph glyph-name="afii10088" unicode="&#x446;" horiz-adv-x="830" 
d="M150 1000q21 0 35.5 -14.5t14.5 -35.5v-700q0 -62 44 -106t106 -44h250v850q0 21 14.5 35.5t35.5 14.5t35.5 -14.5t14.5 -35.5v-850h50q21 0 35.5 -14.5t14.5 -35.5v-200q0 -21 -14.5 -35.5t-35.5 -14.5t-35.5 14.5t-14.5 35.5v150h-350q-104 0 -177 73t-73 177v700
q0 21 14.5 35.5t35.5 14.5z" />
    <glyph glyph-name="afii10089" unicode="&#x447;" horiz-adv-x="790" 
d="M140 1000q21 0 35.5 -14.5t14.5 -35.5v-250q0 -62 44 -106t106 -44h250v400q0 21 14.5 35.5t35.5 14.5t35.5 -14.5t14.5 -35.5v-900q0 -21 -14.5 -35.5t-35.5 -14.5t-35.5 14.5t-14.5 35.5v400h-250q-104 0 -177 73t-73 177v250q0 21 14.5 35.5t35.5 14.5z" />
    <glyph glyph-name="afii10090" unicode="&#x448;" horiz-adv-x="1100" 
d="M950 0h-600q-104 0 -177 73t-73 177v700q0 21 14.5 35.5t35.5 14.5t35.5 -14.5t14.5 -35.5v-700q0 -62 44 -106t106 -44h150v850q0 21 14.5 35.5t35.5 14.5t35.5 -14.5t14.5 -35.5v-850h300v850q0 21 14.5 35.5t35.5 14.5t35.5 -14.5t14.5 -35.5v-900q0 -21 -14.5 -35.5
t-35.5 -14.5z" />
    <glyph glyph-name="afii10091" unicode="&#x449;" horiz-adv-x="1130" 
d="M150 1000q21 0 35.5 -14.5t14.5 -35.5v-700q0 -62 44 -106t106 -44h150v850q0 21 14.5 35.5t35.5 14.5t35.5 -14.5t14.5 -35.5v-850h300v850q0 21 14.5 35.5t35.5 14.5t35.5 -14.5t14.5 -35.5v-850h50q21 0 35.5 -14.5t14.5 -35.5v-200q0 -21 -14.5 -35.5t-35.5 -14.5
t-35.5 14.5t-14.5 35.5v150h-650q-104 0 -177 73t-73 177v700q0 21 14.5 35.5t35.5 14.5z" />
    <glyph glyph-name="afii10092" unicode="&#x44a;" horiz-adv-x="800" 
d="M80 1000h100q21 0 35.5 -14.5t14.5 -35.5v-400h225q114 0 194.5 -80.5t80.5 -194.5t-80.5 -194.5t-194.5 -80.5h-275q-21 0 -35.5 14.5t-14.5 35.5v850h-50q-21 0 -35.5 14.5t-14.5 35.5t14.5 35.5t35.5 14.5zM230 450v-350h225q73 0 124 51t51 124t-51 124t-124 51h-225
z" />
    <glyph glyph-name="afii10093" unicode="&#x44b;" 
d="M150 1000q21 0 35.5 -14.5t14.5 -35.5v-400h125q114 0 194.5 -80.5t80.5 -194.5t-80.5 -194.5t-194.5 -80.5h-175q-21 0 -35.5 14.5t-14.5 35.5v900q0 21 14.5 35.5t35.5 14.5zM200 450v-350h125q73 0 124 51t51 124t-51 124t-124 51h-125zM750 1000q21 0 35.5 -14.5
t14.5 -35.5v-900q0 -21 -14.5 -35.5t-35.5 -14.5t-35.5 14.5t-14.5 35.5v900q0 21 14.5 35.5t35.5 14.5z" />
    <glyph glyph-name="afii10094" unicode="&#x44c;" horiz-adv-x="770" 
d="M150 1000q21 0 35.5 -14.5t14.5 -35.5v-400h225q114 0 194.5 -80.5t80.5 -194.5t-80.5 -194.5t-194.5 -80.5h-275q-21 0 -35.5 14.5t-14.5 35.5v900q0 21 14.5 35.5t35.5 14.5zM200 450v-350h225q73 0 124 51t51 124t-51 124t-124 51h-225z" />
    <glyph glyph-name="afii10095" unicode="&#x44d;" horiz-adv-x="770" 
d="M130 1000h300q104 0 177 -73t73 -177v-500q0 -104 -73 -177t-177 -73h-300q-21 0 -35.5 14.5t-14.5 35.5t14.5 35.5t35.5 14.5h300q62 0 106 44t44 106v200h-200q-21 0 -35.5 14.5t-14.5 35.5t14.5 35.5t35.5 14.5h200v200q0 62 -44 106t-106 44h-300q-21 0 -35.5 14.5
t-14.5 35.5t14.5 35.5t35.5 14.5z" />
    <glyph glyph-name="afii10096" unicode="&#x44e;" horiz-adv-x="890" 
d="M550 1020q104 0 177 -73t73 -177v-540q0 -104 -73 -177t-177 -73t-177 73t-73 177v220h-100v-400q0 -21 -14.5 -35.5t-35.5 -14.5t-35.5 14.5t-14.5 35.5v900q0 21 14.5 35.5t35.5 14.5t35.5 -14.5t14.5 -35.5v-400h100v220q0 104 73 177t177 73zM550 920q-62 0 -106 -44
t-44 -106v-540q0 -62 44 -106t106 -44t106 44t44 106v540q0 62 -44 106t-106 44z" />
    <glyph glyph-name="afii10097" unicode="&#x44f;" horiz-adv-x="790" 
d="M365 1000h275q21 0 35.5 -14.5t14.5 -35.5v-900q0 -21 -14.5 -35.5t-35.5 -14.5t-35.5 14.5t-14.5 35.5v400h-171l-235 -424q-16 -26 -44 -26q-21 0 -35.5 14.5t-14.5 35.5q0 14 6 24l212 382q-94 20 -156 95.5t-62 173.5q0 114 80.5 194.5t194.5 80.5zM365 900
q-73 0 -124 -51t-51 -124t51 -124t124 -51h225v350h-225z" />
    <glyph glyph-name="uni0450" unicode="&#x450;" horiz-adv-x="780" 
d="M340 1400q31 0 45 -28l50 -100q5 -12 5 -22q0 -21 -14.5 -35.5t-35.5 -14.5q-31 0 -45 28l-50 100q-5 12 -5 22q0 21 14.5 35.5t35.5 14.5zM390 1020q124 0 212 -88t88 -212v-220q0 -21 -14.5 -35.5t-35.5 -14.5h-450v-200q0 -62 44 -106t106 -44h300q21 0 35.5 -14.5
t14.5 -35.5t-14.5 -35.5t-35.5 -14.5h-300q-104 0 -177 73t-73 177v470q0 124 88 212t212 88zM390 920q-82 0 -141 -59t-59 -141v-170h400v170q0 82 -59 141t-141 59z" />
    <glyph glyph-name="afii10071" unicode="&#x451;" horiz-adv-x="780" 
d="M290 1350q0 -21 -14.5 -35.5t-35.5 -14.5t-35.5 14.5t-14.5 35.5t14.5 35.5t35.5 14.5t35.5 -14.5t14.5 -35.5zM590 1350q0 -21 -14.5 -35.5t-35.5 -14.5t-35.5 14.5t-14.5 35.5t14.5 35.5t35.5 14.5t35.5 -14.5t14.5 -35.5zM390 1020q124 0 212 -88t88 -212v-220
q0 -21 -14.5 -35.5t-35.5 -14.5h-450v-200q0 -62 44 -106t106 -44h300q21 0 35.5 -14.5t14.5 -35.5t-14.5 -35.5t-35.5 -14.5h-300q-104 0 -177 73t-73 177v470q0 124 88 212t212 88zM390 920q-82 0 -141 -59t-59 -141v-170h400v170q0 82 -59 141t-141 59z" />
    <glyph glyph-name="afii10099" unicode="&#x452;" horiz-adv-x="850" 
d="M200 1400q21 0 35.5 -14.5t14.5 -35.5v-50h200q21 0 35.5 -14.5t14.5 -35.5t-14.5 -35.5t-35.5 -14.5h-200v-200h300q82 0 141 -59t59 -141v-1000q0 -82 -59 -141t-141 -59h-50q-21 0 -35.5 14.5t-14.5 35.5t14.5 35.5t35.5 14.5h50q41 0 70.5 29.5t29.5 70.5v1000
q0 41 -29.5 70.5t-70.5 29.5h-300v-850q0 -21 -14.5 -35.5t-35.5 -14.5t-35.5 14.5t-14.5 35.5v1150h-50q-21 0 -35.5 14.5t-14.5 35.5t14.5 35.5t35.5 14.5h50v50q0 21 14.5 35.5t35.5 14.5z" />
    <glyph glyph-name="afii10100" unicode="&#x453;" horiz-adv-x="750" 
d="M390 1400q21 0 35.5 -14.5t14.5 -35.5q0 -10 -5 -22l-50 -100q-14 -28 -45 -28q-21 0 -35.5 14.5t-14.5 35.5q0 10 5 22l50 100q14 28 45 28zM380 1020q138 0 215 -60q75 -59 75 -160q0 -109 -85 -174l-357 -278q-58 -45 -58 -118q0 -66 41 -104q50 -46 159 -46
q160 0 215 55q15 15 35 15q21 0 35.5 -14.5t14.5 -35.5q0 -20 -15 -35q-84 -85 -285 -85q-146 0 -226 72q-74 67 -74 178q0 122 96 197l358 278q46 36 46 95q0 52 -37 81q-50 39 -153 39q-84 0 -130 -13t-75 -42q-15 -15 -35 -15q-21 0 -35.5 14.5t-14.5 35.5q0 20 15 35
q84 85 275 85z" />
    <glyph glyph-name="afii10101" unicode="&#x454;" horiz-adv-x="770" 
d="M640 1000q21 0 35.5 -14.5t14.5 -35.5t-14.5 -35.5t-35.5 -14.5h-300q-62 0 -106 -44t-44 -106v-200h200q21 0 35.5 -14.5t14.5 -35.5t-14.5 -35.5t-35.5 -14.5h-200v-200q0 -62 44 -106t106 -44h300q21 0 35.5 -14.5t14.5 -35.5t-14.5 -35.5t-35.5 -14.5h-300
q-104 0 -177 73t-73 177v500q0 104 73 177t177 73h300z" />
    <glyph glyph-name="afii10102" unicode="&#x455;" horiz-adv-x="750" 
d="M370 1020q191 0 275 -85q15 -15 15 -35q0 -21 -14.5 -35.5t-35.5 -14.5q-20 0 -35 15q-29 29 -75 42t-130 13q-103 0 -153 -39q-37 -29 -37 -81q0 -59 46 -95l358 -278q96 -75 96 -197q0 -111 -74 -178q-80 -72 -226 -72q-201 0 -285 85q-15 15 -15 35q0 21 14.5 35.5
t35.5 14.5q20 0 35 -15q55 -55 215 -55q109 0 159 46q41 38 41 104q0 73 -58 118l-357 278q-85 65 -85 174q0 101 75 160q77 60 215 60z" />
    <glyph glyph-name="afii10103" unicode="&#x456;" horiz-adv-x="300" 
d="M150 1000q21 0 35.5 -14.5t14.5 -35.5v-900q0 -21 -14.5 -35.5t-35.5 -14.5t-35.5 14.5t-14.5 35.5v900q0 21 14.5 35.5t35.5 14.5zM200 1350q0 -21 -14.5 -35.5t-35.5 -14.5t-35.5 14.5t-14.5 35.5t14.5 35.5t35.5 14.5t35.5 -14.5t14.5 -35.5z" />
    <glyph glyph-name="afii10104" unicode="&#x457;" horiz-adv-x="500" 
d="M150 1350q0 -21 -14.5 -35.5t-35.5 -14.5t-35.5 14.5t-14.5 35.5t14.5 35.5t35.5 14.5t35.5 -14.5t14.5 -35.5zM450 1350q0 -21 -14.5 -35.5t-35.5 -14.5t-35.5 14.5t-14.5 35.5t14.5 35.5t35.5 14.5t35.5 -14.5t14.5 -35.5zM250 1000q21 0 35.5 -14.5t14.5 -35.5v-900
q0 -21 -14.5 -35.5t-35.5 -14.5t-35.5 14.5t-14.5 35.5v900q0 21 14.5 35.5t35.5 14.5z" />
    <glyph glyph-name="afii10105" unicode="&#x458;" horiz-adv-x="300" 
d="M150 1000q21 0 35.5 -14.5t14.5 -35.5v-1100q0 -104 -73 -177t-177 -73q-21 0 -35.5 14.5t-14.5 35.5t14.5 35.5t35.5 14.5q62 0 106 44t44 106v1100q0 21 14.5 35.5t35.5 14.5zM200 1350q0 -21 -14.5 -35.5t-35.5 -14.5t-35.5 14.5t-14.5 35.5t14.5 35.5t35.5 14.5
t35.5 -14.5t14.5 -35.5z" />
    <glyph glyph-name="afii10106" unicode="&#x459;" horiz-adv-x="1220" 
d="M350 1000h250q21 0 35.5 -14.5t14.5 -35.5v-400h225q114 0 194.5 -80.5t80.5 -194.5t-80.5 -194.5t-194.5 -80.5h-275q-21 0 -35.5 14.5t-14.5 35.5v850h-162l-240 -863q-5 -16 -18 -26.5t-30 -10.5q-21 0 -35.5 14.5t-14.5 35.5q0 5 2 13l250 900q5 16 18 26.5t30 10.5z
M650 450v-350h225q73 0 124 51t51 124t-51 124t-124 51h-225z" />
    <glyph glyph-name="afii10107" unicode="&#x45a;" horiz-adv-x="1270" 
d="M150 1000q21 0 35.5 -14.5t14.5 -35.5v-400h400v400q0 21 14.5 35.5t35.5 14.5t35.5 -14.5t14.5 -35.5v-400h225q114 0 194.5 -80.5t80.5 -194.5t-80.5 -194.5t-194.5 -80.5h-275q-21 0 -35.5 14.5t-14.5 35.5v400h-400v-400q0 -21 -14.5 -35.5t-35.5 -14.5t-35.5 14.5
t-14.5 35.5v900q0 21 14.5 35.5t35.5 14.5zM700 450v-350h225q73 0 124 51t51 124t-51 124t-124 51h-225z" />
    <glyph glyph-name="afii10108" unicode="&#x45b;" horiz-adv-x="850" 
d="M200 1400q21 0 35.5 -14.5t14.5 -35.5v-50h200q21 0 35.5 -14.5t14.5 -35.5t-14.5 -35.5t-35.5 -14.5h-200v-200h300q82 0 141 -59t59 -141v-750q0 -21 -14.5 -35.5t-35.5 -14.5t-35.5 14.5t-14.5 35.5v750q0 41 -29.5 70.5t-70.5 29.5h-300v-850q0 -21 -14.5 -35.5
t-35.5 -14.5t-35.5 14.5t-14.5 35.5v1150h-50q-21 0 -35.5 14.5t-14.5 35.5t14.5 35.5t35.5 14.5h50v50q0 21 14.5 35.5t35.5 14.5z" />
    <glyph glyph-name="afii10109" unicode="&#x45c;" horiz-adv-x="770" 
d="M400 1400q21 0 35.5 -14.5t14.5 -35.5q0 -10 -5 -22l-50 -100q-14 -28 -45 -28q-21 0 -35.5 14.5t-14.5 35.5q0 10 5 22l50 100q14 28 45 28zM150 1000q21 0 35.5 -14.5t14.5 -35.5v-462l412 494q15 18 38 18q21 0 35.5 -14.5t14.5 -35.5q0 -17 -12 -32l-318 -382
l321 -457q9 -12 9 -29q0 -21 -14.5 -35.5t-35.5 -14.5q-26 0 -41 21l-305 436l-104 -125v-282q0 -21 -14.5 -35.5t-35.5 -14.5t-35.5 14.5t-14.5 35.5v900q0 21 14.5 35.5t35.5 14.5z" />
    <glyph glyph-name="uni045D" unicode="&#x45d;" horiz-adv-x="800" 
d="M350 1400q31 0 45 -28l50 -100q5 -12 5 -22q0 -21 -14.5 -35.5t-35.5 -14.5q-31 0 -45 28l-50 100q-5 12 -5 22q0 21 14.5 35.5t35.5 14.5zM650 0h-300q-104 0 -177 73t-73 177v700q0 21 14.5 35.5t35.5 14.5t35.5 -14.5t14.5 -35.5v-700q0 -62 44 -106t106 -44h250v850
q0 21 14.5 35.5t35.5 14.5t35.5 -14.5t14.5 -35.5v-900q0 -21 -14.5 -35.5t-35.5 -14.5z" />
    <glyph glyph-name="afii10110" unicode="&#x45e;" horiz-adv-x="800" 
d="M150 1000q21 0 35.5 -14.5t14.5 -35.5v-700q0 -62 44 -106t106 -44h250v850q0 21 14.5 35.5t35.5 14.5t35.5 -14.5t14.5 -35.5v-1150q0 -82 -59 -141t-141 -59h-300q-21 0 -35.5 14.5t-14.5 35.5t14.5 35.5t35.5 14.5h300q41 0 70.5 29.5t29.5 70.5v200h-250
q-104 0 -177 73t-73 177v700q0 21 14.5 35.5t35.5 14.5zM300 1400h200q21 0 35.5 -14.5t14.5 -35.5t-14.5 -35.5t-35.5 -14.5h-200q-21 0 -35.5 14.5t-14.5 35.5t14.5 35.5t35.5 14.5z" />
    <glyph glyph-name="afii10193" unicode="&#x45f;" horiz-adv-x="800" 
d="M150 1000q21 0 35.5 -14.5t14.5 -35.5v-850h400v850q0 21 14.5 35.5t35.5 14.5t35.5 -14.5t14.5 -35.5v-900q0 -21 -14.5 -35.5t-35.5 -14.5h-200v-150q0 -21 -14.5 -35.5t-35.5 -14.5t-35.5 14.5t-14.5 35.5v150h-200q-21 0 -35.5 14.5t-14.5 35.5v900q0 21 14.5 35.5
t35.5 14.5z" />
    <glyph glyph-name="afii10050" unicode="&#x490;" horiz-adv-x="750" 
d="M650 1600q21 0 35.5 -14.5t14.5 -35.5v-200q0 -21 -14.5 -35.5t-35.5 -14.5h-450v-1250q0 -21 -14.5 -35.5t-35.5 -14.5t-35.5 14.5t-14.5 35.5v1300q0 21 14.5 35.5t35.5 14.5h450v150q0 21 14.5 35.5t35.5 14.5z" />
    <glyph glyph-name="afii10098" unicode="&#x491;" horiz-adv-x="650" 
d="M550 1150q21 0 35.5 -14.5t14.5 -35.5v-150q0 -21 -14.5 -35.5t-35.5 -14.5h-350v-850q0 -21 -14.5 -35.5t-35.5 -14.5t-35.5 14.5t-14.5 35.5v900q0 21 14.5 35.5t35.5 14.5h350v100q0 21 14.5 35.5t35.5 14.5z" />
    <glyph glyph-name="uni2010" unicode="&#x2010;" horiz-adv-x="700" 
d="M100 550h500q21 0 35.5 -14.5t14.5 -35.5t-14.5 -35.5t-35.5 -14.5h-500q-21 0 -35.5 14.5t-14.5 35.5t14.5 35.5t35.5 14.5z" />
    <glyph glyph-name="uni2011" unicode="&#x2011;" horiz-adv-x="700" 
d="M100 550h500q21 0 35.5 -14.5t14.5 -35.5t-14.5 -35.5t-35.5 -14.5h-500q-21 0 -35.5 14.5t-14.5 35.5t14.5 35.5t35.5 14.5z" />
    <glyph glyph-name="endash" unicode="&#x2013;" horiz-adv-x="800" 
d="M100 550h600q21 0 35.5 -14.5t14.5 -35.5t-14.5 -35.5t-35.5 -14.5h-600q-21 0 -35.5 14.5t-14.5 35.5t14.5 35.5t35.5 14.5z" />
    <glyph glyph-name="emdash" unicode="&#x2014;" horiz-adv-x="1000" 
d="M100 550h800q21 0 35.5 -14.5t14.5 -35.5t-14.5 -35.5t-35.5 -14.5h-800q-21 0 -35.5 14.5t-14.5 35.5t14.5 35.5t35.5 14.5z" />
    <glyph glyph-name="uni2016" unicode="&#x2016;" horiz-adv-x="600" 
d="M450 1500q21 0 35.5 -14.5t14.5 -35.5v-1500q0 -21 -14.5 -35.5t-35.5 -14.5t-35.5 14.5t-14.5 35.5v1500q0 21 14.5 35.5t35.5 14.5zM150 1500q21 0 35.5 -14.5t14.5 -35.5v-1500q0 -21 -14.5 -35.5t-35.5 -14.5t-35.5 14.5t-14.5 35.5v1500q0 21 14.5 35.5t35.5 14.5z
" />
    <glyph glyph-name="quoteleft" unicode="&#x2018;" horiz-adv-x="250" 
d="M100 1400q17 0 31 -11t18 -27l50 -200q1 -4 1 -12q0 -21 -14.5 -35.5t-35.5 -14.5q-17 0 -31 11t-18 27l-50 200q-1 4 -1 12q0 21 14.5 35.5t35.5 14.5z" />
    <glyph glyph-name="quoteright" unicode="&#x2019;" horiz-adv-x="250" 
d="M150 1400q21 0 35.5 -14.5t14.5 -35.5q0 -8 -1 -12l-50 -200q-4 -16 -18 -27t-31 -11q-21 0 -35.5 14.5t-14.5 35.5q0 8 1 12l50 200q4 16 18 27t31 11z" />
    <glyph glyph-name="quotesinglbase" unicode="&#x201a;" horiz-adv-x="250" 
d="M150 100q21 0 35.5 -14.5t14.5 -35.5q0 -8 -1 -12l-50 -200q-4 -16 -18 -27t-31 -11q-21 0 -35.5 14.5t-14.5 35.5q0 8 1 12l50 200q4 16 18 27t31 11z" />
    <glyph glyph-name="quotereversed" unicode="&#x201b;" horiz-adv-x="250" 
d="M100 1400q17 0 31 -11t18 -27l50 -200q1 -4 1 -12q0 -21 -14.5 -35.5t-35.5 -14.5q-17 0 -31 11t-18 27l-50 200q-1 4 -1 12q0 21 14.5 35.5t35.5 14.5z" />
    <glyph glyph-name="quotedblleft" unicode="&#x201c;" horiz-adv-x="450" 
d="M100 1400q17 0 31 -11t18 -27l50 -200q1 -4 1 -12q0 -21 -14.5 -35.5t-35.5 -14.5q-17 0 -31 11t-18 27l-50 200q-1 4 -1 12q0 21 14.5 35.5t35.5 14.5zM300 1400q17 0 31 -11t18 -27l50 -200q1 -4 1 -12q0 -21 -14.5 -35.5t-35.5 -14.5q-17 0 -31 11t-18 27l-50 200
q-1 4 -1 12q0 21 14.5 35.5t35.5 14.5z" />
    <glyph glyph-name="quotedblright" unicode="&#x201d;" horiz-adv-x="450" 
d="M350 1400q21 0 35.5 -14.5t14.5 -35.5q0 -8 -1 -12l-50 -200q-4 -16 -18 -27t-31 -11q-21 0 -35.5 14.5t-14.5 35.5q0 8 1 12l50 200q4 16 18 27t31 11zM150 1400q21 0 35.5 -14.5t14.5 -35.5q0 -8 -1 -12l-50 -200q-4 -16 -18 -27t-31 -11q-21 0 -35.5 14.5t-14.5 35.5
q0 8 1 12l50 200q4 16 18 27t31 11z" />
    <glyph glyph-name="quotedblbase" unicode="&#x201e;" horiz-adv-x="450" 
d="M350 100q21 0 35.5 -14.5t14.5 -35.5q0 -8 -1 -12l-50 -200q-4 -16 -18 -27t-31 -11q-21 0 -35.5 14.5t-14.5 35.5q0 8 1 12l50 200q4 16 18 27t31 11zM150 100q21 0 35.5 -14.5t14.5 -35.5q0 -8 -1 -12l-50 -200q-4 -16 -18 -27t-31 -11q-21 0 -35.5 14.5t-14.5 35.5
q0 8 1 12l50 200q4 16 18 27t31 11z" />
    <glyph glyph-name="uni201F" unicode="&#x201f;" horiz-adv-x="450" 
d="M100 1400q17 0 31 -11t18 -27l50 -200q1 -4 1 -12q0 -21 -14.5 -35.5t-35.5 -14.5q-17 0 -31 11t-18 27l-50 200q-1 4 -1 12q0 21 14.5 35.5t35.5 14.5zM300 1400q17 0 31 -11t18 -27l50 -200q1 -4 1 -12q0 -21 -14.5 -35.5t-35.5 -14.5q-17 0 -31 11t-18 27l-50 200
q-1 4 -1 12q0 21 14.5 35.5t35.5 14.5z" />
    <glyph glyph-name="bullet" unicode="&#x2022;" horiz-adv-x="400" 
d="M300 500q0 -41 -29.5 -70.5t-70.5 -29.5t-70.5 29.5t-29.5 70.5t29.5 70.5t70.5 29.5t70.5 -29.5t29.5 -70.5z" />
    <glyph glyph-name="onedotenleader" unicode="&#x2024;" horiz-adv-x="300" 
d="M200 50q0 -21 -14.5 -35.5t-35.5 -14.5t-35.5 14.5t-14.5 35.5t14.5 35.5t35.5 14.5t35.5 -14.5t14.5 -35.5z" />
    <glyph glyph-name="twodotenleader" unicode="&#x2025;" horiz-adv-x="500" 
d="M400 50q0 -21 -14.5 -35.5t-35.5 -14.5t-35.5 14.5t-14.5 35.5t14.5 35.5t35.5 14.5t35.5 -14.5t14.5 -35.5zM200 50q0 -21 -14.5 -35.5t-35.5 -14.5t-35.5 14.5t-14.5 35.5t14.5 35.5t35.5 14.5t35.5 -14.5t14.5 -35.5z" />
    <glyph glyph-name="ellipsis" unicode="&#x2026;" horiz-adv-x="700" 
d="M600 50q0 -21 -14.5 -35.5t-35.5 -14.5t-35.5 14.5t-14.5 35.5t14.5 35.5t35.5 14.5t35.5 -14.5t14.5 -35.5zM400 50q0 -21 -14.5 -35.5t-35.5 -14.5t-35.5 14.5t-14.5 35.5t14.5 35.5t35.5 14.5t35.5 -14.5t14.5 -35.5zM200 50q0 -21 -14.5 -35.5t-35.5 -14.5
t-35.5 14.5t-14.5 35.5t14.5 35.5t35.5 14.5t35.5 -14.5t14.5 -35.5z" />
    <glyph glyph-name="perthousand" unicode="&#x2030;" horiz-adv-x="2400" 
d="M400 1400q124 0 212 -88t88 -212t-88 -212t-212 -88t-212 88t-88 212t88 212t212 88zM400 1300q-83 0 -141.5 -58.5t-58.5 -141.5t58.5 -141.5t141.5 -58.5t141.5 58.5t58.5 141.5t-58.5 141.5t-141.5 58.5zM1300 600q124 0 212 -88t88 -212t-88 -212t-212 -88t-212 88
t-88 212t88 212t212 88zM1300 500q-83 0 -141.5 -58.5t-58.5 -141.5t58.5 -141.5t141.5 -58.5t141.5 58.5t58.5 141.5t-58.5 141.5t-141.5 58.5zM1250 1400q21 0 35.5 -14.5t14.5 -35.5q0 -14 -7 -26l-800 -1300q-15 -24 -43 -24q-21 0 -35.5 14.5t-14.5 35.5q0 14 7 26
l800 1300q15 24 43 24zM2000 600q124 0 212 -88t88 -212t-88 -212t-212 -88t-212 88t-88 212t88 212t212 88zM2000 500q-83 0 -141.5 -58.5t-58.5 -141.5t58.5 -141.5t141.5 -58.5t141.5 58.5t58.5 141.5t-58.5 141.5t-141.5 58.5z" />
    <glyph glyph-name="uni2031" unicode="&#x2031;" horiz-adv-x="3100" 
d="M400 1400q124 0 212 -88t88 -212t-88 -212t-212 -88t-212 88t-88 212t88 212t212 88zM400 1300q-83 0 -141.5 -58.5t-58.5 -141.5t58.5 -141.5t141.5 -58.5t141.5 58.5t58.5 141.5t-58.5 141.5t-141.5 58.5zM1300 600q124 0 212 -88t88 -212t-88 -212t-212 -88t-212 88
t-88 212t88 212t212 88zM1300 500q-83 0 -141.5 -58.5t-58.5 -141.5t58.5 -141.5t141.5 -58.5t141.5 58.5t58.5 141.5t-58.5 141.5t-141.5 58.5zM1250 1400q21 0 35.5 -14.5t14.5 -35.5q0 -14 -7 -26l-800 -1300q-15 -24 -43 -24q-21 0 -35.5 14.5t-14.5 35.5q0 14 7 26
l800 1300q15 24 43 24zM2000 600q124 0 212 -88t88 -212t-88 -212t-212 -88t-212 88t-88 212t88 212t212 88zM2000 500q-83 0 -141.5 -58.5t-58.5 -141.5t58.5 -141.5t141.5 -58.5t141.5 58.5t58.5 141.5t-58.5 141.5t-141.5 58.5zM2700 600q124 0 212 -88t88 -212t-88 -212
t-212 -88t-212 88t-88 212t88 212t212 88zM2700 500q-83 0 -141.5 -58.5t-58.5 -141.5t58.5 -141.5t141.5 -58.5t141.5 58.5t58.5 141.5t-58.5 141.5t-141.5 58.5z" />
    <glyph glyph-name="minute" unicode="&#x2032;" horiz-adv-x="250" 
d="M150 1400q21 0 35.5 -14.5t14.5 -35.5q0 -2 -0.5 -4t-0.5 -4l-50 -300q-3 -18 -16.5 -30t-32.5 -12q-21 0 -35.5 14.5t-14.5 35.5q0 2 0.5 4t0.5 4l50 300q3 18 16.5 30t32.5 12z" />
    <glyph glyph-name="second" unicode="&#x2033;" horiz-adv-x="450" 
d="M350 1400q21 0 35.5 -14.5t14.5 -35.5q0 -2 -0.5 -4t-0.5 -4l-50 -300q-3 -18 -16.5 -30t-32.5 -12q-21 0 -35.5 14.5t-14.5 35.5q0 2 0.5 4t0.5 4l50 300q3 18 16.5 30t32.5 12zM150 1400q21 0 35.5 -14.5t14.5 -35.5q0 -2 -0.5 -4t-0.5 -4l-50 -300q-3 -18 -16.5 -30
t-32.5 -12q-21 0 -35.5 14.5t-14.5 35.5q0 2 0.5 4t0.5 4l50 300q3 18 16.5 30t32.5 12z" />
    <glyph glyph-name="uni2034" unicode="&#x2034;" horiz-adv-x="650" 
d="M550 1400q21 0 35.5 -14.5t14.5 -35.5q0 -2 -0.5 -4t-0.5 -4l-50 -300q-3 -18 -16.5 -30t-32.5 -12q-21 0 -35.5 14.5t-14.5 35.5q0 2 0.5 4t0.5 4l50 300q3 18 16.5 30t32.5 12zM350 1400q21 0 35.5 -14.5t14.5 -35.5q0 -2 -0.5 -4t-0.5 -4l-50 -300q-3 -18 -16.5 -30
t-32.5 -12q-21 0 -35.5 14.5t-14.5 35.5q0 2 0.5 4t0.5 4l50 300q3 18 16.5 30t32.5 12zM150 1400q21 0 35.5 -14.5t14.5 -35.5q0 -2 -0.5 -4t-0.5 -4l-50 -300q-3 -18 -16.5 -30t-32.5 -12q-21 0 -35.5 14.5t-14.5 35.5q0 2 0.5 4t0.5 4l50 300q3 18 16.5 30t32.5 12z" />
    <glyph glyph-name="guilsinglleft" unicode="&#x2039;" horiz-adv-x="550" 
d="M400 900q21 0 35.5 -14.5t14.5 -35.5q0 -17 -9 -29l-230 -321l230 -321q9 -12 9 -29q0 -21 -14.5 -35.5t-35.5 -14.5q-26 0 -41 21l-249 349q-10 13 -10 30q0 15 10 30l249 349q15 21 41 21z" />
    <glyph glyph-name="guilsinglright" unicode="&#x203a;" horiz-adv-x="550" 
d="M150 900q26 0 41 -21l249 -349q10 -15 10 -30q0 -17 -10 -30l-249 -349q-15 -21 -41 -21q-21 0 -35.5 14.5t-14.5 35.5q0 17 9 29l230 321l-230 321q-9 12 -9 29q0 21 14.5 35.5t35.5 14.5z" />
    <glyph glyph-name="exclamdbl" unicode="&#x203c;" horiz-adv-x="600" 
d="M500 50q0 -21 -14.5 -35.5t-35.5 -14.5t-35.5 14.5t-14.5 35.5t14.5 35.5t35.5 14.5t35.5 -14.5t14.5 -35.5zM450 1400q21 0 35.5 -14.5t14.5 -35.5v-1000q0 -21 -14.5 -35.5t-35.5 -14.5t-35.5 14.5t-14.5 35.5v1000q0 21 14.5 35.5t35.5 14.5zM200 50
q0 -21 -14.5 -35.5t-35.5 -14.5t-35.5 14.5t-14.5 35.5t14.5 35.5t35.5 14.5t35.5 -14.5t14.5 -35.5zM150 1400q21 0 35.5 -14.5t14.5 -35.5v-1000q0 -21 -14.5 -35.5t-35.5 -14.5t-35.5 14.5t-14.5 35.5v1000q0 21 14.5 35.5t35.5 14.5z" />
    <glyph glyph-name="uni2042" unicode="&#x2042;" horiz-adv-x="1600" 
d="M350 750q31 0 45 -28l55 -110l55 110q14 28 45 28q21 0 35.5 -14.5t14.5 -35.5q0 -12 -5 -22l-64 -128h119q21 0 35.5 -14.5t14.5 -35.5t-14.5 -35.5t-35.5 -14.5h-119l64 -128q5 -10 5 -22q0 -21 -14.5 -35.5t-35.5 -14.5q-31 0 -45 28l-55 110l-55 -110
q-14 -28 -45 -28q-21 0 -35.5 14.5t-14.5 35.5q0 12 5 22l64 128h-119q-21 0 -35.5 14.5t-14.5 35.5t14.5 35.5t35.5 14.5h119l-64 128q-5 10 -5 22q0 21 14.5 35.5t35.5 14.5zM700 1400q31 0 45 -28l55 -110l55 110q14 28 45 28q21 0 35.5 -14.5t14.5 -35.5q0 -12 -5 -22
l-64 -128h119q21 0 35.5 -14.5t14.5 -35.5t-14.5 -35.5t-35.5 -14.5h-119l64 -128q5 -10 5 -22q0 -21 -14.5 -35.5t-35.5 -14.5q-31 0 -45 28l-55 110l-55 -110q-14 -28 -45 -28q-21 0 -35.5 14.5t-14.5 35.5q0 12 5 22l64 128h-119q-21 0 -35.5 14.5t-14.5 35.5t14.5 35.5
t35.5 14.5h119l-64 128q-5 10 -5 22q0 21 14.5 35.5t35.5 14.5zM1050 750q31 0 45 -28l55 -110l55 110q14 28 45 28q21 0 35.5 -14.5t14.5 -35.5q0 -12 -5 -22l-64 -128h119q21 0 35.5 -14.5t14.5 -35.5t-14.5 -35.5t-35.5 -14.5h-119l64 -128q5 -10 5 -22
q0 -21 -14.5 -35.5t-35.5 -14.5q-31 0 -45 28l-55 110l-55 -110q-14 -28 -45 -28q-21 0 -35.5 14.5t-14.5 35.5q0 12 5 22l64 128h-119q-21 0 -35.5 14.5t-14.5 35.5t14.5 35.5t35.5 14.5h119l-64 128q-5 10 -5 22q0 21 14.5 35.5t35.5 14.5z" />
    <glyph glyph-name="fraction" unicode="&#x2044;" horiz-adv-x="650" 
d="M750 1700q21 0 35.5 -14.5t14.5 -35.5q0 -12 -4 -20l-800 -1800q-14 -30 -46 -30q-21 0 -35.5 14.5t-14.5 35.5q0 12 4 20l800 1800q14 30 46 30z" />
    <glyph glyph-name="uni2047" unicode="&#x2047;" horiz-adv-x="1500" 
d="M1150 50q0 -21 -14.5 -35.5t-35.5 -14.5t-35.5 14.5t-14.5 35.5t14.5 35.5t35.5 14.5t35.5 -14.5t14.5 -35.5zM1100 1430q124 0 212 -88t88 -212q0 -110 -70 -193l-133 -159q-47 -57 -47 -128v-300q0 -21 -14.5 -35.5t-35.5 -14.5t-35.5 14.5t-14.5 35.5v300
q0 110 70 193l133 159q47 57 47 128q0 82 -59 141t-141 59q-62 0 -123.5 -30.5t-81.5 -71.5q-14 -28 -45 -28q-21 0 -35.5 14.5t-14.5 35.5q0 10 5 22q38 76 120 117t175 41zM450 50q0 -21 -14.5 -35.5t-35.5 -14.5t-35.5 14.5t-14.5 35.5t14.5 35.5t35.5 14.5t35.5 -14.5
t14.5 -35.5zM400 1430q124 0 212 -88t88 -212q0 -110 -70 -193l-133 -159q-47 -57 -47 -128v-300q0 -21 -14.5 -35.5t-35.5 -14.5t-35.5 14.5t-14.5 35.5v300q0 110 70 193l133 159q47 57 47 128q0 82 -59 141t-141 59q-62 0 -123.5 -30.5t-81.5 -71.5q-14 -28 -45 -28
q-21 0 -35.5 14.5t-14.5 35.5q0 10 5 22q38 76 120 117t175 41z" />
    <glyph glyph-name="uni2048" unicode="&#x2048;" horiz-adv-x="1000" 
d="M900 50q0 -21 -14.5 -35.5t-35.5 -14.5t-35.5 14.5t-14.5 35.5t14.5 35.5t35.5 14.5t35.5 -14.5t14.5 -35.5zM850 1400q21 0 35.5 -14.5t14.5 -35.5v-1000q0 -21 -14.5 -35.5t-35.5 -14.5t-35.5 14.5t-14.5 35.5v1000q0 21 14.5 35.5t35.5 14.5zM450 50
q0 -21 -14.5 -35.5t-35.5 -14.5t-35.5 14.5t-14.5 35.5t14.5 35.5t35.5 14.5t35.5 -14.5t14.5 -35.5zM400 1430q124 0 212 -88t88 -212q0 -110 -70 -193l-133 -159q-47 -57 -47 -128v-300q0 -21 -14.5 -35.5t-35.5 -14.5t-35.5 14.5t-14.5 35.5v300q0 110 70 193l133 159
q47 57 47 128q0 82 -59 141t-141 59q-62 0 -123.5 -30.5t-81.5 -71.5q-14 -28 -45 -28q-21 0 -35.5 14.5t-14.5 35.5q0 10 5 22q38 76 120 117t175 41z" />
    <glyph glyph-name="uni2049" unicode="&#x2049;" horiz-adv-x="1000" 
d="M650 50q0 -21 -14.5 -35.5t-35.5 -14.5t-35.5 14.5t-14.5 35.5t14.5 35.5t35.5 14.5t35.5 -14.5t14.5 -35.5zM600 1430q124 0 212 -88t88 -212q0 -110 -70 -193l-133 -159q-47 -57 -47 -128v-300q0 -21 -14.5 -35.5t-35.5 -14.5t-35.5 14.5t-14.5 35.5v300q0 110 70 193
l133 159q47 57 47 128q0 82 -59 141t-141 59q-62 0 -123.5 -30.5t-81.5 -71.5q-14 -28 -45 -28q-21 0 -35.5 14.5t-14.5 35.5q0 10 5 22q38 76 120 117t175 41zM200 50q0 -21 -14.5 -35.5t-35.5 -14.5t-35.5 14.5t-14.5 35.5t14.5 35.5t35.5 14.5t35.5 -14.5t14.5 -35.5z
M150 1400q21 0 35.5 -14.5t14.5 -35.5v-1000q0 -21 -14.5 -35.5t-35.5 -14.5t-35.5 14.5t-14.5 35.5v1000q0 21 14.5 35.5t35.5 14.5z" />
    <glyph glyph-name="uni204B" unicode="&#x204b;" horiz-adv-x="1100" 
d="M650 1400q145 0 247.5 -102.5t102.5 -247.5t-102.5 -247.5t-247.5 -102.5v-1050q0 -21 -14.5 -35.5t-35.5 -14.5t-35.5 14.5t-14.5 35.5v1650h-200v-1650q0 -21 -14.5 -35.5t-35.5 -14.5t-35.5 14.5t-14.5 35.5v1650h-100q-21 0 -35.5 14.5t-14.5 35.5t14.5 35.5
t35.5 14.5h500zM650 1300v-500q104 0 177 73t73 177t-73 177t-177 73z" />
    <glyph glyph-name="uni2070" unicode="&#x2070;" horiz-adv-x="700" 
d="M350 1750q104 0 177 -73t73 -177v-500q0 -104 -73 -177t-177 -73t-177 73t-73 177v500q0 104 73 177t177 73zM350 1650q-62 0 -106 -44t-44 -106v-500q0 -62 44 -106t106 -44t106 44t44 106v500q0 62 -44 106t-106 44z" />
    <glyph glyph-name="uni2071" unicode="&#x2071;" horiz-adv-x="300" 
d="M150 1450q21 0 35.5 -14.5t14.5 -35.5v-600q0 -21 -14.5 -35.5t-35.5 -14.5t-35.5 14.5t-14.5 35.5v600q0 21 14.5 35.5t35.5 14.5zM200 1700q0 -21 -14.5 -35.5t-35.5 -14.5t-35.5 14.5t-14.5 35.5t14.5 35.5t35.5 14.5t35.5 -14.5t14.5 -35.5z" />
    <glyph glyph-name="uni2074" unicode="&#x2074;" horiz-adv-x="720" 
d="M320 1750q21 0 35.5 -14.5t14.5 -35.5q0 -6 -2 -14l-182 -636h234v150q0 21 14.5 35.5t35.5 14.5t35.5 -14.5t14.5 -35.5v-150h100q21 0 35.5 -14.5t14.5 -35.5t-14.5 -35.5t-35.5 -14.5h-100v-150q0 -21 -14.5 -35.5t-35.5 -14.5t-35.5 14.5t-14.5 35.5v150h-300
q-21 0 -35.5 14.5t-14.5 35.5q0 6 2 14l200 700q5 16 18 26t30 10z" />
    <glyph glyph-name="uni2075" unicode="&#x2075;" horiz-adv-x="670" 
d="M140 1750h400q21 0 35.5 -14.5t14.5 -35.5t-14.5 -35.5t-35.5 -14.5h-350v-300h150q104 0 177 -73t73 -177v-100q0 -104 -73 -177t-177 -73h-200q-21 0 -35.5 14.5t-14.5 35.5t14.5 35.5t35.5 14.5h200q62 0 106 44t44 106v100q0 62 -44 106t-106 44h-200
q-21 0 -35.5 14.5t-14.5 35.5v400q0 21 14.5 35.5t35.5 14.5z" />
    <glyph glyph-name="uni2076" unicode="&#x2076;" horiz-adv-x="660" 
d="M340 750q-104 0 -177 73t-73 177v250q0 167 88 303.5t244 193.5q9 3 18 3q21 0 35.5 -14.5t14.5 -35.5q0 -35 -34 -47q-103 -37 -169 -117t-87 -186h140q104 0 177 -73t73 -177v-100q0 -104 -73 -177t-177 -73zM340 850q62 0 106 44t44 106v100q0 62 -44 106t-106 44
h-150v-250q0 -62 44 -106t106 -44z" />
    <glyph glyph-name="uni2077" unicode="&#x2077;" horiz-adv-x="600" 
d="M100 1750h400q21 0 35.5 -14.5t14.5 -35.5q0 -5 -2 -13l-250 -900q-5 -16 -18 -26.5t-30 -10.5q-21 0 -35.5 14.5t-14.5 35.5q0 5 2 13l232 837h-284v-50q0 -21 -14.5 -35.5t-35.5 -14.5t-35.5 14.5t-14.5 35.5v100q0 21 14.5 35.5t35.5 14.5z" />
    <glyph glyph-name="uni2078" unicode="&#x2078;" horiz-adv-x="680" 
d="M340 1750q104 0 177 -73t73 -177q0 -60 -26.5 -112.5t-73.5 -87.5q47 -35 73.5 -87.5t26.5 -112.5v-100q0 -104 -73 -177t-177 -73t-177 73t-73 177v100q0 60 26.5 112.5t73.5 87.5q-47 35 -73.5 87.5t-26.5 112.5q0 104 73 177t177 73zM340 1650q-62 0 -106 -44
t-44 -106t44 -106t106 -44t106 44t44 106t-44 106t-106 44zM340 1250q-62 0 -106 -44t-44 -106v-100q0 -62 44 -106t106 -44t106 44t44 106v100q0 62 -44 106t-106 44z" />
    <glyph glyph-name="uni2079" unicode="&#x2079;" horiz-adv-x="670" 
d="M330 1750q104 0 177 -73t73 -177v-250q0 -167 -88 -303.5t-244 -193.5q-9 -3 -18 -3q-21 0 -35.5 14.5t-14.5 35.5q0 35 34 47q103 37 169 117t87 186h-140q-104 0 -177 73t-73 177v100q0 104 73 177t177 73zM330 1650q-62 0 -106 -44t-44 -106v-100q0 -62 44 -106
t106 -44h150v250q0 62 -44 106t-106 44z" />
    <glyph glyph-name="uni207A" unicode="&#x207a;" horiz-adv-x="700" 
d="M350 1450q21 0 35.5 -14.5t14.5 -35.5v-150h150q21 0 35.5 -14.5t14.5 -35.5t-14.5 -35.5t-35.5 -14.5h-150v-150q0 -21 -14.5 -35.5t-35.5 -14.5t-35.5 14.5t-14.5 35.5v150h-150q-21 0 -35.5 14.5t-14.5 35.5t14.5 35.5t35.5 14.5h150v150q0 21 14.5 35.5t35.5 14.5z
" />
    <glyph glyph-name="uni207B" unicode="&#x207b;" horiz-adv-x="700" 
d="M150 1150h400q21 0 35.5 -14.5t14.5 -35.5t-14.5 -35.5t-35.5 -14.5h-400q-21 0 -35.5 14.5t-14.5 35.5t14.5 35.5t35.5 14.5z" />
    <glyph glyph-name="uni207C" unicode="&#x207c;" horiz-adv-x="700" 
d="M150 1050h400q21 0 35.5 -14.5t14.5 -35.5t-14.5 -35.5t-35.5 -14.5h-400q-21 0 -35.5 14.5t-14.5 35.5t14.5 35.5t35.5 14.5zM150 1300h400q21 0 35.5 -14.5t14.5 -35.5t-14.5 -35.5t-35.5 -14.5h-400q-21 0 -35.5 14.5t-14.5 35.5t14.5 35.5t35.5 14.5z" />
    <glyph glyph-name="uni207D" unicode="&#x207d;" horiz-adv-x="400" 
d="M250 1800q21 0 35.5 -14.5t14.5 -35.5q0 -12 -4 -20q-60 -137 -78 -231.5t-18 -248.5t18 -248.5t78 -231.5q4 -8 4 -20q0 -21 -14.5 -35.5t-35.5 -14.5q-32 0 -46 31q-62 143 -83 252t-21 267t21 267t83 252q14 31 46 31z" />
    <glyph glyph-name="uni207E" unicode="&#x207e;" horiz-adv-x="400" 
d="M150 1800q32 0 46 -31q62 -143 83 -252t21 -267t-21 -267t-83 -252q-14 -31 -46 -31q-21 0 -35.5 14.5t-14.5 35.5q0 12 4 20q60 137 78 231.5t18 248.5t-18 248.5t-78 231.5q-4 8 -4 20q0 21 14.5 35.5t35.5 14.5z" />
    <glyph glyph-name="uni207F" unicode="&#x207f;" horiz-adv-x="700" 
d="M150 1450h250q82 0 141 -59t59 -141v-450q0 -21 -14.5 -35.5t-35.5 -14.5t-35.5 14.5t-14.5 35.5v450q0 41 -29.5 70.5t-70.5 29.5h-200v-550q0 -21 -14.5 -35.5t-35.5 -14.5t-35.5 14.5t-14.5 35.5v600q0 21 14.5 35.5t35.5 14.5z" />
    <glyph glyph-name="uni2080" unicode="&#x2080;" horiz-adv-x="700" 
d="M350 650q104 0 177 -73t73 -177v-500q0 -104 -73 -177t-177 -73t-177 73t-73 177v500q0 104 73 177t177 73zM350 550q-62 0 -106 -44t-44 -106v-500q0 -62 44 -106t106 -44t106 44t44 106v500q0 62 -44 106t-106 44z" />
    <glyph glyph-name="uni2081" unicode="&#x2081;" horiz-adv-x="450" 
d="M300 650q21 0 35.5 -14.5t14.5 -35.5v-900q0 -21 -14.5 -35.5t-35.5 -14.5t-35.5 14.5t-14.5 35.5v779l-115 -114q-15 -15 -35 -15q-21 0 -35.5 14.5t-14.5 35.5q0 20 15 35l200 200q15 15 35 15z" />
    <glyph glyph-name="uni2082" unicode="&#x2082;" horiz-adv-x="650" 
d="M320 650q104 0 177 -73t73 -177q0 -72 -38 -132l-322 -518h310q21 0 35.5 -14.5t14.5 -35.5t-14.5 -35.5t-35.5 -14.5h-400q-21 0 -35.5 14.5t-14.5 35.5q0 13 8 26l369 595q23 38 23 79q0 62 -44 106t-106 44q-60 0 -90 -15q-32 -16 -70 -65q-17 -20 -40 -20
q-21 0 -35.5 14.5t-14.5 35.5q0 17 13 33q52 67 102 91q52 26 135 26z" />
    <glyph glyph-name="uni2083" unicode="&#x2083;" horiz-adv-x="630" 
d="M100 650h200q104 0 177 -73t73 -177q0 -60 -26.5 -112.5t-73.5 -87.5q47 -35 73.5 -87.5t26.5 -112.5v-100q0 -104 -73 -177t-177 -73h-200q-21 0 -35.5 14.5t-14.5 35.5t14.5 35.5t35.5 14.5h200q62 0 106 44t44 106v100q0 62 -44 106t-106 44h-100q-21 0 -35.5 14.5
t-14.5 35.5t14.5 35.5t35.5 14.5h100q62 0 106 44t44 106t-44 106t-106 44h-200q-21 0 -35.5 14.5t-14.5 35.5t14.5 35.5t35.5 14.5z" />
    <glyph glyph-name="uni2084" unicode="&#x2084;" horiz-adv-x="720" 
d="M320 650q21 0 35.5 -14.5t14.5 -35.5q0 -6 -2 -14l-182 -636h234v150q0 21 14.5 35.5t35.5 14.5t35.5 -14.5t14.5 -35.5v-150h100q21 0 35.5 -14.5t14.5 -35.5t-14.5 -35.5t-35.5 -14.5h-100v-150q0 -21 -14.5 -35.5t-35.5 -14.5t-35.5 14.5t-14.5 35.5v150h-300
q-21 0 -35.5 14.5t-14.5 35.5q0 6 2 14l200 700q5 16 18 26t30 10z" />
    <glyph glyph-name="uni2085" unicode="&#x2085;" horiz-adv-x="670" 
d="M140 650h400q21 0 35.5 -14.5t14.5 -35.5t-14.5 -35.5t-35.5 -14.5h-350v-300h150q104 0 177 -73t73 -177v-100q0 -104 -73 -177t-177 -73h-200q-21 0 -35.5 14.5t-14.5 35.5t14.5 35.5t35.5 14.5h200q62 0 106 44t44 106v100q0 62 -44 106t-106 44h-200
q-21 0 -35.5 14.5t-14.5 35.5v400q0 21 14.5 35.5t35.5 14.5z" />
    <glyph glyph-name="uni2086" unicode="&#x2086;" horiz-adv-x="660" 
d="M340 -350q-104 0 -177 73t-73 177v250q0 167 88 303.5t244 193.5q9 3 18 3q21 0 35.5 -14.5t14.5 -35.5q0 -35 -34 -47q-103 -37 -169 -117t-87 -186h140q104 0 177 -73t73 -177v-100q0 -104 -73 -177t-177 -73zM340 -250q62 0 106 44t44 106v100q0 62 -44 106t-106 44
h-150v-250q0 -62 44 -106t106 -44z" />
    <glyph glyph-name="uni2087" unicode="&#x2087;" horiz-adv-x="600" 
d="M100 650h400q21 0 35.5 -14.5t14.5 -35.5q0 -5 -2 -13l-250 -900q-5 -16 -18 -26.5t-30 -10.5q-21 0 -35.5 14.5t-14.5 35.5q0 5 2 13l232 837h-284v-50q0 -21 -14.5 -35.5t-35.5 -14.5t-35.5 14.5t-14.5 35.5v100q0 21 14.5 35.5t35.5 14.5z" />
    <glyph glyph-name="uni2088" unicode="&#x2088;" horiz-adv-x="680" 
d="M340 650q104 0 177 -73t73 -177q0 -60 -26.5 -112.5t-73.5 -87.5q47 -35 73.5 -87.5t26.5 -112.5v-100q0 -104 -73 -177t-177 -73t-177 73t-73 177v100q0 60 26.5 112.5t73.5 87.5q-47 35 -73.5 87.5t-26.5 112.5q0 104 73 177t177 73zM340 550q-62 0 -106 -44t-44 -106
t44 -106t106 -44t106 44t44 106t-44 106t-106 44zM340 150q-62 0 -106 -44t-44 -106v-100q0 -62 44 -106t106 -44t106 44t44 106v100q0 62 -44 106t-106 44z" />
    <glyph glyph-name="uni2089" unicode="&#x2089;" horiz-adv-x="670" 
d="M330 650q104 0 177 -73t73 -177v-250q0 -167 -88 -303.5t-244 -193.5q-9 -3 -18 -3q-21 0 -35.5 14.5t-14.5 35.5q0 35 34 47q103 37 169 117t87 186h-140q-104 0 -177 73t-73 177v100q0 104 73 177t177 73zM330 550q-62 0 -106 -44t-44 -106v-100q0 -62 44 -106t106 -44
h150v250q0 62 -44 106t-106 44z" />
    <glyph glyph-name="uni208A" unicode="&#x208a;" horiz-adv-x="700" 
d="M350 350q21 0 35.5 -14.5t14.5 -35.5v-150h150q21 0 35.5 -14.5t14.5 -35.5t-14.5 -35.5t-35.5 -14.5h-150v-150q0 -21 -14.5 -35.5t-35.5 -14.5t-35.5 14.5t-14.5 35.5v150h-150q-21 0 -35.5 14.5t-14.5 35.5t14.5 35.5t35.5 14.5h150v150q0 21 14.5 35.5t35.5 14.5z
" />
    <glyph glyph-name="uni208B" unicode="&#x208b;" horiz-adv-x="700" 
d="M150 50h400q21 0 35.5 -14.5t14.5 -35.5t-14.5 -35.5t-35.5 -14.5h-400q-21 0 -35.5 14.5t-14.5 35.5t14.5 35.5t35.5 14.5z" />
    <glyph glyph-name="uni208C" unicode="&#x208c;" horiz-adv-x="700" 
d="M150 -50h400q21 0 35.5 -14.5t14.5 -35.5t-14.5 -35.5t-35.5 -14.5h-400q-21 0 -35.5 14.5t-14.5 35.5t14.5 35.5t35.5 14.5zM150 200h400q21 0 35.5 -14.5t14.5 -35.5t-14.5 -35.5t-35.5 -14.5h-400q-21 0 -35.5 14.5t-14.5 35.5t14.5 35.5t35.5 14.5z" />
    <glyph glyph-name="uni208D" unicode="&#x208d;" horiz-adv-x="400" 
d="M250 700q21 0 35.5 -14.5t14.5 -35.5q0 -12 -4 -20q-60 -137 -78 -231.5t-18 -248.5t18 -248.5t78 -231.5q4 -8 4 -20q0 -21 -14.5 -35.5t-35.5 -14.5q-32 0 -46 31q-62 143 -83 252t-21 267t21 267t83 252q14 31 46 31z" />
    <glyph glyph-name="uni208E" unicode="&#x208e;" horiz-adv-x="400" 
d="M150 700q32 0 46 -31q62 -143 83 -252t21 -267t-21 -267t-83 -252q-14 -31 -46 -31q-21 0 -35.5 14.5t-14.5 35.5q0 12 4 20q60 137 78 231.5t18 248.5t-18 248.5t-78 231.5q-4 8 -4 20q0 21 14.5 35.5t35.5 14.5z" />
    <glyph glyph-name="Euro" unicode="&#x20ac;" horiz-adv-x="1300" 
d="M850 1400q206 0 377 -110q23 -15 23 -42q0 -21 -14.5 -35.5t-35.5 -14.5q-14 0 -27 8q-147 94 -323 94q-208 0 -369 -127t-212 -323h731q21 0 35.5 -14.5t14.5 -35.5t-14.5 -35.5t-35.5 -14.5h-748q-2 -32 -2 -50t2 -50h648q21 0 35.5 -14.5t14.5 -35.5t-14.5 -35.5
t-35.5 -14.5h-631q51 -196 212 -323t369 -127q147 0 277 68q10 5 23 5q21 0 35.5 -14.5t14.5 -35.5q0 -31 -27 -44q-152 -79 -323 -79q-249 0 -440.5 156t-243.5 394h-66q-21 0 -35.5 14.5t-14.5 35.5t14.5 35.5t35.5 14.5h52q-2 34 -2 50t2 50h-52q-21 0 -35.5 14.5
t-14.5 35.5t14.5 35.5t35.5 14.5h66q52 238 243.5 394t440.5 156z" />
    <glyph glyph-name="uni2103" unicode="&#x2103;" horiz-adv-x="1300" 
d="M940 1400h200q21 0 35.5 -14.5t14.5 -35.5t-14.5 -35.5t-35.5 -14.5h-200q-104 0 -177 -73t-73 -177v-700q0 -104 73 -177t177 -73h200q21 0 35.5 -14.5t14.5 -35.5t-14.5 -35.5t-35.5 -14.5h-200q-145 0 -247.5 102.5t-102.5 247.5v700q0 145 102.5 247.5t247.5 102.5z
M300 1400q83 0 141.5 -58.5t58.5 -141.5t-58.5 -141.5t-141.5 -58.5t-141.5 58.5t-58.5 141.5t58.5 141.5t141.5 58.5zM300 1300q-41 0 -70.5 -29.5t-29.5 -70.5t29.5 -70.5t70.5 -29.5t70.5 29.5t29.5 70.5t-29.5 70.5t-70.5 29.5z" />
    <glyph glyph-name="uni2109" unicode="&#x2109;" horiz-adv-x="1300" 
d="M650 1400h500q21 0 35.5 -14.5t14.5 -35.5t-14.5 -35.5t-35.5 -14.5h-450v-500h450q21 0 35.5 -14.5t14.5 -35.5t-14.5 -35.5t-35.5 -14.5h-450v-650q0 -21 -14.5 -35.5t-35.5 -14.5t-35.5 14.5t-14.5 35.5v1300q0 21 14.5 35.5t35.5 14.5zM300 1400q83 0 141.5 -58.5
t58.5 -141.5t-58.5 -141.5t-141.5 -58.5t-141.5 58.5t-58.5 141.5t58.5 141.5t141.5 58.5zM300 1300q-41 0 -70.5 -29.5t-29.5 -70.5t29.5 -70.5t70.5 -29.5t70.5 29.5t29.5 70.5t-29.5 70.5t-70.5 29.5z" />
    <glyph glyph-name="afii61352" unicode="&#x2116;" horiz-adv-x="1400" 
d="M150 1400q32 0 45 -29l505 -1093v1072q0 21 14.5 35.5t35.5 14.5t35.5 -14.5t14.5 -35.5v-1300q0 -21 -14.5 -35.5t-35.5 -14.5q-32 0 -45 29l-505 1093v-1072q0 -21 -14.5 -35.5t-35.5 -14.5t-35.5 14.5t-14.5 35.5v1300q0 21 14.5 35.5t35.5 14.5zM1100 1400
q83 0 141.5 -58.5t58.5 -141.5v-300q0 -83 -58.5 -141.5t-141.5 -58.5t-141.5 58.5t-58.5 141.5v300q0 83 58.5 141.5t141.5 58.5zM1100 1300q-41 0 -70.5 -29.5t-29.5 -70.5v-300q0 -41 29.5 -70.5t70.5 -29.5t70.5 29.5t29.5 70.5v300q0 41 -29.5 70.5t-70.5 29.5z" />
    <glyph glyph-name="trademark" unicode="&#x2122;" horiz-adv-x="1400" 
d="M120 1400h400q21 0 35.5 -14.5t14.5 -35.5t-14.5 -35.5t-35.5 -14.5h-150v-550q0 -21 -14.5 -35.5t-35.5 -14.5t-35.5 14.5t-14.5 35.5v550h-150q-21 0 -35.5 14.5t-14.5 35.5t14.5 35.5t35.5 14.5zM750 1400q26 0 41 -21l209 -293l209 293q15 21 41 21q21 0 35.5 -14.5
t14.5 -35.5v-600q0 -21 -14.5 -35.5t-35.5 -14.5t-35.5 14.5t-14.5 35.5v444l-159 -222q-15 -22 -41 -22t-41 22l-159 222v-444q0 -21 -14.5 -35.5t-35.5 -14.5t-35.5 14.5t-14.5 35.5v600q0 21 14.5 35.5t35.5 14.5z" />
    <glyph glyph-name="uni2126" unicode="&#x2126;" horiz-adv-x="980" 
d="M490 1430q166 0 283 -117t117 -283v-480q0 -111 -71.5 -194.5t-178.5 -101.5v-154h100q21 0 35.5 -14.5t14.5 -35.5t-14.5 -35.5t-35.5 -14.5h-150q-21 0 -35.5 14.5t-14.5 35.5v250q0 21 14.5 35.5t35.5 14.5q82 0 141 59t59 141v480q0 124 -88 212t-212 88t-212 -88
t-88 -212v-480q0 -82 59 -141t141 -59q21 0 35.5 -14.5t14.5 -35.5v-250q0 -21 -14.5 -35.5t-35.5 -14.5h-150q-21 0 -35.5 14.5t-14.5 35.5t14.5 35.5t35.5 14.5h100v154q-107 18 -178.5 101.5t-71.5 194.5v480q0 166 117 283t283 117z" />
    <glyph glyph-name="uni2150" unicode="&#x2150;" horiz-adv-x="1430" 
d="M880 850h400q21 0 35.5 -14.5t14.5 -35.5q0 -5 -2 -13l-250 -900q-5 -16 -18 -26.5t-30 -10.5q-21 0 -35.5 14.5t-14.5 35.5q0 5 2 13l232 837h-284v-50q0 -21 -14.5 -35.5t-35.5 -14.5t-35.5 14.5t-14.5 35.5v100q0 21 14.5 35.5t35.5 14.5zM350 1750q21 0 35.5 -14.5
t14.5 -35.5v-900q0 -21 -14.5 -35.5t-35.5 -14.5t-35.5 14.5t-14.5 35.5v779l-115 -114q-15 -15 -35 -15q-21 0 -35.5 14.5t-14.5 35.5q0 20 15 35l200 200q15 15 35 15zM1000 1700q21 0 35.5 -14.5t14.5 -35.5q0 -12 -4 -20l-800 -1800q-14 -30 -46 -30q-21 0 -35.5 14.5
t-14.5 35.5q0 12 4 20l800 1800q14 30 46 30z" />
    <glyph glyph-name="uni2151" unicode="&#x2151;" horiz-adv-x="1380" 
d="M1030 850q104 0 177 -73t73 -177v-250q0 -167 -88 -303.5t-244 -193.5q-9 -3 -18 -3q-21 0 -35.5 14.5t-14.5 35.5q0 35 34 47q103 37 169 117t87 186h-140q-104 0 -177 73t-73 177v100q0 104 73 177t177 73zM1030 750q-62 0 -106 -44t-44 -106v-100q0 -62 44 -106
t106 -44h150v250q0 62 -44 106t-106 44zM350 1750q21 0 35.5 -14.5t14.5 -35.5v-900q0 -21 -14.5 -35.5t-35.5 -14.5t-35.5 14.5t-14.5 35.5v779l-115 -114q-15 -15 -35 -15q-21 0 -35.5 14.5t-14.5 35.5q0 20 15 35l200 200q15 15 35 15zM1000 1700q21 0 35.5 -14.5
t14.5 -35.5q0 -12 -4 -20l-800 -1800q-14 -30 -46 -30q-21 0 -35.5 14.5t-14.5 35.5q0 12 4 20l800 1800q14 30 46 30z" />
    <glyph glyph-name="uni2152" unicode="&#x2152;" horiz-adv-x="1830" 
d="M980 850q21 0 35.5 -14.5t14.5 -35.5v-900q0 -21 -14.5 -35.5t-35.5 -14.5t-35.5 14.5t-14.5 35.5v779l-115 -114q-15 -15 -35 -15q-21 0 -35.5 14.5t-14.5 35.5q0 20 15 35l200 200q15 15 35 15zM1480 850q104 0 177 -73t73 -177v-500q0 -104 -73 -177t-177 -73t-177 73
t-73 177v500q0 104 73 177t177 73zM1480 750q-62 0 -106 -44t-44 -106v-500q0 -62 44 -106t106 -44t106 44t44 106v500q0 62 -44 106t-106 44zM350 1750q21 0 35.5 -14.5t14.5 -35.5v-900q0 -21 -14.5 -35.5t-35.5 -14.5t-35.5 14.5t-14.5 35.5v779l-115 -114
q-15 -15 -35 -15q-21 0 -35.5 14.5t-14.5 35.5q0 20 15 35l200 200q15 15 35 15zM1000 1700q21 0 35.5 -14.5t14.5 -35.5q0 -12 -4 -20l-800 -1800q-14 -30 -46 -30q-21 0 -35.5 14.5t-14.5 35.5q0 12 4 20l800 1800q14 30 46 30z" />
    <glyph glyph-name="onethird" unicode="&#x2153;" horiz-adv-x="1430" 
d="M880 850h200q104 0 177 -73t73 -177q0 -60 -26.5 -112.5t-73.5 -87.5q47 -35 73.5 -87.5t26.5 -112.5v-100q0 -104 -73 -177t-177 -73h-200q-21 0 -35.5 14.5t-14.5 35.5t14.5 35.5t35.5 14.5h200q62 0 106 44t44 106v100q0 62 -44 106t-106 44h-100q-21 0 -35.5 14.5
t-14.5 35.5t14.5 35.5t35.5 14.5h100q62 0 106 44t44 106t-44 106t-106 44h-200q-21 0 -35.5 14.5t-14.5 35.5t14.5 35.5t35.5 14.5zM350 1750q21 0 35.5 -14.5t14.5 -35.5v-900q0 -21 -14.5 -35.5t-35.5 -14.5t-35.5 14.5t-14.5 35.5v779l-115 -114q-15 -15 -35 -15
q-21 0 -35.5 14.5t-14.5 35.5q0 20 15 35l200 200q15 15 35 15zM1000 1700q21 0 35.5 -14.5t14.5 -35.5q0 -12 -4 -20l-800 -1800q-14 -30 -46 -30q-21 0 -35.5 14.5t-14.5 35.5q0 12 4 20l800 1800q14 30 46 30z" />
    <glyph glyph-name="twothirds" unicode="&#x2154;" horiz-adv-x="1630" 
d="M1080 850h200q104 0 177 -73t73 -177q0 -60 -26.5 -112.5t-73.5 -87.5q47 -35 73.5 -87.5t26.5 -112.5v-100q0 -104 -73 -177t-177 -73h-200q-21 0 -35.5 14.5t-14.5 35.5t14.5 35.5t35.5 14.5h200q62 0 106 44t44 106v100q0 62 -44 106t-106 44h-100q-21 0 -35.5 14.5
t-14.5 35.5t14.5 35.5t35.5 14.5h100q62 0 106 44t44 106t-44 106t-106 44h-200q-21 0 -35.5 14.5t-14.5 35.5t14.5 35.5t35.5 14.5zM350 1750q104 0 177 -73t73 -177q0 -72 -38 -132l-322 -518h310q21 0 35.5 -14.5t14.5 -35.5t-14.5 -35.5t-35.5 -14.5h-400
q-21 0 -35.5 14.5t-14.5 35.5q0 13 8 26l369 595q23 38 23 79q0 62 -44 106t-106 44q-60 0 -90 -15q-32 -16 -70 -65q-17 -20 -40 -20q-21 0 -35.5 14.5t-14.5 35.5q0 17 13 33q52 67 102 91q52 26 135 26zM1200 1700q21 0 35.5 -14.5t14.5 -35.5q0 -12 -4 -20l-800 -1800
q-14 -30 -46 -30q-21 0 -35.5 14.5t-14.5 35.5q0 12 4 20l800 1800q14 30 46 30z" />
    <glyph glyph-name="uni2155" unicode="&#x2155;" horiz-adv-x="1430" 
d="M880 850h400q21 0 35.5 -14.5t14.5 -35.5t-14.5 -35.5t-35.5 -14.5h-350v-300h150q104 0 177 -73t73 -177v-100q0 -104 -73 -177t-177 -73h-200q-21 0 -35.5 14.5t-14.5 35.5t14.5 35.5t35.5 14.5h200q62 0 106 44t44 106v100q0 62 -44 106t-106 44h-200
q-21 0 -35.5 14.5t-14.5 35.5v400q0 21 14.5 35.5t35.5 14.5zM350 1750q21 0 35.5 -14.5t14.5 -35.5v-900q0 -21 -14.5 -35.5t-35.5 -14.5t-35.5 14.5t-14.5 35.5v779l-115 -114q-15 -15 -35 -15q-21 0 -35.5 14.5t-14.5 35.5q0 20 15 35l200 200q15 15 35 15zM1000 1700
q21 0 35.5 -14.5t14.5 -35.5q0 -12 -4 -20l-800 -1800q-14 -30 -46 -30q-21 0 -35.5 14.5t-14.5 35.5q0 12 4 20l800 1800q14 30 46 30z" />
    <glyph glyph-name="uni2156" unicode="&#x2156;" horiz-adv-x="1640" 
d="M1090 850h400q21 0 35.5 -14.5t14.5 -35.5t-14.5 -35.5t-35.5 -14.5h-350v-300h150q104 0 177 -73t73 -177v-100q0 -104 -73 -177t-177 -73h-200q-21 0 -35.5 14.5t-14.5 35.5t14.5 35.5t35.5 14.5h200q62 0 106 44t44 106v100q0 62 -44 106t-106 44h-200
q-21 0 -35.5 14.5t-14.5 35.5v400q0 21 14.5 35.5t35.5 14.5zM350 1750q104 0 177 -73t73 -177q0 -72 -38 -132l-322 -518h310q21 0 35.5 -14.5t14.5 -35.5t-14.5 -35.5t-35.5 -14.5h-400q-21 0 -35.5 14.5t-14.5 35.5q0 13 8 26l369 595q23 38 23 79q0 62 -44 106t-106 44
q-60 0 -90 -15q-32 -16 -70 -65q-17 -20 -40 -20q-21 0 -35.5 14.5t-14.5 35.5q0 17 13 33q52 67 102 91q52 26 135 26zM1200 1700q21 0 35.5 -14.5t14.5 -35.5q0 -12 -4 -20l-800 -1800q-14 -30 -46 -30q-21 0 -35.5 14.5t-14.5 35.5q0 12 4 20l800 1800q14 30 46 30z" />
    <glyph glyph-name="uni2157" unicode="&#x2157;" horiz-adv-x="1530" 
d="M980 850h400q21 0 35.5 -14.5t14.5 -35.5t-14.5 -35.5t-35.5 -14.5h-350v-300h150q104 0 177 -73t73 -177v-100q0 -104 -73 -177t-177 -73h-200q-21 0 -35.5 14.5t-14.5 35.5t14.5 35.5t35.5 14.5h200q62 0 106 44t44 106v100q0 62 -44 106t-106 44h-200
q-21 0 -35.5 14.5t-14.5 35.5v400q0 21 14.5 35.5t35.5 14.5zM150 1750h200q104 0 177 -73t73 -177q0 -60 -26.5 -112.5t-73.5 -87.5q47 -35 73.5 -87.5t26.5 -112.5v-100q0 -104 -73 -177t-177 -73h-200q-21 0 -35.5 14.5t-14.5 35.5t14.5 35.5t35.5 14.5h200q62 0 106 44
t44 106v100q0 62 -44 106t-106 44h-100q-21 0 -35.5 14.5t-14.5 35.5t14.5 35.5t35.5 14.5h100q62 0 106 44t44 106t-44 106t-106 44h-200q-21 0 -35.5 14.5t-14.5 35.5t14.5 35.5t35.5 14.5zM1100 1700q21 0 35.5 -14.5t14.5 -35.5q0 -12 -4 -20l-800 -1800
q-14 -30 -46 -30q-21 0 -35.5 14.5t-14.5 35.5q0 12 4 20l800 1800q14 30 46 30z" />
    <glyph glyph-name="uni2158" unicode="&#x2158;" horiz-adv-x="1590" 
d="M350 1750q21 0 35.5 -14.5t14.5 -35.5q0 -6 -2 -14l-182 -636h234v150q0 21 14.5 35.5t35.5 14.5t35.5 -14.5t14.5 -35.5v-150h100q21 0 35.5 -14.5t14.5 -35.5t-14.5 -35.5t-35.5 -14.5h-100v-150q0 -21 -14.5 -35.5t-35.5 -14.5t-35.5 14.5t-14.5 35.5v150h-300
q-21 0 -35.5 14.5t-14.5 35.5q0 6 2 14l200 700q5 16 18 26t30 10zM1040 850h400q21 0 35.5 -14.5t14.5 -35.5t-14.5 -35.5t-35.5 -14.5h-350v-300h150q104 0 177 -73t73 -177v-100q0 -104 -73 -177t-177 -73h-200q-21 0 -35.5 14.5t-14.5 35.5t14.5 35.5t35.5 14.5h200
q62 0 106 44t44 106v100q0 62 -44 106t-106 44h-200q-21 0 -35.5 14.5t-14.5 35.5v400q0 21 14.5 35.5t35.5 14.5zM1170 1700q21 0 35.5 -14.5t14.5 -35.5q0 -12 -4 -20l-800 -1800q-14 -30 -46 -30q-21 0 -35.5 14.5t-14.5 35.5q0 12 4 20l800 1800q14 30 46 30z" />
    <glyph glyph-name="uni2159" unicode="&#x2159;" horiz-adv-x="1270" 
d="M920 -150q-104 0 -177 73t-73 177v250q0 167 88 303.5t244 193.5q9 3 18 3q21 0 35.5 -14.5t14.5 -35.5q0 -35 -34 -47q-103 -37 -169 -117t-87 -186h140q104 0 177 -73t73 -177v-100q0 -104 -73 -177t-177 -73zM920 -50q62 0 106 44t44 106v100q0 62 -44 106t-106 44
h-150v-250q0 -62 44 -106t106 -44zM350 1750q21 0 35.5 -14.5t14.5 -35.5v-900q0 -21 -14.5 -35.5t-35.5 -14.5t-35.5 14.5t-14.5 35.5v779l-115 -114q-15 -15 -35 -15q-21 0 -35.5 14.5t-14.5 35.5q0 20 15 35l200 200q15 15 35 15zM1000 1700q21 0 35.5 -14.5t14.5 -35.5
q0 -12 -4 -20l-800 -1800q-14 -30 -46 -30q-21 0 -35.5 14.5t-14.5 35.5q0 12 4 20l800 1800q14 30 46 30z" />
    <glyph glyph-name="uni215A" unicode="&#x215a;" horiz-adv-x="1380" 
d="M1030 -150q-104 0 -177 73t-73 177v250q0 167 88 303.5t244 193.5q9 3 18 3q21 0 35.5 -14.5t14.5 -35.5q0 -35 -34 -47q-103 -37 -169 -117t-87 -186h140q104 0 177 -73t73 -177v-100q0 -104 -73 -177t-177 -73zM1030 -50q62 0 106 44t44 106v100q0 62 -44 106t-106 44
h-150v-250q0 -62 44 -106t106 -44zM150 1750h400q21 0 35.5 -14.5t14.5 -35.5t-14.5 -35.5t-35.5 -14.5h-350v-300h150q104 0 177 -73t73 -177v-100q0 -104 -73 -177t-177 -73h-200q-21 0 -35.5 14.5t-14.5 35.5t14.5 35.5t35.5 14.5h200q62 0 106 44t44 106v100
q0 62 -44 106t-106 44h-200q-21 0 -35.5 14.5t-14.5 35.5v400q0 21 14.5 35.5t35.5 14.5zM1100 1700q21 0 35.5 -14.5t14.5 -35.5q0 -12 -4 -20l-800 -1800q-14 -30 -46 -30q-21 0 -35.5 14.5t-14.5 35.5q0 12 4 20l800 1800q14 30 46 30z" />
    <glyph glyph-name="oneeighth" unicode="&#x215b;" horiz-adv-x="1370" 
d="M1020 850q104 0 177 -73t73 -177q0 -60 -26.5 -112.5t-73.5 -87.5q47 -35 73.5 -87.5t26.5 -112.5v-100q0 -104 -73 -177t-177 -73t-177 73t-73 177v100q0 60 26.5 112.5t73.5 87.5q-47 35 -73.5 87.5t-26.5 112.5q0 104 73 177t177 73zM1020 750q-62 0 -106 -44
t-44 -106t44 -106t106 -44t106 44t44 106t-44 106t-106 44zM1020 350q-62 0 -106 -44t-44 -106v-100q0 -62 44 -106t106 -44t106 44t44 106v100q0 62 -44 106t-106 44zM350 1750q21 0 35.5 -14.5t14.5 -35.5v-900q0 -21 -14.5 -35.5t-35.5 -14.5t-35.5 14.5t-14.5 35.5v779
l-115 -114q-15 -15 -35 -15q-21 0 -35.5 14.5t-14.5 35.5q0 20 15 35l200 200q15 15 35 15zM1000 1700q21 0 35.5 -14.5t14.5 -35.5q0 -12 -4 -20l-800 -1800q-14 -30 -46 -30q-21 0 -35.5 14.5t-14.5 35.5q0 12 4 20l800 1800q14 30 46 30z" />
    <glyph glyph-name="threeeighths" unicode="&#x215c;" horiz-adv-x="1460" 
d="M1110 850q104 0 177 -73t73 -177q0 -60 -26.5 -112.5t-73.5 -87.5q47 -35 73.5 -87.5t26.5 -112.5v-100q0 -104 -73 -177t-177 -73t-177 73t-73 177v100q0 60 26.5 112.5t73.5 87.5q-47 35 -73.5 87.5t-26.5 112.5q0 104 73 177t177 73zM1110 750q-62 0 -106 -44
t-44 -106t44 -106t106 -44t106 44t44 106t-44 106t-106 44zM1110 350q-62 0 -106 -44t-44 -106v-100q0 -62 44 -106t106 -44t106 44t44 106v100q0 62 -44 106t-106 44zM150 1750h200q104 0 177 -73t73 -177q0 -60 -26.5 -112.5t-73.5 -87.5q47 -35 73.5 -87.5t26.5 -112.5
v-100q0 -104 -73 -177t-177 -73h-200q-21 0 -35.5 14.5t-14.5 35.5t14.5 35.5t35.5 14.5h200q62 0 106 44t44 106v100q0 62 -44 106t-106 44h-100q-21 0 -35.5 14.5t-14.5 35.5t14.5 35.5t35.5 14.5h100q62 0 106 44t44 106t-44 106t-106 44h-200q-21 0 -35.5 14.5
t-14.5 35.5t14.5 35.5t35.5 14.5zM1100 1700q21 0 35.5 -14.5t14.5 -35.5q0 -12 -4 -20l-800 -1800q-14 -30 -46 -30q-21 0 -35.5 14.5t-14.5 35.5q0 12 4 20l800 1800q14 30 46 30z" />
    <glyph glyph-name="fiveeighths" unicode="&#x215d;" horiz-adv-x="1450" 
d="M1100 850q104 0 177 -73t73 -177q0 -60 -26.5 -112.5t-73.5 -87.5q47 -35 73.5 -87.5t26.5 -112.5v-100q0 -104 -73 -177t-177 -73t-177 73t-73 177v100q0 60 26.5 112.5t73.5 87.5q-47 35 -73.5 87.5t-26.5 112.5q0 104 73 177t177 73zM1100 750q-62 0 -106 -44
t-44 -106t44 -106t106 -44t106 44t44 106t-44 106t-106 44zM1100 350q-62 0 -106 -44t-44 -106v-100q0 -62 44 -106t106 -44t106 44t44 106v100q0 62 -44 106t-106 44zM150 1750h400q21 0 35.5 -14.5t14.5 -35.5t-14.5 -35.5t-35.5 -14.5h-350v-300h150q104 0 177 -73
t73 -177v-100q0 -104 -73 -177t-177 -73h-200q-21 0 -35.5 14.5t-14.5 35.5t14.5 35.5t35.5 14.5h200q62 0 106 44t44 106v100q0 62 -44 106t-106 44h-200q-21 0 -35.5 14.5t-14.5 35.5v400q0 21 14.5 35.5t35.5 14.5zM1100 1700q21 0 35.5 -14.5t14.5 -35.5q0 -12 -4 -20
l-800 -1800q-14 -30 -46 -30q-21 0 -35.5 14.5t-14.5 35.5q0 12 4 20l800 1800q14 30 46 30z" />
    <glyph glyph-name="seveneighths" unicode="&#x215e;" horiz-adv-x="1310" 
d="M960 850q104 0 177 -73t73 -177q0 -60 -26.5 -112.5t-73.5 -87.5q47 -35 73.5 -87.5t26.5 -112.5v-100q0 -104 -73 -177t-177 -73t-177 73t-73 177v100q0 60 26.5 112.5t73.5 87.5q-47 35 -73.5 87.5t-26.5 112.5q0 104 73 177t177 73zM960 750q-62 0 -106 -44t-44 -106
t44 -106t106 -44t106 44t44 106t-44 106t-106 44zM960 350q-62 0 -106 -44t-44 -106v-100q0 -62 44 -106t106 -44t106 44t44 106v100q0 62 -44 106t-106 44zM150 1750h400q21 0 35.5 -14.5t14.5 -35.5q0 -5 -2 -13l-250 -900q-5 -16 -18 -26.5t-30 -10.5q-21 0 -35.5 14.5
t-14.5 35.5q0 5 2 13l232 837h-284v-50q0 -21 -14.5 -35.5t-35.5 -14.5t-35.5 14.5t-14.5 35.5v100q0 21 14.5 35.5t35.5 14.5zM950 1700q21 0 35.5 -14.5t14.5 -35.5q0 -12 -4 -20l-800 -1800q-14 -30 -46 -30q-21 0 -35.5 14.5t-14.5 35.5q0 12 4 20l800 1800q14 30 46 30
z" />
    <glyph glyph-name="uni215F" unicode="&#x215f;" horiz-adv-x="1150" 
d="M350 1750q21 0 35.5 -14.5t14.5 -35.5v-900q0 -21 -14.5 -35.5t-35.5 -14.5t-35.5 14.5t-14.5 35.5v779l-115 -114q-15 -15 -35 -15q-21 0 -35.5 14.5t-14.5 35.5q0 20 15 35l200 200q15 15 35 15zM1000 1700q21 0 35.5 -14.5t14.5 -35.5q0 -12 -4 -20l-800 -1800
q-14 -30 -46 -30q-21 0 -35.5 14.5t-14.5 35.5q0 12 4 20l800 1800q14 30 46 30z" />
    <glyph glyph-name="uni2160" unicode="&#x2160;" horiz-adv-x="300" 
d="M150 1400q21 0 35.5 -14.5t14.5 -35.5v-1300q0 -21 -14.5 -35.5t-35.5 -14.5t-35.5 14.5t-14.5 35.5v1300q0 21 14.5 35.5t35.5 14.5z" />
    <glyph glyph-name="uni2161" unicode="&#x2161;" horiz-adv-x="600" 
d="M450 1400q21 0 35.5 -14.5t14.5 -35.5v-1300q0 -21 -14.5 -35.5t-35.5 -14.5t-35.5 14.5t-14.5 35.5v1300q0 21 14.5 35.5t35.5 14.5zM150 1400q21 0 35.5 -14.5t14.5 -35.5v-1300q0 -21 -14.5 -35.5t-35.5 -14.5t-35.5 14.5t-14.5 35.5v1300q0 21 14.5 35.5t35.5 14.5z
" />
    <glyph glyph-name="uni2162" unicode="&#x2162;" horiz-adv-x="800" 
d="M650 1400q21 0 35.5 -14.5t14.5 -35.5v-1300q0 -21 -14.5 -35.5t-35.5 -14.5t-35.5 14.5t-14.5 35.5v1300q0 21 14.5 35.5t35.5 14.5zM400 1400q21 0 35.5 -14.5t14.5 -35.5v-1300q0 -21 -14.5 -35.5t-35.5 -14.5t-35.5 14.5t-14.5 35.5v1300q0 21 14.5 35.5t35.5 14.5z
M150 1400q21 0 35.5 -14.5t14.5 -35.5v-1300q0 -21 -14.5 -35.5t-35.5 -14.5t-35.5 14.5t-14.5 35.5v1300q0 21 14.5 35.5t35.5 14.5z" />
    <glyph glyph-name="uni2163" unicode="&#x2163;" horiz-adv-x="1150" 
d="M350 1400q17 0 30 -10.5t18 -26.5l302 -1121l301 1120q5 17 18.5 27.5t30.5 10.5q21 0 35.5 -14.5t14.5 -35.5q0 -5 -2 -13l-349 -1299q-5 -17 -18.5 -27.5t-30.5 -10.5t-30.5 10.5t-18.5 27.5l-349 1299q-2 8 -2 13q0 21 14.5 35.5t35.5 14.5zM150 1400q21 0 35.5 -14.5
t14.5 -35.5v-1300q0 -21 -14.5 -35.5t-35.5 -14.5t-35.5 14.5t-14.5 35.5v1300q0 21 14.5 35.5t35.5 14.5z" />
    <glyph glyph-name="uni2164" unicode="&#x2164;" 
d="M100 1400q17 0 30 -10.5t18 -26.5l302 -1121l301 1120q5 17 18.5 27.5t30.5 10.5q21 0 35.5 -14.5t14.5 -35.5q0 -5 -2 -13l-349 -1299q-5 -17 -18.5 -27.5t-30.5 -10.5t-30.5 10.5t-18.5 27.5l-349 1299q-2 8 -2 13q0 21 14.5 35.5t35.5 14.5z" />
    <glyph glyph-name="uni2165" unicode="&#x2165;" horiz-adv-x="1150" 
d="M1000 1400q21 0 35.5 -14.5t14.5 -35.5v-1300q0 -21 -14.5 -35.5t-35.5 -14.5t-35.5 14.5t-14.5 35.5v1300q0 21 14.5 35.5t35.5 14.5zM100 1400q17 0 30 -10.5t18 -26.5l302 -1121l301 1120q5 17 18.5 27.5t30.5 10.5q21 0 35.5 -14.5t14.5 -35.5q0 -5 -2 -13
l-349 -1299q-5 -17 -18.5 -27.5t-30.5 -10.5t-30.5 10.5t-18.5 27.5l-349 1299q-2 8 -2 13q0 21 14.5 35.5t35.5 14.5z" />
    <glyph glyph-name="uni2166" unicode="&#x2166;" horiz-adv-x="1450" 
d="M1300 1400q21 0 35.5 -14.5t14.5 -35.5v-1300q0 -21 -14.5 -35.5t-35.5 -14.5t-35.5 14.5t-14.5 35.5v1300q0 21 14.5 35.5t35.5 14.5zM1000 1400q21 0 35.5 -14.5t14.5 -35.5v-1300q0 -21 -14.5 -35.5t-35.5 -14.5t-35.5 14.5t-14.5 35.5v1300q0 21 14.5 35.5t35.5 14.5
zM100 1400q17 0 30 -10.5t18 -26.5l302 -1121l301 1120q5 17 18.5 27.5t30.5 10.5q21 0 35.5 -14.5t14.5 -35.5q0 -5 -2 -13l-349 -1299q-5 -17 -18.5 -27.5t-30.5 -10.5t-30.5 10.5t-18.5 27.5l-349 1299q-2 8 -2 13q0 21 14.5 35.5t35.5 14.5z" />
    <glyph glyph-name="uni2167" unicode="&#x2167;" horiz-adv-x="1650" 
d="M1500 1400q21 0 35.5 -14.5t14.5 -35.5v-1300q0 -21 -14.5 -35.5t-35.5 -14.5t-35.5 14.5t-14.5 35.5v1300q0 21 14.5 35.5t35.5 14.5zM1250 1400q21 0 35.5 -14.5t14.5 -35.5v-1300q0 -21 -14.5 -35.5t-35.5 -14.5t-35.5 14.5t-14.5 35.5v1300q0 21 14.5 35.5t35.5 14.5
zM1000 1400q21 0 35.5 -14.5t14.5 -35.5v-1300q0 -21 -14.5 -35.5t-35.5 -14.5t-35.5 14.5t-14.5 35.5v1300q0 21 14.5 35.5t35.5 14.5zM100 1400q17 0 30 -10.5t18 -26.5l302 -1121l301 1120q5 17 18.5 27.5t30.5 10.5q21 0 35.5 -14.5t14.5 -35.5q0 -5 -2 -13l-349 -1299
q-5 -17 -18.5 -27.5t-30.5 -10.5t-30.5 10.5t-18.5 27.5l-349 1299q-2 8 -2 13q0 21 14.5 35.5t35.5 14.5z" />
    <glyph glyph-name="uni2168" unicode="&#x2168;" horiz-adv-x="1180" 
d="M350 1400q31 0 44 -26l306 -568l306 568q13 26 44 26q21 0 35.5 -14.5t14.5 -35.5q0 -14 -6 -24l-337 -626l337 -626q6 -10 6 -24q0 -21 -14.5 -35.5t-35.5 -14.5q-31 0 -44 26l-306 568l-306 -568q-13 -26 -44 -26q-21 0 -35.5 14.5t-14.5 35.5q0 14 6 24l337 626
l-337 626q-6 10 -6 24q0 21 14.5 35.5t35.5 14.5zM150 1400q21 0 35.5 -14.5t14.5 -35.5v-1300q0 -21 -14.5 -35.5t-35.5 -14.5t-35.5 14.5t-14.5 35.5v1300q0 21 14.5 35.5t35.5 14.5z" />
    <glyph glyph-name="uni2169" unicode="&#x2169;" horiz-adv-x="960" 
d="M130 1400q31 0 44 -26l306 -568l306 568q13 26 44 26q21 0 35.5 -14.5t14.5 -35.5q0 -14 -6 -24l-337 -626l337 -626q6 -10 6 -24q0 -21 -14.5 -35.5t-35.5 -14.5q-31 0 -44 26l-306 568l-306 -568q-13 -26 -44 -26q-21 0 -35.5 14.5t-14.5 35.5q0 14 6 24l337 626
l-337 626q-6 10 -6 24q0 21 14.5 35.5t35.5 14.5z" />
    <glyph glyph-name="uni216A" unicode="&#x216a;" horiz-adv-x="1180" 
d="M1030 1400q21 0 35.5 -14.5t14.5 -35.5v-1300q0 -21 -14.5 -35.5t-35.5 -14.5t-35.5 14.5t-14.5 35.5v1300q0 21 14.5 35.5t35.5 14.5zM130 1400q31 0 44 -26l306 -568l306 568q13 26 44 26q21 0 35.5 -14.5t14.5 -35.5q0 -14 -6 -24l-337 -626l337 -626q6 -10 6 -24
q0 -21 -14.5 -35.5t-35.5 -14.5q-31 0 -44 26l-306 568l-306 -568q-13 -26 -44 -26q-21 0 -35.5 14.5t-14.5 35.5q0 14 6 24l337 626l-337 626q-6 10 -6 24q0 21 14.5 35.5t35.5 14.5z" />
    <glyph glyph-name="uni216B" unicode="&#x216b;" horiz-adv-x="1480" 
d="M1330 1400q21 0 35.5 -14.5t14.5 -35.5v-1300q0 -21 -14.5 -35.5t-35.5 -14.5t-35.5 14.5t-14.5 35.5v1300q0 21 14.5 35.5t35.5 14.5zM1030 1400q21 0 35.5 -14.5t14.5 -35.5v-1300q0 -21 -14.5 -35.5t-35.5 -14.5t-35.5 14.5t-14.5 35.5v1300q0 21 14.5 35.5t35.5 14.5
zM130 1400q31 0 44 -26l306 -568l306 568q13 26 44 26q21 0 35.5 -14.5t14.5 -35.5q0 -14 -6 -24l-337 -626l337 -626q6 -10 6 -24q0 -21 -14.5 -35.5t-35.5 -14.5q-31 0 -44 26l-306 568l-306 -568q-13 -26 -44 -26q-21 0 -35.5 14.5t-14.5 35.5q0 14 6 24l337 626
l-337 626q-6 10 -6 24q0 21 14.5 35.5t35.5 14.5z" />
    <glyph glyph-name="uni216C" unicode="&#x216c;" horiz-adv-x="650" 
d="M150 1400q21 0 35.5 -14.5t14.5 -35.5v-1250h350q21 0 35.5 -14.5t14.5 -35.5t-14.5 -35.5t-35.5 -14.5h-400q-21 0 -35.5 14.5t-14.5 35.5v1300q0 21 14.5 35.5t35.5 14.5z" />
    <glyph glyph-name="uni216D" unicode="&#x216d;" horiz-adv-x="760" 
d="M440 1400h200q21 0 35.5 -14.5t14.5 -35.5t-14.5 -35.5t-35.5 -14.5h-200q-104 0 -177 -73t-73 -177v-700q0 -104 73 -177t177 -73h200q21 0 35.5 -14.5t14.5 -35.5t-14.5 -35.5t-35.5 -14.5h-200q-145 0 -247.5 102.5t-102.5 247.5v700q0 145 102.5 247.5t247.5 102.5z
" />
    <glyph glyph-name="uni216E" unicode="&#x216e;" horiz-adv-x="890" 
d="M150 1400h300q145 0 247.5 -102.5t102.5 -247.5v-700q0 -145 -102.5 -247.5t-247.5 -102.5h-300q-21 0 -35.5 14.5t-14.5 35.5v1300q0 21 14.5 35.5t35.5 14.5zM200 1300v-1200h250q104 0 177 73t73 177v700q0 104 -73 177t-177 73h-250z" />
    <glyph glyph-name="uni216F" unicode="&#x216f;" horiz-adv-x="1100" 
d="M150 1400q29 0 43 -25l357 -624l357 624q14 25 43 25q21 0 35.5 -14.5t14.5 -35.5v-1300q0 -21 -14.5 -35.5t-35.5 -14.5t-35.5 14.5t-14.5 35.5v1112l-307 -537q-14 -25 -43 -25t-44 26l-306 536v-1112q0 -21 -14.5 -35.5t-35.5 -14.5t-35.5 14.5t-14.5 35.5v1300
q0 21 14.5 35.5t35.5 14.5z" />
    <glyph glyph-name="uni2170" unicode="&#x2170;" horiz-adv-x="300" 
d="M150 1000q21 0 35.5 -14.5t14.5 -35.5v-900q0 -21 -14.5 -35.5t-35.5 -14.5t-35.5 14.5t-14.5 35.5v900q0 21 14.5 35.5t35.5 14.5zM200 1350q0 -21 -14.5 -35.5t-35.5 -14.5t-35.5 14.5t-14.5 35.5t14.5 35.5t35.5 14.5t35.5 -14.5t14.5 -35.5z" />
    <glyph glyph-name="uni2171" unicode="&#x2171;" horiz-adv-x="600" 
d="M450 1000q21 0 35.5 -14.5t14.5 -35.5v-900q0 -21 -14.5 -35.5t-35.5 -14.5t-35.5 14.5t-14.5 35.5v900q0 21 14.5 35.5t35.5 14.5zM500 1350q0 -21 -14.5 -35.5t-35.5 -14.5t-35.5 14.5t-14.5 35.5t14.5 35.5t35.5 14.5t35.5 -14.5t14.5 -35.5zM150 1000
q21 0 35.5 -14.5t14.5 -35.5v-900q0 -21 -14.5 -35.5t-35.5 -14.5t-35.5 14.5t-14.5 35.5v900q0 21 14.5 35.5t35.5 14.5zM200 1350q0 -21 -14.5 -35.5t-35.5 -14.5t-35.5 14.5t-14.5 35.5t14.5 35.5t35.5 14.5t35.5 -14.5t14.5 -35.5z" />
    <glyph glyph-name="uni2172" unicode="&#x2172;" horiz-adv-x="800" 
d="M650 1000q21 0 35.5 -14.5t14.5 -35.5v-900q0 -21 -14.5 -35.5t-35.5 -14.5t-35.5 14.5t-14.5 35.5v900q0 21 14.5 35.5t35.5 14.5zM700 1350q0 -21 -14.5 -35.5t-35.5 -14.5t-35.5 14.5t-14.5 35.5t14.5 35.5t35.5 14.5t35.5 -14.5t14.5 -35.5zM400 1000
q21 0 35.5 -14.5t14.5 -35.5v-900q0 -21 -14.5 -35.5t-35.5 -14.5t-35.5 14.5t-14.5 35.5v900q0 21 14.5 35.5t35.5 14.5zM450 1350q0 -21 -14.5 -35.5t-35.5 -14.5t-35.5 14.5t-14.5 35.5t14.5 35.5t35.5 14.5t35.5 -14.5t14.5 -35.5zM150 1000q21 0 35.5 -14.5t14.5 -35.5
v-900q0 -21 -14.5 -35.5t-35.5 -14.5t-35.5 14.5t-14.5 35.5v900q0 21 14.5 35.5t35.5 14.5zM200 1350q0 -21 -14.5 -35.5t-35.5 -14.5t-35.5 14.5t-14.5 35.5t14.5 35.5t35.5 14.5t35.5 -14.5t14.5 -35.5z" />
    <glyph glyph-name="uni2173" unicode="&#x2173;" horiz-adv-x="970" 
d="M350 1000q17 0 30 -10.5t18 -26.5l202 -726l202 726q5 16 18 26.5t30 10.5q21 0 35.5 -14.5t14.5 -35.5q0 -5 -2 -13l-250 -900q-5 -16 -18 -26.5t-30 -10.5t-30 10.5t-18 26.5l-250 900q-2 8 -2 13q0 21 14.5 35.5t35.5 14.5zM150 1000q21 0 35.5 -14.5t14.5 -35.5v-900
q0 -21 -14.5 -35.5t-35.5 -14.5t-35.5 14.5t-14.5 35.5v900q0 21 14.5 35.5t35.5 14.5zM200 1350q0 -21 -14.5 -35.5t-35.5 -14.5t-35.5 14.5t-14.5 35.5t14.5 35.5t35.5 14.5t35.5 -14.5t14.5 -35.5z" />
    <glyph glyph-name="uni2174" unicode="&#x2174;" horiz-adv-x="740" 
d="M120 1000q17 0 30 -10.5t18 -26.5l202 -726l202 726q5 16 18 26.5t30 10.5q21 0 35.5 -14.5t14.5 -35.5q0 -5 -2 -13l-250 -900q-5 -16 -18 -26.5t-30 -10.5t-30 10.5t-18 26.5l-250 900q-2 8 -2 13q0 21 14.5 35.5t35.5 14.5z" />
    <glyph glyph-name="uni2175" unicode="&#x2175;" horiz-adv-x="970" 
d="M820 1000q21 0 35.5 -14.5t14.5 -35.5v-900q0 -21 -14.5 -35.5t-35.5 -14.5t-35.5 14.5t-14.5 35.5v900q0 21 14.5 35.5t35.5 14.5zM870 1350q0 -21 -14.5 -35.5t-35.5 -14.5t-35.5 14.5t-14.5 35.5t14.5 35.5t35.5 14.5t35.5 -14.5t14.5 -35.5zM120 1000q17 0 30 -10.5
t18 -26.5l202 -726l202 726q5 16 18 26.5t30 10.5q21 0 35.5 -14.5t14.5 -35.5q0 -5 -2 -13l-250 -900q-5 -16 -18 -26.5t-30 -10.5t-30 10.5t-18 26.5l-250 900q-2 8 -2 13q0 21 14.5 35.5t35.5 14.5z" />
    <glyph glyph-name="uni2176" unicode="&#x2176;" horiz-adv-x="1270" 
d="M1120 1000q21 0 35.5 -14.5t14.5 -35.5v-900q0 -21 -14.5 -35.5t-35.5 -14.5t-35.5 14.5t-14.5 35.5v900q0 21 14.5 35.5t35.5 14.5zM1170 1350q0 -21 -14.5 -35.5t-35.5 -14.5t-35.5 14.5t-14.5 35.5t14.5 35.5t35.5 14.5t35.5 -14.5t14.5 -35.5zM820 1000
q21 0 35.5 -14.5t14.5 -35.5v-900q0 -21 -14.5 -35.5t-35.5 -14.5t-35.5 14.5t-14.5 35.5v900q0 21 14.5 35.5t35.5 14.5zM870 1350q0 -21 -14.5 -35.5t-35.5 -14.5t-35.5 14.5t-14.5 35.5t14.5 35.5t35.5 14.5t35.5 -14.5t14.5 -35.5zM120 1000q17 0 30 -10.5t18 -26.5
l202 -726l202 726q5 16 18 26.5t30 10.5q21 0 35.5 -14.5t14.5 -35.5q0 -5 -2 -13l-250 -900q-5 -16 -18 -26.5t-30 -10.5t-30 10.5t-18 26.5l-250 900q-2 8 -2 13q0 21 14.5 35.5t35.5 14.5z" />
    <glyph glyph-name="uni2177" unicode="&#x2177;" horiz-adv-x="1470" 
d="M1320 1000q21 0 35.5 -14.5t14.5 -35.5v-900q0 -21 -14.5 -35.5t-35.5 -14.5t-35.5 14.5t-14.5 35.5v900q0 21 14.5 35.5t35.5 14.5zM1370 1350q0 -21 -14.5 -35.5t-35.5 -14.5t-35.5 14.5t-14.5 35.5t14.5 35.5t35.5 14.5t35.5 -14.5t14.5 -35.5zM1070 1000
q21 0 35.5 -14.5t14.5 -35.5v-900q0 -21 -14.5 -35.5t-35.5 -14.5t-35.5 14.5t-14.5 35.5v900q0 21 14.5 35.5t35.5 14.5zM1120 1350q0 -21 -14.5 -35.5t-35.5 -14.5t-35.5 14.5t-14.5 35.5t14.5 35.5t35.5 14.5t35.5 -14.5t14.5 -35.5zM820 1000q21 0 35.5 -14.5
t14.5 -35.5v-900q0 -21 -14.5 -35.5t-35.5 -14.5t-35.5 14.5t-14.5 35.5v900q0 21 14.5 35.5t35.5 14.5zM870 1350q0 -21 -14.5 -35.5t-35.5 -14.5t-35.5 14.5t-14.5 35.5t14.5 35.5t35.5 14.5t35.5 -14.5t14.5 -35.5zM120 1000q17 0 30 -10.5t18 -26.5l202 -726l202 726
q5 16 18 26.5t30 10.5q21 0 35.5 -14.5t14.5 -35.5q0 -5 -2 -13l-250 -900q-5 -16 -18 -26.5t-30 -10.5t-30 10.5t-18 26.5l-250 900q-2 8 -2 13q0 21 14.5 35.5t35.5 14.5z" />
    <glyph glyph-name="uni2178" unicode="&#x2178;" horiz-adv-x="970" 
d="M360 1000q28 0 44 -26l206 -371l206 371q16 26 44 26q21 0 35.5 -14.5t14.5 -35.5q0 -14 -6 -24l-237 -426l237 -426q6 -10 6 -24q0 -21 -14.5 -35.5t-35.5 -14.5q-28 0 -44 26l-206 371l-206 -371q-16 -26 -44 -26q-21 0 -35.5 14.5t-14.5 35.5q0 14 6 24l237 426
l-237 426q-6 10 -6 24q0 21 14.5 35.5t35.5 14.5zM150 1000q21 0 35.5 -14.5t14.5 -35.5v-900q0 -21 -14.5 -35.5t-35.5 -14.5t-35.5 14.5t-14.5 35.5v900q0 21 14.5 35.5t35.5 14.5zM200 1350q0 -21 -14.5 -35.5t-35.5 -14.5t-35.5 14.5t-14.5 35.5t14.5 35.5t35.5 14.5
t35.5 -14.5t14.5 -35.5z" />
    <glyph glyph-name="uni2179" unicode="&#x2179;" horiz-adv-x="760" 
d="M130 1000q28 0 44 -26l206 -371l206 371q16 26 44 26q21 0 35.5 -14.5t14.5 -35.5q0 -14 -6 -24l-237 -426l237 -426q6 -10 6 -24q0 -21 -14.5 -35.5t-35.5 -14.5q-28 0 -44 26l-206 371l-206 -371q-16 -26 -44 -26q-21 0 -35.5 14.5t-14.5 35.5q0 14 6 24l237 426
l-237 426q-6 10 -6 24q0 21 14.5 35.5t35.5 14.5z" />
    <glyph glyph-name="uni217A" unicode="&#x217a;" horiz-adv-x="970" 
d="M820 1000q21 0 35.5 -14.5t14.5 -35.5v-900q0 -21 -14.5 -35.5t-35.5 -14.5t-35.5 14.5t-14.5 35.5v900q0 21 14.5 35.5t35.5 14.5zM870 1350q0 -21 -14.5 -35.5t-35.5 -14.5t-35.5 14.5t-14.5 35.5t14.5 35.5t35.5 14.5t35.5 -14.5t14.5 -35.5zM130 1000q28 0 44 -26
l206 -371l206 371q16 26 44 26q21 0 35.5 -14.5t14.5 -35.5q0 -14 -6 -24l-237 -426l237 -426q6 -10 6 -24q0 -21 -14.5 -35.5t-35.5 -14.5q-28 0 -44 26l-206 371l-206 -371q-16 -26 -44 -26q-21 0 -35.5 14.5t-14.5 35.5q0 14 6 24l237 426l-237 426q-6 10 -6 24
q0 21 14.5 35.5t35.5 14.5z" />
    <glyph glyph-name="uni217B" unicode="&#x217b;" horiz-adv-x="1270" 
d="M1120 1000q21 0 35.5 -14.5t14.5 -35.5v-900q0 -21 -14.5 -35.5t-35.5 -14.5t-35.5 14.5t-14.5 35.5v900q0 21 14.5 35.5t35.5 14.5zM1170 1350q0 -21 -14.5 -35.5t-35.5 -14.5t-35.5 14.5t-14.5 35.5t14.5 35.5t35.5 14.5t35.5 -14.5t14.5 -35.5zM820 1000
q21 0 35.5 -14.5t14.5 -35.5v-900q0 -21 -14.5 -35.5t-35.5 -14.5t-35.5 14.5t-14.5 35.5v900q0 21 14.5 35.5t35.5 14.5zM870 1350q0 -21 -14.5 -35.5t-35.5 -14.5t-35.5 14.5t-14.5 35.5t14.5 35.5t35.5 14.5t35.5 -14.5t14.5 -35.5zM130 1000q28 0 44 -26l206 -371
l206 371q16 26 44 26q21 0 35.5 -14.5t14.5 -35.5q0 -14 -6 -24l-237 -426l237 -426q6 -10 6 -24q0 -21 -14.5 -35.5t-35.5 -14.5q-28 0 -44 26l-206 371l-206 -371q-16 -26 -44 -26q-21 0 -35.5 14.5t-14.5 35.5q0 14 6 24l237 426l-237 426q-6 10 -6 24q0 21 14.5 35.5
t35.5 14.5z" />
    <glyph glyph-name="uni217C" unicode="&#x217c;" horiz-adv-x="440" 
d="M140 1400q21 0 35.5 -14.5t14.5 -35.5v-1100q0 -62 44 -106t106 -44q21 0 35.5 -14.5t14.5 -35.5t-14.5 -35.5t-35.5 -14.5q-104 0 -177 73t-73 177v1100q0 21 14.5 35.5t35.5 14.5z" />
    <glyph glyph-name="uni217D" unicode="&#x217d;" horiz-adv-x="670" 
d="M340 1000h200q21 0 35.5 -14.5t14.5 -35.5t-14.5 -35.5t-35.5 -14.5h-200q-62 0 -106 -44t-44 -106v-500q0 -62 44 -106t106 -44h200q21 0 35.5 -14.5t14.5 -35.5t-14.5 -35.5t-35.5 -14.5h-200q-104 0 -177 73t-73 177v500q0 104 73 177t177 73z" />
    <glyph glyph-name="uni217E" unicode="&#x217e;" horiz-adv-x="790" 
d="M640 1400q21 0 35.5 -14.5t14.5 -35.5v-1300q0 -21 -14.5 -35.5t-35.5 -14.5h-300q-104 0 -177 73t-73 177v500q0 104 73 177t177 73h250v350q0 21 14.5 35.5t35.5 14.5zM590 900h-250q-62 0 -106 -44t-44 -106v-500q0 -62 44 -106t106 -44h250v800z" />
    <glyph glyph-name="uni217F" unicode="&#x217f;" horiz-adv-x="1100" 
d="M150 1000h600q104 0 177 -73t73 -177v-700q0 -21 -14.5 -35.5t-35.5 -14.5t-35.5 14.5t-14.5 35.5v700q0 62 -44 106t-106 44h-150v-850q0 -21 -14.5 -35.5t-35.5 -14.5t-35.5 14.5t-14.5 35.5v850h-300v-850q0 -21 -14.5 -35.5t-35.5 -14.5t-35.5 14.5t-14.5 35.5v900
q0 21 14.5 35.5t35.5 14.5z" />
    <glyph glyph-name="uni2196" unicode="&#x2196;" horiz-adv-x="1600" 
d="M150 1400q14 0 28 -9l602 -401q20 -12 20 -40q0 -21 -14.5 -35.5t-35.5 -14.5q-32 0 -65 -15l800 -800q15 -15 15 -35q0 -21 -14.5 -35.5t-35.5 -14.5q-20 0 -35 15l-800 800q-15 -33 -15 -65q0 -21 -14.5 -35.5t-35.5 -14.5q-27 0 -42 22l-400 600q-8 13 -8 28
q0 21 14.5 35.5t35.5 14.5z" />
    <glyph glyph-name="uni2197" unicode="&#x2197;" horiz-adv-x="1600" 
d="M1450 1400q21 0 35.5 -14.5t14.5 -35.5q0 -15 -8 -28l-400 -600q-15 -22 -42 -22q-21 0 -35.5 14.5t-14.5 35.5q0 32 -15 65l-800 -800q-15 -15 -35 -15q-21 0 -35.5 14.5t-14.5 35.5q0 20 15 35l800 800q-33 15 -65 15q-21 0 -35.5 14.5t-14.5 35.5q0 28 20 40l602 401
q14 9 28 9z" />
    <glyph glyph-name="uni2198" unicode="&#x2198;" horiz-adv-x="1600" 
d="M1450 0q-14 0 -28 9l-602 401q-20 12 -20 40q0 21 14.5 35.5t35.5 14.5q32 0 65 15l-800 800q-15 15 -15 35q0 21 14.5 35.5t35.5 14.5q20 0 35 -15l800 -800q15 33 15 65q0 21 14.5 35.5t35.5 14.5q27 0 42 -22l400 -600q8 -13 8 -28q0 -21 -14.5 -35.5t-35.5 -14.5z
" />
    <glyph glyph-name="uni2199" unicode="&#x2199;" horiz-adv-x="1600" 
d="M100 50q0 14 9 28l401 602q12 20 40 20q21 0 35.5 -14.5t14.5 -35.5q0 -32 15 -65l800 800q15 15 35 15q21 0 35.5 -14.5t14.5 -35.5q0 -20 -15 -35l-800 -800q33 -15 65 -15q21 0 35.5 -14.5t14.5 -35.5q0 -27 -22 -42l-600 -400q-13 -8 -28 -8q-21 0 -35.5 14.5
t-14.5 35.5z" />
    <glyph glyph-name="uni21AB" unicode="&#x21ab;" horiz-adv-x="2050" 
d="M1250 1400q143 0 272.5 -55.5t223 -149t149 -223t55.5 -272.5t-55.5 -272.5t-149 -223t-223 -149t-272.5 -55.5h-979l214 -215q15 -15 15 -35q0 -21 -14.5 -35.5t-35.5 -14.5q-20 0 -35 15l-300 300q-15 15 -15 35t15 35l300 300q15 15 35 15q21 0 35.5 -14.5t14.5 -35.5
q0 -20 -15 -35l-214 -215h618q-155 93 -247 252.5t-92 347.5q0 143 55.5 272.5t149 223t223 149t272.5 55.5zM1250 1300q-163 0 -301 -80.5t-218.5 -218.5t-80.5 -301t80.5 -301t218.5 -218.5t301 -80.5t301 80.5t218.5 218.5t80.5 301t-80.5 301t-218.5 218.5t-301 80.5z
" />
    <glyph glyph-name="uni21AC" unicode="&#x21ac;" horiz-adv-x="2050" 
d="M800 1400q143 0 272.5 -55.5t223 -149t149 -223t55.5 -272.5q0 -188 -92 -347.5t-247 -252.5h618l-214 215q-15 15 -15 35q0 21 14.5 35.5t35.5 14.5q20 0 35 -15l300 -300q15 -15 15 -35t-15 -35l-300 -300q-15 -15 -35 -15q-21 0 -35.5 14.5t-14.5 35.5q0 20 15 35
l214 215h-979q-143 0 -272.5 55.5t-223 149t-149 223t-55.5 272.5t55.5 272.5t149 223t223 149t272.5 55.5zM800 1300q-163 0 -301 -80.5t-218.5 -218.5t-80.5 -301t80.5 -301t218.5 -218.5t301 -80.5t301 80.5t218.5 218.5t80.5 301t-80.5 301t-218.5 218.5t-301 80.5z" />
    <glyph glyph-name="emptyset" unicode="&#x2205;" horiz-adv-x="1000" 
d="M700 1400q21 0 35.5 -14.5t14.5 -35.5q0 -8 -2 -15l-83 -270q105 -48 170 -146.5t65 -218.5q0 -166 -117 -283t-283 -117q-35 0 -69 6l-83 -271q-5 -15 -18 -25t-30 -10q-21 0 -35.5 14.5t-14.5 35.5q0 8 2 15l83 270q-105 48 -170 146.5t-65 218.5q0 166 117 283
t283 117q35 0 69 -6l83 271q5 15 18 25t30 10zM500 1000q-124 0 -212 -88t-88 -212q0 -87 45 -158.5t120 -109.5l174 565q-19 3 -39 3zM635 968l-174 -565q19 -3 39 -3q124 0 212 88t88 212q0 87 -45 158.5t-120 109.5z" />
    <glyph glyph-name="uni2206" unicode="&#x2206;" horiz-adv-x="1000" 
d="M500 1400q17 0 30.5 -10.5t18.5 -27.5l349 -1299q2 -8 2 -13q0 -21 -14.5 -35.5t-35.5 -14.5h-700q-21 0 -35.5 14.5t-14.5 35.5q0 5 2 13l349 1299q5 17 18.5 27.5t30.5 10.5zM500 1158l-285 -1058h570z" />
    <glyph glyph-name="gradient" unicode="&#x2207;" 
d="M450 0q-17 0 -30.5 10.5t-18.5 27.5l-349 1299q-2 8 -2 13q0 21 14.5 35.5t35.5 14.5h700q21 0 35.5 -14.5t14.5 -35.5q0 -5 -2 -13l-349 -1299q-5 -17 -18.5 -27.5t-30.5 -10.5zM450 242l285 1058h-570z" />
    <glyph glyph-name="minus" unicode="&#x2212;" horiz-adv-x="700" 
d="M100 550h500q21 0 35.5 -14.5t14.5 -35.5t-14.5 -35.5t-35.5 -14.5h-500q-21 0 -35.5 14.5t-14.5 35.5t14.5 35.5t35.5 14.5z" />
    <glyph glyph-name="uni2213" unicode="&#x2213;" horiz-adv-x="2200" 
d="M400 50q-21 0 -35.5 14.5t-14.5 35.5v200h-200q-21 0 -35.5 14.5t-14.5 35.5t14.5 35.5t35.5 14.5h200v200q0 21 14.5 35.5t35.5 14.5t35.5 -14.5t14.5 -35.5v-200h200q21 0 35.5 -14.5t14.5 -35.5t-14.5 -35.5t-35.5 -14.5h-200v-200q0 -21 -14.5 -35.5t-35.5 -14.5z
M150 800q-21 0 -35.5 14.5t-14.5 35.5t14.5 35.5t35.5 14.5h500q21 0 35.5 -14.5t14.5 -35.5t-14.5 -35.5t-35.5 -14.5h-500z" />
    <glyph glyph-name="uni2215" unicode="&#x2215;" horiz-adv-x="1100" 
d="M950 1700q21 0 35.5 -14.5t14.5 -35.5q0 -12 -4 -20l-800 -1800q-14 -30 -46 -30q-21 0 -35.5 14.5t-14.5 35.5q0 12 4 20l800 1800q14 30 46 30z" />
    <glyph glyph-name="uni2216" unicode="&#x2216;" horiz-adv-x="1100" 
d="M150 1700q32 0 46 -30l800 -1800q4 -8 4 -20q0 -21 -14.5 -35.5t-35.5 -14.5q-32 0 -46 30l-800 1800q-4 8 -4 20q0 21 14.5 35.5t35.5 14.5z" />
    <glyph glyph-name="asteriskmath" unicode="&#x2217;" horiz-adv-x="700" 
d="M250 750q31 0 45 -28l55 -110l55 110q14 28 45 28q21 0 35.5 -14.5t14.5 -35.5q0 -12 -5 -22l-64 -128h119q21 0 35.5 -14.5t14.5 -35.5t-14.5 -35.5t-35.5 -14.5h-119l64 -128q5 -10 5 -22q0 -21 -14.5 -35.5t-35.5 -14.5q-31 0 -45 28l-55 110l-55 -110
q-14 -28 -45 -28q-21 0 -35.5 14.5t-14.5 35.5q0 12 5 22l64 128h-119q-21 0 -35.5 14.5t-14.5 35.5t14.5 35.5t35.5 14.5h119l-64 128q-5 10 -5 22q0 21 14.5 35.5t35.5 14.5z" />
    <glyph glyph-name="uni2218" unicode="&#x2218;" horiz-adv-x="600" 
d="M300 700q83 0 141.5 -58.5t58.5 -141.5t-58.5 -141.5t-141.5 -58.5t-141.5 58.5t-58.5 141.5t58.5 141.5t141.5 58.5zM300 600q-41 0 -70.5 -29.5t-29.5 -70.5t29.5 -70.5t70.5 -29.5t70.5 29.5t29.5 70.5t-29.5 70.5t-70.5 29.5z" />
    <glyph glyph-name="uni2219" unicode="&#x2219;" horiz-adv-x="400" 
d="M300 500q0 -41 -29.5 -70.5t-70.5 -29.5t-70.5 29.5t-29.5 70.5t29.5 70.5t70.5 29.5t70.5 -29.5t29.5 -70.5z" />
    <glyph glyph-name="radical" unicode="&#x221a;" horiz-adv-x="1100" 
d="M750 1700h350v-100h-310l-391 -1760q-4 -17 -17.5 -28.5t-31.5 -11.5t-32 11.5t-17 29.5l-200 1100q-1 5 -1 9q0 21 14.5 35.5t35.5 14.5q18 0 32 -11.5t17 -29.5l156 -856l346 1558q4 17 17.5 28t31.5 11z" />
    <glyph glyph-name="proportional" unicode="&#x221d;" horiz-adv-x="1050" 
d="M300 700q54 0 100 -27l200 -115l200 115q46 27 100 27q21 0 35.5 -14.5t14.5 -35.5t-14.5 -35.5t-35.5 -14.5q-27 0 -50 -14l-150 -86l150 -86q23 -14 50 -14q21 0 35.5 -14.5t14.5 -35.5t-14.5 -35.5t-35.5 -14.5q-54 0 -100 27l-200 115l-200 -115q-46 -27 -100 -27
q-83 0 -141.5 58.5t-58.5 141.5t58.5 141.5t141.5 58.5zM300 600q-41 0 -70.5 -29.5t-29.5 -70.5t29.5 -70.5t70.5 -29.5q27 0 50 14l150 86l-150 86q-23 14 -50 14z" />
    <glyph glyph-name="infinity" unicode="&#x221e;" horiz-adv-x="1200" 
d="M300 700q54 0 100 -27l200 -115l200 115q46 27 100 27q83 0 141.5 -58.5t58.5 -141.5t-58.5 -141.5t-141.5 -58.5q-54 0 -100 27l-200 115l-200 -115q-46 -27 -100 -27q-83 0 -141.5 58.5t-58.5 141.5t58.5 141.5t141.5 58.5zM300 600q-41 0 -70.5 -29.5t-29.5 -70.5
t29.5 -70.5t70.5 -29.5q27 0 50 14l150 86l-150 86q-23 14 -50 14zM900 600q-27 0 -50 -14l-150 -86l150 -86q23 -14 50 -14q41 0 70.5 29.5t29.5 70.5t-29.5 70.5t-70.5 29.5z" />
    <glyph glyph-name="orthogonal" unicode="&#x221f;" 
d="M150 1050q21 0 35.5 -14.5t14.5 -35.5v-600h600q21 0 35.5 -14.5t14.5 -35.5t-14.5 -35.5t-35.5 -14.5h-650q-21 0 -35.5 14.5t-14.5 35.5v650q0 21 14.5 35.5t35.5 14.5z" />
    <glyph glyph-name="angle" unicode="&#x2220;" 
d="M800 800q21 0 35.5 -14.5t14.5 -35.5q0 -28 -24 -43l-499 -307h473q21 0 35.5 -14.5t14.5 -35.5t-14.5 -35.5t-35.5 -14.5h-650q-21 0 -35.5 14.5t-14.5 35.5q0 28 24 43l650 400q11 7 26 7z" />
    <glyph glyph-name="uni2221" unicode="&#x2221;" 
d="M650 880q21 0 35.5 -14.5t14.5 -35.5v-83l74 46q11 7 26 7q21 0 35.5 -14.5t14.5 -35.5q0 -28 -24 -43l-126 -77v-230h100q21 0 35.5 -14.5t14.5 -35.5t-14.5 -35.5t-35.5 -14.5h-100v-100q0 -21 -14.5 -35.5t-35.5 -14.5t-35.5 14.5t-14.5 35.5v100h-450
q-21 0 -35.5 14.5t-14.5 35.5q0 28 24 43l476 293v144q0 21 14.5 35.5t35.5 14.5zM600 568l-273 -168h273v168z" />
    <glyph glyph-name="uni2222" unicode="&#x2222;" 
d="M650 950q21 0 35.5 -14.5t14.5 -35.5v-91l79 36q10 5 21 5q21 0 35.5 -14.5t14.5 -35.5q0 -31 -29 -45l-121 -56v-398l121 -56q29 -14 29 -45q0 -21 -14.5 -35.5t-35.5 -14.5q-11 0 -21 5l-79 36v-91q0 -21 -14.5 -35.5t-35.5 -14.5t-35.5 14.5t-14.5 35.5v137l-471 218
q-29 14 -29 45t29 45l471 218v137q0 21 14.5 35.5t35.5 14.5zM600 653l-331 -153l331 -153v306z" />
    <glyph glyph-name="uni2223" unicode="&#x2223;" horiz-adv-x="300" 
d="M150 1400q21 0 35.5 -14.5t14.5 -35.5v-1300q0 -21 -14.5 -35.5t-35.5 -14.5t-35.5 14.5t-14.5 35.5v1300q0 21 14.5 35.5t35.5 14.5z" />
    <glyph glyph-name="uni2225" unicode="&#x2225;" horiz-adv-x="600" 
d="M450 1400q21 0 35.5 -14.5t14.5 -35.5v-1300q0 -21 -14.5 -35.5t-35.5 -14.5t-35.5 14.5t-14.5 35.5v1300q0 21 14.5 35.5t35.5 14.5zM150 1400q21 0 35.5 -14.5t14.5 -35.5v-1300q0 -21 -14.5 -35.5t-35.5 -14.5t-35.5 14.5t-14.5 35.5v1300q0 21 14.5 35.5t35.5 14.5z
" />
    <glyph glyph-name="integral" unicode="&#x222b;" horiz-adv-x="1100" 
d="M950 1700q21 0 35.5 -14.5t14.5 -35.5t-14.5 -35.5t-35.5 -14.5q-51 0 -91.5 -31t-53.5 -79l-414 -1506q-22 -80 -89 -132t-152 -52q-21 0 -35.5 14.5t-14.5 35.5t14.5 35.5t35.5 14.5q51 0 91.5 31t53.5 79l414 1506q22 80 89 132t152 52z" />
    <glyph glyph-name="uni222E" unicode="&#x222e;" horiz-adv-x="2200" 
d="M950 1700q21 0 35.5 -14.5t14.5 -35.5t-14.5 -35.5t-35.5 -14.5q-51 0 -91.5 -31t-53.5 -79l-101 -371q110 -46 178 -145.5t68 -223.5q0 -166 -117 -283t-283 -117q-32 0 -57 4l-102 -370q-22 -80 -89 -132t-152 -52q-21 0 -35.5 14.5t-14.5 35.5t14.5 35.5t35.5 14.5
q51 0 91.5 31t53.5 79l101 371q-110 46 -178 145.5t-68 223.5q0 166 117 283t283 117q32 0 57 -4l102 370q22 80 89 132t152 52zM550 1050q-124 0 -212 -88t-88 -212q0 -89 47.5 -162t125.5 -110l157 570q-20 2 -30 2zM677 1022l-157 -570q20 -2 30 -2q124 0 212 88t88 212
q0 89 -47.5 162t-125.5 110z" />
    <glyph glyph-name="uni2236" unicode="&#x2236;" horiz-adv-x="300" 
d="M200 750q0 -21 -14.5 -35.5t-35.5 -14.5t-35.5 14.5t-14.5 35.5t14.5 35.5t35.5 14.5t35.5 -14.5t14.5 -35.5zM200 250q0 -21 -14.5 -35.5t-35.5 -14.5t-35.5 14.5t-14.5 35.5t14.5 35.5t35.5 14.5t35.5 -14.5t14.5 -35.5z" />
    <glyph glyph-name="similar" unicode="&#x223c;" 
d="M300 600q94 0 179 -59q58 -41 121 -41t121 41q12 9 29 9q21 0 35.5 -14.5t14.5 -35.5q0 -26 -24 -43q-82 -57 -176 -57t-179 59q-58 41 -121 41t-120 -40q-15 -10 -30 -10q-21 0 -35.5 14.5t-14.5 35.5q0 27 23 42q85 58 177 58z" />
    <glyph glyph-name="uni223D" unicode="&#x223d;" 
d="M600 600q92 0 177 -58q23 -15 23 -42q0 -21 -14.5 -35.5t-35.5 -14.5q-15 0 -30 10q-57 40 -120 40t-121 -41q-85 -59 -179 -59t-176 57q-24 17 -24 43q0 21 14.5 35.5t35.5 14.5q17 0 29 -9q58 -41 121 -41t121 41q85 59 179 59z" />
    <glyph glyph-name="uni223E" unicode="&#x223e;" horiz-adv-x="1200" 
d="M300 700q54 0 100 -27l450 -260q23 -13 50 -13q41 0 70.5 29.5t29.5 70.5q0 32 -18.5 58t-48.5 36q-14 6 -23.5 18.5t-9.5 28.5q0 21 14.5 35.5t35.5 14.5q9 0 17 -3q59 -21 96 -72.5t37 -115.5q0 -83 -58.5 -141.5t-141.5 -58.5q-54 0 -100 27l-450 260q-23 13 -50 13
q-41 0 -70.5 -29.5t-29.5 -70.5q0 -32 18.5 -58t48.5 -36q14 -6 23.5 -18.5t9.5 -28.5q0 -21 -14.5 -35.5t-35.5 -14.5q-9 0 -17 3q-59 21 -96 72.5t-37 115.5q0 83 58.5 141.5t141.5 58.5z" />
    <glyph glyph-name="uni223F" unicode="&#x223f;" 
d="M300 700q82 0 141 -59t59 -141q0 -41 29.5 -70.5t70.5 -29.5t70.5 29.5t29.5 70.5q0 21 14.5 35.5t35.5 14.5t35.5 -14.5t14.5 -35.5q0 -82 -59 -141t-141 -59t-141 59t-59 141q0 41 -29.5 70.5t-70.5 29.5t-70.5 -29.5t-29.5 -70.5q0 -21 -14.5 -35.5t-35.5 -14.5
t-35.5 14.5t-14.5 35.5q0 82 59 141t141 59z" />
    <glyph glyph-name="uni2242" unicode="&#x2242;" horiz-adv-x="800" 
d="M250 250q-92 0 -177 58q-23 15 -23 42q0 21 14.5 35.5t35.5 14.5q15 0 30 -10q57 -40 120 -40t121 41q85 59 179 59t176 -57q24 -17 24 -43q0 -21 -14.5 -35.5t-35.5 -14.5q-17 0 -29 9q-58 41 -121 41t-121 -41q-85 -59 -179 -59zM100 600q-21 0 -35.5 14.5t-14.5 35.5
t14.5 35.5t35.5 14.5h600q21 0 35.5 -14.5t14.5 -35.5t-14.5 -35.5t-35.5 -14.5h-600z" />
    <glyph glyph-name="uni2243" unicode="&#x2243;" horiz-adv-x="800" 
d="M250 750q94 0 179 -59q58 -41 121 -41t121 41q12 9 29 9q21 0 35.5 -14.5t14.5 -35.5q0 -26 -24 -43q-82 -57 -176 -57t-179 59q-58 41 -121 41t-120 -40q-15 -10 -30 -10q-21 0 -35.5 14.5t-14.5 35.5q0 27 23 42q85 58 177 58zM100 400h600q21 0 35.5 -14.5t14.5 -35.5
t-14.5 -35.5t-35.5 -14.5h-600q-21 0 -35.5 14.5t-14.5 35.5t14.5 35.5t35.5 14.5z" />
    <glyph glyph-name="uni2244" unicode="&#x2244;" horiz-adv-x="800" 
d="M550 850q21 0 35.5 -14.5t14.5 -35.5q0 -10 -5 -22l-64 -127q3 0 9 -0.5t10 -0.5q63 0 121 41q12 9 29 9q21 0 35.5 -14.5t14.5 -35.5q0 -26 -24 -43q-82 -57 -176 -57q-36 0 -65 7l-79 -157h294q21 0 35.5 -14.5t14.5 -35.5t-14.5 -35.5t-35.5 -14.5h-344l-61 -122
q-14 -28 -45 -28q-21 0 -35.5 14.5t-14.5 35.5q0 10 5 22l39 78h-144q-21 0 -35.5 14.5t-14.5 35.5t14.5 35.5t35.5 14.5h194l98 196q-14 8 -21 13q-58 41 -121 41t-120 -40q-15 -10 -30 -10q-21 0 -35.5 14.5t-14.5 35.5q0 27 23 42q85 58 177 58q94 0 179 -59q1 -1 4 -3
t4 -3l68 137q14 28 45 28z" />
    <glyph glyph-name="congruent" unicode="&#x2245;" horiz-adv-x="800" 
d="M250 850q94 0 179 -59q58 -41 121 -41t121 41q12 9 29 9q21 0 35.5 -14.5t14.5 -35.5q0 -26 -24 -43q-82 -57 -176 -57t-179 59q-58 41 -121 41t-120 -40q-15 -10 -30 -10q-21 0 -35.5 14.5t-14.5 35.5q0 27 23 42q85 58 177 58zM100 550h600q21 0 35.5 -14.5t14.5 -35.5
t-14.5 -35.5t-35.5 -14.5h-600q-21 0 -35.5 14.5t-14.5 35.5t14.5 35.5t35.5 14.5zM100 300h600q21 0 35.5 -14.5t14.5 -35.5t-14.5 -35.5t-35.5 -14.5h-600q-21 0 -35.5 14.5t-14.5 35.5t14.5 35.5t35.5 14.5z" />
    <glyph glyph-name="approxequal" unicode="&#x2248;" horiz-adv-x="800" 
d="M250 450q94 0 179 -59q58 -41 121 -41t121 41q12 9 29 9q21 0 35.5 -14.5t14.5 -35.5q0 -26 -24 -43q-82 -57 -176 -57t-179 59q-58 41 -121 41t-120 -40q-15 -10 -30 -10q-21 0 -35.5 14.5t-14.5 35.5q0 27 23 42q85 58 177 58zM250 750q94 0 179 -59q58 -41 121 -41
t121 41q12 9 29 9q21 0 35.5 -14.5t14.5 -35.5q0 -26 -24 -43q-82 -57 -176 -57t-179 59q-58 41 -121 41t-120 -40q-15 -10 -30 -10q-21 0 -35.5 14.5t-14.5 35.5q0 27 23 42q85 58 177 58z" />
    <glyph glyph-name="uni2249" unicode="&#x2249;" horiz-adv-x="800" 
d="M550 850q21 0 35.5 -14.5t14.5 -35.5q0 -10 -5 -22l-64 -127q3 0 9 -0.5t10 -0.5q63 0 121 41q12 9 29 9q21 0 35.5 -14.5t14.5 -35.5q0 -26 -24 -43q-82 -57 -176 -57q-36 0 -65 7l-77 -153q14 -8 21 -13q58 -41 121 -41t121 41q12 9 29 9q21 0 35.5 -14.5t14.5 -35.5
q0 -26 -24 -43q-82 -57 -176 -57t-179 59q-1 1 -4 3t-4 3l-68 -137q-14 -28 -45 -28q-21 0 -35.5 14.5t-14.5 35.5q0 10 5 22l64 127q-3 0 -9 0.5t-10 0.5q-63 0 -120 -40q-15 -10 -30 -10q-21 0 -35.5 14.5t-14.5 35.5q0 27 23 42q85 58 177 58q36 0 65 -7l77 153
q-14 8 -21 13q-58 41 -121 41t-120 -40q-15 -10 -30 -10q-21 0 -35.5 14.5t-14.5 35.5q0 27 23 42q85 58 177 58q94 0 179 -59q1 -1 4 -3t4 -3l68 137q14 28 45 28z" />
    <glyph glyph-name="uni2250" unicode="&#x2250;" horiz-adv-x="700" 
d="M400 950q0 -21 -14.5 -35.5t-35.5 -14.5t-35.5 14.5t-14.5 35.5t14.5 35.5t35.5 14.5t35.5 -14.5t14.5 -35.5zM100 400h500q21 0 35.5 -14.5t14.5 -35.5t-14.5 -35.5t-35.5 -14.5h-500q-21 0 -35.5 14.5t-14.5 35.5t14.5 35.5t35.5 14.5zM100 700h500q21 0 35.5 -14.5
t14.5 -35.5t-14.5 -35.5t-35.5 -14.5h-500q-21 0 -35.5 14.5t-14.5 35.5t14.5 35.5t35.5 14.5z" />
    <glyph glyph-name="uni2251" unicode="&#x2251;" horiz-adv-x="700" 
d="M400 50q0 -21 -14.5 -35.5t-35.5 -14.5t-35.5 14.5t-14.5 35.5t14.5 35.5t35.5 14.5t35.5 -14.5t14.5 -35.5zM400 950q0 -21 -14.5 -35.5t-35.5 -14.5t-35.5 14.5t-14.5 35.5t14.5 35.5t35.5 14.5t35.5 -14.5t14.5 -35.5zM100 400h500q21 0 35.5 -14.5t14.5 -35.5
t-14.5 -35.5t-35.5 -14.5h-500q-21 0 -35.5 14.5t-14.5 35.5t14.5 35.5t35.5 14.5zM100 700h500q21 0 35.5 -14.5t14.5 -35.5t-14.5 -35.5t-35.5 -14.5h-500q-21 0 -35.5 14.5t-14.5 35.5t14.5 35.5t35.5 14.5z" />
    </font>
</defs>
</svg>
