<svg version="1.1" id="Layer_1" xmlns="http://www.w3.org/2000/svg" xmlns:xlink="http://www.w3.org/1999/xlink" x="0px" y="0px"
	 viewBox="0 0 512 512" enable-background="new 0 0 512 512" xml:space="preserve">
<path fill="#D1D1D2" d="M329.6,264.2c-4.7-4.7-4.7-11.7,0-16.4L505,72.5c4.7-4.7,7-11.7,7-16.4s-2.3-11.7-7-16.4L472.3,7
	c-4.7-4.7-11.7-7-16.4-7c-7,0-11.7,2.3-16.4,7L264.2,182.4c-4.7,4.7-11.7,4.7-16.4,0L72.5,7c-4.7-4.7-11.7-7-16.4-7S44.4,2.3,39.7,7
	L7,39.7c-4.7,4.7-7,11.7-7,16.4s2.3,11.7,7,16.4l175.3,175.3c4.7,4.7,4.7,11.7,0,16.4L7,439.5c-4.7,4.7-7,11.7-7,16.4
	s2.3,11.7,7,16.4L39.7,505c4.7,4.7,11.7,7,16.4,7s11.7-2.3,16.4-7l175.3-175.3c4.7-4.7,11.7-4.7,16.4,0L439.5,505
	c4.7,4.7,11.7,7,16.4,7s11.7-2.3,16.4-7l32.7-32.7c4.7-4.7,7-11.7,7-16.4s-2.3-11.7-7-16.4L329.6,264.2L329.6,264.2z"/>
</svg>
