<svg xmlns="http://www.w3.org/2000/svg" viewBox="0 0 206.612 206.612">
    <path d="M31.276 122.205s8.933 18.483 6.727 34.142c-2.204 15.66-14.607 23.035-19.898 13.228 0 0-26.014 37.038 85.98 37.038V105.298l-72.81 16.907z" fill="#D65128"/>
    <path d="M177.592 117.63s-11.19 23.06-8.983 38.717c2.203 15.66 14.606 23.035 19.897 13.228 0 0 26.014 37.038-85.98 37.038V105.298l75.065 12.33z" fill="#D65128"/><path fill="#FDCC9B" d="M89.388 156.347h29.395v32.922H89.388z"/>
    <path d="M89.388 160.225s12.364 7.874 29.394 6.05v-9.928H89.388v3.878z" fill="#FCBC85"/>
    <ellipse cx="47.001" cy="105.298" rx="14.343" ry="16.364" fill="#916A50"/>
    <ellipse cx="161.169" cy="105.298" rx="14.343" ry="16.364" fill="#916A50"/>
    <path d="M161.11 74.042c0-24.104-17.636-41.74-57.024-41.74-39.39 0-57.026 17.636-57.026 41.74 0 24.104-4.115 87.597 57.026 87.597 61.14-.002 57.025-63.494 57.025-87.598z" fill="#FDCC9B"/>
    <ellipse cx="76.31" cy="101.379" rx="6.173" ry="6.761" fill="#3B2519"/><circle cx="73.618" cy="98.394" r="1.846" fill="#FFF"/>
    <path d="M66.434 86.802c2.92 1.118 7.606-3.798 18.335.478 1.955.78 3.123-6.668-8.378-6.668-9.958 0-11.722 5.515-9.958 6.19z" fill="#D96E27"/>
    <ellipse cx="132.624" cy="101.379" rx="6.173" ry="6.761" fill="#3B2519"/><circle cx="129.932" cy="98.394" r="1.847" fill="#FFF"/>
    <path d="M141.736 86.802c-2.92 1.118-7.605-3.798-18.335.478-1.955.78-3.122-6.668 8.38-6.668 9.956 0 11.72 5.515 9.956 6.19z" fill="#D96E27"/>
    <path d="M104.086 125.16c-6.1 0-9.774-4.557-9.774-2.353 0 2.205 1.764 6.394 9.774 6.394s9.773-4.188 9.773-6.393c0-2.204-3.675 2.352-9.774 2.352zM104.086 145.43c-2.11 0-3.38-1.576-3.38-.813 0 .763.61 2.21 3.38 2.21s3.38-1.447 3.38-2.21c0-.763-1.27.813-3.38.813z" fill="#FCBC85"/>
    <path d="M104.086 139.813c-9.668 0-15.493-3.936-15.493-2.94 0 .998 2.796 4.925 15.493 4.925 12.697 0 15.492-3.926 15.492-4.924 0-.998-5.825 2.94-15.492 2.94z" fill="#F7945E"/>
    <circle cx="68.372" cy="122.984" r="8.378" fill="#F9AA8D"/><circle cx="140.829" cy="122.984" r="8.377" fill="#F9AA8D"/>
    <path d="M104.086 169.575v37.038H39.712c0-14.992 30.57-37.038 64.374-37.038zM104.086 169.575v37.038h64.372c0-14.992-30.57-37.038-64.372-37.038z" fill="#F6A2B1"/>
    <path d="M89.388 170.857l14.697 26.276c.88 0 14.697-26.276 14.697-26.276s-15.247-5.552-29.394 0z" fill="#FDCC9B"/>
    <path d="M89.388 166.55l8.535 8.928 6.162 21.655-8.818-13.228-9.92 5.365-8.598-15.46c0-.002 7.42-6.758 12.638-7.26zM118.783 166.55l-8.536 8.928-6.16 21.655 8.817-13.228 9.92 5.365 8.598-15.46c0-.002-7.42-6.758-12.64-7.26z" fill="#F38191"/>
    <path fill="#F38191" d="M104.086 206.612v-9.48l-4.85-7.274M104.086 206.612v-9.48l4.458-7.274"/>
    <path d="M146.826 17.016S111.513-9.66 68.372 3.79c-41.022 12.785-41.89 67.02-40.567 97.59 1.323 30.572 11.907 34.245 22.487 29.982 13.994-5.638 0-23.222 0-23.222 6.614-6.76 3.97-19.206 3.97-19.206C64.62 88.55 68.37 71.69 68.37 71.69c20.155 7.77 25.938-7.496 25.938-7.496 18.886 10.14 33.774-7.937 33.774-7.937s9.303 19.342 21.12 17.196c0 0-3.106 18.597 4.263 21.165 0 0-7.895 23.81 2.446 31.085 10.34 7.275 27.096.042 26.655-36.77-.44-36.81-7.056-75.445-35.742-71.917z" fill="#D96E27"/>
</svg>