<svg width="48" height="48" viewBox="0 0 48 48" fill="none" xmlns="http://www.w3.org/2000/svg">
<path d="M47.9999 24.4007C47.9999 37.4603 37.41 47.9997 24.2877 47.9997C15.8848 47.9997 8.5179 43.6464 4.37402 37.1166C8.63301 43.1882 15.7697 47.1977 23.7121 47.1977C36.8344 47.1977 47.4243 36.6584 47.4243 23.5988C47.4243 18.9019 46.043 14.5487 43.7409 10.8828C46.3884 14.6632 47.9999 19.3601 47.9999 24.4007Z" fill="#E37F21"/>
<path d="M47.3093 23.599C47.3093 36.6586 36.7194 47.198 23.5971 47.198C15.5395 47.198 8.51798 43.1884 4.25899 37.1168C1.61151 33.2219 0 28.6395 0 23.599C0 10.5394 10.5899 0 23.7122 0C32.1151 0 39.482 4.35321 43.6258 10.883C46.0431 14.5489 47.3093 18.9021 47.3093 23.599Z" fill="#F9C517"/>
<path d="M41.554 23.5993C41.554 33.3367 33.6116 41.3558 23.7123 41.3558C20.144 41.3558 16.8058 40.3248 14.0433 38.4918C9.09362 35.2842 5.87061 29.9 5.87061 23.5993C5.87061 13.7473 13.813 5.84277 23.7123 5.84277C27.7411 5.84277 31.5396 7.21747 34.5324 9.50863C38.7914 12.7163 41.554 17.7568 41.554 23.5993Z" fill="#E57E26"/>
<path d="M42.3601 24.172C42.3601 33.9094 34.4177 41.9285 24.5184 41.9285C20.9501 41.9285 17.6119 40.8975 14.8493 39.0646C14.6191 38.8354 14.3889 38.7209 14.1587 38.4918C16.9213 40.2101 20.1443 41.2412 23.7126 41.2412C33.6119 41.2412 41.5543 33.3367 41.5543 23.4847C41.5543 18.1004 39.1371 13.289 35.3385 9.9668C39.5975 13.289 42.3601 18.4441 42.3601 24.172Z" fill="#F5CF0E"/>
<path d="M41.5544 23.5991C41.5544 33.3366 33.612 41.3557 23.7127 41.3557C20.1444 41.3557 16.9214 40.3246 14.1588 38.6063C14.1588 38.6063 14.0437 38.6063 14.0437 38.4917C9.78469 35.2841 7.13721 30.129 7.13721 24.401C7.13721 14.6636 15.0796 6.64453 24.9789 6.64453C28.5473 6.64453 31.8854 7.67555 34.648 9.50849C34.8782 9.7376 35.1084 9.85216 35.3386 10.0813C39.1372 13.2889 41.5544 18.2149 41.5544 23.5991Z" fill="#EDA91E"/>
<path d="M26.705 35.398H22.9064V17.0687L17.2661 19.0161V15.8085L26.2445 12.4863H26.705V35.398Z" fill="#E57E26"/>
<path d="M26.1293 34.7105H22.3307V16.3812L16.6904 18.3286V15.121L25.6688 11.7988H26.1293V34.7105Z" fill="#F9C517"/>
</svg>
