<svg width="48" height="48" viewBox="0 0 48 48" fill="none" xmlns="http://www.w3.org/2000/svg">
<path d="M48.0002 24.3939C48.0002 37.4574 37.3678 47.9998 24.1928 47.9998C15.7562 47.9998 8.35973 43.6453 4.19922 37.1136C8.4753 43.1869 15.6406 47.1976 23.615 47.1976C36.7899 47.1976 47.4223 36.6552 47.4223 23.5918C47.4223 18.8935 46.0355 14.539 43.7241 10.8721C46.4978 14.6536 48.0002 19.3519 48.0002 24.3939Z" fill="#BE5B23"/>
<path d="M47.4992 23.6059C47.4992 36.6694 36.8668 47.2118 23.6918 47.2118C15.6019 47.2118 8.55216 43.2011 4.27608 37.1277C1.5024 33.3462 0 28.6479 0 23.6059C0 10.5424 10.6324 0 23.8074 0C32.244 0 39.6404 4.35449 43.8009 10.8862C46.1123 14.6677 47.4992 19.0222 47.4992 23.6059Z" fill="#EF7A38"/>
<path d="M41.6054 23.6055C41.6054 33.3458 33.6311 41.3672 23.6921 41.3672C20.1095 41.3672 16.7579 40.3359 13.9843 38.5024C9.01476 35.2938 5.77881 29.908 5.77881 23.6055C5.77881 13.7506 13.7531 5.84375 23.6921 5.84375C27.7371 5.84375 31.5509 7.21885 34.5557 9.51069C38.9473 12.8338 41.6054 17.8759 41.6054 23.6055Z" fill="#BE5B23"/>
<path d="M42.4137 24.2934C42.4137 34.0337 34.4394 42.0551 24.5004 42.0551C20.9177 42.0551 17.5662 41.0238 14.7925 39.1903C14.5614 38.9611 14.3303 38.8465 14.0991 38.6173C16.8728 40.3362 20.1088 41.3675 23.6914 41.3675C33.6304 41.3675 41.6047 33.4607 41.6047 23.6058C41.6047 18.22 39.1778 13.4071 35.364 10.084C39.7556 13.4071 42.4137 18.5638 42.4137 24.2934Z" fill="#EF904C"/>
<path d="M41.6047 23.6061C41.6047 33.3464 33.6304 41.3678 23.6914 41.3678C20.1087 41.3678 16.8727 40.3364 14.0991 38.6176C14.0991 38.6176 13.9835 38.6176 13.9835 38.503C9.70742 35.2944 7.04932 30.1378 7.04932 24.4082C7.04932 14.6679 15.0236 6.64648 24.9626 6.64648C28.5453 6.64648 31.8968 7.67781 34.6705 9.51128C34.9016 9.74046 35.1328 9.85505 35.3639 10.0842C39.1777 13.4074 41.6047 18.2202 41.6047 23.6061Z" fill="#E66B26"/>
<path d="M22.0738 22.3458H24.3852C25.5409 22.3458 26.4655 22.002 27.1589 21.4291C27.8523 20.8561 28.199 19.9394 28.199 18.7934C28.199 17.7621 27.9679 16.8454 27.39 16.2724C26.8122 15.6995 25.8876 15.3557 24.7319 15.3557C23.6918 15.3557 22.8828 15.6995 22.1894 16.2724C21.496 16.8454 21.1492 17.6475 21.1492 18.5643H17.3354C17.3354 17.4183 17.6822 16.2724 18.26 15.3557C18.8379 14.439 19.7624 13.6368 20.9181 13.0639C22.0738 12.4909 23.3451 12.2617 24.7319 12.2617C27.0433 12.2617 28.7769 12.8347 30.1637 13.9806C31.5505 15.1265 32.1284 16.7308 32.1284 18.7934C32.1284 19.8248 31.7817 20.7415 31.0883 21.6582C30.3948 22.575 29.5859 23.2625 28.5457 23.7209C29.817 24.1793 30.7416 24.8668 31.435 25.7835C32.1284 26.7003 32.4751 27.8462 32.4751 29.1067C32.4751 31.1694 31.7817 32.7736 30.3948 34.0341C29.008 35.2947 27.1589 35.8676 24.8475 35.8676C22.6517 35.8676 20.8025 35.2947 19.4157 34.1487C18.0289 33.0028 17.3354 31.3985 17.3354 29.4505H21.1492C21.1492 30.4818 21.496 31.2839 22.1894 31.8569C22.8828 32.4299 23.8074 32.7736 24.9631 32.7736C26.1188 32.7736 27.0433 32.4299 27.7367 31.8569C28.4302 31.2839 28.7769 30.3672 28.7769 29.1067C28.7769 27.9608 28.4302 26.9295 27.7367 26.3565C27.0433 25.669 26.0032 25.4398 24.5008 25.4398H22.1894V22.3458H22.0738Z" fill="#BE5B23"/>
<path d="M21.6114 21.8878H23.9228C25.0785 21.8878 26.0031 21.544 26.6965 20.971C27.3899 20.3981 27.7366 19.4814 27.7366 18.3354C27.7366 17.3041 27.5055 16.3874 26.9276 15.8144C26.3498 15.2415 25.4252 14.8977 24.2695 14.8977C23.2294 14.8977 22.4204 15.2415 21.727 15.8144C21.0336 16.3874 20.6868 17.1895 20.6868 18.1063H16.873C16.873 16.9603 17.2198 15.8144 17.7976 14.8977C18.3754 13.981 19.3 13.1788 20.4557 12.6059C21.6114 12.0329 22.8827 11.8037 24.2695 11.8037C26.5809 11.8037 28.3144 12.3767 29.7013 13.5226C31.0881 14.6685 31.666 16.2728 31.666 18.3354C31.666 19.3668 31.3193 20.2835 30.6258 21.2002C29.9324 22.117 29.1234 22.8045 28.0833 23.2629C29.3546 23.7213 30.2791 24.4088 30.9725 25.3255C31.666 26.2423 32.0127 27.3882 32.0127 28.6487C32.0127 30.7113 31.3193 32.3156 29.9324 33.5761C28.5456 34.8366 26.6965 35.4096 24.3851 35.4096C22.1893 35.4096 20.3401 34.8366 18.9533 33.6907C17.5665 32.5448 16.873 30.9405 16.873 28.9925H20.6868C20.6868 30.0238 21.0336 30.8259 21.727 31.3989C22.4204 31.9719 23.3449 32.3156 24.5006 32.3156C25.6563 32.3156 26.5809 31.9719 27.2743 31.3989C27.9677 30.8259 28.3144 29.9092 28.3144 28.6487C28.3144 27.5028 27.9677 26.4715 27.2743 25.8985C26.5809 25.2109 25.5408 24.9818 24.0384 24.9818H21.727V21.8878H21.6114Z" fill="#EF7A38"/>
</svg>
