<svg version="1.1" id="Layer_1" xmlns="http://www.w3.org/2000/svg" xmlns:xlink="http://www.w3.org/1999/xlink" x="0px" y="0px"
	 viewBox="0 0 1680 900" enable-background="new 0 0 1680 900" xml:space="preserve">
<path fill="#FFD949" d="M828.6,911c-217.4,0-393.8-201.5-393.8-450S611.1,11,828.6,11s393.8,201.5,393.8,450S1046.1,911,828.6,911"
	/>
<path fill="#F4BF1A" d="M1222.4,461c0,229.8-150.8,419.3-345.5,446.5c15.8,2.2,31.9,3.5,48.2,3.5c217.5,0,393.8-201.5,393.8-450
	S1142.6,11,925.1,11c-16.4,0-32.4,1.3-48.2,3.5C1071.6,41.7,1222.4,231.1,1222.4,461"/>
<path fill="#F4BF1A" d="M827.3,823c-8.9,0-15.4-7.2-15.4-16c0-8.9,7.9-16.1,16.8-16.1c10,0,20.1-0.6,29.9-1.8
	c8.8-1,16.8,5.2,17.9,14c1,8.9-5.3,16.8-14.1,17.9c-11.1,1.3-22.4,2-33.7,2L827.3,823 M733.8,805.7c-1.9,0-3.8-0.4-5.6-1.1
	c-10.5-3.9-20.8-8.5-30.8-13.6c-7.9-4-11-13.7-7-21.6s13.7-11.1,21.6-7c8.9,4.6,18.1,8.7,27.4,12.2c8.3,3.1,12.5,12.4,9.4,20.7
	C746.4,801.7,740.3,805.7,733.8,805.7 M951.3,793.4c-5.8,0-11.5-3.2-14.4-8.7c-4-7.9-0.8-17.6,7.1-21.6c8.8-4.5,17.6-9.6,26-15.1
	c7.5-4.9,17.4-2.8,22.3,4.6s2.8,17.3-4.6,22.2c-9.4,6.1-19.2,11.8-29.1,16.8C956.2,792.8,953.7,793.4,951.3,793.4 M628.2,736.2
	c-4.2,0-8.3-1.6-11.4-4.7c-7.7-7.8-15.2-16.2-22.3-24.9c-5.6-6.9-4.6-17,2.3-22.6c6.9-5.6,17-4.6,22.6,2.3
	c6.4,7.9,13.2,15.5,20.2,22.5c6.2,6.3,6.2,16.4-0.1,22.7C636.4,734.6,632.3,736.2,628.2,736.2 M1049.5,713.6
	c-3.6,0-7.2-1.2-10.2-3.8c-6.8-5.6-7.8-15.7-2.2-22.6c6.3-7.7,12.4-15.9,18.1-24.3c5-7.3,15-9.3,22.3-4.3c7.3,4.9,9.3,14.9,4.3,22.3
	c-6.2,9.3-12.9,18.3-19.9,26.8C1058.8,711.6,1054.1,713.6,1049.5,713.6 M557.5,631c-6.2,0-12.1-3.6-14.8-9.6
	c-4.3-10.1-8.4-20.5-11.9-31c-2.8-8.5,1.7-17.6,10.1-20.4c8.5-2.8,17.6,1.7,20.4,10.1c3.2,9.6,6.9,19.2,10.9,28.4
	c3.6,8.2-0.2,17.6-8.3,21.2C561.8,630.6,559.7,631,557.5,631 M1110.8,602.6c-1.7,0-3.5-0.3-5.2-0.9c-8.4-2.9-12.9-12-10-20.4
	c3.2-9.6,6.1-19.4,8.6-29.3c2.2-8.6,10.9-13.9,19.5-11.7s13.9,10.9,11.7,19.5c-2.7,10.8-5.8,21.5-9.4,31.9
	C1123.7,598.4,1117.5,602.6,1110.8,602.6 M527.1,507.9c-8.3,0-15.3-6.5-16-14.9c-0.8-10.5-1.2-21.3-1.2-32v-1
	c0-8.8,7.2-15.5,16.1-15.5s16.1,7.7,16.1,16.6c0,9.8,0.3,19.8,1.1,29.5c0.7,8.9-5.9,16.6-14.8,17.3H527.1 M1131.3,477.2
	c-8.8,0-16-7.3-16.1-16.2c0-10.1-0.4-20.3-1.2-30.2c-0.7-8.8,5.9-16.6,14.8-17.3c8.9-0.6,16.6,6,17.3,14.8
	c0.9,10.7,1.3,21.7,1.3,32.7v0.3C1147.4,470.2,1140.2,477.2,1131.3,477.2 M537.7,381.4c-1.3,0-2.6-0.1-3.8-0.5
	c-8.6-2.2-13.9-10.9-11.7-19.5c2.7-10.7,5.8-21.4,9.4-31.8c2.9-8.4,12-12.9,20.4-10s12.9,12,10,20.4c-3.3,9.6-6.2,19.4-8.7,29.3
	C551.4,376.5,544.9,381.4,537.7,381.4 M1111,352.2c-6.7,0-12.9-4.2-15.2-11c-3.2-9.5-6.9-19.1-11-28.4c-3.5-8.2,0.2-17.6,8.3-21.2
	c8.2-3.5,17.6,0.2,21.2,8.3c4.4,10.1,8.4,20.6,12,31c2.8,8.4-1.7,17.6-10.1,20.4C1114.5,351.9,1112.7,352.2,1111,352.2 M589.1,265.5
	c-3.1,0-6.2-0.9-9-2.8c-7.4-5-9.3-15-4.3-22.3c6.3-9.2,13-18.2,20-26.7c5.6-6.9,15.8-7.8,22.6-2.2c6.9,5.6,7.8,15.8,2.2,22.6
	c-6.4,7.7-12.5,15.9-18.2,24.3C599.3,263,594.3,265.5,589.1,265.5 M1050,241.1c-4.7,0-9.3-2-12.4-5.9c-6.5-7.9-13.3-15.4-20.3-22.5
	c-6.2-6.3-6.2-16.4,0.1-22.7c6.3-6.2,16.4-6.2,22.7,0.1c7.8,7.8,15.3,16.1,22.4,24.8c5.6,6.9,4.6,17-2.3,22.6
	C1057.2,239.9,1053.6,241.1,1050,241.1 M679,176.3c-5.3,0-10.4-2.5-13.5-7.3c-4.8-7.4-2.7-17.3,4.7-22.2
	c9.4-6.2,19.2-11.8,29.1-16.8c8-4,17.6-0.8,21.6,7.1c4,7.9,0.8,17.6-7.1,21.6c-8.9,4.5-17.7,9.5-26.1,15
	C685,175.5,682,176.3,679,176.3 M951.9,161c-2.4,0-4.9-0.5-7.3-1.8c-9-4.6-18.2-8.6-27.5-12.1c-8.3-3.1-12.5-12.4-9.4-20.7
	c3.1-8.3,12.4-12.5,20.7-9.4c10.4,3.9,20.8,8.5,30.8,13.6c7.9,4,11,13.7,7,21.6C963.4,157.8,957.7,161,951.9,161 M797.5,132.9
	c-8,0-15-6-15.9-14.2c-1-8.8,5.3-16.8,14.1-17.8c10.9-1.3,21.9-1.9,32.9-1.9h0.7c8.9,0,15.7,7.1,15.7,16s-7.5,16.1-16.4,16.1
	c-9.7,0-19.5,0.6-29.2,1.7C798.8,132.9,798.1,132.9,797.5,132.9"/>
<path fill="#DCA815" d="M1222.4,477.1c-0.3,10.8-1,21.5-2,32.1h96.5c1-10.6,1.6-21.3,1.9-32.1H1222.4 M1218.7,396.7
	c1.4,10.6,2.3,21.3,3,32.1h96.4c-0.7-10.8-1.7-21.5-3-32.1H1218.7 M1213.6,557.4c-2.1,10.9-4.5,21.6-7.2,32.1h96.4
	c2.7-10.5,5.1-21.2,7.2-32.1H1213.6 M1191.1,637.8c-4.1,10.9-8.6,21.6-13.4,32.1h96.4c4.9-10.5,9.4-21.1,13.5-32.1H1191.1
	 M1202,316.3c3.1,10.6,5.8,21.3,8.3,32.1h96.5c-2.4-10.9-5.4-21.5-8.5-32.1H1202 M1169.9,236c5.3,10.4,10.3,21.2,14.8,32.1h96.5
	c-4.6-10.9-9.6-21.6-14.9-32.1H1169.9 M1104.3,139.6c9.2,10.2,17.9,20.9,26.1,32.1h96.5c-8.3-11.2-17-21.9-26.1-32.1H1104.3
	 M1006.1,59.2c16.4,9.5,32.2,20.2,47.2,32.1h96.6c-15-11.9-30.8-22.6-47.2-32.1L1006.1,59.2 M1141.7,734.2
	c-7.4,11.1-15.4,21.9-23.7,32.1h96.5c8.4-10.2,16.2-21,23.7-32.1H1141.7 M1072.3,814.6c-12.9,11.6-26.6,22.3-40.8,32.1h96.7
	c14.2-9.7,27.7-20.5,40.6-32.1H1072.3z"/>
<g>
	<path fill="#6E5631" d="M967.1,385.1c0.7,3.5,1.1,7,1.1,10.3v8.2c-0.3,4-0.8,8.6-1.5,13.8c-1,7.5-2.4,15.8-4.2,25l-2.4,11.9
		l-2.4,11.9c-4,19.5-6.7,34.8-8.3,45.9c-2.6,17.4-3.6,31.5-2.9,42.2c0.6,6.6,1.6,11.4,3.1,14.5c1,1.8,2,2.9,3.1,3.5
		c-0.6,0.1-0.8,0.5-0.7,1.1c0.3,0.6,1,1.2,2.2,1.8c0.7,0.4,2,1,4,1.5c1.6,0.4,1.4,0.8-0.7,1.1c-1.2,0.3-2.6,0.3-4.4,0
		c-2.1-0.4-3.5-1.1-4.4-2c-1-1-2.1-2.5-3.1-4.4c-0.9-1.9-1.8-4.7-2.9-8.3c-1-3.4-1.9-7.3-2.6-11.9l-0.7-5.7l-0.7-5.5l-0.7-4.8
		l-0.4-4.6c-0.3-3.2-0.6-5.8-0.9-7.7c-1.2-8.1-2.9-13.3-5.3-15.8c-0.7-0.6-0.3-5.8,1.3-15.6c1.5-8.6,3.2-17.7,5.3-27
		c-1.8,2.5-2.9,1.5-3.3-3.1c-0.1-2.9,0-8.7,0.4-17.4l0.2-5.3v-4.8c0.1-3.7,0.2-6.6,0.2-8.8c-0.3-5.9-1.2-8.4-2.6-7.7
		c0.6-3.8,1.1-7,1.5-9.4c0.4-3.5,0.7-6.7,0.9-9.4c0.1-3.7-0.1-6.4-0.7-8.3l-0.2-0.7c-1.6,0.4-3.7,1.6-6.2,3.5
		c-2.3,1.8-4.8,4-7.3,6.6c-4.1,4-8.5,8.9-13.2,14.9c-8.1,10.8-17.4,25.9-28.1,45c-6.9,11.4-13.3,22.6-19.3,33.4
		c-1.2,5.3-2.4,11.1-3.7,17.6c-0.4,2.1-1,4.7-1.8,7.9l-0.9,3.5l-0.7,3.3L845,522l-2.2,4.4L816.4,516l1.1-4.8l-8.1-3.3l8.3-15.8
		l4.8-7.9c3.4-18.9,6-35.5,7.9-49.9c1.9-14.9,3.1-28,3.5-39.3c0.4-7.9,0.1-13.6-1.1-17.1c0-0.6-0.1-1.1-0.4-1.5
		c-0.6-0.6-1.2-0.8-1.8-0.7l-0.4,0.9l-0.4,0.9l-0.9,0.9c-1,0.4-1.9,1-2.6,1.5c-4.7,4.1-8.7,8.2-12.1,12.3c-1.2,1.5-1.2,2.1,0,2
		c-14.1,16.6-28.9,37.3-44.6,62.2c-9.1,12.6-16.8,24-23.1,34.1l0.7,2c-1.5,3.2-3.4,6.8-5.7,10.8l-3.1,5.1l-2.9,4.8
		c-4.8,8.1-8.2,15-10.1,20.9c-0.6,1.9-0.7,2.9-0.2,2.9h0.4l0.4-0.2c0.4-0.1,0.7-0.1,0.9,0l-0.7,1.1l-2.4-1.1l-0.4,0.9l-40.9-16.5
		l0.4-0.9l-2.6-1.1c9.8-23.4,19.2-54.3,28.1-92.5c8.3-36.6,13.4-68.6,15.2-96c0.1-1.6,0.4-4,0.7-7l0.7-4.2l0.4-4.4
		c1-7.9,1.5-14.6,1.3-20l0.7-9.7c0.9,3.4,1.5,7.1,2,11.2l-0.9-6.6c-0.3-2.5-0.6-4.5-0.9-6.2l0.2-3.1c1.5,4.5,2.6,10.1,3.3,16.7
		c-0.3-3.1-0.7-6.2-1.1-9.2c-0.6-3.8-1.2-6.7-2-8.6v-0.2c1.5,3.8,2.6,9.2,3.3,16.3c0.1,2.6,0.3,5.6,0.4,9c0.1,2.3,0.2,5.1,0.2,8.3
		c0.4-7.6,0.8-12.2,1.1-13.8c0.4-1.8,1.1-1.5,2,0.7c0.9,2.6,1.6,6.8,2.2,12.5c0.6,6.7,0.8,14.1,0.7,22c0-1.2,0.1-2.8,0.2-4.8v-2.9
		l0.2-2.6c0.1-4,0.3-5.9,0.4-5.7c1.2,0.9,1.3,5.9,0.4,15.2l-0.7,5.3l-0.7,5.3c-0.6,3.8-0.9,6.2-0.9,7.3c0.9,0.9,1.8-4.5,2.6-16
		l0.4-6.6l0.2-3.3v-2.9c0.3-4.2,0.7-6.7,1.1-7.5l0.2,8.3v8.6c-0.1,6.4-0.5,12-1.1,16.7c0.3,1.8,0.7,1.4,1.1-1.1
		c0.3-2,0.6-5.3,0.9-9.7l0.2-5.9V329l0.2-2.4c0.1-3.4,0.4-5,0.7-4.8c-0.3,8.8-0.9,18.1-1.8,27.9c1-5.6,2.3-8.2,3.7-7.9l0.7,0.2
		c0.3,0.1,0.6,0.1,0.9,0c0.6-0.4,1.1-1.8,1.5-4l1.8-5.3l1.3-5.3c1.2-4,2-6.4,2.6-7.3c0.7-1.5,1.4-0.7,2,2.2c0.7,3.5,1.1,9.5,1.1,18
		c0.7,7.3-0.4,21-3.5,41.1c2-6.7,3.9-13.8,5.5-21.1c-0.1,9.2-0.7,19.6-1.5,31.2l3.5-4.6c7-9.1,13.8-17.4,20.4-24.8
		c4.1-4.4,8.1-8.4,11.9-12.1l3.5-3.3l2.4-2.2l2.9-2.4c3.1-2.6,6.8-5.4,11.2-8.3c8.2-5.3,16-8.4,23.5-9.4c8.6-1.2,16.1,0.4,22.4,4.8
		c5.9,4.1,10.3,10.2,13.2,18.2c2.5,6.9,3.8,15.6,4,26.1v7l-0.2,5.5l-0.4,8.1l-0.4,5.1l-0.4,4.8c4.8-6.4,9.2-11.9,13-16.3
		c7.8-9.1,14.6-16,20.7-20.7c3.1-2.3,6-4.2,8.8-5.7c2.2-1.2,4.3-2,6.4-2.6c1.3-0.4,2.8-0.9,4.4-1.3c0.7-0.1,1.7-0.3,2.9-0.4h1.3
		l0.7-0.2h0.4h2.9l1.5,0.2c1.3,0,2.9,0.2,4.6,0.7c1.9,0.4,3.5,1,4.8,1.5c4.8,2.1,8.9,5.1,12.3,9.2c2.3,3.1,4.1,6.2,5.3,9.4
		c0.4,1,0.9,2.3,1.3,3.7l0.4,1.5L967.1,385.1L967.1,385.1z"/>
</g>
</svg>
